<svg width="540" height="33" viewBox="0 0 540 33" fill="none" xmlns="http://www.w3.org/2000/svg">
<path d="M145.798 13.5946L126.182 32.9812H97.6803L118.704 12.2031L117.734 11.357H104.492L94.3507 2.42523L96.7861 0.0183636H132.365L145.74 11.7895C146.292 12.2596 146.311 13.1057 145.798 13.6134V13.5946Z" fill="white"/>
<path d="M35.2174 20.2887L29.833 25.6102H30.6131L34.0378 23.0341C34.6276 22.5828 35.3506 22.3571 36.0926 22.3571H49.3348L46.4809 25.1777C45.7008 25.9486 44.6925 26.4751 43.5889 26.682L26.5225 29.7658C25.8566 29.8786 25.2287 30.2171 24.734 30.6872L22.3938 33H0L13.2232 19.9314C13.851 19.3109 14.6121 18.8032 15.4492 18.4648L28.0446 13.4066C29.5667 12.8049 31.1839 12.4852 32.8201 12.4852H59.7231L52.7786 19.3485H37.6147C36.7205 19.3485 35.8643 19.7058 35.2365 20.3263L35.2174 20.2887Z" fill="white"/>
<path d="M102.132 13.5946L82.5165 32.9812H54.0153L75.0392 12.2031L74.0689 11.357H60.8266L50.6857 2.42523L53.1211 0.0183636H88.7L102.075 11.7895C102.627 12.2596 102.646 13.1057 102.132 13.6134V13.5946Z" fill="white"/>
<path d="M475.92 20.8345C475.92 19.6498 476.3 18.7285 477.176 17.8635L480.943 14.1404C481.818 13.2754 482.769 12.8993 483.949 12.8993H532.161V7.07018H476.548V5.97753e-07H531.971C533.093 5.97753e-07 534.102 0.376074 534.977 1.24104L538.801 4.96417C539.677 5.82914 540 6.82573 540 7.93515V12.3352C540 13.5763 539.696 14.4976 538.744 15.3626L534.92 18.8413C533.912 19.7627 533.036 20.0823 531.914 20.0823H483.759V26.0243H540V32.9628H475.92V20.8157V20.8345Z" fill="white"/>
<path d="M169.847 0H186.78L200.079 25.4038H203.694L216.993 0H233.927V32.85H225.65L226.031 7.44625H222.644L208.717 32.85H195.075L181.148 7.44625H177.762L178.142 32.85H169.866V0H169.847Z" fill="white"/>
<path d="M306.321 7.93515V32.9816H298.045V23.9371H250.479V32.9816H242.203V7.93515C242.203 6.75052 242.584 5.82914 243.459 4.96417L247.226 1.24104C248.101 0.376074 249.053 5.97753e-07 250.232 5.97753e-07H298.311C299.51 5.97753e-07 300.442 0.376074 301.317 1.24104L305.085 4.96417C305.96 5.82914 306.34 6.76932 306.34 7.93515H306.321ZM298.045 16.4908V7.42745H250.479V16.472H298.045V16.4908Z" fill="white"/>
<path d="M319.62 31.7218L315.853 27.9987C314.977 27.1337 314.597 26.1935 314.597 25.0277V7.93515C314.597 6.75052 314.977 5.82914 315.853 4.96417L319.62 1.24104C320.495 0.376074 321.446 5.97753e-07 322.626 5.97753e-07H378.715V7.42745H322.873V25.5166H378.715V32.944H322.626C321.427 32.944 320.495 32.568 319.62 31.703V31.7218Z" fill="white"/>
<path d="M451.091 5.97753e-07V32.9628H442.815V20.1951H395.288V32.9628H387.011V5.97753e-07H395.288V12.7677H442.815V5.97753e-07H451.091Z" fill="white"/>
</svg>
