<svg width="22" height="20" viewBox="0 0 22 20" fill="none" xmlns="http://www.w3.org/2000/svg">
<g clip-path="url(#clip0_12678_27878)">
<path d="M21.6799 9.55321H14.6211C14.4338 9.49587 14.2464 9.43375 14.0591 9.36686C13.1226 9.01804 12.4376 8.43987 12.0523 7.60367C11.9506 7.37909 11.8596 7.14973 11.774 6.92037V0.713379H10.5805V7.05417C10.5538 7.12584 10.5324 7.19751 10.5056 7.26919C10.0882 8.3443 9.29614 9.07538 8.09201 9.45764C7.97427 9.49587 7.85654 9.52454 7.74415 9.55321H0.679932V10.6188H7.70134C7.76556 10.6379 7.82978 10.6522 7.89935 10.6713C8.47198 10.8481 9.00715 11.0775 9.46204 11.4454C9.98651 11.8659 10.3023 12.4058 10.5324 12.9888C10.5484 13.0366 10.5645 13.0796 10.5805 13.1274V19.4586H11.774V13.242C11.8168 13.1178 11.8649 12.9888 11.9131 12.8646C12.3145 11.8755 13.0423 11.173 14.1501 10.786C14.3267 10.7239 14.5033 10.6666 14.6799 10.6188H21.6746V9.55321H21.6799Z" fill="#ED3242"/>
</g>
<defs>
<clipPath id="clip0_12678_27878">
<rect width="21" height="18.75" fill="white" transform="translate(0.679932 0.713379)"/>
</clipPath>
</defs>
</svg>
