<svg width="286" height="178" viewBox="0 0 286 178" fill="none" xmlns="http://www.w3.org/2000/svg">
<rect x="0.236328" y="0.236816" width="284.929" height="177.509" fill="#ED1C24"/>
<path d="M-0.421875 160.39L-0.421875 161.078L285.165 161.078L285.165 160.39L-0.421875 160.39Z" fill="#D54D45"/>
<path d="M-0.421875 137.622L-0.421875 138.31L285.165 138.31L285.165 137.622L-0.421875 137.622Z" fill="#D54D45"/>
<path d="M-0.525391 114.853L-0.525391 115.54L285.062 115.54L285.062 114.853L-0.525391 114.853Z" fill="#D54D45"/>
<path d="M-0.525391 91.9994L-0.525391 92.6867L285.062 92.6867L285.062 91.9993L-0.525391 91.9994Z" fill="#D54D45"/>
<path d="M-0.525391 69.2298L-0.525391 69.9172L285.062 69.9172L285.062 69.2298L-0.525391 69.2298Z" fill="#D54D45"/>
<path d="M-0.525391 46.4616L-0.525391 47.149L285.062 47.149L285.062 46.4616L-0.525391 46.4616Z" fill="#D54D45"/>
<path d="M-0.525391 23.6936L-0.525391 24.3809L285.062 24.3809L285.062 23.6936L-0.525391 23.6936Z" fill="#D54D45"/>
<path d="M269.863 0.238342L269.863 177.661L270.587 177.661L270.587 0.238342L269.863 0.238342Z" fill="#D54D45"/>
<path d="M242.463 0.323608L242.463 177.746L243.187 177.746L243.187 0.323608L242.463 0.323608Z" fill="#D54D45"/>
<path d="M215.061 0.323608L215.061 177.746L215.784 177.746L215.784 0.323608L215.061 0.323608Z" fill="#D54D45"/>
<path d="M187.66 0.323608L187.66 177.746L188.384 177.746L188.384 0.323608L187.66 0.323608Z" fill="#D54D45"/>
<path d="M160.26 0.323608L160.26 177.746L160.984 177.746L160.984 0.323608L160.26 0.323608Z" fill="#D54D45"/>
<path d="M132.859 0.409531L132.859 177.746L133.583 177.746L133.583 0.409531L132.859 0.409531Z" fill="#D54D45"/>
<path d="M105.354 0.409531L105.354 177.746L106.077 177.746L106.077 0.409531L105.354 0.409531Z" fill="#D54D45"/>
<path d="M77.9551 0.409531L77.9551 177.746L78.6789 177.746L78.6789 0.409531L77.9551 0.409531Z" fill="#D54D45"/>
<path d="M50.5527 0.409531L50.5527 177.746L51.2765 177.746L51.2765 0.409531L50.5527 0.409531Z" fill="#D54D45"/>
<path d="M23.1523 0.409531L23.1523 177.746L23.8761 177.746L23.8761 0.409531L23.1523 0.409531Z" fill="#D54D45"/>
<path d="M37.4798 49.8513H41.9294L44.5803 47.4706H35.3023C35.3023 47.4706 34.4502 47.4706 34.0715 47.661L29.6218 49.5656H29.5272L23.9414 54.8033H31.7047L32.178 54.4224C32.178 54.4224 32.8407 53.9462 33.2194 53.851L39.2786 52.2321C39.2786 52.2321 39.5626 52.1369 39.6573 52.0416L40.7934 50.9941H36.249L34.5449 52.5178H34.3555L36.8171 50.137C36.8171 50.137 37.3851 49.7561 37.7638 49.7561L37.4798 49.8513Z" fill="white"/>
<path d="M59.4452 47.7569C59.4452 47.7569 59.4452 47.5664 59.4452 47.4712C59.4452 47.4712 59.4452 47.2807 59.3505 47.1855L56.7943 44.7095L55.6582 43.5668L54.9955 42.9001H42.4039L41.6465 43.662L44.8654 46.8998H49.5991L49.9778 47.376L43.0666 53.6612C43.0666 53.6612 42.7826 54.0421 42.7826 54.3278V54.7087H51.9659L55.8476 51.09L59.4452 47.7569V47.7569Z" fill="white"/>
<path d="M74.7811 47.4712C74.7811 47.4712 74.7811 47.2807 74.6864 47.1855L72.1302 44.7095L70.9941 43.5668L70.3314 42.9001H57.7398L56.9824 43.662L60.2013 46.8998H64.935L65.3137 47.376L58.4025 53.6612C58.4025 53.6612 58.1185 54.0421 58.1185 54.3278V54.7087H67.3019L71.1835 51.09L74.7811 47.7569C74.7811 47.7569 74.7811 47.5664 74.7811 47.4712V47.4712Z" fill="white"/>
<path d="M38.8061 111.086C38.8061 109.848 37.7647 108.895 36.534 108.895H33.5044C32.2736 108.895 31.3269 107.943 31.3269 106.705V103.658C31.3269 102.42 30.2855 101.467 29.0547 101.467H26.0252C24.7944 101.467 23.8477 100.515 23.8477 99.277V64.0418H31.2322V99.277C31.2322 100.515 32.2736 101.467 33.5044 101.467H36.534C37.7647 101.467 38.8061 102.42 38.8061 103.658V106.705C38.8061 107.943 39.8475 108.895 41.0783 108.895H44.1079C45.3386 108.895 46.38 107.848 46.38 106.61V103.562C46.38 102.324 47.3268 101.372 48.5575 101.372H51.5871C52.8179 101.372 53.8593 100.324 53.8593 99.0865V63.8513H61.2438V99.0865C61.2438 100.324 60.2971 101.277 59.0663 101.277H56.0368C54.806 101.277 53.8593 102.324 53.8593 103.562V106.61C53.8593 107.848 52.9125 108.8 51.5871 108.8H48.5575C47.3268 108.8 46.38 109.848 46.38 111.086V114.133C46.38 115.371 45.4333 116.323 44.1079 116.323H41.0783C39.8475 116.323 38.9008 115.371 38.9008 114.133V111.086H38.8061Z" fill="white"/>
<path d="M87.3742 106.895C87.3742 107.848 88.1316 108.705 89.173 108.705H102.333V116.228H89.2677C88.3209 116.228 87.4689 115.466 87.4689 114.514V110.99C87.4689 109.752 86.4274 108.8 85.1967 108.8H82.1671C80.9364 108.8 79.8949 109.847 79.8949 111.085V114.609C79.8949 115.561 79.1375 116.418 78.0961 116.418H64.9365V108.99H78.0015C78.9482 108.99 79.8003 108.228 79.8003 107.181V73.4694C79.8003 72.5171 78.9482 71.66 78.0015 71.66H64.8418V64.1369H77.9068C78.8535 64.1369 79.7056 64.8987 79.7056 65.9462V69.4697C79.7056 70.7077 80.747 71.7553 81.9778 71.66H85.0073C86.2381 71.66 87.1848 70.6125 87.1848 69.3745V65.851C87.1848 64.8987 87.9422 64.0416 88.9836 64.0416H102.143V71.4696H89.0783C88.1316 71.4696 87.2795 72.2314 87.2795 73.279V106.99L87.3742 106.895Z" fill="white"/>
<path d="M143.893 73.5646V91.5632C143.893 92.8012 142.947 93.7535 141.716 93.7535H138.686C137.456 93.7535 136.509 94.801 136.509 96.039V99.0864C136.509 100.324 135.562 101.277 134.331 101.277H121.645V93.8487H134.331C135.562 93.8487 136.509 92.8012 136.509 91.5632V73.5646C136.509 72.3267 135.467 71.3744 134.237 71.3744H116.343C115.113 71.3744 114.166 72.4219 114.166 73.6599V116.323H106.781V73.6599C106.781 72.4219 107.728 71.4696 108.959 71.4696H111.988C113.219 71.4696 114.166 70.4221 114.166 69.2793V66.2319C114.166 64.9939 115.113 64.0416 116.343 64.0416H134.237C135.467 64.0416 136.414 64.9939 136.414 66.2319V69.2793C136.414 70.5173 137.361 71.4696 138.592 71.4696H141.621C142.852 71.4696 143.799 72.4219 143.799 73.6599L143.893 73.5646Z" fill="white"/>
<path d="M43.5385 133.464H42.6864L40.793 128.417V128.131H41.645L43.1598 132.226L44.5799 128.131H45.432V128.417L43.5385 133.464Z" fill="white"/>
<path d="M49.6915 133.464H46.2832V128.131H49.6915V128.893H47.2299V130.417H49.4074V131.178H47.3246V132.702H49.7861V133.464H49.6915Z" fill="white"/>
<path d="M51.6811 133.464H50.7344V128.131H53.0065C53.4799 128.131 53.9533 128.322 54.2373 128.607C54.5213 128.893 54.616 129.274 54.616 129.845C54.616 130.226 54.616 130.512 54.332 130.798C54.1426 131.083 53.9533 131.274 53.6693 131.369L54.616 133.178V133.464H53.7639L52.6279 131.464H51.5864V133.464H51.6811ZM51.6811 128.893V130.607H52.9119C53.4799 130.607 53.7639 130.321 53.7639 129.75C53.7639 129.179 53.4799 128.893 52.9119 128.893H51.6811Z" fill="white"/>
<path d="M57.8334 133.464H56.8867V131.369L55.0879 128.417V128.131H55.94L57.2654 130.512L58.6855 128.131H59.5376V128.417L57.7388 131.274V133.464H57.8334Z" fill="white"/>
<path d="M63.1362 133.464H62.1895V128.131H63.1362V133.464Z" fill="white"/>
<path d="M68.3426 129.75L67.1118 131.75H66.5438L65.313 129.75V133.464H64.4609V128.131H65.313L66.8278 130.607L68.3426 128.131H69.1946V133.464H68.3426V129.75V129.75Z" fill="white"/>
<path d="M71.4682 133.369H70.5215V128.036H72.7937C72.7937 128.036 73.6457 128.226 73.9297 128.512C74.2138 128.798 74.3084 129.179 74.3084 129.75C74.3084 130.321 74.2138 130.607 73.9297 130.988C73.6457 131.274 73.267 131.464 72.7937 131.464H71.3735V133.559L71.4682 133.369ZM71.4682 128.798V130.512H72.699C72.699 130.512 73.0777 130.512 73.267 130.321C73.3617 130.131 73.4564 129.94 73.4564 129.75C73.4564 129.56 73.4564 129.274 73.267 129.179C73.1724 128.988 72.983 128.988 72.699 128.988H71.4682V128.798Z" fill="white"/>
<path d="M75.2539 131.655V129.94C75.2539 129.369 75.4432 128.893 75.8219 128.512C76.2006 128.131 76.674 128.036 77.3367 128.036C77.9994 128.036 78.4728 128.226 78.8515 128.512C79.2302 128.893 79.4196 129.274 79.4196 129.94V131.655C79.4196 132.226 79.2302 132.702 78.8515 133.083C78.4728 133.464 77.9994 133.559 77.3367 133.559C76.674 133.559 76.2006 133.369 75.8219 133.083C75.4432 132.702 75.2539 132.321 75.2539 131.655ZM78.4728 131.655V129.845C78.4728 129.845 78.3781 129.274 78.1888 129.083C77.9994 128.893 77.7154 128.798 77.3367 128.798C76.958 128.798 76.674 128.798 76.4847 129.083C76.2953 129.369 76.2006 129.56 76.2006 129.845V131.655C76.2006 131.655 76.2953 132.226 76.4847 132.416C76.674 132.607 76.958 132.702 77.3367 132.702C77.7154 132.702 77.9994 132.607 78.1888 132.416C78.3781 132.226 78.4728 131.94 78.4728 131.655Z" fill="white"/>
<path d="M81.5014 133.369H80.5547V128.036H82.8269C83.3002 128.036 83.7736 128.226 83.963 128.512C84.247 128.798 84.3416 129.179 84.3416 129.75C84.3416 130.131 84.3416 130.417 84.0576 130.702C83.8683 130.988 83.6789 131.178 83.3949 131.274L84.3416 133.083V133.369H83.4896L82.4482 131.369H81.4068V133.369H81.5014ZM81.5014 128.798V130.512H82.7322C83.3002 130.512 83.5843 130.226 83.5843 129.655C83.5843 129.083 83.3002 128.798 82.7322 128.798H81.5014Z" fill="white"/>
<path d="M87.5611 133.369H86.6144V128.798H85.0996V128.036H89.0759V128.798H87.5611V133.369Z" fill="white"/>
<path d="M89.8345 133.369H88.9824V133.083L90.8759 128.036H91.728L93.6214 133.083V133.369H92.7694L92.296 132.036H90.3079L89.8345 133.369V133.369ZM91.3493 129.274L90.5919 131.274H92.012L91.2546 129.274H91.3493Z" fill="white"/>
<path d="M95.4194 133.369H94.4727V128.036H95.3247L97.5969 131.655V128.036H98.5436V133.369H97.6916L95.4194 129.75V133.369Z" fill="white"/>
<path d="M101.762 133.369H100.816V128.798H99.3008V128.036H103.277V128.798H101.762V133.369Z" fill="white"/>
<path d="M106.687 133.369H105.74V128.036H108.012C108.012 128.036 108.864 128.226 109.148 128.512C109.433 128.798 109.527 129.179 109.527 129.75C109.527 130.321 109.433 130.607 109.148 130.988C108.864 131.274 108.486 131.464 108.012 131.464H106.592V133.559L106.687 133.369ZM106.687 128.798V130.512H107.918C107.918 130.512 108.296 130.512 108.486 130.321C108.58 130.131 108.675 129.94 108.675 129.75C108.675 129.56 108.675 129.274 108.486 129.179C108.391 128.988 108.202 128.988 107.918 128.988H106.687V128.798Z" fill="white"/>
<path d="M111.419 133.369H110.473V128.036H111.419V133.369Z" fill="white"/>
<path d="M116.248 133.369H112.84V128.036H113.787V132.607H116.343V133.369H116.248Z" fill="white"/>
<path d="M116.91 131.559V129.845C116.91 129.274 117.1 128.798 117.478 128.417C117.857 128.036 118.33 127.941 118.993 127.941C119.656 127.941 120.129 128.131 120.508 128.417C120.886 128.798 121.076 129.179 121.076 129.845V131.559C121.076 132.131 120.886 132.607 120.508 132.988C120.129 133.369 119.656 133.464 118.993 133.464C118.33 133.464 117.857 133.274 117.478 132.988C117.1 132.607 116.91 132.226 116.91 131.559ZM120.129 131.559V129.75C120.129 129.75 120.034 129.179 119.845 128.988C119.656 128.798 119.372 128.703 118.993 128.703C118.614 128.703 118.33 128.703 118.141 128.988C117.952 129.274 117.857 129.464 117.857 129.75V131.559C117.857 131.559 117.952 132.131 118.141 132.321C118.33 132.512 118.614 132.607 118.993 132.607C119.372 132.607 119.656 132.512 119.845 132.321C120.034 132.131 120.129 131.845 120.129 131.559Z" fill="white"/>
<path d="M124.202 133.369H123.255V128.798H121.74V128.036H125.717V128.798H124.202V133.369Z" fill="white"/>
<path d="M143.135 130.704H127.514V131.275H143.135V130.704Z" fill="white"/>
<path d="M38.711 130.797H23.0898V131.368H38.711V130.797Z" fill="white"/>
<path d="M79.4698 45.8001H81.1498L83.9743 50.5356L86.7988 45.8001H88.4473V52.6251H86.8093V48.4881L84.3418 52.6251H83.6068L81.1078 48.4146V52.6251H79.4698V45.8001ZM93.9016 47.3331L92.4736 50.0421H95.3296L93.9016 47.3331ZM93.0826 45.8001H94.7311L98.4796 52.6251H96.7051L95.9806 51.2601H91.8331L91.1086 52.6251H89.3341L93.0826 45.8001ZM100.602 45.8001H104.498C105.443 45.8001 106.22 46.5771 106.22 47.5221V48.2046H104.582V47.8581C104.582 47.5326 104.309 47.2701 103.983 47.2701H101.106C100.781 47.2701 100.518 47.5326 100.518 47.8581V50.5671C100.518 50.9031 100.781 51.1656 101.106 51.1656H103.983C104.309 51.1656 104.582 50.9031 104.582 50.5671V50.2206H106.22V50.9031C106.22 51.8586 105.443 52.6251 104.498 52.6251H100.602C99.647 52.6251 98.8805 51.8586 98.8805 50.9031V47.5221C98.8805 46.5771 99.647 45.8001 100.602 45.8001ZM107.248 45.8001H108.886V48.4566H112.949V45.8001H114.587V52.6251H112.949V49.8426H108.886V52.6251H107.248V45.8001ZM121.739 45.8001H125.551C126.506 45.8001 127.273 46.5771 127.273 47.5221V48.1941C127.273 50.3676 121.508 50.1156 121.508 51.0606V51.2391H127.294V52.6251H119.87V50.7981C119.87 48.6561 125.635 48.8241 125.635 47.9316V47.7741C125.635 47.4696 125.393 47.2701 125.089 47.2701H122.243C121.918 47.2701 121.666 47.5326 121.655 47.8581V48.0786H120.017V47.5221C120.017 46.5771 120.784 45.8001 121.739 45.8001Z" fill="white"/>
<path d="M24.9267 143.311C23.9599 143.311 23.0898 142.561 23.0898 141.53C23.0898 140.498 23.8632 139.748 24.9267 139.748C25.9901 139.748 26.7635 140.498 26.7635 141.53C26.7635 142.561 25.9901 143.311 24.9267 143.311ZM31.7906 141.53C31.7906 140.592 31.0172 139.748 29.9537 139.748C28.8903 139.748 28.1169 140.498 28.1169 141.53C28.1169 142.561 28.8903 143.311 29.9537 143.311C30.9205 143.311 31.7906 142.561 31.7906 141.53ZM36.8176 141.53C36.8176 140.592 36.0442 139.748 34.9808 139.748C33.9174 139.748 33.144 140.498 33.144 141.53C33.144 142.561 33.9174 143.311 34.9808 143.311C35.9476 143.311 36.8176 142.561 36.8176 141.53ZM41.8447 141.53C41.8447 140.592 41.0713 139.748 40.0079 139.748C38.9445 139.748 38.1711 140.498 38.1711 141.53C38.1711 142.561 38.9445 143.311 40.0079 143.311C40.9746 143.311 41.8447 142.561 41.8447 141.53ZM47.0651 141.53C47.0651 140.592 46.2917 139.748 45.2283 139.748C44.1649 139.748 43.3915 140.498 43.3915 141.53C43.3915 142.561 44.1649 143.311 45.2283 143.311C46.1951 143.311 47.0651 142.561 47.0651 141.53ZM57.1193 141.53C57.1193 140.592 56.3459 139.748 55.2825 139.748C54.2191 139.748 53.4457 140.498 53.4457 141.53C53.4457 142.561 54.2191 143.311 55.2825 143.311C56.2492 143.311 57.1193 142.561 57.1193 141.53ZM62.1464 141.53C62.1464 140.592 61.373 139.748 60.3096 139.748C59.2461 139.748 58.4727 140.498 58.4727 141.53C58.4727 142.561 59.2461 143.311 60.3096 143.311C61.2763 143.311 62.1464 142.561 62.1464 141.53ZM26.8602 146.406C26.8602 145.468 26.0868 144.624 25.0233 144.624C23.9599 144.624 23.1865 145.374 23.1865 146.406C23.1865 147.437 23.9599 148.187 25.0233 148.187C25.9901 148.187 26.8602 147.437 26.8602 146.406ZM36.9143 146.406C36.9143 145.468 36.1409 144.624 35.0775 144.624C34.0141 144.624 33.2407 145.374 33.2407 146.406C33.2407 147.437 34.0141 148.187 35.0775 148.187C36.0442 148.187 36.9143 147.437 36.9143 146.406ZM41.9414 146.406C41.9414 145.468 41.168 144.624 40.1046 144.624C39.0411 144.624 38.2678 145.374 38.2678 146.406C38.2678 147.437 39.0411 148.187 40.1046 148.187C41.0713 148.187 41.9414 147.437 41.9414 146.406ZM47.1618 146.406C47.1618 145.468 46.3884 144.624 45.325 144.624C44.2616 144.624 43.4882 145.374 43.4882 146.406C43.4882 147.437 44.2616 148.187 45.325 148.187C46.2917 148.187 47.1618 147.437 47.1618 146.406ZM52.1889 146.406C52.1889 145.468 51.4155 144.624 50.3521 144.624C49.2887 144.624 48.5153 145.374 48.5153 146.406C48.5153 147.437 49.2887 148.187 50.3521 148.187C51.3188 148.187 52.1889 147.437 52.1889 146.406ZM57.216 146.406C57.216 145.468 56.4426 144.624 55.3791 144.624C54.3157 144.624 53.5423 145.374 53.5423 146.406C53.5423 147.437 54.3157 148.187 55.3791 148.187C56.3459 148.187 57.216 147.437 57.216 146.406ZM26.9568 151.281C26.9568 150.344 26.1834 149.5 25.12 149.5C24.0566 149.5 23.2832 150.25 23.2832 151.281C23.2832 152.313 24.0566 153.063 25.12 153.063C26.0868 153.063 26.9568 152.313 26.9568 151.281ZM31.9839 151.281C31.9839 150.344 31.2105 149.5 30.1471 149.5C29.0837 149.5 28.3103 150.25 28.3103 151.281C28.3103 152.313 29.0837 153.063 30.1471 153.063C31.1138 153.063 31.9839 152.313 31.9839 151.281ZM37.011 151.281C37.011 150.344 36.2376 149.5 35.1742 149.5C34.1107 149.5 33.3373 150.25 33.3373 151.281C33.3373 152.313 34.1107 153.063 35.1742 153.063C36.1409 153.063 37.011 152.313 37.011 151.281ZM42.0381 151.281C42.0381 150.344 41.2647 149.5 40.2012 149.5C39.1378 149.5 38.3644 150.25 38.3644 151.281C38.3644 152.313 39.1378 153.063 40.2012 153.063C41.168 153.063 42.0381 152.313 42.0381 151.281ZM47.2585 151.281C47.2585 150.344 46.4851 149.5 45.4217 149.5C44.3582 149.5 43.5848 150.25 43.5848 151.281C43.5848 152.313 44.3582 153.063 45.4217 153.063C46.3884 153.063 47.2585 152.313 47.2585 151.281ZM57.3126 151.281C57.3126 150.344 56.5392 149.5 55.4758 149.5C54.4124 149.5 53.639 150.25 53.639 151.281C53.639 152.313 54.4124 153.063 55.4758 153.063C56.4426 153.063 57.3126 152.313 57.3126 151.281ZM62.3397 151.281C62.3397 150.344 61.5663 149.5 60.5029 149.5C59.4395 149.5 58.6661 150.25 58.6661 151.281C58.6661 152.313 59.4395 153.063 60.5029 153.063C61.4696 153.063 62.3397 152.313 62.3397 151.281ZM27.0535 156.157C27.0535 155.22 26.2801 154.376 25.2167 154.376C24.1533 154.376 23.3799 155.126 23.3799 156.157C23.3799 157.189 24.1533 157.939 25.2167 157.939C26.1834 157.939 27.0535 157.189 27.0535 156.157ZM37.1077 156.157C37.1077 155.22 36.3343 154.376 35.2708 154.376C34.2074 154.376 33.434 155.126 33.434 156.157C33.434 157.189 34.2074 157.939 35.2708 157.939C36.2376 157.939 37.1077 157.189 37.1077 156.157ZM42.1347 156.157C42.1347 155.22 41.3613 154.376 40.2979 154.376C39.2345 154.376 38.4611 155.126 38.4611 156.157C38.4611 157.189 39.2345 157.939 40.2979 157.939C41.2647 157.939 42.1347 157.189 42.1347 156.157ZM47.3552 156.157C47.3552 155.22 46.5818 154.376 45.5183 154.376C44.4549 154.376 43.6815 155.126 43.6815 156.157C43.6815 157.189 44.4549 157.939 45.5183 157.939C46.4851 157.939 47.3552 157.189 47.3552 156.157ZM52.3822 156.157C52.3822 155.22 51.6088 154.376 50.5454 154.376C49.5787 154.376 48.7086 155.126 48.7086 156.157C48.7086 157.189 49.482 157.939 50.5454 157.939C51.5122 157.939 52.3822 157.189 52.3822 156.157ZM57.4093 156.157C57.4093 155.22 56.6359 154.376 55.5725 154.376C54.5091 154.376 53.7357 155.126 53.7357 156.157C53.7357 157.189 54.5091 157.939 55.5725 157.939C56.5392 157.939 57.4093 157.189 57.4093 156.157ZM62.4364 156.157C62.4364 155.22 61.663 154.376 60.5996 154.376C59.5362 154.376 58.7628 155.126 58.7628 156.157C58.7628 157.189 59.5362 157.939 60.5996 157.939C61.5663 157.939 62.4364 157.189 62.4364 156.157Z" fill="#C0342B"/>
<path d="M65.8192 143.311C64.8525 143.311 63.9824 142.561 63.9824 141.529C63.9824 140.498 64.7558 139.748 65.8192 139.748C66.8827 139.748 67.6561 140.498 67.6561 141.529C67.6561 142.561 66.8827 143.311 65.8192 143.311ZM72.6831 141.529C72.6831 140.592 71.9097 139.748 70.8463 139.748C69.7829 139.748 69.0095 140.498 69.0095 141.529C69.0095 142.561 69.7829 143.311 70.8463 143.311C71.8131 143.311 72.6831 142.561 72.6831 141.529ZM77.7102 141.529C77.7102 140.592 76.9368 139.748 75.8734 139.748C74.81 139.748 74.0366 140.498 74.0366 141.529C74.0366 142.561 74.81 143.311 75.8734 143.311C76.8401 143.311 77.7102 142.561 77.7102 141.529ZM82.7373 141.529C82.7373 140.592 81.9639 139.748 80.9005 139.748C79.837 139.748 79.0637 140.498 79.0637 141.529C79.0637 142.561 79.837 143.311 80.9005 143.311C81.8672 143.311 82.7373 142.561 82.7373 141.529ZM87.9577 141.529C87.9577 140.592 87.1843 139.748 86.1209 139.748C85.0575 139.748 84.2841 140.498 84.2841 141.529C84.2841 142.561 85.0575 143.311 86.1209 143.311C87.0876 143.311 87.9577 142.561 87.9577 141.529ZM98.0119 141.529C98.0119 140.592 97.2385 139.748 96.1751 139.748C95.1116 139.748 94.3382 140.498 94.3382 141.529C94.3382 142.561 95.1116 143.311 96.1751 143.311C97.1418 143.311 98.0119 142.561 98.0119 141.529ZM103.039 141.529C103.039 140.592 102.266 139.748 101.202 139.748C100.139 139.748 99.3653 140.498 99.3653 141.529C99.3653 142.561 100.139 143.311 101.202 143.311C102.169 143.311 103.039 142.561 103.039 141.529ZM67.7527 146.405C67.7527 145.468 66.9793 144.624 65.9159 144.624C64.8525 144.624 64.0791 145.374 64.0791 146.405C64.0791 147.437 64.8525 148.187 65.9159 148.187C66.8827 148.187 67.7527 147.437 67.7527 146.405ZM77.8069 146.405C77.8069 145.468 77.0335 144.624 75.9701 144.624C74.9067 144.624 74.1333 145.374 74.1333 146.405C74.1333 147.437 74.9067 148.187 75.9701 148.187C76.9368 148.187 77.8069 147.437 77.8069 146.405ZM82.834 146.405C82.834 145.468 82.0606 144.624 80.9971 144.624C79.9337 144.624 79.1603 145.374 79.1603 146.405C79.1603 147.437 79.9337 148.187 80.9971 148.187C81.9639 148.187 82.834 147.437 82.834 146.405ZM88.0544 146.405C88.0544 145.468 87.281 144.624 86.2176 144.624C85.1542 144.624 84.3808 145.374 84.3808 146.405C84.3808 147.437 85.1542 148.187 86.2176 148.187C87.1843 148.187 88.0544 147.437 88.0544 146.405ZM93.0815 146.405C93.0815 145.468 92.3081 144.624 91.2447 144.624C90.1812 144.624 89.4078 145.374 89.4078 146.405C89.4078 147.437 90.1812 148.187 91.2447 148.187C92.2114 148.187 93.0815 147.437 93.0815 146.405ZM98.1085 146.405C98.1085 145.468 97.3351 144.624 96.2717 144.624C95.2083 144.624 94.4349 145.374 94.4349 146.405C94.4349 147.437 95.2083 148.187 96.2717 148.187C97.2385 148.187 98.1085 147.437 98.1085 146.405ZM67.8494 151.281C67.8494 150.343 67.076 149.5 66.0126 149.5C64.9492 149.5 64.1758 150.25 64.1758 151.281C64.1758 152.312 64.9492 153.063 66.0126 153.063C66.9793 153.063 67.8494 152.312 67.8494 151.281ZM72.8765 151.281C72.8765 150.343 72.1031 149.5 71.0397 149.5C69.9762 149.5 69.2028 150.25 69.2028 151.281C69.2028 152.312 69.9762 153.063 71.0397 153.063C72.0064 153.063 72.8765 152.312 72.8765 151.281ZM77.9036 151.281C77.9036 150.343 77.1302 149.5 76.0667 149.5C75.0033 149.5 74.2299 150.25 74.2299 151.281C74.2299 152.312 75.0033 153.063 76.0667 153.063C77.0335 153.063 77.9036 152.312 77.9036 151.281ZM82.9306 151.281C82.9306 150.343 82.1572 149.5 81.0938 149.5C80.0304 149.5 79.257 150.25 79.257 151.281C79.257 152.312 80.0304 153.063 81.0938 153.063C82.0606 153.063 82.9306 152.312 82.9306 151.281ZM88.1511 151.281C88.1511 150.343 87.3777 149.5 86.3142 149.5C85.2508 149.5 84.4774 150.25 84.4774 151.281C84.4774 152.312 85.2508 153.063 86.3142 153.063C87.281 153.063 88.1511 152.312 88.1511 151.281ZM98.2052 151.281C98.2052 150.343 97.4318 149.5 96.3684 149.5C95.305 149.5 94.5316 150.25 94.5316 151.281C94.5316 152.312 95.305 153.063 96.3684 153.063C97.3351 153.063 98.2052 152.312 98.2052 151.281ZM103.232 151.281C103.232 150.343 102.459 149.5 101.395 149.5C100.332 149.5 99.5587 150.25 99.5587 151.281C99.5587 152.312 100.332 153.063 101.395 153.063C102.362 153.063 103.232 152.312 103.232 151.281ZM67.9461 156.157C67.9461 155.219 67.1727 154.375 66.1093 154.375C65.0458 154.375 64.2725 155.125 64.2725 156.157C64.2725 157.188 65.0458 157.938 66.1093 157.938C67.076 157.938 67.9461 157.188 67.9461 156.157ZM78.0002 156.157C78.0002 155.219 77.2268 154.375 76.1634 154.375C75.1 154.375 74.3266 155.125 74.3266 156.157C74.3266 157.188 75.1 157.938 76.1634 157.938C77.1302 157.938 78.0002 157.188 78.0002 156.157ZM83.0273 156.157C83.0273 155.219 82.2539 154.375 81.1905 154.375C80.1271 154.375 79.3537 155.125 79.3537 156.157C79.3537 157.188 80.1271 157.938 81.1905 157.938C82.1572 157.938 83.0273 157.188 83.0273 156.157ZM88.2477 156.157C88.2477 155.219 87.4743 154.375 86.4109 154.375C85.3475 154.375 84.5741 155.125 84.5741 156.157C84.5741 157.188 85.3475 157.938 86.4109 157.938C87.3777 157.938 88.2477 157.188 88.2477 156.157ZM93.2748 156.157C93.2748 155.219 92.5014 154.375 91.438 154.375C90.4713 154.375 89.6012 155.125 89.6012 156.157C89.6012 157.188 90.3746 157.938 91.438 157.938C92.4047 157.938 93.2748 157.188 93.2748 156.157ZM98.3019 156.157C98.3019 155.219 97.5285 154.375 96.4651 154.375C95.4017 154.375 94.6283 155.125 94.6283 156.157C94.6283 157.188 95.4017 157.938 96.4651 157.938C97.4318 157.938 98.3019 157.188 98.3019 156.157ZM103.329 156.157C103.329 155.219 102.556 154.375 101.492 154.375C100.429 154.375 99.6553 155.125 99.6553 156.157C99.6553 157.188 100.429 157.938 101.492 157.938C102.459 157.938 103.329 157.188 103.329 156.157Z" fill="#C0342B"/>
<path d="M106.714 143.217C105.747 143.217 104.877 142.467 104.877 141.435C104.877 140.404 105.65 139.654 106.714 139.654C107.777 139.654 108.551 140.404 108.551 141.435C108.551 142.467 107.777 143.217 106.714 143.217ZM113.578 141.435C113.578 140.498 112.804 139.654 111.741 139.654C110.677 139.654 109.904 140.404 109.904 141.435C109.904 142.467 110.677 143.217 111.741 143.217C112.708 143.217 113.578 142.467 113.578 141.435ZM118.605 141.435C118.605 140.498 117.831 139.654 116.768 139.654C115.704 139.654 114.931 140.404 114.931 141.435C114.931 142.467 115.704 143.217 116.768 143.217C117.735 143.217 118.605 142.467 118.605 141.435ZM123.632 141.435C123.632 140.498 122.858 139.654 121.795 139.654C120.732 139.654 119.958 140.404 119.958 141.435C119.958 142.467 120.732 143.217 121.795 143.217C122.762 143.217 123.632 142.467 123.632 141.435ZM128.852 141.435C128.852 140.498 128.079 139.654 127.015 139.654C125.952 139.654 125.179 140.404 125.179 141.435C125.179 142.467 125.952 143.217 127.015 143.217C127.982 143.217 128.852 142.467 128.852 141.435ZM138.906 141.435C138.906 140.498 138.133 139.654 137.07 139.654C136.006 139.654 135.233 140.404 135.233 141.435C135.233 142.467 136.006 143.217 137.07 143.217C138.036 143.217 138.906 142.467 138.906 141.435ZM143.933 141.435C143.933 140.498 143.16 139.654 142.097 139.654C141.033 139.654 140.26 140.404 140.26 141.435C140.26 142.467 141.033 143.217 142.097 143.217C143.063 143.217 143.933 142.467 143.933 141.435ZM108.647 146.311C108.647 145.373 107.874 144.53 106.81 144.53C105.747 144.53 104.974 145.28 104.974 146.311C104.974 147.343 105.747 148.093 106.81 148.093C107.777 148.093 108.647 147.343 108.647 146.311ZM118.701 146.311C118.701 145.373 117.928 144.53 116.865 144.53C115.801 144.53 115.028 145.28 115.028 146.311C115.028 147.343 115.801 148.093 116.865 148.093C117.831 148.093 118.701 147.343 118.701 146.311ZM123.728 146.311C123.728 145.373 122.955 144.53 121.892 144.53C120.828 144.53 120.055 145.28 120.055 146.311C120.055 147.343 120.828 148.093 121.892 148.093C122.858 148.093 123.728 147.343 123.728 146.311ZM128.949 146.311C128.949 145.373 128.176 144.53 127.112 144.53C126.049 144.53 125.275 145.28 125.275 146.311C125.275 147.343 126.049 148.093 127.112 148.093C128.079 148.093 128.949 147.343 128.949 146.311ZM133.976 146.311C133.976 145.373 133.203 144.53 132.139 144.53C131.076 144.53 130.302 145.28 130.302 146.311C130.302 147.343 131.076 148.093 132.139 148.093C133.106 148.093 133.976 147.343 133.976 146.311ZM139.003 146.311C139.003 145.373 138.23 144.53 137.166 144.53C136.103 144.53 135.329 145.28 135.329 146.311C135.329 147.343 136.103 148.093 137.166 148.093C138.133 148.093 139.003 147.343 139.003 146.311ZM108.744 151.187C108.744 150.249 107.971 149.405 106.907 149.405C105.844 149.405 105.07 150.156 105.07 151.187C105.07 152.218 105.844 152.968 106.907 152.968C107.874 152.968 108.744 152.218 108.744 151.187ZM113.771 151.187C113.771 150.249 112.998 149.405 111.934 149.405C110.871 149.405 110.097 150.156 110.097 151.187C110.097 152.218 110.871 152.968 111.934 152.968C112.901 152.968 113.771 152.218 113.771 151.187ZM118.798 151.187C118.798 150.249 118.025 149.405 116.961 149.405C115.898 149.405 115.124 150.156 115.124 151.187C115.124 152.218 115.898 152.968 116.961 152.968C117.928 152.968 118.798 152.218 118.798 151.187ZM123.825 151.187C123.825 150.249 123.052 149.405 121.988 149.405C120.925 149.405 120.152 150.156 120.152 151.187C120.152 152.218 120.925 152.968 121.988 152.968C122.955 152.968 123.825 152.218 123.825 151.187ZM129.046 151.187C129.046 150.249 128.272 149.405 127.209 149.405C126.145 149.405 125.372 150.156 125.372 151.187C125.372 152.218 126.145 152.968 127.209 152.968C128.176 152.968 129.046 152.218 129.046 151.187ZM139.1 151.187C139.1 150.249 138.326 149.405 137.263 149.405C136.2 149.405 135.426 150.156 135.426 151.187C135.426 152.218 136.2 152.968 137.263 152.968C138.23 152.968 139.1 152.218 139.1 151.187ZM144.127 151.187C144.127 150.249 143.353 149.405 142.29 149.405C141.227 149.405 140.453 150.156 140.453 151.187C140.453 152.218 141.227 152.968 142.29 152.968C143.257 152.968 144.127 152.218 144.127 151.187ZM108.841 156.063C108.841 155.125 108.067 154.281 107.004 154.281C105.94 154.281 105.167 155.031 105.167 156.063C105.167 157.094 105.94 157.844 107.004 157.844C107.971 157.844 108.841 157.094 108.841 156.063ZM118.895 156.063C118.895 155.125 118.121 154.281 117.058 154.281C115.995 154.281 115.221 155.031 115.221 156.063C115.221 157.094 115.995 157.844 117.058 157.844C118.025 157.844 118.895 157.094 118.895 156.063ZM123.922 156.063C123.922 155.125 123.148 154.281 122.085 154.281C121.022 154.281 120.248 155.031 120.248 156.063C120.248 157.094 121.022 157.844 122.085 157.844C123.052 157.844 123.922 157.094 123.922 156.063ZM129.142 156.063C129.142 155.125 128.369 154.281 127.305 154.281C126.242 154.281 125.469 155.031 125.469 156.063C125.469 157.094 126.242 157.844 127.305 157.844C128.272 157.844 129.142 157.094 129.142 156.063ZM134.169 156.063C134.169 155.125 133.396 154.281 132.333 154.281C131.366 154.281 130.496 155.031 130.496 156.063C130.496 157.094 131.269 157.844 132.333 157.844C133.299 157.844 134.169 157.094 134.169 156.063ZM139.196 156.063C139.196 155.125 138.423 154.281 137.36 154.281C136.296 154.281 135.523 155.031 135.523 156.063C135.523 157.094 136.296 157.844 137.36 157.844C138.326 157.844 139.196 157.094 139.196 156.063ZM144.223 156.063C144.223 155.125 143.45 154.281 142.387 154.281C141.323 154.281 140.55 155.031 140.55 156.063C140.55 157.094 141.323 157.844 142.387 157.844C143.353 157.844 144.223 157.094 144.223 156.063Z" fill="#C0342B"/>
<path d="M24.9267 24.4642C23.9599 24.4642 23.0898 23.7141 23.0898 22.6827C23.0898 21.6512 23.8632 20.9011 24.9267 20.9011C25.9901 20.9011 26.7635 21.6512 26.7635 22.6827C26.7635 23.7141 25.9901 24.4642 24.9267 24.4642ZM31.7906 22.6827C31.7906 21.745 31.0172 20.9011 29.9537 20.9011C28.8903 20.9011 28.1169 21.6512 28.1169 22.6827C28.1169 23.7141 28.8903 24.4642 29.9537 24.4642C30.9205 24.4642 31.7906 23.7141 31.7906 22.6827ZM36.8176 22.6827C36.8176 21.745 36.0442 20.9011 34.9808 20.9011C33.9174 20.9011 33.144 21.6512 33.144 22.6827C33.144 23.7141 33.9174 24.4642 34.9808 24.4642C35.9476 24.4642 36.8176 23.7141 36.8176 22.6827ZM41.8447 22.6827C41.8447 21.745 41.0713 20.9011 40.0079 20.9011C38.9445 20.9011 38.1711 21.6512 38.1711 22.6827C38.1711 23.7141 38.9445 24.4642 40.0079 24.4642C40.9746 24.4642 41.8447 23.7141 41.8447 22.6827ZM47.0651 22.6827C47.0651 21.745 46.2917 20.9011 45.2283 20.9011C44.1649 20.9011 43.3915 21.6512 43.3915 22.6827C43.3915 23.7141 44.1649 24.4642 45.2283 24.4642C46.1951 24.4642 47.0651 23.7141 47.0651 22.6827ZM57.1193 22.6827C57.1193 21.745 56.3459 20.9011 55.2825 20.9011C54.2191 20.9011 53.4457 21.6512 53.4457 22.6827C53.4457 23.7141 54.2191 24.4642 55.2825 24.4642C56.2492 24.4642 57.1193 23.7141 57.1193 22.6827ZM62.1464 22.6827C62.1464 21.745 61.373 20.9011 60.3096 20.9011C59.2461 20.9011 58.4727 21.6512 58.4727 22.6827C58.4727 23.7141 59.2461 24.4642 60.3096 24.4642C61.2763 24.4642 62.1464 23.7141 62.1464 22.6827ZM26.8602 27.5584C26.8602 26.6208 26.0868 25.7769 25.0233 25.7769C23.9599 25.7769 23.1865 26.527 23.1865 27.5584C23.1865 28.5899 23.9599 29.34 25.0233 29.34C25.9901 29.34 26.8602 28.5899 26.8602 27.5584ZM36.9143 27.5584C36.9143 26.6208 36.1409 25.7769 35.0775 25.7769C34.0141 25.7769 33.2407 26.527 33.2407 27.5584C33.2407 28.5899 34.0141 29.34 35.0775 29.34C36.0442 29.34 36.9143 28.5899 36.9143 27.5584ZM41.9414 27.5584C41.9414 26.6208 41.168 25.7769 40.1046 25.7769C39.0411 25.7769 38.2678 26.527 38.2678 27.5584C38.2678 28.5899 39.0411 29.34 40.1046 29.34C41.0713 29.34 41.9414 28.5899 41.9414 27.5584ZM47.1618 27.5584C47.1618 26.6208 46.3884 25.7769 45.325 25.7769C44.2616 25.7769 43.4882 26.527 43.4882 27.5584C43.4882 28.5899 44.2616 29.34 45.325 29.34C46.2917 29.34 47.1618 28.5899 47.1618 27.5584ZM52.1889 27.5584C52.1889 26.6208 51.4155 25.7769 50.3521 25.7769C49.2887 25.7769 48.5153 26.527 48.5153 27.5584C48.5153 28.5899 49.2887 29.34 50.3521 29.34C51.3188 29.34 52.1889 28.5899 52.1889 27.5584ZM57.216 27.5584C57.216 26.6208 56.4426 25.7769 55.3791 25.7769C54.3157 25.7769 53.5423 26.527 53.5423 27.5584C53.5423 28.5899 54.3157 29.34 55.3791 29.34C56.3459 29.34 57.216 28.5899 57.216 27.5584ZM26.9568 32.4342C26.9568 31.4966 26.1834 30.6527 25.12 30.6527C24.0566 30.6527 23.2832 31.4028 23.2832 32.4342C23.2832 33.4657 24.0566 34.2158 25.12 34.2158C26.0868 34.2158 26.9568 33.4657 26.9568 32.4342ZM31.9839 32.4342C31.9839 31.4966 31.2105 30.6527 30.1471 30.6527C29.0837 30.6527 28.3103 31.4028 28.3103 32.4342C28.3103 33.4657 29.0837 34.2158 30.1471 34.2158C31.1138 34.2158 31.9839 33.4657 31.9839 32.4342ZM37.011 32.4342C37.011 31.4966 36.2376 30.6527 35.1742 30.6527C34.1107 30.6527 33.3373 31.4028 33.3373 32.4342C33.3373 33.4657 34.1107 34.2158 35.1742 34.2158C36.1409 34.2158 37.011 33.4657 37.011 32.4342ZM42.0381 32.4342C42.0381 31.4966 41.2647 30.6527 40.2012 30.6527C39.1378 30.6527 38.3644 31.4028 38.3644 32.4342C38.3644 33.4657 39.1378 34.2158 40.2012 34.2158C41.168 34.2158 42.0381 33.4657 42.0381 32.4342ZM47.2585 32.4342C47.2585 31.4966 46.4851 30.6527 45.4217 30.6527C44.3582 30.6527 43.5848 31.4028 43.5848 32.4342C43.5848 33.4657 44.3582 34.2158 45.4217 34.2158C46.3884 34.2158 47.2585 33.4657 47.2585 32.4342ZM57.3126 32.4342C57.3126 31.4966 56.5392 30.6527 55.4758 30.6527C54.4124 30.6527 53.639 31.4028 53.639 32.4342C53.639 33.4657 54.4124 34.2158 55.4758 34.2158C56.4426 34.2158 57.3126 33.4657 57.3126 32.4342ZM62.3397 32.4342C62.3397 31.4966 61.5663 30.6527 60.5029 30.6527C59.4395 30.6527 58.6661 31.4028 58.6661 32.4342C58.6661 33.4657 59.4395 34.2158 60.5029 34.2158C61.4696 34.2158 62.3397 33.4657 62.3397 32.4342ZM27.0535 37.31C27.0535 36.3724 26.2801 35.5285 25.2167 35.5285C24.1533 35.5285 23.3799 36.2786 23.3799 37.31C23.3799 38.3414 24.1533 39.0916 25.2167 39.0916C26.1834 39.0916 27.0535 38.3414 27.0535 37.31ZM37.1077 37.31C37.1077 36.3724 36.3343 35.5285 35.2708 35.5285C34.2074 35.5285 33.434 36.2786 33.434 37.31C33.434 38.3414 34.2074 39.0916 35.2708 39.0916C36.2376 39.0916 37.1077 38.3414 37.1077 37.31ZM42.1347 37.31C42.1347 36.3724 41.3613 35.5285 40.2979 35.5285C39.2345 35.5285 38.4611 36.2786 38.4611 37.31C38.4611 38.3414 39.2345 39.0916 40.2979 39.0916C41.2647 39.0916 42.1347 38.3414 42.1347 37.31ZM47.3552 37.31C47.3552 36.3724 46.5818 35.5285 45.5183 35.5285C44.4549 35.5285 43.6815 36.2786 43.6815 37.31C43.6815 38.3414 44.4549 39.0916 45.5183 39.0916C46.4851 39.0916 47.3552 38.3414 47.3552 37.31ZM52.3822 37.31C52.3822 36.3724 51.6088 35.5285 50.5454 35.5285C49.5787 35.5285 48.7086 36.2786 48.7086 37.31C48.7086 38.3414 49.482 39.0916 50.5454 39.0916C51.5122 39.0916 52.3822 38.3414 52.3822 37.31ZM57.4093 37.31C57.4093 36.3724 56.6359 35.5285 55.5725 35.5285C54.5091 35.5285 53.7357 36.2786 53.7357 37.31C53.7357 38.3414 54.5091 39.0916 55.5725 39.0916C56.5392 39.0916 57.4093 38.3414 57.4093 37.31ZM62.4364 37.31C62.4364 36.3724 61.663 35.5285 60.5996 35.5285C59.5362 35.5285 58.7628 36.2786 58.7628 37.31C58.7628 38.3414 59.5362 39.0916 60.5996 39.0916C61.5663 39.0916 62.4364 38.3414 62.4364 37.31Z" fill="#C0342B"/>
<path d="M65.8192 24.4639C64.8525 24.4639 63.9824 23.7138 63.9824 22.6824C63.9824 21.651 64.7558 20.9009 65.8192 20.9009C66.8827 20.9009 67.6561 21.651 67.6561 22.6824C67.6561 23.7138 66.8827 24.4639 65.8192 24.4639ZM72.6831 22.6824C72.6831 21.7448 71.9097 20.9009 70.8463 20.9009C69.7829 20.9009 69.0095 21.651 69.0095 22.6824C69.0095 23.7138 69.7829 24.4639 70.8463 24.4639C71.8131 24.4639 72.6831 23.7138 72.6831 22.6824ZM77.7102 22.6824C77.7102 21.7448 76.9368 20.9009 75.8734 20.9009C74.81 20.9009 74.0366 21.651 74.0366 22.6824C74.0366 23.7138 74.81 24.4639 75.8734 24.4639C76.8401 24.4639 77.7102 23.7138 77.7102 22.6824ZM82.7373 22.6824C82.7373 21.7448 81.9639 20.9009 80.9005 20.9009C79.837 20.9009 79.0637 21.651 79.0637 22.6824C79.0637 23.7138 79.837 24.4639 80.9005 24.4639C81.8672 24.4639 82.7373 23.7138 82.7373 22.6824ZM87.9577 22.6824C87.9577 21.7448 87.1843 20.9009 86.1209 20.9009C85.0575 20.9009 84.2841 21.651 84.2841 22.6824C84.2841 23.7138 85.0575 24.4639 86.1209 24.4639C87.0876 24.4639 87.9577 23.7138 87.9577 22.6824ZM98.0119 22.6824C98.0119 21.7448 97.2385 20.9009 96.1751 20.9009C95.1116 20.9009 94.3382 21.651 94.3382 22.6824C94.3382 23.7138 95.1116 24.4639 96.1751 24.4639C97.1418 24.4639 98.0119 23.7138 98.0119 22.6824ZM103.039 22.6824C103.039 21.7448 102.266 20.9009 101.202 20.9009C100.139 20.9009 99.3653 21.651 99.3653 22.6824C99.3653 23.7138 100.139 24.4639 101.202 24.4639C102.169 24.4639 103.039 23.7138 103.039 22.6824ZM67.7527 27.5582C67.7527 26.6205 66.9793 25.7767 65.9159 25.7767C64.8525 25.7767 64.0791 26.5268 64.0791 27.5582C64.0791 28.5896 64.8525 29.3397 65.9159 29.3397C66.8827 29.3397 67.7527 28.5896 67.7527 27.5582ZM77.8069 27.5582C77.8069 26.6205 77.0335 25.7767 75.9701 25.7767C74.9067 25.7767 74.1333 26.5268 74.1333 27.5582C74.1333 28.5896 74.9067 29.3397 75.9701 29.3397C76.9368 29.3397 77.8069 28.5896 77.8069 27.5582ZM82.834 27.5582C82.834 26.6205 82.0606 25.7767 80.9971 25.7767C79.9337 25.7767 79.1603 26.5268 79.1603 27.5582C79.1603 28.5896 79.9337 29.3397 80.9971 29.3397C81.9639 29.3397 82.834 28.5896 82.834 27.5582ZM88.0544 27.5582C88.0544 26.6205 87.281 25.7767 86.2176 25.7767C85.1542 25.7767 84.3808 26.5268 84.3808 27.5582C84.3808 28.5896 85.1542 29.3397 86.2176 29.3397C87.1843 29.3397 88.0544 28.5896 88.0544 27.5582ZM93.0815 27.5582C93.0815 26.6205 92.3081 25.7767 91.2447 25.7767C90.1812 25.7767 89.4078 26.5268 89.4078 27.5582C89.4078 28.5896 90.1812 29.3397 91.2447 29.3397C92.2114 29.3397 93.0815 28.5896 93.0815 27.5582ZM98.1085 27.5582C98.1085 26.6205 97.3351 25.7767 96.2717 25.7767C95.2083 25.7767 94.4349 26.5268 94.4349 27.5582C94.4349 28.5896 95.2083 29.3397 96.2717 29.3397C97.2385 29.3397 98.1085 28.5896 98.1085 27.5582ZM67.8494 32.434C67.8494 31.4963 67.076 30.6525 66.0126 30.6525C64.9492 30.6525 64.1758 31.4026 64.1758 32.434C64.1758 33.4654 64.9492 34.2155 66.0126 34.2155C66.9793 34.2155 67.8494 33.4654 67.8494 32.434ZM72.8765 32.434C72.8765 31.4963 72.1031 30.6525 71.0397 30.6525C69.9762 30.6525 69.2028 31.4026 69.2028 32.434C69.2028 33.4654 69.9762 34.2155 71.0397 34.2155C72.0064 34.2155 72.8765 33.4654 72.8765 32.434ZM77.9036 32.434C77.9036 31.4963 77.1302 30.6525 76.0667 30.6525C75.0033 30.6525 74.2299 31.4026 74.2299 32.434C74.2299 33.4654 75.0033 34.2155 76.0667 34.2155C77.0335 34.2155 77.9036 33.4654 77.9036 32.434ZM82.9306 32.434C82.9306 31.4963 82.1572 30.6525 81.0938 30.6525C80.0304 30.6525 79.257 31.4026 79.257 32.434C79.257 33.4654 80.0304 34.2155 81.0938 34.2155C82.0606 34.2155 82.9306 33.4654 82.9306 32.434ZM88.1511 32.434C88.1511 31.4963 87.3777 30.6525 86.3142 30.6525C85.2508 30.6525 84.4774 31.4026 84.4774 32.434C84.4774 33.4654 85.2508 34.2155 86.3142 34.2155C87.281 34.2155 88.1511 33.4654 88.1511 32.434ZM98.2052 32.434C98.2052 31.4963 97.4318 30.6525 96.3684 30.6525C95.305 30.6525 94.5316 31.4026 94.5316 32.434C94.5316 33.4654 95.305 34.2155 96.3684 34.2155C97.3351 34.2155 98.2052 33.4654 98.2052 32.434ZM103.232 32.434C103.232 31.4963 102.459 30.6525 101.395 30.6525C100.332 30.6525 99.5587 31.4026 99.5587 32.434C99.5587 33.4654 100.332 34.2155 101.395 34.2155C102.362 34.2155 103.232 33.4654 103.232 32.434ZM67.9461 37.3098C67.9461 36.3721 67.1727 35.5282 66.1093 35.5282C65.0458 35.5282 64.2725 36.2784 64.2725 37.3098C64.2725 38.3412 65.0458 39.0913 66.1093 39.0913C67.076 39.0913 67.9461 38.3412 67.9461 37.3098ZM78.0002 37.3098C78.0002 36.3721 77.2268 35.5282 76.1634 35.5282C75.1 35.5282 74.3266 36.2784 74.3266 37.3098C74.3266 38.3412 75.1 39.0913 76.1634 39.0913C77.1302 39.0913 78.0002 38.3412 78.0002 37.3098ZM83.0273 37.3098C83.0273 36.3721 82.2539 35.5282 81.1905 35.5282C80.1271 35.5282 79.3537 36.2784 79.3537 37.3098C79.3537 38.3412 80.1271 39.0913 81.1905 39.0913C82.1572 39.0913 83.0273 38.3412 83.0273 37.3098ZM88.2477 37.3098C88.2477 36.3721 87.4743 35.5282 86.4109 35.5282C85.3475 35.5282 84.5741 36.2784 84.5741 37.3098C84.5741 38.3412 85.3475 39.0913 86.4109 39.0913C87.3777 39.0913 88.2477 38.3412 88.2477 37.3098ZM93.2748 37.3098C93.2748 36.3721 92.5014 35.5282 91.438 35.5282C90.4713 35.5282 89.6012 36.2784 89.6012 37.3098C89.6012 38.3412 90.3746 39.0913 91.438 39.0913C92.4047 39.0913 93.2748 38.3412 93.2748 37.3098ZM98.3019 37.3098C98.3019 36.3721 97.5285 35.5282 96.4651 35.5282C95.4017 35.5282 94.6283 36.2784 94.6283 37.3098C94.6283 38.3412 95.4017 39.0913 96.4651 39.0913C97.4318 39.0913 98.3019 38.3412 98.3019 37.3098ZM103.329 37.3098C103.329 36.3721 102.556 35.5282 101.492 35.5282C100.429 35.5282 99.6553 36.2784 99.6553 37.3098C99.6553 38.3412 100.429 39.0913 101.492 39.0913C102.459 39.0913 103.329 38.3412 103.329 37.3098Z" fill="#C0342B"/>
<path d="M106.714 24.3697C105.747 24.3697 104.877 23.6196 104.877 22.5882C104.877 21.5568 105.65 20.8066 106.714 20.8066C107.777 20.8066 108.551 21.5568 108.551 22.5882C108.551 23.6196 107.777 24.3697 106.714 24.3697ZM113.578 22.5882C113.578 21.6505 112.804 20.8066 111.741 20.8066C110.677 20.8066 109.904 21.5568 109.904 22.5882C109.904 23.6196 110.677 24.3697 111.741 24.3697C112.708 24.3697 113.578 23.6196 113.578 22.5882ZM118.605 22.5882C118.605 21.6505 117.831 20.8066 116.768 20.8066C115.704 20.8066 114.931 21.5568 114.931 22.5882C114.931 23.6196 115.704 24.3697 116.768 24.3697C117.735 24.3697 118.605 23.6196 118.605 22.5882ZM123.632 22.5882C123.632 21.6505 122.858 20.8066 121.795 20.8066C120.732 20.8066 119.958 21.5568 119.958 22.5882C119.958 23.6196 120.732 24.3697 121.795 24.3697C122.762 24.3697 123.632 23.6196 123.632 22.5882ZM128.852 22.5882C128.852 21.6505 128.079 20.8066 127.015 20.8066C125.952 20.8066 125.179 21.5568 125.179 22.5882C125.179 23.6196 125.952 24.3697 127.015 24.3697C127.982 24.3697 128.852 23.6196 128.852 22.5882ZM138.906 22.5882C138.906 21.6505 138.133 20.8066 137.07 20.8066C136.006 20.8066 135.233 21.5568 135.233 22.5882C135.233 23.6196 136.006 24.3697 137.07 24.3697C138.036 24.3697 138.906 23.6196 138.906 22.5882ZM143.933 22.5882C143.933 21.6505 143.16 20.8066 142.097 20.8066C141.033 20.8066 140.26 21.5568 140.26 22.5882C140.26 23.6196 141.033 24.3697 142.097 24.3697C143.063 24.3697 143.933 23.6196 143.933 22.5882ZM108.647 27.464C108.647 26.5263 107.874 25.6824 106.81 25.6824C105.747 25.6824 104.974 26.4326 104.974 27.464C104.974 28.4954 105.747 29.2455 106.81 29.2455C107.777 29.2455 108.647 28.4954 108.647 27.464ZM118.701 27.464C118.701 26.5263 117.928 25.6824 116.865 25.6824C115.801 25.6824 115.028 26.4326 115.028 27.464C115.028 28.4954 115.801 29.2455 116.865 29.2455C117.831 29.2455 118.701 28.4954 118.701 27.464ZM123.728 27.464C123.728 26.5263 122.955 25.6824 121.892 25.6824C120.828 25.6824 120.055 26.4326 120.055 27.464C120.055 28.4954 120.828 29.2455 121.892 29.2455C122.858 29.2455 123.728 28.4954 123.728 27.464ZM128.949 27.464C128.949 26.5263 128.176 25.6824 127.112 25.6824C126.049 25.6824 125.275 26.4326 125.275 27.464C125.275 28.4954 126.049 29.2455 127.112 29.2455C128.079 29.2455 128.949 28.4954 128.949 27.464ZM133.976 27.464C133.976 26.5263 133.203 25.6824 132.139 25.6824C131.076 25.6824 130.302 26.4326 130.302 27.464C130.302 28.4954 131.076 29.2455 132.139 29.2455C133.106 29.2455 133.976 28.4954 133.976 27.464ZM139.003 27.464C139.003 26.5263 138.23 25.6824 137.166 25.6824C136.103 25.6824 135.329 26.4326 135.329 27.464C135.329 28.4954 136.103 29.2455 137.166 29.2455C138.133 29.2455 139.003 28.4954 139.003 27.464ZM108.744 32.3398C108.744 31.4021 107.971 30.5582 106.907 30.5582C105.844 30.5582 105.07 31.3083 105.07 32.3398C105.07 33.3712 105.844 34.1213 106.907 34.1213C107.874 34.1213 108.744 33.3712 108.744 32.3398ZM113.771 32.3398C113.771 31.4021 112.998 30.5582 111.934 30.5582C110.871 30.5582 110.097 31.3083 110.097 32.3398C110.097 33.3712 110.871 34.1213 111.934 34.1213C112.901 34.1213 113.771 33.3712 113.771 32.3398ZM118.798 32.3398C118.798 31.4021 118.025 30.5582 116.961 30.5582C115.898 30.5582 115.124 31.3083 115.124 32.3398C115.124 33.3712 115.898 34.1213 116.961 34.1213C117.928 34.1213 118.798 33.3712 118.798 32.3398ZM123.825 32.3398C123.825 31.4021 123.052 30.5582 121.988 30.5582C120.925 30.5582 120.152 31.3083 120.152 32.3398C120.152 33.3712 120.925 34.1213 121.988 34.1213C122.955 34.1213 123.825 33.3712 123.825 32.3398ZM129.046 32.3398C129.046 31.4021 128.272 30.5582 127.209 30.5582C126.145 30.5582 125.372 31.3083 125.372 32.3398C125.372 33.3712 126.145 34.1213 127.209 34.1213C128.176 34.1213 129.046 33.3712 129.046 32.3398ZM139.1 32.3398C139.1 31.4021 138.326 30.5582 137.263 30.5582C136.2 30.5582 135.426 31.3083 135.426 32.3398C135.426 33.3712 136.2 34.1213 137.263 34.1213C138.23 34.1213 139.1 33.3712 139.1 32.3398ZM144.127 32.3398C144.127 31.4021 143.353 30.5582 142.29 30.5582C141.227 30.5582 140.453 31.3083 140.453 32.3398C140.453 33.3712 141.227 34.1213 142.29 34.1213C143.257 34.1213 144.127 33.3712 144.127 32.3398ZM108.841 37.2155C108.841 36.2779 108.067 35.434 107.004 35.434C105.94 35.434 105.167 36.1841 105.167 37.2155C105.167 38.247 105.94 38.9971 107.004 38.9971C107.971 38.9971 108.841 38.247 108.841 37.2155ZM118.895 37.2155C118.895 36.2779 118.121 35.434 117.058 35.434C115.995 35.434 115.221 36.1841 115.221 37.2155C115.221 38.247 115.995 38.9971 117.058 38.9971C118.025 38.9971 118.895 38.247 118.895 37.2155ZM123.922 37.2155C123.922 36.2779 123.148 35.434 122.085 35.434C121.022 35.434 120.248 36.1841 120.248 37.2155C120.248 38.247 121.022 38.9971 122.085 38.9971C123.052 38.9971 123.922 38.247 123.922 37.2155ZM129.142 37.2155C129.142 36.2779 128.369 35.434 127.305 35.434C126.242 35.434 125.469 36.1841 125.469 37.2155C125.469 38.247 126.242 38.9971 127.305 38.9971C128.272 38.9971 129.142 38.247 129.142 37.2155ZM134.169 37.2155C134.169 36.2779 133.396 35.434 132.333 35.434C131.366 35.434 130.496 36.1841 130.496 37.2155C130.496 38.247 131.269 38.9971 132.333 38.9971C133.299 38.9971 134.169 38.247 134.169 37.2155ZM139.196 37.2155C139.196 36.2779 138.423 35.434 137.36 35.434C136.296 35.434 135.523 36.1841 135.523 37.2155C135.523 38.247 136.296 38.9971 137.36 38.9971C138.326 38.9971 139.196 38.247 139.196 37.2155ZM144.223 37.2155C144.223 36.2779 143.45 35.434 142.387 35.434C141.323 35.434 140.55 36.1841 140.55 37.2155C140.55 38.247 141.323 38.9971 142.387 38.9971C143.353 38.9971 144.223 38.247 144.223 37.2155Z" fill="#C0342B"/>
<g opacity="0.4">
<path d="M224.707 172.292H242.416V174.916L239.601 177.746H224.707V172.292ZM237.817 159.45V148.473L242.347 152.546V172.223L236.719 166.562V160.555L237.817 159.45V159.45ZM237.817 148.473H224.707V143.019H237.817V148.473Z" fill="#C0342B"/>
<path d="M236.582 141.017H224.639V135.563H236.513V141.017H236.582ZM233.905 109.327H239.533L242.279 112.089V129.694L236.513 135.563V124.033L237.748 122.79V114.782H233.905V109.327V109.327Z" fill="#C0342B"/>
<path d="M224.639 94.2068L229.169 89.65H242.279V95.3114H230.198V102.008L229.169 103.044V109.534H224.639V94.2068ZM229.169 89.65H224.639V75.3585H229.169V89.65Z" fill="#C0342B"/>
<path d="M229.169 68.0404H242.279V73.4256H229.169V68.0404ZM235.621 45.8782L242.279 39.3883V44.9116L237.749 49.3302V63.0694L233.15 68.0404V56.9938L232.12 55.9582V43.945H224.57V38.4908H232.807L235.621 41.2524V45.8091V45.8782ZM229.1 44.0141V68.0404L224.57 63.4146V48.5708L229.1 43.945V44.0141Z" fill="#C0342B"/>
<path d="M232.12 31.1723V36.6265H227.384L224.57 33.7958V11.8408L229.1 7.28403V31.1723H232.12ZM229.1 1.76074H242.21V7.21499H238.161V31.1723H242.21V36.6265H237.406L232.052 31.1723V19.3662L233.081 18.3306V7.21499H229.032V1.76074H229.1Z" fill="#C0342B"/>
<path d="M259.233 177.677H246.123V172.223H259.233V177.677ZM258.203 160.141V148.266L263.832 154.134V167.597L259.302 172.292V161.245L258.272 160.21L258.203 160.141ZM258.203 148.266H246.123V142.811H258.203V148.266Z" fill="#C0342B"/>
<path d="M250.585 115.886L251.477 116.922V122.1H263.763V140.81H261.841L259.233 138.186V127.623H250.653V140.81H248.731L246.123 138.186V127.554H250.653L246.123 122.997V108.844H250.653V115.748L250.585 115.886ZM263.694 108.982V122.1L259.164 117.543V108.982H263.694Z" fill="#C0342B"/>
<path d="M248.732 72.1831H260.949L263.695 74.9447V96.0023L258.135 101.595V107.049H248.8L246.055 104.287V82.4702L250.585 77.6374V101.595H258.135V89.7886L259.165 88.753V77.7064H246.055V75.0138L248.8 72.2521L248.732 72.1831Z" fill="#C0342B"/>
<path d="M257.929 70.1807H245.986V64.7264H257.861V70.1807H257.929ZM255.252 38.4908H260.881L263.626 41.2524V58.8579L257.861 64.7264V53.1966L259.096 51.9538V43.945H255.252V38.4908V38.4908Z" fill="#C0342B"/>
<path d="M259.094 31.1716V36.5568H248.662L245.916 33.7952V2.72668H250.446V18.1229L249.417 19.1585V31.2407H259.026L259.094 31.1716ZM256.967 26.684L252.574 31.1716V10.3903L255.182 7.83573H257.035V26.753L256.967 26.684ZM263.556 26.4078L259.026 31.1026V2.72668H263.556V26.4768V26.4078Z" fill="#C0342B"/>
<path d="M267.469 162.35L271.999 157.794H285.109V163.455H273.028V170.152L271.999 171.188V177.677H267.469V162.35ZM271.999 157.794H267.469V143.502H271.999V157.794Z" fill="#C0342B"/>
<path d="M267.469 126.241L271.999 121.685H285.109V127.346H273.028V134.043L271.999 135.079V141.569H267.469V126.241ZM271.999 121.685H267.469V107.393H271.999V121.685Z" fill="#C0342B"/>
<path d="M280.579 100.076V105.461H270.146L267.4 102.699V71.7H271.93V87.0271L270.901 88.0627V100.145H280.51L280.579 100.076ZM278.451 95.5882L274.058 100.076V79.2945L276.666 76.74H278.52V95.6573L278.451 95.5882ZM285.04 95.3121L280.51 100.007V71.5619H285.04V95.3121Z" fill="#C0342B"/>
<path d="M269.94 64.1748H267.4V66.8674H269.94V64.1748Z" fill="#C0342B"/>
<path d="M267.4 45.3256V48.0182V50.7108H269.94H272.48H275.019H277.559H280.03V48.0182H277.49V45.2566H275.019V48.0182H272.48H269.94V45.2566V42.564H267.4V45.3256Z" fill="#C0342B"/>
<path d="M269.94 20.9553H267.4V23.6479H269.94V20.9553Z" fill="#C0342B"/>
<path d="M272.481 53.4042H269.941V56.0968H272.481H275.021V53.4042H272.481Z" fill="#C0342B"/>
<path d="M274.951 29.101H272.48V26.4084V23.6468H269.94V26.4084H267.4V29.101V31.7936V34.4863V37.1789H269.94V39.8715V42.5641H272.48H275.019V39.8715V37.1789H272.48V34.4863V31.7936H275.019V34.4863H277.49V31.7936H280.03V34.4863H282.569V31.7936H285.109V29.101H282.569H280.03H277.49V26.3394L274.951 26.4084V29.101Z" fill="#C0342B"/>
<path d="M272.411 2.03772H274.951H277.49V4.73032H280.03V7.49197H277.49H274.951V10.1846V12.8772H277.49V10.1846H280.03H282.569V12.8772H285.109V15.5698H282.569H280.03V18.2624V20.955V23.6476H282.569H285.109V26.3402H282.569H280.03H277.49V23.6476V20.955V18.2624H274.951V20.955V23.6476H272.48V20.955V18.2624H269.94H267.4V15.5698V12.8772V10.1846H269.94V12.8772V15.5698H272.48V12.8772L272.411 10.1846V7.49197H269.94V4.79937V2.03772H272.411Z" fill="#C0342B"/>
<path d="M277.56 53.4042V56.0968V58.7894H275.021V61.482H272.481V58.7894H269.941V61.482V64.1746H272.481V66.9362V69.6288H275.021H277.56H280.1L280.031 66.8672H277.56V64.1746H280.031V61.482V58.7894H282.571H285.11V56.0968H282.571H280.031V53.4042H277.56Z" fill="#C0342B"/>
<path d="M280.03 42.5633H282.569H285.109V39.8707H282.569H280.03H277.49V42.5633V45.2559H280.03V42.5633Z" fill="#C0342B"/>
<path d="M280.03 34.4861H277.49V37.1787H280.03V34.4861Z" fill="#C0342B"/>
<path d="M282.569 2.03723H285.04L285.108 4.72984H282.569H280.029V2.03723H282.569Z" fill="#C0342B"/>
<path d="M285.108 66.8663H282.568V69.5589H285.108V66.8663Z" fill="#C0342B"/>
<path d="M285.108 61.4816H282.568V64.1742H285.108V61.4816Z" fill="#C0342B"/>
<path d="M285.108 50.7111H282.568V53.4037H285.108V50.7111Z" fill="#C0342B"/>
<path d="M285.108 45.2566H282.568V47.9492H285.108V45.2566Z" fill="#C0342B"/>
<path d="M285.108 34.4861H282.568V37.1787H285.108V34.4861Z" fill="#C0342B"/>
<path d="M285.108 18.2622H282.568V20.9548H285.108V18.2622Z" fill="#C0342B"/>
<path d="M285.108 7.49048H282.568V10.1831H285.108V7.49048Z" fill="#C0342B"/>
<path d="M269.94 2.03772H267.4V4.73032H269.94V2.03772Z" fill="#C0342B"/>
</g>
</svg>
