<svg width="137" height="32" viewBox="0 0 137 32" fill="none" xmlns="http://www.w3.org/2000/svg">
<g clip-path="url(#clip0_15933_770)">
<path d="M3.14932 6.21299C1.42235 6.21299 0.00794981 4.81429 0.00794989 3.10649C0.00794996 1.39869 1.42235 -2.85077e-06 3.14932 -2.77619e-06C4.87629 -2.70161e-06 6.29069 1.39869 6.29069 3.10649C6.29069 4.81429 4.87629 6.21299 3.14932 6.21299ZM14.9646 3.10649C14.9646 1.39869 13.5502 -2.32705e-06 11.8233 -2.40162e-06C10.0963 -2.4762e-06 8.68188 1.39869 8.68188 3.10649C8.68188 4.81429 10.0963 6.21299 11.8233 6.21299C13.5502 6.21299 14.9646 4.81429 14.9646 3.10649ZM23.6464 3.10649C23.6464 1.39869 22.232 -1.95214e-06 20.505 -2.02672e-06C18.778 -2.10129e-06 17.3636 1.39869 17.3636 3.10649C17.3636 4.81429 18.778 6.21299 20.505 6.21299C22.232 6.21299 23.6464 4.81429 23.6464 3.10649ZM32.3203 3.10649C32.3203 1.39869 30.9059 -1.57757e-06 29.1789 -1.65215e-06C27.452 -1.72672e-06 26.0376 1.39869 26.0376 3.10649C26.0376 4.81429 27.452 6.21299 29.1789 6.21299C30.9059 6.21299 32.3203 4.81429 32.3203 3.10649V3.10649ZM41.4006 3.10649C41.4006 1.39869 39.9862 -1.18546e-06 38.2592 -1.26003e-06C36.5322 -1.33461e-06 35.1178 1.39869 35.1178 3.10649C35.1178 4.81429 36.5322 6.21299 38.2592 6.21299C39.9862 6.21299 41.4006 4.81429 41.4006 3.10649ZM58.7562 3.10649C58.7562 1.3987 57.3418 -4.35984e-07 55.6149 -5.1056e-07C53.8879 -5.85136e-07 52.4735 1.39869 52.4735 3.10649C52.4735 4.81429 53.8879 6.21299 55.6149 6.21299C57.3418 6.21299 58.7562 4.81429 58.7562 3.10649ZM67.438 3.1065C67.438 1.3987 66.0236 -6.10782e-08 64.2966 -1.35654e-07C62.5696 -2.1023e-07 61.1552 1.3987 61.1552 3.1065C61.1552 4.81429 62.5696 6.21299 64.2966 6.21299C66.0236 6.21299 67.438 4.8143 67.438 3.1065ZM6.29069 11.6996C6.29069 9.99178 4.87629 8.59309 3.14932 8.59309C1.42235 8.59309 0.00794958 9.99178 0.00794951 11.6996C0.00794943 13.4074 1.42235 14.8061 3.14932 14.8061C4.87629 14.8061 6.29069 13.4074 6.29069 11.6996ZM23.6464 11.6996C23.6464 9.99179 22.232 8.59309 20.505 8.59309C18.778 8.59309 17.3636 9.99179 17.3636 11.6996C17.3636 13.4074 18.778 14.8061 20.505 14.8061C22.232 14.8061 23.6464 13.4074 23.6464 11.6996V11.6996ZM32.3203 11.6996C32.3203 9.99179 30.9059 8.59309 29.1789 8.59309C27.452 8.59309 26.0376 9.99179 26.0376 11.6996C26.0376 13.4074 27.452 14.8061 29.1789 14.8061C30.9059 14.8061 32.3203 13.4074 32.3203 11.6996ZM41.4006 11.6996C41.4006 9.99179 39.9862 8.59309 38.2592 8.59309C36.5322 8.59309 35.1178 9.99179 35.1178 11.6996C35.1178 13.4074 36.5322 14.8061 38.2592 14.8061C39.9862 14.8061 41.4006 13.4074 41.4006 11.6996V11.6996ZM50.0745 11.6996C50.0745 9.99179 48.6601 8.59309 46.9331 8.59309C45.2062 8.59309 43.7918 9.99179 43.7918 11.6996C43.7918 13.4074 45.2062 14.8061 46.9331 14.8061C48.6601 14.8061 50.0745 13.4074 50.0745 11.6996ZM58.7562 11.6996C58.7562 9.99179 57.3418 8.59309 55.6149 8.59309C53.8879 8.59309 52.4735 9.99179 52.4735 11.6996C52.4735 13.4074 53.8879 14.8061 55.6149 14.8061C57.3418 14.8061 58.7562 13.4074 58.7562 11.6996ZM6.28287 20.2927C6.28287 18.5849 4.86848 17.1862 3.14151 17.1862C1.41453 17.1862 0.00013318 18.5849 0.000133105 20.2927C0.000133029 22.0005 1.41453 23.3992 3.14151 23.3992C4.86848 23.3992 6.28287 22.0005 6.28287 20.2927ZM14.9568 20.2927C14.9568 18.5849 13.5424 17.1862 11.8154 17.1862C10.0885 17.1862 8.67407 18.5849 8.67407 20.2927C8.67407 22.0005 10.0885 23.3992 11.8154 23.3992C13.5424 23.3992 14.9568 22.0005 14.9568 20.2927ZM23.6385 20.2927C23.6385 18.5849 22.2242 17.1862 20.4972 17.1862C18.7702 17.1862 17.3558 18.5849 17.3558 20.2927C17.3558 22.0005 18.7702 23.3992 20.4972 23.3992C22.2242 23.3992 23.6385 22.0005 23.6385 20.2927ZM32.3125 20.2927C32.3125 18.5849 30.8981 17.1862 29.1711 17.1862C27.4441 17.1862 26.0297 18.5849 26.0297 20.2927C26.0297 22.0005 27.4441 23.3992 29.1711 23.3992C30.8981 23.3992 32.3125 22.0005 32.3125 20.2927V20.2927ZM41.3928 20.2927C41.3928 18.5849 39.9784 17.1862 38.2514 17.1862C36.5244 17.1862 35.11 18.5849 35.11 20.2927C35.11 22.0005 36.5244 23.3992 38.2514 23.3992C39.9784 23.3992 41.3928 22.0005 41.3928 20.2927ZM58.7484 20.2927C58.7484 18.5849 57.334 17.1862 55.6071 17.1862C53.8801 17.1862 52.4657 18.5849 52.4657 20.2927C52.4657 22.0005 53.8801 23.3992 55.6071 23.3992C57.334 23.3992 58.7484 22.0005 58.7484 20.2927ZM67.4224 20.2927C67.4224 18.5849 66.008 17.1862 64.281 17.1862C62.554 17.1862 61.1396 18.5849 61.1396 20.2927C61.1396 22.0005 62.554 23.3992 64.281 23.3992C66.008 23.3992 67.4224 22.0005 67.4224 20.2927ZM6.27506 28.8858C6.27506 27.178 4.86066 25.7793 3.13369 25.7793C1.40672 25.7793 -0.00767726 27.178 -0.00767733 28.8858C-0.00767741 30.5936 1.40672 31.9923 3.13369 31.9923C4.86066 31.9923 6.27506 30.5936 6.27506 28.8858ZM23.6307 28.8858C23.6307 27.178 22.2163 25.7793 20.4894 25.7793C18.7624 25.7793 17.348 27.178 17.348 28.8858C17.348 30.5936 18.7624 31.9923 20.4894 31.9923C22.2163 31.9923 23.6307 30.5936 23.6307 28.8858V28.8858ZM32.3047 28.8858C32.3047 27.178 30.8903 25.7793 29.1633 25.7793C27.4363 25.7793 26.0219 27.178 26.0219 28.8858C26.0219 30.5936 27.4363 31.9923 29.1633 31.9923C30.8903 31.9923 32.3047 30.5936 32.3047 28.8858ZM41.3849 28.8858C41.3849 27.178 39.9705 25.7793 38.2436 25.7793C36.5166 25.7793 35.1022 27.178 35.1022 28.8858C35.1022 30.5936 36.5166 31.9923 38.2436 31.9923C39.9705 31.9923 41.3849 30.5936 41.3849 28.8858V28.8858ZM50.0589 28.8858C50.0589 27.178 48.6445 25.7793 46.9175 25.7793C45.1905 25.7793 43.7761 27.178 43.7761 28.8858C43.7761 30.5936 45.1905 31.9923 46.9175 31.9923C48.6445 31.9923 50.0589 30.5936 50.0589 28.8858ZM58.7406 28.8858C58.7406 27.178 57.3262 25.7793 55.5992 25.7793C53.8723 25.7793 52.4579 27.178 52.4579 28.8858C52.4579 30.5936 53.8723 31.9923 55.5992 31.9923C57.3262 31.9923 58.7406 30.5936 58.7406 28.8858ZM67.4145 28.8858C67.4145 27.178 66.0001 25.7793 64.2732 25.7793C62.5462 25.7793 61.1318 27.178 61.1318 28.8858C61.1318 30.5936 62.5462 31.9923 64.2732 31.9923C66.0001 31.9923 67.4145 30.5936 67.4145 28.8858Z" fill="#DDDDDD"/>
</g>
<g clip-path="url(#clip1_15933_770)">
<path d="M72.7121 6.21323C70.9851 6.21323 69.5707 4.81454 69.5707 3.10674C69.5707 1.39894 70.9851 0.00024129 72.7121 0.000241364C74.439 0.000241439 75.8534 1.39894 75.8534 3.10674C75.8534 4.81454 74.439 6.21323 72.7121 6.21323ZM84.5274 3.10674C84.5274 1.39894 83.113 0.000241814 81.386 0.000241739C79.659 0.000241664 78.2446 1.39894 78.2446 3.10674C78.2446 4.81454 79.659 6.21323 81.386 6.21323C83.113 6.21323 84.5274 4.81454 84.5274 3.10674ZM93.2091 3.10674C93.2091 1.39894 91.7947 0.000242188 90.0677 0.000242114C88.3408 0.000242039 86.9264 1.39894 86.9264 3.10674C86.9264 4.81454 88.3408 6.21323 90.0677 6.21323C91.7947 6.21323 93.2091 4.81454 93.2091 3.10674ZM101.883 3.10674C101.883 1.39894 100.469 0.000242563 98.7417 0.000242488C97.0147 0.000242414 95.6003 1.39894 95.6003 3.10674C95.6003 4.81454 97.0147 6.21323 98.7417 6.21323C100.469 6.21323 101.883 4.81454 101.883 3.10674V3.10674ZM110.963 3.10674C110.963 1.39894 109.549 0.000242955 107.822 0.000242881C106.095 0.000242806 104.681 1.39894 104.681 3.10674C104.681 4.81454 106.095 6.21323 107.822 6.21323C109.549 6.21323 110.963 4.81454 110.963 3.10674ZM128.319 3.10674C128.319 1.39894 126.905 0.000243705 125.178 0.00024363C123.451 0.000243555 122.036 1.39894 122.036 3.10674C122.036 4.81454 123.451 6.21323 125.178 6.21323C126.905 6.21323 128.319 4.81454 128.319 3.10674ZM137.001 3.10674C137.001 1.39894 135.586 0.00024408 133.859 0.000244005C132.132 0.00024393 130.718 1.39894 130.718 3.10674C130.718 4.81454 132.132 6.21323 133.859 6.21323C135.586 6.21323 137.001 4.81454 137.001 3.10674ZM75.8534 11.6998C75.8534 9.99203 74.439 8.59333 72.7121 8.59333C70.9851 8.59333 69.5707 9.99203 69.5707 11.6998C69.5707 13.4076 70.9851 14.8063 72.7121 14.8063C74.439 14.8063 75.8534 13.4076 75.8534 11.6998ZM93.2091 11.6998C93.2091 9.99203 91.7947 8.59333 90.0677 8.59333C88.3408 8.59333 86.9264 9.99203 86.9264 11.6998C86.9264 13.4076 88.3408 14.8063 90.0677 14.8063C91.7947 14.8063 93.2091 13.4076 93.2091 11.6998V11.6998ZM101.883 11.6998C101.883 9.99203 100.469 8.59333 98.7417 8.59333C97.0147 8.59333 95.6003 9.99203 95.6003 11.6998C95.6003 13.4076 97.0147 14.8063 98.7417 14.8063C100.469 14.8063 101.883 13.4076 101.883 11.6998ZM110.963 11.6998C110.963 9.99203 109.549 8.59333 107.822 8.59333C106.095 8.59333 104.681 9.99203 104.681 11.6998C104.681 13.4076 106.095 14.8063 107.822 14.8063C109.549 14.8063 110.963 13.4076 110.963 11.6998V11.6998ZM119.637 11.6998C119.637 9.99203 118.223 8.59333 116.496 8.59333C114.769 8.59333 113.355 9.99203 113.355 11.6998C113.355 13.4076 114.769 14.8063 116.496 14.8063C118.223 14.8063 119.637 13.4076 119.637 11.6998ZM128.319 11.6998C128.319 9.99203 126.905 8.59334 125.178 8.59334C123.451 8.59334 122.036 9.99203 122.036 11.6998C122.036 13.4076 123.451 14.8063 125.178 14.8063C126.905 14.8063 128.319 13.4076 128.319 11.6998ZM75.8456 20.2929C75.8456 18.5851 74.4312 17.1864 72.7042 17.1864C70.9773 17.1864 69.5629 18.5851 69.5629 20.2929C69.5629 22.0007 70.9773 23.3994 72.7042 23.3994C74.4312 23.3994 75.8456 22.0007 75.8456 20.2929ZM84.5195 20.2929C84.5195 18.5851 83.1052 17.1864 81.3782 17.1864C79.6512 17.1864 78.2368 18.5851 78.2368 20.2929C78.2368 22.0007 79.6512 23.3994 81.3782 23.3994C83.1052 23.3994 84.5195 22.0007 84.5195 20.2929ZM93.2013 20.2929C93.2013 18.5851 91.7869 17.1864 90.0599 17.1864C88.333 17.1864 86.9186 18.5851 86.9186 20.2929C86.9186 22.0007 88.333 23.3994 90.0599 23.3994C91.7869 23.3994 93.2013 22.0007 93.2013 20.2929ZM101.875 20.2929C101.875 18.5851 100.461 17.1864 98.7339 17.1864C97.0069 17.1864 95.5925 18.5851 95.5925 20.2929C95.5925 22.0007 97.0069 23.3994 98.7339 23.3994C100.461 23.3994 101.875 22.0007 101.875 20.2929V20.2929ZM110.955 20.2929C110.955 18.5851 109.541 17.1864 107.814 17.1864C106.087 17.1864 104.673 18.5851 104.673 20.2929C104.673 22.0007 106.087 23.3994 107.814 23.3994C109.541 23.3994 110.955 22.0007 110.955 20.2929ZM128.311 20.2929C128.311 18.5851 126.897 17.1864 125.17 17.1864C123.443 17.1864 122.028 18.5851 122.028 20.2929C122.028 22.0007 123.443 23.3994 125.17 23.3994C126.897 23.3994 128.311 22.0007 128.311 20.2929ZM136.985 20.2929C136.985 18.5851 135.571 17.1864 133.844 17.1864C132.117 17.1864 130.702 18.5851 130.702 20.2929C130.702 22.0007 132.117 23.3994 133.844 23.3994C135.571 23.3994 136.985 22.0007 136.985 20.2929ZM75.8378 28.886C75.8378 27.1782 74.4234 25.7795 72.6964 25.7795C70.9695 25.7795 69.5551 27.1782 69.5551 28.886C69.5551 30.5938 70.9695 31.9925 72.6964 31.9925C74.4234 31.9925 75.8378 30.5938 75.8378 28.886ZM93.1935 28.886C93.1935 27.1782 91.7791 25.7795 90.0521 25.7795C88.3251 25.7795 86.9107 27.1782 86.9107 28.886C86.9107 30.5938 88.3251 31.9925 90.0521 31.9925C91.7791 31.9925 93.1935 30.5938 93.1935 28.886V28.886ZM101.867 28.886C101.867 27.1782 100.453 25.7795 98.726 25.7795C96.9991 25.7795 95.5847 27.1782 95.5847 28.886C95.5847 30.5938 96.9991 31.9925 98.726 31.9925C100.453 31.9925 101.867 30.5938 101.867 28.886ZM110.948 28.886C110.948 27.1782 109.533 25.7795 107.806 25.7795C106.079 25.7795 104.665 27.1782 104.665 28.886C104.665 30.5938 106.079 31.9925 107.806 31.9925C109.533 31.9925 110.948 30.5938 110.948 28.886V28.886ZM119.622 28.886C119.622 27.1782 118.207 25.7795 116.48 25.7795C114.753 25.7795 113.339 27.1782 113.339 28.886C113.339 30.5938 114.753 31.9925 116.48 31.9925C118.207 31.9925 119.622 30.5938 119.622 28.886ZM128.303 28.886C128.303 27.1782 126.889 25.7795 125.162 25.7795C123.435 25.7795 122.021 27.1782 122.021 28.886C122.021 30.5938 123.435 31.9925 125.162 31.9925C126.889 31.9925 128.303 30.5938 128.303 28.886ZM136.977 28.886C136.977 27.1782 135.563 25.7795 133.836 25.7795C132.109 25.7795 130.695 27.1782 130.695 28.886C130.695 30.5938 132.109 31.9925 133.836 31.9925C135.563 31.9925 136.977 30.5938 136.977 28.886Z" fill="#DDDDDD"/>
</g>
<defs>
<clipPath id="clip0_15933_770">
<rect width="32" height="67.4379" fill="white" transform="translate(67.4377) rotate(90)"/>
</clipPath>
<clipPath id="clip1_15933_770">
<rect width="32" height="67.4379" fill="white" transform="translate(137) rotate(90)"/>
</clipPath>
</defs>
</svg>
