<svg width="95" height="22" viewBox="0 0 95 22" fill="none" xmlns="http://www.w3.org/2000/svg">
<g clip-path="url(#clip0_14073_22773)">
<path d="M2.16531 4.27143C0.978016 4.27143 0.00561509 3.30983 0.00561514 2.13571C0.00561519 0.961601 0.978016 -1.9599e-06 2.16531 -1.90863e-06C3.3526 -1.85736e-06 4.325 0.961601 4.325 2.13571C4.325 3.30983 3.3526 4.27143 2.16531 4.27143ZM10.2883 2.13571C10.2883 0.961602 9.31593 -1.59984e-06 8.12864 -1.65111e-06C6.94134 -1.70239e-06 5.96894 0.961601 5.96894 2.13571C5.96894 3.30983 6.94134 4.27143 8.12864 4.27143C9.31593 4.27143 10.2883 3.30983 10.2883 2.13571ZM16.257 2.13571C16.257 0.961602 15.2846 -1.3421e-06 14.0973 -1.39337e-06C12.91 -1.44464e-06 11.9376 0.961602 11.9376 2.13571C11.9376 3.30983 12.91 4.27143 14.0973 4.27143C15.2846 4.27143 16.257 3.30983 16.257 2.13571ZM22.2204 2.13571C22.2204 0.961602 21.248 -1.08458e-06 20.0607 -1.13585e-06C18.8734 -1.18712e-06 17.901 0.961602 17.901 2.13571C17.901 3.30983 18.8734 4.27143 20.0607 4.27143C21.248 4.27143 22.2204 3.30983 22.2204 2.13571ZM28.463 2.13571C28.463 0.961602 27.4906 -8.15002e-07 26.3034 -8.66273e-07C25.1161 -9.17544e-07 24.1437 0.961602 24.1437 2.13571C24.1437 3.30983 25.1161 4.27143 26.3034 4.27143C27.4906 4.27143 28.463 3.30983 28.463 2.13571ZM40.3951 2.13572C40.3951 0.961603 39.4227 -2.99739e-07 38.2354 -3.5101e-07C37.0481 -4.02281e-07 36.0757 0.961603 36.0757 2.13572C36.0757 3.30983 37.0481 4.27143 38.2354 4.27143C39.4227 4.27143 40.3951 3.30983 40.3951 2.13572ZM46.3638 2.13572C46.3638 0.961603 45.3914 -4.19913e-08 44.2041 -9.32624e-08C43.0168 -1.44533e-07 42.0444 0.961603 42.0444 2.13572C42.0444 3.30983 43.0168 4.27143 44.2041 4.27143C45.3914 4.27143 46.3638 3.30983 46.3638 2.13572ZM4.325 8.04346C4.325 6.86935 3.3526 5.90775 2.16531 5.90775C0.978016 5.90775 0.00561493 6.86935 0.00561488 8.04346C0.00561483 9.21758 0.978015 10.1792 2.16531 10.1792C3.3526 10.1792 4.325 9.21758 4.325 8.04346ZM16.257 8.04347C16.257 6.86935 15.2846 5.90775 14.0973 5.90775C12.91 5.90775 11.9376 6.86935 11.9376 8.04347C11.9376 9.21758 12.91 10.1792 14.0973 10.1792C15.2846 10.1792 16.257 9.21758 16.257 8.04347ZM22.2204 8.04347C22.2204 6.86935 21.248 5.90775 20.0607 5.90775C18.8734 5.90775 17.901 6.86935 17.901 8.04347C17.901 9.21758 18.8734 10.1792 20.0607 10.1792C21.248 10.1792 22.2204 9.21758 22.2204 8.04347ZM28.463 8.04347C28.463 6.86935 27.4906 5.90775 26.3034 5.90775C25.1161 5.90775 24.1437 6.86935 24.1437 8.04347C24.1437 9.21758 25.1161 10.1792 26.3034 10.1792C27.4906 10.1792 28.463 9.21758 28.463 8.04347ZM34.4264 8.04347C34.4264 6.86935 33.454 5.90775 32.2667 5.90775C31.0794 5.90775 30.107 6.86935 30.107 8.04347C30.107 9.21758 31.0794 10.1792 32.2667 10.1792C33.454 10.1792 34.4264 9.21758 34.4264 8.04347ZM40.3951 8.04347C40.3951 6.86935 39.4227 5.90775 38.2354 5.90775C37.0481 5.90775 36.0757 6.86935 36.0757 8.04347C36.0757 9.21758 37.0481 10.1792 38.2354 10.1792C39.4227 10.1792 40.3951 9.21758 40.3951 8.04347ZM4.31963 13.9512C4.31963 12.7771 3.34723 11.8155 2.15993 11.8155C0.97264 11.8155 0.000239761 12.7771 0.000239709 13.9512C0.000239657 15.1253 0.97264 16.0869 2.15993 16.0869C3.34723 16.0869 4.31963 15.1253 4.31963 13.9512ZM10.283 13.9512C10.283 12.7771 9.31055 11.8155 8.12326 11.8155C6.93597 11.8155 5.96357 12.7771 5.96357 13.9512C5.96357 15.1253 6.93597 16.0869 8.12326 16.0869C9.31055 16.0869 10.283 15.1253 10.283 13.9512ZM16.2517 13.9512C16.2517 12.7771 15.2793 11.8155 14.092 11.8155C12.9047 11.8155 11.9323 12.7771 11.9323 13.9512C11.9323 15.1253 12.9047 16.0869 14.092 16.0869C15.2793 16.0869 16.2517 15.1253 16.2517 13.9512ZM22.215 13.9512C22.215 12.7771 21.2426 11.8155 20.0553 11.8155C18.868 11.8155 17.8956 12.7771 17.8956 13.9512C17.8956 15.1253 18.868 16.0869 20.0553 16.0869C21.2426 16.0869 22.215 15.1253 22.215 13.9512ZM28.4577 13.9512C28.4577 12.7771 27.4853 11.8155 26.298 11.8155C25.1107 11.8155 24.1383 12.7771 24.1383 13.9512C24.1383 15.1253 25.1107 16.0869 26.298 16.0869C27.4853 16.0869 28.4577 15.1253 28.4577 13.9512ZM40.3897 13.9512C40.3897 12.7771 39.4173 11.8155 38.23 11.8155C37.0427 11.8155 36.0703 12.7771 36.0703 13.9512C36.0703 15.1253 37.0427 16.0869 38.23 16.0869C39.4173 16.0869 40.3897 15.1253 40.3897 13.9512ZM46.353 13.9512C46.353 12.7771 45.3806 11.8155 44.1933 11.8155C43.006 11.8155 42.0336 12.7771 42.0336 13.9512C42.0336 15.1253 43.006 16.0869 44.1933 16.0869C45.3806 16.0869 46.353 15.1253 46.353 13.9512ZM4.31425 19.859C4.31425 18.6849 3.34185 17.7232 2.15456 17.7232C0.967269 17.7232 -0.00512778 18.6849 -0.00512783 19.859C-0.00512788 21.0331 0.967269 21.9947 2.15456 21.9947C3.34185 21.9947 4.31425 21.0331 4.31425 19.859ZM16.2463 19.859C16.2463 18.6849 15.2739 17.7233 14.0866 17.7232C12.8993 17.7232 11.9269 18.6849 11.9269 19.859C11.9269 21.0331 12.8993 21.9947 14.0866 21.9947C15.2739 21.9947 16.2463 21.0331 16.2463 19.859ZM22.2096 19.859C22.2096 18.6849 21.2372 17.7233 20.0499 17.7233C18.8626 17.7233 17.8902 18.6849 17.8902 19.859C17.8902 21.0331 18.8626 21.9947 20.0499 21.9947C21.2372 21.9947 22.2096 21.0331 22.2096 19.859ZM28.4523 19.859C28.4523 18.6849 27.4799 17.7233 26.2926 17.7233C25.1053 17.7233 24.1329 18.6849 24.1329 19.859C24.1329 21.0331 25.1053 21.9947 26.2926 21.9947C27.4799 21.9947 28.4523 21.0331 28.4523 19.859ZM34.4156 19.859C34.4156 18.6849 33.4432 17.7233 32.2559 17.7233C31.0686 17.7233 30.0962 18.6849 30.0962 19.859C30.0962 21.0331 31.0686 21.9947 32.2559 21.9947C33.4432 21.9947 34.4156 21.0331 34.4156 19.859ZM40.3843 19.859C40.3843 18.6849 39.4119 17.7233 38.2246 17.7233C37.0373 17.7233 36.0649 18.6849 36.0649 19.859C36.0649 21.0331 37.0373 21.9947 38.2246 21.9947C39.4119 21.9947 40.3843 21.0331 40.3843 19.859ZM46.3477 19.859C46.3477 18.6849 45.3753 17.7233 44.188 17.7233C43.0007 17.7233 42.0283 18.6849 42.0283 19.859C42.0283 21.0331 43.0007 21.9947 44.188 21.9947C45.3753 21.9947 46.3477 21.0331 46.3477 19.859Z" fill="#DDDDDD"/>
</g>
<g clip-path="url(#clip1_14073_22773)">
<path d="M49.9895 4.27167C48.8022 4.27167 47.8298 3.31007 47.8298 2.13596C47.8298 0.961845 48.8022 0.000242181 49.9895 0.000242232C51.1768 0.000242283 52.1492 0.961846 52.1492 2.13596C52.1492 3.31007 51.1768 4.27167 49.9895 4.27167ZM58.1125 2.13596C58.1125 0.961846 57.1401 0.000242541 55.9529 0.00024249C54.7656 0.000242438 53.7932 0.961846 53.7932 2.13596C53.7932 3.31007 54.7656 4.27167 55.9529 4.27167C57.1401 4.27167 58.1125 3.31007 58.1125 2.13596ZM64.0812 2.13596C64.0812 0.961846 63.1088 0.000242799 61.9216 0.000242747C60.7343 0.000242696 59.7619 0.961846 59.7619 2.13596C59.7619 3.31007 60.7343 4.27167 61.9216 4.27167C63.1088 4.27167 64.0812 3.31007 64.0812 2.13596ZM70.0446 2.13596C70.0446 0.961846 69.0722 0.000243056 67.8849 0.000243005C66.6976 0.000242954 65.7252 0.961846 65.7252 2.13596C65.7252 3.31007 66.6976 4.27167 67.8849 4.27167C69.0722 4.27167 70.0446 3.31007 70.0446 2.13596ZM76.2873 2.13596C76.2873 0.961847 75.3149 0.000243326 74.1276 0.000243274C72.9403 0.000243223 71.9679 0.961846 71.9679 2.13596C71.9679 3.31007 72.9403 4.27167 74.1276 4.27167C75.3149 4.27167 76.2873 3.31007 76.2873 2.13596ZM88.2193 2.13596C88.2193 0.961847 87.2469 0.000243841 86.0596 0.00024379C84.8723 0.000243738 83.8999 0.961847 83.8999 2.13596C83.8999 3.31007 84.8723 4.27167 86.0596 4.27167C87.2469 4.27167 88.2193 3.31007 88.2193 2.13596ZM94.188 2.13596C94.188 0.961847 93.2156 0.000244099 92.0283 0.000244047C90.841 0.000243996 89.8686 0.961847 89.8686 2.13596C89.8686 3.31007 90.841 4.27167 92.0283 4.27168C93.2156 4.27168 94.188 3.31007 94.188 2.13596ZM52.1492 8.04371C52.1492 6.8696 51.1768 5.90799 49.9895 5.90799C48.8022 5.90799 47.8298 6.8696 47.8298 8.04371C47.8298 9.21782 48.8022 10.1794 49.9895 10.1794C51.1768 10.1794 52.1492 9.21782 52.1492 8.04371ZM64.0812 8.04371C64.0812 6.8696 63.1088 5.90799 61.9216 5.90799C60.7343 5.90799 59.7619 6.8696 59.7619 8.04371C59.7619 9.21782 60.7343 10.1794 61.9216 10.1794C63.1088 10.1794 64.0812 9.21782 64.0812 8.04371ZM70.0446 8.04371C70.0446 6.8696 69.0722 5.90799 67.8849 5.90799C66.6976 5.90799 65.7252 6.8696 65.7252 8.04371C65.7252 9.21782 66.6976 10.1794 67.8849 10.1794C69.0722 10.1794 70.0446 9.21782 70.0446 8.04371ZM76.2873 8.04371C76.2873 6.8696 75.3149 5.90799 74.1276 5.90799C72.9403 5.90799 71.9679 6.8696 71.9679 8.04371C71.9679 9.21782 72.9403 10.1794 74.1276 10.1794C75.3149 10.1794 76.2873 9.21782 76.2873 8.04371ZM82.2506 8.04371C82.2506 6.8696 81.2782 5.90799 80.0909 5.90799C78.9036 5.90799 77.9312 6.8696 77.9312 8.04371C77.9312 9.21782 78.9036 10.1794 80.0909 10.1794C81.2782 10.1794 82.2506 9.21782 82.2506 8.04371ZM88.2193 8.04371C88.2193 6.8696 87.2469 5.90799 86.0596 5.90799C84.8723 5.90799 83.8999 6.8696 83.8999 8.04371C83.8999 9.21782 84.8723 10.1794 86.0596 10.1794C87.2469 10.1794 88.2193 9.21782 88.2193 8.04371ZM52.1438 13.9515C52.1438 12.7773 51.1714 11.8157 49.9842 11.8157C48.7969 11.8157 47.8245 12.7773 47.8245 13.9515C47.8245 15.1256 48.7969 16.0872 49.9842 16.0872C51.1714 16.0872 52.1438 15.1256 52.1438 13.9515ZM58.1072 13.9515C58.1072 12.7773 57.1348 11.8157 55.9475 11.8157C54.7602 11.8157 53.7878 12.7773 53.7878 13.9515C53.7878 15.1256 54.7602 16.0872 55.9475 16.0872C57.1348 16.0872 58.1072 15.1256 58.1072 13.9515ZM64.0759 13.9515C64.0759 12.7773 63.1035 11.8157 61.9162 11.8157C60.7289 11.8157 59.7565 12.7773 59.7565 13.9515C59.7565 15.1256 60.7289 16.0872 61.9162 16.0872C63.1035 16.0872 64.0759 15.1256 64.0759 13.9515ZM70.0392 13.9515C70.0392 12.7773 69.0668 11.8157 67.8795 11.8157C66.6922 11.8157 65.7198 12.7773 65.7198 13.9515C65.7198 15.1256 66.6922 16.0872 67.8795 16.0872C69.0668 16.0872 70.0392 15.1256 70.0392 13.9515ZM76.2819 13.9515C76.2819 12.7773 75.3095 11.8157 74.1222 11.8157C72.9349 11.8157 71.9625 12.7773 71.9625 13.9515C71.9625 15.1256 72.9349 16.0872 74.1222 16.0872C75.3095 16.0872 76.2819 15.1256 76.2819 13.9515ZM88.2139 13.9515C88.2139 12.7773 87.2415 11.8157 86.0542 11.8157C84.8669 11.8157 83.8945 12.7773 83.8945 13.9515C83.8945 15.1256 84.8669 16.0872 86.0542 16.0872C87.2415 16.0872 88.2139 15.1256 88.2139 13.9515ZM94.1772 13.9515C94.1772 12.7773 93.2048 11.8157 92.0176 11.8157C90.8303 11.8157 89.8579 12.7773 89.8579 13.9515C89.8579 15.1256 90.8303 16.0872 92.0176 16.0872C93.2048 16.0872 94.1772 15.1256 94.1772 13.9515ZM52.1385 19.8592C52.1385 18.6851 51.1661 17.7235 49.9788 17.7235C48.7915 17.7235 47.8191 18.6851 47.8191 19.8592C47.8191 21.0333 48.7915 21.9949 49.9788 21.9949C51.1661 21.9949 52.1385 21.0333 52.1385 19.8592ZM64.0705 19.8592C64.0705 18.6851 63.0981 17.7235 61.9108 17.7235C60.7235 17.7235 59.7511 18.6851 59.7511 19.8592C59.7511 21.0333 60.7235 21.9949 61.9108 21.9949C63.0981 21.9949 64.0705 21.0333 64.0705 19.8592ZM70.0338 19.8592C70.0338 18.6851 69.0614 17.7235 67.8741 17.7235C66.6868 17.7235 65.7144 18.6851 65.7144 19.8592C65.7144 21.0333 66.6868 21.9949 67.8741 21.9949C69.0614 21.9949 70.0338 21.0333 70.0338 19.8592ZM76.2765 19.8592C76.2765 18.6851 75.3041 17.7235 74.1168 17.7235C72.9295 17.7235 71.9571 18.6851 71.9571 19.8592C71.9571 21.0333 72.9295 21.9949 74.1168 21.9949C75.3041 21.9949 76.2765 21.0333 76.2765 19.8592ZM82.2398 19.8592C82.2398 18.6851 81.2674 17.7235 80.0802 17.7235C78.8929 17.7235 77.9205 18.6851 77.9205 19.8592C77.9205 21.0333 78.8929 21.9949 80.0802 21.9949C81.2674 21.9949 82.2398 21.0333 82.2398 19.8592ZM88.2085 19.8592C88.2085 18.6851 87.2361 17.7235 86.0489 17.7235C84.8616 17.7235 83.8892 18.6851 83.8892 19.8592C83.8892 21.0333 84.8616 21.9949 86.0489 21.9949C87.2361 21.9949 88.2085 21.0333 88.2085 19.8592ZM94.1719 19.8592C94.1719 18.6851 93.1995 17.7235 92.0122 17.7235C90.8249 17.7235 89.8525 18.6851 89.8525 19.8592C89.8525 21.0333 90.8249 21.9949 92.0122 21.9949C93.1995 21.9949 94.1719 21.0333 94.1719 19.8592Z" fill="#DDDDDD"/>
</g>
<defs>
<clipPath id="clip0_14073_22773">
<rect width="22" height="46.3635" fill="white" transform="translate(46.3638) rotate(90)"/>
</clipPath>
<clipPath id="clip1_14073_22773">
<rect width="22" height="46.3635" fill="white" transform="translate(94.188) rotate(90)"/>
</clipPath>
</defs>
</svg>
