<svg width="852" height="53" viewBox="0 0 852 53" fill="none" xmlns="http://www.w3.org/2000/svg">
<path d="M229.89 21.6883L198.96 52.6183H154.02L187.17 19.4683L185.64 18.1183H164.76L148.77 3.86832L152.61 0.0283213H208.71L229.8 18.8083C230.67 19.5583 230.7 20.9083 229.89 21.7183V21.6883Z" fill="white"/>
<path d="M55.5305 32.3683L47.0405 40.8583H48.2705L53.6705 36.7483C54.6005 36.0283 55.7405 35.6683 56.9105 35.6683H77.7905L73.2905 40.1683C72.0605 41.3983 70.4705 42.2383 68.7305 42.5683L41.8205 47.4883C40.7705 47.6683 39.7805 48.2083 39.0005 48.9583L35.3105 52.6483H0.000488281L20.8505 31.7983C21.8405 30.8083 23.0405 29.9983 24.3605 29.4583L44.2205 21.3883C46.6205 20.4283 49.1705 19.9183 51.7505 19.9183H94.1705L83.2205 30.8683H59.3105C57.9005 30.8683 56.5505 31.4383 55.5605 32.4283L55.5305 32.3683Z" fill="white"/>
<path d="M161.04 21.6883L130.11 52.6183H85.1705L118.32 19.4683L116.79 18.1183H95.9105L79.9205 3.86832L83.7605 0.0283213H139.86L160.951 18.8083C161.82 19.5583 161.85 20.9083 161.04 21.7183V21.6883Z" fill="white"/>
<path d="M750.419 33.239C750.419 31.349 751.019 29.879 752.399 28.499L758.339 22.559C759.719 21.179 761.219 20.579 763.079 20.579H839.099V11.279H751.409V-0.000975609H838.799C840.569 -0.000975609 842.159 0.599024 843.539 1.97902L849.569 7.91902C850.949 9.29902 851.459 10.889 851.459 12.659V19.679C851.459 21.659 850.979 23.129 849.479 24.509L843.449 30.059C841.859 31.529 840.479 32.039 838.709 32.039H762.779V41.519H851.459V52.589H750.419V33.209V33.239Z" fill="white"/>
<path d="M267.811 -0.000976562H294.511L315.481 40.529H321.181L342.151 -0.000976562H368.851V52.409H355.801L356.401 11.879H351.061L329.101 52.409H307.591L285.631 11.879H280.291L280.891 52.409H267.841V-0.000976562H267.811Z" fill="white"/>
<path d="M483.001 12.659V52.619H469.951V38.189H394.951V52.619H381.901V12.659C381.901 10.769 382.501 9.29902 383.881 7.91902L389.821 1.97902C391.201 0.599024 392.701 -0.000975609 394.561 -0.000975609H470.371C472.261 -0.000975609 473.731 0.599024 475.111 1.97902L481.051 7.91902C482.431 9.29902 483.031 10.799 483.031 12.659H483.001ZM469.951 26.309V11.849H394.951V26.279H469.951V26.309Z" fill="white"/>
<path d="M503.969 50.609L498.029 44.669C496.649 43.289 496.049 41.789 496.049 39.929V12.659C496.049 10.769 496.649 9.29902 498.029 7.91902L503.969 1.97902C505.349 0.599024 506.849 -0.000975609 508.709 -0.000975609H597.149V11.849H509.099V40.709H597.149V52.559H508.709C506.819 52.559 505.349 51.959 503.969 50.579V50.609Z" fill="white"/>
<path d="M711.271 -0.000975609V52.589H698.221V32.219H623.281V52.589H610.231V-0.000975609H623.281V20.369H698.221V-0.000975609H711.271Z" fill="white"/>
</svg>
