<svg width="32" height="32" viewBox="0 0 32 32" fill="none" xmlns="http://www.w3.org/2000/svg">
<g id="Group 626956">
<circle id="Ellipse 25" cx="16" cy="16" r="15.5" stroke="#393737"/>
<path id="Vector" d="M24.8647 15.443L23.7035 13.4362L23.5812 13.1302C23.5114 12.7793 23.3193 11.9603 23.1097 11.0244C22.8303 9.78257 20.7959 8.22573 20.1323 7.90176C19.8322 7.7645 19.5406 7.60822 19.2592 7.43381C19.1112 7.32817 18.9454 7.25187 18.7702 7.20883C18.07 7.0569 17.3553 6.98746 16.6398 7.00185H16.3691C15.6624 6.9895 14.9566 7.05893 14.2649 7.20883C14.0912 7.24798 13.9275 7.32466 13.7846 7.43381C13.5018 7.60558 13.2104 7.76179 12.9115 7.90176C12.2654 8.22573 10.1961 9.78257 9.91665 11.0244C9.70709 11.9243 9.515 12.7703 9.44515 13.1212L9.32291 13.4362L8.12672 15.443C8.02818 15.6103 7.98527 15.8062 8.00448 16.0009C8.09786 17.1131 8.30866 18.2115 8.63314 19.2766C9.04994 20.0807 9.64901 20.7691 10.3794 21.2834C10.4863 21.362 10.6149 21.403 10.7461 21.4004H11.6542C11.757 21.4018 11.8584 21.4264 11.9511 21.4724C12.044 21.5178 12.1249 21.5857 12.1868 21.6703L14.6228 24.4781C14.7639 24.6417 14.9363 24.7735 15.1293 24.865C15.3213 24.9545 15.5297 25.0005 15.7405 25H17.2423C17.453 25.0005 17.6614 24.9545 17.8535 24.865C18.0464 24.7735 18.2188 24.6417 18.3599 24.4781L20.7872 21.6703C20.8495 21.588 20.9289 21.521 21.0195 21.4743C21.1102 21.4276 21.2098 21.4024 21.3111 21.4004H22.2802C22.4115 21.403 22.5401 21.362 22.647 21.2834C23.3614 20.7637 23.9452 20.0757 24.3496 19.2766C24.6773 18.2268 24.8939 17.1437 24.9957 16.0459C25.015 15.8357 24.9691 15.6246 24.8647 15.443ZM23.3542 16.0639L22.6557 18.4757C22.6125 18.6291 22.512 18.7585 22.3763 18.8356L20.2895 20.0595C20.1945 20.1182 20.0859 20.1492 19.9752 20.1492C19.8644 20.1492 19.7558 20.1182 19.6608 20.0595L18.1154 18.9256C18.0157 18.8618 17.9009 18.8275 17.7836 18.8266H15.2515C15.1299 18.8253 15.0108 18.863 14.911 18.9346L13.2957 20.0415C13.2007 20.1002 13.0921 20.1312 12.9814 20.1312C12.8706 20.1312 12.762 20.1002 12.667 20.0415L10.5802 18.8356C10.4469 18.7557 10.3473 18.6273 10.3008 18.4757L9.60232 16.0639C9.57175 15.9582 9.57175 15.8456 9.60232 15.74C9.6281 15.6309 9.68247 15.5313 9.75948 15.452L10.6326 14.5521C10.7215 14.4564 10.7768 14.3329 10.7898 14.2011L11.0343 12.7253C11.0741 12.5973 11.1501 12.4845 11.2525 12.4013L11.8375 11.8254C11.8375 11.8254 11.8899 11.8254 11.8987 11.8973L12.0122 13.7512C12.0205 13.8678 12.0598 13.9799 12.1257 14.0751C12.1947 14.1658 12.2848 14.2369 12.3876 14.2821L15.3476 15.605C15.4467 15.649 15.5539 15.6705 15.6619 15.668H17.3121C17.4172 15.6698 17.5214 15.6483 17.6177 15.605L20.6475 14.3181C20.7503 14.2729 20.8404 14.2017 20.9094 14.1111C20.9711 14.0177 21.0073 13.9089 21.0142 13.7962L21.1364 11.9423C21.1364 11.8524 21.1364 11.8524 21.1976 11.8704L21.7826 12.4463C21.8756 12.5374 21.937 12.6576 21.9572 12.7883L22.2017 14.2551C22.2207 14.3816 22.2789 14.4984 22.3676 14.5881L23.2407 15.488C23.308 15.5636 23.3533 15.6571 23.3717 15.7579C23.3923 15.8597 23.3863 15.9653 23.3542 16.0639Z" fill="white"/>
</g>
</svg>
