<svg width="14" height="18" viewBox="0 0 14 18" fill="none" xmlns="http://www.w3.org/2000/svg">
<path d="M13.8992 4.40404C13.8723 4.36428 13.8361 4.33208 13.794 4.31043C13.7518 4.28878 13.705 4.2783 13.6579 4.28005H12.29V4.11482C12.2879 3.63206 12.1922 3.15458 12.0084 2.71022C11.9487 2.59079 11.8744 2.47971 11.7872 2.37972H13.5975C13.644 2.38665 13.6914 2.3823 13.7359 2.36711C13.7805 2.35191 13.821 2.32626 13.8542 2.29216C13.8874 2.25806 13.9124 2.21651 13.9272 2.17075C13.942 2.12498 13.9462 2.07626 13.9395 2.02853V0.851182C13.9323 0.759713 13.8971 0.672876 13.8389 0.603255C13.7749 0.537349 13.6881 0.500228 13.5975 0.5H0.42223C0.331623 0.500228 0.244818 0.537349 0.18086 0.603255C0.122648 0.672876 0.0874293 0.759713 0.0802794 0.851182V2.02853C0.0735306 2.07626 0.0777276 2.12498 0.0925259 2.17075C0.107324 2.21651 0.132309 2.25806 0.165514 2.29216C0.198719 2.32626 0.239207 2.35191 0.283774 2.36711C0.32834 2.3823 0.375758 2.38665 0.42223 2.37972H8.8504C9.2969 2.38508 9.72363 2.56961 10.0394 2.89385C10.3551 3.21809 10.5348 3.65631 10.54 4.11482V4.28005H0.482572C0.435451 4.2783 0.388653 4.28878 0.346479 4.31043C0.304306 4.33208 0.268116 4.36428 0.241203 4.40404C0.180046 4.46337 0.143938 4.5449 0.140622 4.63123V5.82926C0.140622 6.05647 0.261308 6.15976 0.482572 6.15976H10.54V6.32505C10.5348 6.78356 10.3551 7.22178 10.0394 7.54602C9.72363 7.87026 9.2969 8.05479 8.8504 8.06015H1.8504C1.77262 8.03002 1.68679 8.03002 1.609 8.06015C1.55079 8.12977 1.51557 8.21655 1.50842 8.30802V9.48543C1.50167 9.53315 1.50587 9.58182 1.52067 9.62758C1.53547 9.67335 1.56048 9.71496 1.59369 9.74905C1.62689 9.78315 1.66738 9.80881 1.71195 9.82401C1.75651 9.8392 1.80393 9.84348 1.8504 9.83655H6.93948L10.0774 17.0869C10.1227 17.1749 10.1928 17.2469 10.2785 17.2934C10.3163 17.3292 10.3607 17.3568 10.4091 17.3745C10.4575 17.3923 10.5089 17.3998 10.5601 17.3967H11.8877C11.9883 17.3967 12.0487 17.3967 12.0889 17.2934C12.1088 17.2629 12.1194 17.2269 12.1194 17.1901C12.1194 17.1534 12.1088 17.1174 12.0889 17.0869L8.99118 9.93987L9.8159 9.69201C10.5526 9.47295 11.2013 9.01677 11.6665 8.39066C12.1274 7.7671 12.3749 7.0046 12.3705 6.22173V6.05651H13.7383C13.9596 6.05651 14.0803 5.95322 14.0803 5.726V4.63123C14.0692 4.58159 14.0471 4.53524 14.0157 4.49582C13.9843 4.45641 13.9444 4.42503 13.8992 4.40404Z" fill="black"/>
</svg>
