<?xml version="1.0" encoding="UTF-8"?><svg id="Layer_1" xmlns="http://www.w3.org/2000/svg" viewBox="0 0 500 500"><path d="m77.64,228.92c-.44.25-.94.38-1.45.38-.25,0-.49,0-.74,0-9.09-.02-18.27-.03-27.22-.06-.36,0-.69,0-1.07-.11-.33-.1-.62-.26-.91-.45-1.62-1.02-4.69-2.98-5.5-3.5-.13-.09-.29-.13-.45-.13-.88,0-3.89,0-5.08,0-.21,0-.42-.06-.61-.16-1.48-.86-3.09-1.8-4.58-2.69-.22-.13-.3-.2-.38-.3-.07-.1-.11-.19-.12-.26-.03-.15,0-.29.03-.41.03-.09.09-.2.19-.36.12-.2.24-.4.37-.59.28-.45.5-.82.96-1.09h0c.14-.08.26-.14.44-.19.32-.1.61-.11,1.1-.11,18.02-.05,36.03-.05,54.06,0,.61,0,.96.03,1.32.19.29.12.49.3.62.44.23.24.39.51.55.78.12.2.24.4.37.59.16.27.29.5.23.77-.05.22-.18.36-.52.56-3.64,2.16-7.84,4.6-11.61,6.73h0Z"/><path d="m60.64,261.8c0-.51.14-1,.4-1.44.12-.21.25-.43.37-.64,4.56-7.86,9.16-15.8,13.66-23.54.18-.31.34-.59.63-.87.25-.24.54-.41.85-.57,1.7-.89,4.92-2.57,5.78-3.02.14-.07.26-.18.34-.32.43-.75,1.9-3.29,2.54-4.4.11-.19.26-.34.45-.45,1.48-.85,3.1-1.77,4.62-2.62.22-.13.32-.16.45-.18.12-.01.22,0,.29.03.15.05.26.14.34.23.06.07.13.18.22.34.11.2.22.41.33.61.25.47.46.84.47,1.38h0c0,.16,0,.29-.05.48-.07.32-.21.59-.45,1.01-8.96,15.64-17.97,31.23-27.03,46.81-.31.53-.5.81-.82,1.05-.25.19-.5.28-.69.32-.32.08-.63.08-.95.09-.23,0-.46.01-.7.02-.31,0-.58,0-.78-.18-.17-.15-.22-.34-.23-.73-.05-4.23-.06-9.09-.02-13.42h0Z"/><path d="m40.66,230.63c.44.26.8.63,1.05,1.06.12.21.25.43.37.64,4.53,7.88,9.1,15.84,13.56,23.6.18.31.34.59.44.98.08.34.08.67.07,1.02-.08,1.92-.23,5.55-.28,6.52,0,.16.03.31.11.45.44.77,1.99,3.46,2.59,4.5.07.12.1.25.1.39,0,1.74-.02,3.65-.04,5.43,0,.26-.02.36-.07.48-.05.11-.11.19-.17.24-.11.1-.25.15-.37.18-.1.02-.22.02-.4.02-.23,0-.46-.01-.7-.02-.53-.01-.96-.02-1.42-.28h0c-.14-.08-.25-.15-.39-.28-.24-.23-.4-.47-.65-.9-9.06-15.58-18.06-31.18-27.03-46.81-.3-.53-.45-.84-.5-1.24-.04-.31.01-.57.07-.76.09-.32.25-.59.4-.87.11-.2.22-.41.33-.61.15-.28.28-.5.55-.59.22-.07.4-.02.74.17,3.69,2.08,7.9,4.5,11.63,6.69h0Z"/><path d="m126,247.06v-9.5h4.13c.31,0,.56.25.56.56v9.88c0,2.31-.57,4.18-1.72,5.63-1.14,1.45-2.78,2.52-4.9,3.21-2.12.69-4.64,1.04-7.55,1.04s-5.4-.35-7.52-1.04c-2.12-.69-3.75-1.76-4.9-3.21-1.14-1.45-1.72-3.32-1.72-5.63v-9.88c0-.31.25-.56.56-.56h4.13v9.5c0,1.6.34,2.9,1.01,3.9.67,1,1.71,1.73,3.11,2.2,1.4.47,3.17.7,5.32.7s3.98-.23,5.37-.7c1.39-.47,2.42-1.2,3.09-2.2.67-1,1.01-2.3,1.01-3.9Z"/><path d="m139.32,253.54h20.91v3.46c0,.31-.25.56-.56.56h-25.05v-19.45c0-.31.25-.56.56-.56h4.13v15.99Z"/><path d="m168.71,241.57h-11.97v-3.46c0-.31.25-.56.56-.56h28.07v3.46c0,.31-.25.56-.56.56h-11.38v15.99h-4.72v-15.99Z"/><path d="m192.71,257.56h-4.13v-19.45c0-.31.25-.56.56-.56h19.03c1.23,0,2.34.12,3.33.37.99.25,1.83.63,2.52,1.16.69.53,1.23,1.22,1.6,2.08.37.86.56,1.91.56,3.14,0,1.43-.27,2.62-.81,3.58-.54.96-1.32,1.69-2.36,2.2-1.04.51-2.32.8-3.84.88l-1.79.03,8.51,6.57h-5.75c-.13,0-.26-.04-.36-.13l-7.56-6.21h-8.95v5.78c0,.31-.25.56-.56.56Zm.56-15.99v6.1h14.49c1.27,0,2.19-.23,2.74-.7.56-.47.84-1.24.84-2.32,0-1.13-.28-1.93-.84-2.39-.56-.46-1.47-.69-2.74-.69h-14.49Z"/><path d="m237.2,237.8c-.1-.15-.28-.25-.46-.25h-5.65c-.19,0-.36.09-.46.25l-13.33,19.76h5.33c.19,0,.36-.09.47-.25l2.63-4h16.32l2.63,4c.1.16.28.25.47.25h5.39l-13.33-19.76Zm-9.3,12.19l5.98-9.09,5.98,9.09h-11.96Z"/><path d="m259.37,257.31l-13.21-19.76h5.42c.19,0,.36.09.47.25l10.66,15.91,10.63-15.91c.1-.16.28-.25.47-.25h5.33l-13.18,19.76c-.1.16-.28.25-.47.25h-5.65c-.19,0-.36-.09-.47-.25Z"/><path d="m286,257.56h-4.13v-19.45c0-.31.25-.56.56-.56h4.13v19.45c0,.31-.25.56-.56.56Z"/><path d="m306.27,257.94c-3.7,0-6.73-.37-9.11-1.1-2.38-.73-4.13-1.87-5.27-3.4s-1.7-3.5-1.7-5.88.57-4.37,1.7-5.9c1.13-1.53,2.89-2.65,5.27-3.39,2.38-.73,5.41-1.1,9.11-1.1s6.76.37,9.12,1.1c2.37.73,4.12,1.86,5.25,3.39,1.13,1.53,1.7,3.49,1.7,5.9s-.57,4.35-1.7,5.88c-1.13,1.53-2.88,2.67-5.25,3.4-2.37.73-5.41,1.1-9.12,1.1Zm0-4.05c2.15,0,3.95-.12,5.4-.37,1.45-.24,2.61-.62,3.48-1.13.87-.51,1.5-1.16,1.88-1.97.38-.8.57-1.76.57-2.87s-.19-2.1-.57-2.89c-.38-.79-1.01-1.45-1.88-1.97-.87-.52-2.03-.89-3.48-1.13-1.45-.23-3.25-.35-5.4-.35-2.86,0-5.11.22-6.78.65-1.66.43-2.84,1.11-3.55,2.04-.7.93-1.06,2.15-1.06,3.65s.35,2.72,1.06,3.65c.7.93,1.89,1.61,3.55,2.04,1.66.43,3.92.64,6.78.64Z"/><path d="m330.68,253.54h20.91v3.46c0,.31-.25.56-.56.56h-25.05v-19.45c0-.31.25-.56.56-.56h4.13v15.99Z"/><path d="m380.29,257.56h-25.16c-.31,0-.56-.25-.56-.56v-18.89c0-.31.25-.56.56-.56h25.16c.31,0,.56.25.56.56v3.17h-21.59v4.02c0,.31.25.56.56.56h20.44v3.08h-20.44c-.31,0-.56.25-.56.56v4.34h21.59v3.17c0,.31-.25.56-.56.56Z"/><path d="m395.72,241.57h-11.97v-3.46c0-.31.25-.56.56-.56h28.07v3.46c0,.31-.25.56-.56.56h-11.38v15.99h-4.72v-15.99Z"/><path d="m426.93,241.57h-11.97v-3.46c0-.31.25-.56.56-.56h28.07v3.46c0,.31-.25.56-.56.56h-11.38v15.99h-4.72v-15.99Z"/><path d="m472.52,257.56h-25.16c-.31,0-.56-.25-.56-.56v-18.89c0-.31.25-.56.56-.56h25.16c.31,0,.56.25.56.56v3.17h-21.59v4.02c0,.31.25.56.56.56h20.44v3.08h-20.44c-.31,0-.56.25-.56.56v4.34h21.59v3.17c0,.31-.25.56-.56.56Z"/></svg>