<?xml version="1.0" encoding="UTF-8"?><svg id="Layer_1" xmlns="http://www.w3.org/2000/svg" viewBox="0 0 500 500"><path d="m331.19,166.26c-1.99,1.12-4.24,1.7-6.52,1.7-1.11,0-2.22,0-3.33,0-40.99-.08-82.4-.15-122.77-.25-1.61,0-3.09,0-4.83-.51-1.51-.44-2.8-1.19-4.12-2.03-7.31-4.62-21.14-13.42-24.83-15.77-.6-.38-1.3-.59-2.02-.59-3.95,0-17.53-.02-22.91-.02-.97,0-1.91-.26-2.75-.74-6.65-3.87-13.92-8.13-20.68-12.14-.99-.59-1.36-.91-1.7-1.35-.33-.44-.48-.86-.55-1.18-.15-.68-.04-1.32.13-1.83.14-.42.39-.91.84-1.63.55-.89,1.1-1.78,1.65-2.68,1.26-2.04,2.25-3.7,4.32-4.93h0c.63-.37,1.17-.62,1.97-.88,1.43-.44,2.77-.51,4.98-.52,81.3-.24,162.55-.24,243.85,0,2.76.01,4.31.14,5.95.84,1.31.56,2.21,1.34,2.82,1.98,1.04,1.09,1.76,2.29,2.5,3.5.55.89,1.1,1.78,1.65,2.68.74,1.21,1.31,2.24,1.05,3.47-.22,1.01-.81,1.62-2.33,2.52-16.43,9.73-35.39,20.73-52.37,30.36h0Z"/><path d="m254.49,314.59c.03-2.28.64-4.52,1.79-6.5.56-.96,1.11-1.92,1.67-2.88,20.57-35.46,41.33-71.29,61.6-106.19.81-1.39,1.55-2.68,2.86-3.93,1.13-1.09,2.43-1.83,3.81-2.55,7.66-4.02,22.2-11.6,26.07-13.62.63-.33,1.16-.83,1.52-1.45,1.95-3.37,8.58-14.83,11.47-19.83.49-.84,1.18-1.53,2.02-2.01,6.68-3.83,14-7.99,20.85-11.84,1-.57,1.47-.73,2.02-.8.54-.07.99.02,1.3.12.67.21,1.16.62,1.52,1.03.29.33.59.8.99,1.54.5.92,1,1.84,1.49,2.77,1.14,2.11,2.08,3.8,2.11,6.2h0c.01.73-.04,1.32-.23,2.15-.33,1.46-.94,2.65-2.04,4.57-40.44,70.53-81.06,140.89-121.92,211.18-1.39,2.39-2.28,3.66-3.7,4.73-1.14.86-2.27,1.24-3.12,1.45-1.46.35-2.86.37-4.28.41-1.05.03-2.09.06-3.14.09-1.42.04-2.6.02-3.53-.83-.77-.69-1-1.52-1.02-3.28-.21-19.09-.26-41.01-.11-60.53h0Z"/><path d="m164.35,174.01c1.96,1.17,3.6,2.82,4.74,4.8.56.97,1.11,1.93,1.66,2.88,20.42,35.54,41.07,71.44,61.16,106.45.8,1.4,1.54,2.68,1.98,4.44.38,1.52.37,3.02.3,4.58-.35,8.64-1.05,25.03-1.24,29.39-.03.71.14,1.42.5,2.04,2,3.48,8.98,15.59,11.7,20.31.31.54.47,1.15.47,1.77-.03,7.84-.09,16.47-.18,24.51-.01,1.15-.1,1.63-.32,2.15-.21.5-.51.85-.75,1.07-.52.47-1.12.7-1.65.8-.43.09-.98.11-1.83.09-1.05-.03-2.09-.06-3.14-.09-2.4-.07-4.33-.1-6.43-1.27h0c-.64-.36-1.12-.7-1.74-1.27-1.1-1.02-1.82-2.14-2.94-4.05-40.86-70.29-81.48-140.65-121.93-211.18-1.37-2.4-2.03-3.8-2.25-5.57-.17-1.42.06-2.59.31-3.43.42-1.44,1.11-2.67,1.78-3.92.5-.92,1-1.84,1.49-2.77.67-1.25,1.28-2.26,2.48-2.65.98-.32,1.81-.11,3.35.76,16.64,9.36,35.64,20.28,52.48,30.17h0Z"/></svg>