<svg width="107" height="145" viewBox="0 0 107 145" fill="none" xmlns="http://www.w3.org/2000/svg">
<g clip-path="url(#clip0_1679_10130)">
<path d="M106.45 52.3271H101.338C101.154 39.6064 95.9898 27.4628 86.9492 18.4944C77.9087 9.52604 65.7103 4.44534 52.9642 4.33941V0H52.5334V4.33941C39.7431 4.37908 27.48 9.43048 18.3847 18.4059C9.28945 27.3813 4.08956 39.5627 3.90477 52.3271H0.144531V52.8158H3.88519V52.9721C3.89552 65.8536 9.02176 78.2057 18.1406 87.3217C27.2594 96.4376 39.6271 101.574 52.5334 101.605V105.143H53.023V101.605C65.8801 101.497 78.1746 96.327 87.2332 87.22C96.2918 78.113 101.382 65.8049 101.397 52.9721V52.8158H106.509L106.45 52.3271ZM100.849 52.3271H84.7501C84.5728 43.9959 81.158 36.0596 75.2269 30.1946C69.2958 24.3296 61.3128 20.9952 52.9642 20.8957V4.82809C65.5789 4.93896 77.6499 9.96976 86.5975 18.8454C95.5452 27.7211 100.66 39.7376 100.849 52.3271ZM84.28 52.9721C84.2754 61.2943 80.9823 69.2788 75.1157 75.1926C69.2492 81.1065 61.2824 84.4725 52.9447 84.5599V52.8158H84.28V52.9721ZM20.9434 52.8158H52.5334V84.5795C44.1614 84.5331 36.1476 81.1837 30.2405 75.2624C24.3333 69.341 21.0124 61.3281 21.0022 52.9721L20.9434 52.8158ZM52.5334 52.3271H20.9826C21.1562 44.0785 24.5525 36.2241 30.4469 30.4396C36.3413 24.6552 44.2671 21.3987 52.5334 21.3648V52.3271ZM53.023 52.3271V21.3843C61.247 21.4786 69.1126 24.7587 74.9592 30.5321C80.8058 36.3054 84.176 44.1204 84.3584 52.3271H53.023ZM52.5334 4.82809V20.8761C44.1357 20.905 36.0826 24.2115 30.0953 30.0886C24.108 35.9657 20.6617 43.9472 20.4929 52.3271H4.39439C4.57915 39.6923 9.72745 27.6352 18.7309 18.7514C27.7344 9.86765 39.8729 4.86773 52.5334 4.82809ZM4.37481 52.9721V52.8158H20.4538V52.9721C20.4641 61.4678 23.8447 69.6138 29.8563 75.6285C35.868 81.6432 44.0213 85.0372 52.5334 85.0682V101.116C39.7585 101.08 27.5184 95.9936 18.4925 86.9704C9.46662 77.9473 4.3903 65.7225 4.37481 52.9721ZM100.849 52.9721C100.834 65.6753 95.795 77.8591 86.8282 86.8745C77.8614 95.8899 65.6915 101.008 52.9642 101.116V85.0486C61.4284 84.956 69.5147 81.5363 75.4689 75.5314C81.4231 69.5264 84.765 61.4205 84.7697 52.9721V52.8158H100.849V52.9721Z" fill="url(#paint0_radial_1679_10130)"/>
</g>
<g clip-path="url(#clip1_1679_10130)">
<path d="M7.25616 67.1809C6.91461 67.9994 6.91461 68.9185 7.25616 69.7371L10.7214 77.6381L12.9533 76.0501L7.96097 65.4961L7.25616 67.1809Z" fill="url(#paint1_linear_1679_10130)"/>
<path d="M98.1739 67.1763C98.3484 67.5803 98.4384 68.0151 98.4384 68.4544C98.4384 68.8937 98.3484 69.3285 98.1739 69.7325L94.6499 77.6335L92.3984 76.0455L97.3908 65.4141L98.1739 67.1763Z" fill="url(#paint2_linear_1679_10130)"/>
<path d="M37.2099 54.7642L21.4693 66.0153C21.0755 66.3407 20.7617 66.7504 20.5514 67.2133C20.3411 67.6763 20.2399 68.1804 20.2555 68.6877L20.4512 73.8582L25.3261 70.1207L27.558 66.8093C27.6598 66.4924 27.8758 66.2237 28.1649 66.054L44.023 56.1003L41.4583 54.5705C40.8065 54.1945 40.0589 54.0127 39.3052 54.0471C38.5515 54.0814 37.8239 54.3304 37.2099 54.7642Z" fill="url(#paint3_linear_1679_10130)"/>
<path d="M68.239 54.7698L83.9013 65.9435C84.2939 66.2837 84.6023 66.7086 84.8026 67.1854C85.0029 67.6622 85.0897 68.1781 85.0564 68.6934L84.8606 73.8639L80.0053 70.1264L77.8126 66.815C77.6967 66.5057 77.4841 66.2411 77.2057 66.0597L61.3672 56.106L63.9123 54.5762C64.5728 54.1838 65.3356 53.993 66.1052 54.0274C66.8748 54.0618 67.6171 54.3201 68.239 54.7698Z" fill="url(#paint4_linear_1679_10130)"/>
<path d="M96.8634 63.2468C96.7679 62.8036 96.574 62.3869 96.2957 62.0268L90.1287 53.9128V51.1823C90.1302 50.6823 89.9727 50.1945 89.6784 49.788L87.9164 47.3868C87.7895 47.2141 87.6288 47.0686 87.4438 46.9588C87.2588 46.849 87.0533 46.7772 86.8396 46.7477L85.1363 46.496L69.7285 29.4546L70.0222 37.3943L68.0644 27.3051L66.6157 21.999C66.3831 21.7047 66.0978 21.4552 65.7738 21.2632L63.4832 19.9657C63.307 19.8534 63.1542 19.7088 63.0329 19.5397L54.3012 7.41707C54.1695 7.24214 53.9982 7.1002 53.801 7.00267C53.6038 6.90513 53.3862 6.85472 53.1657 6.85548H52.2651C52.0449 6.85622 51.8278 6.9073 51.6308 7.00471C51.4339 7.10213 51.2623 7.24325 51.1296 7.41707L42.3979 19.5397C42.2615 19.739 42.0807 19.9047 41.8693 20.0238L39.5591 21.3213C39.239 21.5185 38.9545 21.7672 38.7172 22.0571L37.288 27.2857L35.4282 37.375L35.7022 29.4353L20.2553 46.496L18.552 46.7477C18.3384 46.7772 18.1329 46.849 17.9479 46.9588C17.7629 47.0686 17.6021 47.2141 17.4753 47.3868L15.7328 49.788C15.4253 50.189 15.2601 50.6791 15.263 51.1823V53.9128L9.15467 62.0268C8.87808 62.3904 8.67833 62.8053 8.56734 63.2468L8.17578 64.951L13.3248 75.8148L15.5958 74.2656C15.8246 74.1141 16.0938 74.0332 16.3691 74.0332C16.6445 74.0332 16.9136 74.1141 17.1424 74.2656L18.4346 75.0596L19.5505 74.3237L19.2568 68.7853C19.2163 68.1238 19.348 67.4631 19.6393 66.8664C19.9307 66.2696 20.372 65.7568 20.921 65.377L37.2489 53.7579C37.8846 53.3077 38.642 53.056 39.4236 53.0353C40.2052 53.0146 40.9752 53.2258 41.6343 53.6417L45.0017 55.7719L51.3645 51.589L52.7154 51.4922L54.0663 51.589L60.4291 55.7719L63.816 53.6417C64.4752 53.2258 65.2452 53.0146 66.0268 53.0353C66.8083 53.056 67.5658 53.3077 68.2015 53.7579L84.5294 65.377C85.0704 65.7644 85.5057 66.2786 85.7961 66.8735C86.0866 67.4684 86.2231 68.1253 86.1935 68.7853L85.8998 74.3237L86.9962 75.0596L88.2884 74.2656C88.5172 74.1141 88.7863 74.0332 89.0617 74.0332C89.337 74.0332 89.6062 74.1141 89.835 74.2656L92.106 75.8148L97.255 64.951L96.8634 63.2468ZM41.3602 23.9743C41.3602 23.9743 41.1645 23.9743 40.675 23.5676C40.338 23.1533 40.0974 22.6706 39.9702 22.154C40.332 21.8705 40.7345 21.6421 41.1645 21.4762L42.0455 21.3406L41.3602 23.9743ZM64.8537 23.5676C64.3642 24.0517 64.1684 23.9743 64.1684 23.9743L63.3266 21.2632L64.2076 21.3987C64.6506 21.5844 65.0604 21.8394 65.4214 22.154C65.3103 22.6689 65.0827 23.1522 64.7558 23.5676H64.8537Z" fill="url(#paint5_linear_1679_10130)"/>
</g>
<path d="M16.3039 138.962C15.0696 138.962 14.0136 138.722 13.1359 138.242C12.2719 137.748 11.6068 137.069 11.1405 136.205C10.6879 135.341 10.4616 134.333 10.4616 133.181C10.4616 131.892 10.6742 130.692 11.0993 129.581C11.5245 128.47 12.1142 127.503 12.8685 126.681C13.6365 125.858 14.5279 125.22 15.5428 124.767C16.5713 124.301 17.6891 124.068 18.8959 124.068C20.6239 124.068 21.9679 124.5 22.9279 125.364C23.8879 126.214 24.3748 127.414 24.3885 128.964H21.4673C21.4399 128.169 21.1725 127.551 20.6651 127.113C20.1576 126.674 19.4308 126.454 18.4845 126.454C17.4696 126.454 16.5645 126.735 15.7691 127.298C14.9736 127.86 14.3428 128.628 13.8765 129.602C13.4102 130.575 13.1771 131.673 13.1771 132.893C13.1771 134.059 13.4856 134.971 14.1028 135.629C14.7336 136.274 15.6113 136.596 16.7359 136.596C17.6822 136.596 18.4708 136.39 19.1016 135.979C19.7462 135.567 20.2262 134.985 20.5416 134.23H23.4628C22.9142 135.725 22.0091 136.891 20.7473 137.727C19.4993 138.55 18.0182 138.962 16.3039 138.962ZM31.9229 138.962C30.7024 138.962 29.6258 138.694 28.6932 138.159C27.7606 137.625 27.0269 136.891 26.4921 135.958C25.9709 135.012 25.7104 133.942 25.7104 132.749C25.7104 131.542 25.9298 130.418 26.3686 129.375C26.8212 128.319 27.4384 127.394 28.2201 126.598C29.0155 125.803 29.9344 125.186 30.9766 124.747C32.0326 124.294 33.1572 124.068 34.3504 124.068C35.5709 124.068 36.6475 124.335 37.5801 124.87C38.5126 125.405 39.2395 126.139 39.7606 127.071C40.2955 128.004 40.5629 129.067 40.5629 130.26C40.5629 131.467 40.3366 132.598 39.8841 133.654C39.4452 134.71 38.8281 135.636 38.0326 136.431C37.2372 137.227 36.3184 137.851 35.2761 138.303C34.2338 138.742 33.1161 138.962 31.9229 138.962ZM32.2521 136.596C33.0201 136.596 33.7401 136.445 34.4121 136.143C35.0841 135.828 35.6738 135.389 36.1812 134.827C36.7024 134.265 37.1069 133.613 37.3949 132.873C37.6966 132.132 37.8475 131.337 37.8475 130.486C37.8475 129.252 37.5115 128.271 36.8395 127.545C36.1675 126.804 35.2349 126.434 34.0418 126.434C33.2601 126.434 32.5332 126.591 31.8612 126.907C31.1892 127.222 30.5926 127.654 30.0715 128.203C29.5641 128.751 29.1595 129.396 28.8578 130.137C28.5698 130.877 28.4258 131.673 28.4258 132.523C28.4258 133.757 28.7686 134.745 29.4544 135.485C30.1401 136.226 31.0726 136.596 32.2521 136.596ZM41.5444 138.715L44.0747 124.315H47.2016L50.1844 133.449L56.3147 124.315H59.4416L56.9113 138.715H54.2781L56.0267 128.779L50.637 136.658H48.5593L45.9261 128.779L44.1776 138.715H41.5444ZM59.7046 138.715L62.2555 124.315H68.0566C69.3732 124.315 70.3675 124.603 71.0395 125.179C71.7115 125.741 72.0475 126.495 72.0475 127.442C72.0475 128.388 71.7526 129.211 71.1629 129.91C70.5869 130.596 69.8395 131.055 68.9206 131.289C69.6064 131.439 70.1549 131.775 70.5664 132.297C70.9778 132.818 71.1835 133.435 71.1835 134.148C71.1835 135.067 70.9366 135.869 70.4429 136.555C69.9492 137.241 69.2841 137.775 68.4475 138.159C67.6246 138.53 66.7058 138.715 65.6909 138.715H59.7046ZM63.8189 130.383H66.5549C67.3915 130.383 68.0498 130.171 68.5298 129.746C69.0235 129.307 69.2704 128.717 69.2704 127.977C69.2704 127.483 69.0989 127.092 68.7561 126.804C68.4269 126.516 67.9195 126.379 67.2338 126.393H64.5184L63.8189 130.383ZM62.7081 136.617H65.6704C66.5481 136.617 67.2475 136.377 67.7686 135.897C68.2898 135.417 68.5504 134.793 68.5504 134.025C68.5504 133.503 68.3584 133.092 67.9744 132.79C67.5904 132.489 67.0555 132.338 66.3698 132.338H63.4692L62.7081 136.617ZM71.7164 138.715L79.513 124.315H82.4959L85.2113 138.715H82.4341L81.8581 135.382H76.2421L74.4936 138.715H71.7164ZM77.2913 133.366H81.529L80.4799 127.277L77.2913 133.366ZM88.7926 138.715L90.9526 126.393H86.7561L87.1264 124.315H98.1732L97.8235 126.393H93.5858L91.4258 138.715H88.7926Z" fill="url(#paint6_linear_1679_10130)"/>
<defs>
<radialGradient id="paint0_radial_1679_10130" cx="0" cy="0" r="1" gradientUnits="userSpaceOnUse" gradientTransform="translate(53.3266 52.5714) rotate(90.2139) scale(81.3255 82.2701)">
<stop stop-color="#1491DE"/>
<stop offset="1" stop-color="#1491DE" stop-opacity="0"/>
</radialGradient>
<linearGradient id="paint1_linear_1679_10130" x1="9.97666" y1="65.4961" x2="9.97666" y2="77.6381" gradientUnits="userSpaceOnUse">
<stop stop-color="#1491DE"/>
<stop offset="1" stop-color="#183378"/>
</linearGradient>
<linearGradient id="paint2_linear_1679_10130" x1="95.4184" y1="65.4141" x2="95.4184" y2="77.6335" gradientUnits="userSpaceOnUse">
<stop stop-color="#1491DE"/>
<stop offset="1" stop-color="#183378"/>
</linearGradient>
<linearGradient id="paint3_linear_1679_10130" x1="32.1384" y1="54.043" x2="32.1384" y2="73.8582" gradientUnits="userSpaceOnUse">
<stop stop-color="#1491DE"/>
<stop offset="1" stop-color="#183378"/>
</linearGradient>
<linearGradient id="paint4_linear_1679_10130" x1="73.2153" y1="54.0234" x2="73.2153" y2="73.8639" gradientUnits="userSpaceOnUse">
<stop stop-color="#1491DE"/>
<stop offset="1" stop-color="#183378"/>
</linearGradient>
<linearGradient id="paint5_linear_1679_10130" x1="52.7154" y1="6.85547" x2="52.7154" y2="75.8148" gradientUnits="userSpaceOnUse">
<stop stop-color="#1491DE"/>
<stop offset="1" stop-color="#183378"/>
</linearGradient>
<linearGradient id="paint6_linear_1679_10130" x1="53.2891" y1="117.715" x2="53.2891" y2="144.715" gradientUnits="userSpaceOnUse">
<stop stop-color="white"/>
<stop offset="1" stop-color="#494949"/>
</linearGradient>
<clipPath id="clip0_1679_10130">
<rect width="106.286" height="105.143" fill="white" transform="translate(0.144531)"/>
</clipPath>
<clipPath id="clip1_1679_10130">
<rect width="91.4286" height="70.8571" fill="white" transform="translate(7 6.85547)"/>
</clipPath>
</defs>
</svg>
