<svg width="25" height="17" viewBox="0 0 25 17" fill="none" xmlns="http://www.w3.org/2000/svg">
<path d="M11.1746 0.434351C11.3281 0.508316 11.4577 0.624078 11.5484 0.768348C11.6391 0.912618 11.6873 1.07955 11.6875 1.24998V15.75C11.6873 15.9205 11.6389 16.0875 11.548 16.2318C11.4571 16.3761 11.3273 16.4918 11.1736 16.5656C11.0199 16.6394 10.8485 16.6684 10.679 16.6492C10.5096 16.6299 10.349 16.5633 10.2158 16.4569L5.93281 13.0312H1.71875C1.4784 13.0312 1.24789 12.9357 1.07793 12.7658C0.90798 12.5958 0.8125 12.3653 0.8125 12.125V4.87498C0.8125 4.63462 0.90798 4.40412 1.07793 4.23416C1.24789 4.06421 1.4784 3.96873 1.71875 3.96873H5.93281L10.2158 0.5431C10.3491 0.436503 10.5098 0.369741 10.6795 0.350501C10.8491 0.331261 11.0207 0.360327 11.1746 0.434351ZM24.1104 4.23335C24.1948 4.31753 24.2617 4.41754 24.3074 4.52764C24.3531 4.63774 24.3766 4.75577 24.3766 4.87498C24.3766 4.99418 24.3531 5.11221 24.3074 5.22231C24.2617 5.33241 24.1948 5.43242 24.1104 5.5166L21.1252 8.49998L24.1104 11.4834C24.2805 11.6535 24.3761 11.8843 24.3761 12.125C24.3761 12.3656 24.2805 12.5964 24.1104 12.7666C23.9402 12.9368 23.7094 13.0324 23.4688 13.0324C23.2281 13.0324 22.9973 12.9368 22.8271 12.7666L19.8438 9.78141L16.8604 12.7666C16.6902 12.9368 16.4594 13.0324 16.2188 13.0324C15.9781 13.0324 15.7473 12.9368 15.5771 12.7666C15.407 12.5964 15.3114 12.3656 15.3114 12.125C15.3114 11.8843 15.407 11.6535 15.5771 11.4834L18.5623 8.49998L15.5771 5.5166C15.4929 5.43234 15.426 5.33231 15.3804 5.22222C15.3348 5.11213 15.3114 4.99414 15.3114 4.87498C15.3114 4.75582 15.3348 4.63782 15.3804 4.52773C15.426 4.41764 15.4929 4.31761 15.5771 4.23335C15.7473 4.06318 15.9781 3.96758 16.2188 3.96758C16.3379 3.96758 16.4559 3.99105 16.566 4.03665C16.6761 4.08225 16.7761 4.14909 16.8604 4.23335L19.8438 7.21854L22.8271 4.23335C22.9113 4.14895 23.0113 4.082 23.1214 4.03631C23.2315 3.99062 23.3495 3.96711 23.4688 3.96711C23.588 3.96711 23.706 3.99062 23.8161 4.03631C23.9262 4.082 24.0262 4.14895 24.1104 4.23335Z" fill="#AFAFAF"/>
</svg>
