<svg width="12" height="17" viewBox="0 0 12 17" fill="none" xmlns="http://www.w3.org/2000/svg">
<path d="M11.1746 0.434351C11.3281 0.508316 11.4577 0.624078 11.5484 0.768348C11.6391 0.912618 11.6873 1.07955 11.6875 1.24998V15.75C11.6873 15.9205 11.6389 16.0875 11.548 16.2318C11.4571 16.3761 11.3273 16.4918 11.1736 16.5656C11.0199 16.6394 10.8485 16.6684 10.679 16.6492C10.5096 16.6299 10.349 16.5633 10.2158 16.4569L5.93281 13.0312H1.71875C1.4784 13.0312 1.24789 12.9357 1.07793 12.7658C0.90798 12.5958 0.8125 12.3653 0.8125 12.125V4.87498C0.8125 4.63462 0.90798 4.40412 1.07793 4.23416C1.24789 4.06421 1.4784 3.96873 1.71875 3.96873H5.93281L10.2158 0.5431C10.3491 0.436503 10.5098 0.369741 10.6795 0.350501C10.8491 0.331261 11.0207 0.360327 11.1746 0.434351Z" fill="white"/>
</svg>
