<svg width="177" height="514" viewBox="0 0 177 514" fill="none" xmlns="http://www.w3.org/2000/svg">
<g opacity="0.05">
<path d="M0.400383 497.928L52.1071 497.928L52.1071 505.589L43.8901 513.854L0.400382 513.854L0.400383 497.928ZM38.6793 460.433L38.6793 428.38L51.9066 440.273L51.9066 497.727L35.4727 481.196L35.4727 463.658L38.6793 460.433V460.433ZM38.6793 428.38L0.400389 428.38L0.400391 412.454L38.6793 412.454L38.6793 428.38Z" fill="white"/>
<path d="M35.0711 406.615L0.199211 406.615L0.199212 390.689L34.8707 390.689L34.8707 406.615L35.0711 406.615ZM27.255 314.084L43.6889 314.084L51.7054 322.148L51.7054 373.554L34.8707 390.689L34.8707 357.023L38.4782 353.395L38.4782 330.01L27.255 330.01L27.255 314.084V314.084Z" fill="white"/>
<path d="M0.199214 269.928L13.4265 256.623L51.7054 256.623L51.7054 273.154L16.4326 273.154L16.4326 292.708L13.4265 295.732L13.4265 314.682L0.19921 314.682L0.199214 269.928ZM13.4265 256.623L0.199215 256.623L0.199219 214.894L13.4265 214.894L13.4265 256.623Z" fill="white"/>
<path d="M13.4277 193.529L51.7067 193.529L51.7067 209.253L13.4277 209.253L13.4277 193.529ZM32.2666 128.818L51.7067 109.869L51.7067 125.996L38.4794 138.898L38.4794 179.015L25.0517 193.529L25.0517 161.275L22.0455 158.251L22.0455 123.174L-1.39227e-06 123.174L0 107.248L24.0496 107.248L32.2666 115.312L32.2666 128.617L32.2666 128.818ZM13.2273 123.375L13.2273 193.529L-6.36214e-06 180.023L-2.57305e-06 136.68L13.2273 123.174L13.2273 123.375Z" fill="white"/>
<path d="M22.0455 85.8778L22.0455 101.804L8.21694 101.804L-8.17738e-06 93.5383L-2.57305e-06 29.4323L13.2273 16.1273L13.2273 85.8778L22.0455 85.8778ZM13.2273 1.15637e-06L51.5062 4.50282e-06L51.5062 15.9257L39.6818 15.9257L39.6818 85.8778L51.5062 85.8778L51.5062 101.804L37.4773 101.804L21.8451 85.8778L21.8451 51.4057L24.8513 48.3819L24.8513 15.9257L13.0269 15.9257L13.0269 1.13885e-06L13.2273 1.15637e-06Z" fill="white"/>
<path d="M101.211 513.655L62.9316 513.655L62.9316 497.729L101.211 497.729L101.211 513.655ZM98.2044 462.45L98.2044 427.777L114.638 444.912L114.638 484.222L101.411 497.93L101.411 465.676L98.4048 462.652L98.2044 462.45ZM98.2044 427.777L62.9316 427.777L62.9316 411.851L98.2044 411.851L98.2044 427.777Z" fill="white"/>
<path d="M75.9527 333.233L78.5581 336.257L78.5581 351.376L114.432 351.376L114.432 406.007L108.82 406.007L101.205 398.347L101.205 367.503L76.1531 367.503L76.1531 406.007L70.5415 406.007L62.9258 398.347L62.9258 367.302L76.1531 367.302L62.9258 353.997L62.9258 312.671L76.1531 312.671L76.1531 332.83L75.9527 333.233ZM114.232 313.074L114.232 351.376L101.004 338.071L101.004 313.074L114.232 313.074Z" fill="white"/>
<path d="M70.5446 205.624L106.218 205.624L114.235 213.688L114.235 275.173L98.0012 291.502L98.0012 307.428L70.7451 307.428L62.7285 299.364L62.7285 235.661L75.9558 221.55L75.9558 291.502L98.0012 291.502L98.0012 257.03L101.007 254.006L101.007 221.752L62.7285 221.752L62.7285 213.89L70.7451 205.826L70.5446 205.624Z" fill="white"/>
<path d="M97.4012 199.779L62.5293 199.779L62.5293 183.853L97.2008 183.853L97.2008 199.779L97.4012 199.779ZM89.5851 107.248L106.019 107.248L114.036 115.312L114.036 166.718L97.2008 183.853L97.2008 150.187L100.808 146.558L100.808 123.174L89.5851 123.174L89.5851 107.248Z" fill="white"/>
<path d="M100.806 85.8762L100.806 101.6L70.3427 101.6L62.3262 93.5367L62.3262 2.82068L75.5535 2.82068L75.5534 47.7755L72.5473 50.7994L72.5473 86.0778L100.605 86.0778L100.806 85.8762ZM94.5927 72.7728L81.7663 85.8762L81.7663 25.1973L89.382 17.7384L94.7931 17.7384L94.7931 72.9744L94.5927 72.7728ZM113.832 71.9664L100.605 85.6746L100.605 2.82068L113.832 2.82068L113.832 72.168L113.832 71.9664Z" fill="white"/>
<path d="M125.262 468.902L138.489 455.597L176.768 455.597L176.768 472.127L141.495 472.127L141.495 491.682L138.489 494.705L138.489 513.655L125.262 513.655L125.262 468.902ZM138.489 455.597L125.262 455.597L125.262 413.867L138.489 413.867L138.489 455.597Z" fill="white"/>
<path d="M125.262 363.468L138.489 350.163L176.768 350.163L176.768 366.693L141.495 366.693L141.495 386.247L138.489 389.271L138.489 408.221L125.262 408.221L125.262 363.468ZM138.489 350.163L125.262 350.163L125.262 308.433L138.489 308.433L138.489 350.163Z" fill="white"/>
<path d="M163.536 287.067L163.536 302.792L133.073 302.792L125.057 294.728L125.057 204.213L138.284 204.213L138.284 248.967L135.278 251.991L135.278 287.269L163.336 287.269L163.536 287.067ZM157.323 273.964L144.497 287.067L144.497 226.389L152.112 218.93L157.524 218.93L157.524 274.166L157.323 273.964ZM176.563 273.158L163.336 286.866L163.336 203.81L176.563 203.81L176.563 273.158Z" fill="white"/>
<path d="M132.474 182.24L125.059 182.24L125.059 190.102L132.474 190.102L132.474 182.24Z" fill="white"/>
<path d="M125.059 127.205L125.059 135.067L125.059 142.929L132.474 142.929L139.889 142.929L147.304 142.929L154.72 142.929L161.935 142.929L161.935 135.067L154.519 135.067L154.519 127.003L147.304 127.003L147.304 135.067L139.889 135.067L132.474 135.067L132.474 127.003L132.474 119.141L125.059 119.141L125.059 127.205Z" fill="white"/>
<path d="M132.474 56.0453L125.059 56.0453L125.059 63.9073L132.474 63.9073L132.474 56.0453Z" fill="white"/>
<path d="M139.892 150.796L132.477 150.796L132.477 158.658L139.892 158.658L147.307 158.658L147.307 150.796L139.892 150.796Z" fill="white"/>
<path d="M147.104 79.8337L139.889 79.8337L139.889 71.9716L139.889 63.908L132.474 63.908L132.474 71.9716L125.059 71.9716L125.059 79.8337L125.059 87.6957L125.059 95.5578L125.059 103.42L132.474 103.42L132.474 111.282L132.474 119.144L139.889 119.144L147.304 119.144L147.304 111.282L147.304 103.42L139.889 103.42L139.889 95.5578L139.889 87.6957L147.304 87.6957L147.304 95.5578L154.519 95.5578L154.519 87.6957L161.935 87.6957L161.935 95.5578L169.35 95.5578L169.35 87.6957L176.765 87.6957L176.765 79.8337L169.35 79.8337L161.935 79.8337L154.519 79.8337L154.519 71.77L147.104 71.9716L147.104 79.8337Z" fill="white"/>
<path d="M139.689 0.808961L147.104 0.808962L154.519 0.808963L154.519 8.67102L161.935 8.67102L161.935 16.7347L154.519 16.7347L147.104 16.7347L147.104 24.5967L147.104 32.4588L154.519 32.4588L154.519 24.5967L161.935 24.5967L169.35 24.5967L169.35 32.4588L176.765 32.4588L176.765 40.3208L169.35 40.3208L161.935 40.3208L161.935 48.1829L161.935 56.0449L161.935 63.907L169.35 63.907L176.765 63.907L176.765 71.7691L169.35 71.7691L161.935 71.7691L154.519 71.7691L154.519 63.907L154.519 56.0449L154.519 48.1829L147.104 48.1829L147.104 56.0449L147.104 63.907L139.889 63.907L139.889 56.0449L139.889 48.1829L132.474 48.1829L125.059 48.1829L125.059 40.3208L125.059 32.4588L125.059 24.5967L132.474 24.5967L132.474 32.4588L132.474 40.3208L139.889 40.3208L139.889 32.4588L139.689 24.5967L139.689 16.7347L132.474 16.7347L132.474 8.87261L132.474 0.808961L139.689 0.808961Z" fill="white"/>
<path d="M154.722 150.796L154.722 158.658L154.722 166.52L147.307 166.52L147.307 174.382L139.892 174.382L139.892 166.52L132.477 166.52L132.477 174.382L132.477 182.244L139.892 182.244L139.892 190.308L139.892 198.17L147.307 198.17L154.722 198.17L162.138 198.17L161.937 190.107L154.722 190.107L154.722 182.244L161.937 182.244L161.937 174.382L161.937 166.52L169.353 166.52L176.768 166.52L176.768 158.658L169.353 158.658L161.937 158.658L161.937 150.796L154.722 150.796Z" fill="white"/>
<path d="M161.933 119.144L169.348 119.144L176.763 119.144L176.763 111.282L169.348 111.282L161.933 111.282L154.518 111.282L154.518 119.144L154.518 127.006L161.933 127.006L161.933 119.144Z" fill="white"/>
<path d="M161.933 95.5598L154.518 95.5598L154.518 103.422L161.933 103.422L161.933 95.5598Z" fill="white"/>
<path d="M169.349 0.808961L176.564 0.808961L176.764 8.67102L169.349 8.67101L161.934 8.67101L161.934 0.80896L169.349 0.808961Z" fill="white"/>
<path d="M176.767 190.102L169.352 190.102L169.352 197.964L176.767 197.964L176.767 190.102Z" fill="white"/>
<path d="M176.767 174.377L169.352 174.377L169.352 182.239L176.767 182.239L176.767 174.377Z" fill="white"/>
<path d="M176.767 142.93L169.352 142.93L169.352 150.792L176.767 150.792L176.767 142.93Z" fill="white"/>
<path d="M176.767 127.003L169.352 127.003L169.352 134.865L176.767 134.865L176.767 127.003Z" fill="white"/>
<path d="M176.767 95.5598L169.352 95.5598L169.352 103.422L176.767 103.422L176.767 95.5598Z" fill="white"/>
<path d="M176.767 48.1829L169.352 48.1829L169.352 56.0449L176.767 56.0449L176.767 48.1829Z" fill="white"/>
<path d="M176.767 16.7327L169.352 16.7327L169.352 24.5947L176.767 24.5947L176.767 16.7327Z" fill="white"/>
<path d="M132.474 0.808961L125.059 0.80896L125.059 8.67101L132.474 8.67101L132.474 0.808961Z" fill="white"/>
</g>
</svg>
