<svg width="92" height="29" viewBox="0 0 92 29" fill="none" xmlns="http://www.w3.org/2000/svg">
<g id="Frame" clip-path="url(#clip0_12801_13472)">
<path id="Vector" d="M0.507812 15.6119V21.4588H91.167V15.6119H0.507812V15.6119ZM3.74986 20.3339H3.24336V16.7369H3.74986V20.3339ZM4.25637 20.3339H4.002V16.7369H4.25637V20.3339ZM5.52373 20.3339H4.76287V16.7369H5.52373V20.3339ZM6.53897 20.3339H6.03247V16.7369H6.53897V20.3339ZM7.5542 20.3339H7.0477V16.7369H7.5542V20.3339ZM8.31507 20.3339H7.80857V16.7369H8.31507V20.3339ZM9.07594 20.3339H8.82157V16.7369H9.07594V20.3339ZM9.58244 20.3339H9.32807V16.7369H9.58244V20.3339ZM10.5977 20.3339H10.0912V16.7369H10.5977V20.3339ZM11.865 20.3339H11.6107V16.7369H11.865V20.3339ZM13.1324 20.3339H12.1172V16.7369H13.1324V20.3339ZM14.1476 20.3339H13.3868V16.7369H14.1476V20.3339V20.3339ZM14.9085 20.3339H14.402V16.7369H14.9085V20.3339ZM15.9237 20.3339H15.1629V16.7369H15.9237V20.3339ZM16.6846 20.3339H16.4302V16.7369H16.6846V20.3339ZM17.6998 20.3339H17.1933V16.7369H17.6998V20.3339ZM18.4607 20.3339H17.9542V16.7369H18.4607V20.3339ZM19.4759 20.3339H18.9694V16.7369H19.4759V20.3339ZM20.4912 20.3339H19.9847V16.7369H20.4912V20.3339ZM21.5064 20.3339H20.7455V16.7369H21.5064V20.3339ZM22.2673 20.3339H22.0129V16.7369H22.2673V20.3339ZM23.5346 20.3339H22.7738V16.7369H23.5346V20.3339ZM24.0411 20.3339H23.7868V16.7369H24.0411V20.3339ZM25.0564 20.3339H24.5499V16.7369H25.0564V20.3339ZM25.8172 20.3339H25.5629V16.7369H25.8172V20.3339ZM27.0846 20.3339H26.3237V16.7369H27.0846V20.3339ZM28.0998 20.3339H27.5933V16.7369H28.0998V20.3339ZM28.8607 20.3339H28.3542V16.7369H28.8607V20.3339ZM29.6216 20.3339H29.1151V16.7369H29.6216V20.3339ZM30.6368 20.3339H30.1303V16.7369H30.6368V20.3339ZM31.3977 20.3339H31.1433V16.7369H31.3977V20.3339ZM32.665 20.3339H31.9042V16.7369H32.665V20.3339ZM33.6803 20.3339H33.1738V16.7369H33.6803V20.3339ZM34.6955 20.3339H33.9346V16.7369H34.6955V20.3339ZM35.4564 20.3339H34.9499V16.7369H35.4564V20.3339ZM36.4716 20.3339H35.7107V16.7369H36.4716V20.3339ZM37.4868 20.3339H36.726V16.7369H37.4868V20.3339ZM38.2477 20.3339H37.7412V16.7369H38.2477V20.3339ZM39.2629 20.3339H38.5021V16.7369H39.2629V20.3339ZM40.5303 20.3339H39.5151V16.7369H40.5303V20.3339ZM41.0368 20.3339H40.7824V16.7369H41.0368V20.3339ZM41.5433 20.3339H41.289V16.7369H41.5433V20.3339ZM42.8107 20.3339H42.3042V16.7369H42.8107V20.3339ZM44.3324 20.3339H43.5716V16.7369H44.3324V20.3339ZM44.8389 20.3339H44.5846V16.7369H44.8389V20.3339ZM45.5998 20.3339H45.0933V16.7369H45.5998V20.3339ZM47.0077 20.3339H46.5012V16.7369H47.0077V20.3339ZM47.5142 20.3339H47.2599V16.7369H47.5142V20.3339ZM48.7816 20.3339H48.0207V16.7369H48.7816V20.3339ZM49.7968 20.3339H49.2903V16.7369H49.7968V20.3339ZM50.8121 20.3339H50.3056V16.7369H50.8121V20.3339ZM51.5729 20.3339H51.0664V16.7369H51.5729V20.3339ZM52.3338 20.3339H52.0794V16.7369H52.3338V20.3339ZM52.8403 20.3339H52.5859V16.7369H52.8403V20.3339ZM53.8555 20.3339H53.349V16.7369H53.8555V20.3339ZM55.1229 20.3339H54.8685V16.7369H55.1229V20.3339ZM56.3903 20.3339H55.375V16.7369H56.3903V20.3339ZM57.4055 20.3339H56.6446V16.7369H57.4055V20.3339ZM58.1664 20.3339H57.6599V16.7369H58.1664V20.3339ZM59.1816 20.3339H58.4207V16.7369H59.1816V20.3339ZM59.9425 20.3339H59.6881V16.7369H59.9425V20.3339ZM60.9577 20.3339H60.4512V16.7369H60.9577V20.3339ZM61.7186 20.3339H61.2121V16.7369H61.7186V20.3339ZM62.7338 20.3339H62.2273V16.7369H62.7338V20.3339ZM63.749 20.3339H63.2425V16.7369H63.749V20.3339ZM64.7643 20.3339H64.0034V16.7369H64.7643V20.3339ZM65.5251 20.3339H65.2708V16.7369H65.5251V20.3339ZM66.7925 20.3339H66.0316V16.7369H66.7925V20.3339ZM67.299 20.3339H67.0446V16.7369H67.299V20.3339ZM68.3142 20.3339H67.8077V16.7369H68.3142V20.3339ZM69.0751 20.3339H68.8207V16.7369H69.0751V20.3339ZM70.3425 20.3339H69.5816V16.7369H70.3425V20.3339ZM71.3577 20.3339H70.8512V16.7369H71.3577V20.3339ZM72.1186 20.3339H71.6121V16.7369H72.1186V20.3339ZM72.8794 20.3339H72.3729V16.7369H72.8794V20.3339ZM73.8947 20.3339H73.3882V16.7369H73.8947V20.3339ZM74.6555 20.3339H74.4012V16.7369H74.6555V20.3339ZM75.9229 20.3339H75.162V16.7369H75.9229V20.3339ZM76.9381 20.3339H76.4316V16.7369H76.9381V20.3339ZM77.9534 20.3339H77.1925V16.7369H77.9534V20.3339ZM78.7142 20.3339H78.2077V16.7369H78.7142V20.3339ZM79.7295 20.3339H78.9686V16.7369H79.7295V20.3339ZM80.7447 20.3339H79.9838V16.7369H80.7447V20.3339ZM81.5056 20.3339H80.9991V16.7369H81.5056V20.3339ZM82.5208 20.3339H81.7599V16.7369H82.5208V20.3339ZM83.7882 20.3339H82.7729V16.7369H83.7882V20.3339ZM84.2947 20.3339H84.0403V16.7369H84.2947V20.3339ZM84.8012 20.3339H84.5468V16.7369H84.8012V20.3339ZM86.0685 20.3339H85.562V16.7369H86.0685V20.3339ZM87.5903 20.3339H86.8294V16.7369H87.5903V20.3339ZM88.0968 20.3339H87.8424V16.7369H88.0968V20.3339ZM88.8576 20.3339H88.3511V16.7369H88.8576V20.3339Z" fill="#CCCCCC"/>
<g id="Group">
<path id="Vector_2" d="M5.77477 5.29218C5.51371 5.55938 5.19241 5.69186 4.80639 5.69186C4.42038 5.69186 4.09685 5.55938 3.83802 5.29218C3.57473 5.0205 3.44531 4.69043 3.44531 4.30198C3.44531 3.91354 3.57696 3.58347 3.83802 3.31627C4.09685 3.04683 4.42038 2.91211 4.80639 2.91211C5.19241 2.91211 5.51594 3.04683 5.77477 3.31627C6.03806 3.58572 6.16748 3.91354 6.16748 4.30198C6.16748 4.69043 6.03583 5.0205 5.77477 5.29218ZM4.80639 5.47855C5.1277 5.47855 5.39768 5.36628 5.61635 5.1395C5.83502 4.91496 5.94658 4.63654 5.94658 4.30198C5.94658 3.96743 5.83725 3.689 5.61635 3.46447C5.39768 3.23769 5.1277 3.12542 4.80639 3.12542C4.48509 3.12542 4.21287 3.23769 3.99198 3.46447C3.77554 3.69125 3.66621 3.96967 3.66621 4.30198C3.66621 4.6343 3.77554 4.91496 3.99198 5.1395C4.21064 5.36628 4.48286 5.47855 4.80639 5.47855ZM4.80639 5.10133C4.59665 5.10133 4.43377 5.04519 4.31997 4.93517C4.20618 4.82515 4.14817 4.67247 4.14817 4.47937V4.11786C4.14817 3.92476 4.20618 3.77208 4.31997 3.66206C4.43377 3.55203 4.59665 3.4959 4.80639 3.4959C4.99828 3.4959 5.15001 3.54754 5.26381 3.64859C5.3776 3.74963 5.43338 3.89333 5.43338 4.07969V4.09092H5.19017V4.07969C5.19017 3.96742 5.15447 3.87986 5.08084 3.81474C5.00721 3.74963 4.9135 3.71819 4.7997 3.71819C4.66582 3.71819 4.56318 3.75187 4.49402 3.81699C4.42261 3.8821 4.38691 3.97641 4.38691 4.0999V4.49508C4.38691 4.61633 4.42261 4.71064 4.49402 4.778C4.56542 4.84536 4.66582 4.87904 4.7997 4.87904C4.9135 4.87904 5.00721 4.8476 5.08084 4.78249C5.15447 4.71737 5.19017 4.62756 5.19017 4.51305V4.50631H5.43338V4.51305C5.43338 4.69941 5.37537 4.84311 5.26158 4.9464C5.14778 5.04969 4.99382 5.10133 4.80639 5.10133V5.10133Z" fill="#CCCCCC"/>
<path id="Vector_3" d="M8.26889 5.63594H6.60658V5.38446L7.40538 4.56491L7.62181 4.34037C7.67983 4.2775 7.73115 4.21239 7.778 4.14952C7.88064 4.01255 7.93419 3.8666 7.93419 3.71616C7.93419 3.55674 7.88957 3.42876 7.80032 3.33221C7.71107 3.23566 7.58611 3.18851 7.42769 3.18851C7.26927 3.18851 7.1354 3.24239 7.04391 3.34793C6.95243 3.4557 6.90334 3.60165 6.90111 3.78577H6.59766C6.60212 3.51184 6.68021 3.29628 6.82971 3.14135C6.98367 2.98642 7.18225 2.90784 7.42323 2.90784C7.66421 2.90784 7.87395 2.98193 8.01675 3.13237C8.16402 3.28057 8.23542 3.46917 8.23542 3.70494C8.23542 3.91151 8.17071 4.10012 8.03906 4.2775C7.97436 4.36283 7.91411 4.43692 7.86056 4.4953C7.81817 4.5447 7.7423 4.62329 7.63297 4.73555L7.01937 5.35752H8.26889V5.63594V5.63594Z" fill="#CCCCCC"/>
<path id="Vector_4" d="M9.60179 5.69431C9.33626 5.69431 9.12652 5.61572 8.97033 5.45855C8.81415 5.30137 8.73828 5.08582 8.73828 4.81189V3.79923C8.73828 3.5253 8.81638 3.30975 8.97033 3.15257C9.12652 2.9954 9.33626 2.91681 9.60179 2.91681C9.86731 2.91681 10.0815 2.9954 10.2355 3.15257C10.3917 3.30975 10.4675 3.5253 10.4675 3.79923V4.81189C10.4675 5.08582 10.3894 5.30137 10.2355 5.45855C10.0793 5.61572 9.86954 5.69431 9.60179 5.69431V5.69431ZM10.1663 4.82985V3.78127C10.1663 3.60389 10.115 3.46018 10.0146 3.35241C9.91417 3.24463 9.77583 3.19074 9.60179 3.19074C9.42775 3.19074 9.29164 3.24463 9.19123 3.35241C9.09082 3.46018 9.04174 3.60389 9.04174 3.78127V4.82985C9.04174 5.00723 9.09082 5.15094 9.19123 5.25647C9.29164 5.36424 9.42775 5.41589 9.60179 5.41589C9.77583 5.41589 9.91417 5.362 10.0146 5.25647C10.115 5.14869 10.1663 5.00723 10.1663 4.82985Z" fill="#CCCCCC"/>
<path id="Vector_5" d="M12.6068 5.63594H10.9445V5.38446L11.7433 4.56491L11.9597 4.34037C12.0177 4.2775 12.069 4.21239 12.1159 4.14952C12.2185 4.01255 12.2721 3.8666 12.2721 3.71616C12.2721 3.55674 12.2275 3.42876 12.1382 3.33221C12.049 3.2379 11.924 3.18851 11.7656 3.18851C11.6072 3.18851 11.4733 3.24239 11.3818 3.34793C11.2903 3.4557 11.2412 3.60165 11.239 3.78577H10.9355C10.94 3.51184 11.0181 3.29628 11.1676 3.14135C11.3216 2.98642 11.5201 2.90784 11.7611 2.90784C12.0021 2.90784 12.2118 2.98193 12.3546 3.13237C12.5019 3.28057 12.5733 3.46917 12.5733 3.70494C12.5733 3.91151 12.5086 4.10012 12.377 4.2775C12.3122 4.36283 12.252 4.43692 12.1985 4.4953C12.1561 4.5447 12.0802 4.62329 11.9709 4.73555L11.3573 5.35752H12.6068V5.63594V5.63594Z" fill="#CCCCCC"/>
<path id="Vector_6" d="M14.7259 5.63594H13.0636V5.38446L13.8624 4.56491L14.0788 4.34037C14.1369 4.2775 14.1882 4.21239 14.235 4.14952C14.3377 4.01255 14.3912 3.8666 14.3912 3.71616C14.3912 3.55674 14.3466 3.42876 14.2573 3.33221C14.1681 3.2379 14.0431 3.18851 13.8847 3.18851C13.7263 3.18851 13.5924 3.24239 13.5009 3.34793C13.4095 3.4557 13.3604 3.60165 13.3581 3.78577H13.0547C13.0592 3.51184 13.1372 3.29628 13.2867 3.14135C13.4407 2.98642 13.6393 2.90784 13.8803 2.90784C14.1212 2.90784 14.331 2.98193 14.4738 3.13237C14.621 3.28057 14.6924 3.46917 14.6924 3.70494C14.6924 3.91151 14.6277 4.10012 14.4961 4.2775C14.4314 4.36283 14.3711 4.43692 14.3176 4.4953C14.2752 4.5447 14.1993 4.62329 14.09 4.73555L13.4764 5.35752H14.7259V5.63594V5.63594Z" fill="#CCCCCC"/>
</g>
<g id="Group_2">
<path id="Vector_7" d="M4.45944 9.6058C4.16492 9.6058 3.9284 9.52497 3.75213 9.36106C3.57363 9.1949 3.48438 8.96812 3.48438 8.67847V6.87994H3.8146V8.6897C3.8146 8.87606 3.87262 9.02201 3.98641 9.13428C4.10021 9.2443 4.25863 9.30043 4.46168 9.30043C4.66472 9.30043 4.82091 9.24655 4.93471 9.13877C5.0485 9.03099 5.10429 8.88055 5.10429 8.69194V6.88219H5.43452V8.68072C5.43452 8.97037 5.34526 9.19715 5.16676 9.3633C4.99049 9.52497 4.75621 9.60805 4.46168 9.60805L4.45944 9.6058Z" fill="#CCCCCC"/>
<path id="Vector_8" d="M7.7061 9.54724H6.02148V6.87976H6.35171V9.2531H7.7061V9.54724Z" fill="#CCCCCC"/>
<path id="Vector_9" d="M8.73143 9.54724H8.4012V7.1739H7.5957V6.87976H9.53469V7.1739H8.73143V9.54724Z" fill="#CCCCCC"/>
<path id="Vector_10" d="M10.3087 9.54724H9.97852V6.87976H11.0875C11.3307 6.87976 11.5181 6.95161 11.6542 7.09307C11.7881 7.23453 11.8573 7.43212 11.8573 7.6836C11.8573 8.07429 11.6877 8.33026 11.3508 8.44926L11.8996 9.43497V9.54499H11.5739L10.9871 8.48968H10.3087V9.54499V9.54724ZM10.3087 7.1739V8.19778H11.0317C11.1879 8.19778 11.3084 8.15288 11.3931 8.06531C11.4779 7.97774 11.5203 7.84975 11.5203 7.68135C11.5203 7.34006 11.3574 7.17166 11.0317 7.17166H10.3087V7.1739Z" fill="#CCCCCC"/>
<path id="Vector_11" d="M12.5769 9.54724H12.2734V9.43722L13.2619 6.87976H13.5921L14.585 9.43722V9.54724H14.2593L13.9938 8.83771H12.8513L12.5791 9.54724H12.5769ZM13.4203 7.3221L12.9473 8.55704H13.8911L13.4225 7.3221H13.4203Z" fill="#CCCCCC"/>
<path id="Vector_12" d="M15.7782 9.54724H15.448L14.4551 6.98978V6.87976H14.7697L15.6176 9.1049L16.4543 6.87976H16.7645V6.98978L15.776 9.54724H15.7782Z" fill="#CCCCCC"/>
<path id="Vector_13" d="M17.5412 9.54724H17.2109V6.87976H17.5412V9.54724Z" fill="#CCCCCC"/>
<path id="Vector_14" d="M18.0996 8.64914V7.78019C18.0996 7.4838 18.1911 7.25029 18.3741 7.07964C18.557 6.90899 18.8047 6.82367 19.1171 6.82367C19.4295 6.82367 19.6771 6.90899 19.8601 7.07964C20.0431 7.25029 20.1345 7.4838 20.1345 7.78019V8.64914C20.1345 8.94553 20.0431 9.17904 19.8601 9.34969C19.6771 9.52034 19.4295 9.60566 19.1171 9.60566C18.8047 9.60566 18.557 9.52034 18.3741 9.34969C18.1911 9.17904 18.0996 8.94553 18.0996 8.64914ZM19.1171 9.30029C19.3313 9.30029 19.5009 9.24191 19.6236 9.1274C19.7463 9.01289 19.8065 8.85796 19.8065 8.66486V7.76672C19.8065 7.57362 19.7463 7.41869 19.6236 7.30418C19.5009 7.18966 19.3335 7.13128 19.1171 7.13128C18.9006 7.13128 18.7311 7.18966 18.6106 7.30418C18.4901 7.41869 18.4298 7.57362 18.4298 7.76672V8.66486C18.4298 8.85796 18.4901 9.01289 18.6106 9.1274C18.7311 9.24191 18.9006 9.30029 19.1171 9.30029Z" fill="#CCCCCC"/>
<path id="Vector_15" d="M22.3741 9.54724H20.6895V6.87976H21.0197V9.2531H22.3741V9.54724Z" fill="#CCCCCC"/>
<path id="Vector_16" d="M24.4779 9.54724H22.8223V6.87976H24.4734V7.1739H23.1525V8.05857H24.2949V8.35271H23.1525V9.25534H24.4779V9.54949V9.54724Z" fill="#CCCCCC"/>
<path id="Vector_17" d="M25.9912 9.54724H25.661V7.1739H24.8555V6.87976H26.7945V7.1739H25.9912V9.54724Z" fill="#CCCCCC"/>
<path id="Vector_18" d="M28.251 9.54724H27.9207V7.1739H27.1152V6.87976H29.0542V7.1739H28.251V9.54724Z" fill="#CCCCCC"/>
<path id="Vector_19" d="M31.1537 9.54724H29.498V6.87976H31.1492V7.1739H29.8283V8.05857H30.9707V8.35271H29.8283V9.25534H31.1537V9.54949V9.54724Z" fill="#CCCCCC"/>
</g>
<g id="Group_3">
<path id="Vector_20" d="M35.2234 9.92939H34.9512V9.81937L36.0936 6.66016H36.3658V6.77018L35.2234 9.92939V9.92939Z" fill="#CCCCCC"/>
<path id="Vector_21" d="M36.4968 9.92939H36.2246V9.81937L37.367 6.66016H37.6392V6.77018L36.4968 9.92939V9.92939Z" fill="#CCCCCC"/>
</g>
<g id="Group_4">
<path id="Vector_22" d="M42.1132 9.54712H41.1895V6.87964H42.1132C42.4278 6.87964 42.6777 6.96047 42.8585 7.12438C43.0392 7.28829 43.1307 7.51732 43.1307 7.80921V8.61754C43.1307 8.90944 43.0392 9.13846 42.8585 9.30237C42.6777 9.46628 42.4278 9.54712 42.1132 9.54712ZM41.5197 7.17378V9.25298H42.1132C42.3274 9.25298 42.497 9.19684 42.6197 9.08233C42.7424 8.97006 42.8027 8.81738 42.8027 8.62428V7.80023C42.8027 7.60713 42.7424 7.45445 42.6197 7.34218C42.497 7.22991 42.3296 7.17153 42.1132 7.17153H41.5197V7.17378Z" fill="#CCCCCC"/>
<path id="Vector_23" d="M45.3353 9.5473H43.6797V6.87982H45.3308V7.17396H44.0099V8.05863H45.1523V8.35277H44.0099V9.2554H45.3353V9.54955V9.5473Z" fill="#CCCCCC"/>
<path id="Vector_24" d="M46.7055 9.60567C46.4199 9.60567 46.1789 9.52709 45.9781 9.36991C45.7818 9.21498 45.6836 8.98596 45.6836 8.68508H46.0138C46.0138 8.79735 46.0361 8.8939 46.0785 8.97922C46.1209 9.06454 46.1789 9.12741 46.2503 9.17232C46.3217 9.21723 46.3976 9.25091 46.4757 9.27112C46.5538 9.29357 46.6363 9.30255 46.7211 9.30255C46.9086 9.30255 47.0536 9.26214 47.1562 9.18355C47.2589 9.10496 47.3124 9.00167 47.3124 8.87144C47.3124 8.75469 47.2678 8.66487 47.1763 8.602C47.0848 8.5324 46.9286 8.4583 46.7078 8.37298L46.5181 8.30337C46.257 8.21131 46.0674 8.11251 45.9424 8.00249C45.8264 7.90145 45.7684 7.75326 45.7684 7.56016C45.7684 7.33562 45.8509 7.15824 46.0138 7.02576C46.1789 6.89329 46.3998 6.82593 46.681 6.82593C46.9777 6.82593 47.2143 6.90227 47.3861 7.05271C47.5579 7.20315 47.6427 7.42768 47.6427 7.72407H47.3124C47.3124 7.52872 47.2544 7.38053 47.1384 7.27949C47.0224 7.17845 46.8684 7.12905 46.6765 7.12905C46.5025 7.12905 46.3619 7.16722 46.257 7.24132C46.1499 7.31541 46.0986 7.41421 46.0986 7.5377C46.0986 7.65222 46.1388 7.74203 46.2191 7.80715C46.2972 7.87002 46.4422 7.93962 46.6542 8.01372L46.8327 8.07883C47.1005 8.17987 47.2923 8.27418 47.4128 8.36175C47.5802 8.48075 47.6627 8.64691 47.6627 8.85797C47.6627 9.08475 47.5779 9.26663 47.4106 9.40359C47.2433 9.54056 47.009 9.61016 46.7078 9.61016L46.7055 9.60567Z" fill="#CCCCCC"/>
<path id="Vector_25" d="M48.506 9.5473H48.1758V6.87982H48.506V9.5473Z" fill="#CCCCCC"/>
<path id="Vector_26" d="M50.0574 9.6056C49.7495 9.6056 49.5062 9.52028 49.33 9.34963C49.1537 9.17898 49.0645 8.94547 49.0645 8.64459V7.78462C49.0645 7.4815 49.1559 7.24573 49.3389 7.07733C49.5219 6.90893 49.774 6.82361 50.0975 6.82361C50.3742 6.82361 50.6085 6.9022 50.7937 7.05712C50.9811 7.20981 51.0771 7.42985 51.0815 7.71726V7.73971H50.7513V7.71726C50.7491 7.53763 50.6866 7.39393 50.5616 7.2884C50.4389 7.18286 50.2805 7.13122 50.0886 7.13122C49.8722 7.13122 49.7004 7.18736 49.5776 7.29962C49.4549 7.41189 49.3925 7.56682 49.3925 7.76441V8.64908C49.3925 8.84892 49.4527 9.00834 49.5732 9.12734C49.6937 9.24634 49.861 9.30472 50.073 9.30472C50.3854 9.30472 50.613 9.16327 50.7513 8.87811V8.47394H50.1466V8.19103H51.0815V9.55171H50.8963L50.8049 9.2194C50.6353 9.47762 50.3854 9.60785 50.0551 9.60785L50.0574 9.6056Z" fill="#CCCCCC"/>
<path id="Vector_27" d="M51.9923 9.5473H51.6621V6.87982H51.9656L53.282 8.93432V6.87982H53.6123V9.5473H53.3088L51.9901 7.49729V9.5473H51.9923Z" fill="#CCCCCC"/>
<path id="Vector_28" d="M55.8783 9.5473H54.2227V6.87982H55.8738V7.17396H54.5529V8.05863H55.6953V8.35277H54.5529V9.2554H55.8783V9.54955V9.5473Z" fill="#CCCCCC"/>
<path id="Vector_29" d="M57.3046 9.5473H56.3809V6.87982H57.3046C57.6192 6.87982 57.8691 6.96065 58.0499 7.12457C58.2306 7.28848 58.3221 7.5175 58.3221 7.8094V8.61772C58.3221 8.90962 58.2306 9.13865 58.0499 9.30256C57.8691 9.46647 57.6192 9.5473 57.3046 9.5473ZM56.7111 7.17396V9.25316H57.3046C57.5188 9.25316 57.6884 9.19703 57.8111 9.08251C57.9338 8.97025 57.9941 8.81756 57.9941 8.62446V7.80042C57.9941 7.60732 57.9338 7.45463 57.8111 7.34236C57.6884 7.2301 57.521 7.17172 57.3046 7.17172H56.7111V7.17396Z" fill="#CCCCCC"/>
<path id="Vector_30" d="M61.5562 9.02642L61.9155 9.40364V9.54734H61.6477L61.3755 9.26218C61.1702 9.48223 60.9091 9.59449 60.5878 9.59449C60.3335 9.59449 60.1282 9.52938 59.9742 9.3969C59.8203 9.26443 59.7422 9.08929 59.7422 8.87149C59.7422 8.73003 59.7734 8.60429 59.8381 8.49652C59.9028 8.38874 60.0122 8.27198 60.1684 8.14849L60.2509 8.07888L60.1818 8.00254L60.0412 7.84312C59.9497 7.72187 59.9051 7.58715 59.9051 7.43896C59.9051 7.26831 59.9631 7.1291 60.0791 7.01907C60.1951 6.90905 60.3446 6.85516 60.5298 6.85516C60.715 6.85516 60.8511 6.90905 60.9627 7.01458C61.0743 7.12236 61.1323 7.26157 61.1323 7.43446C61.1323 7.62981 61.0341 7.80495 60.8377 7.95988L60.6749 8.09235L61.342 8.80862C61.4246 8.64022 61.467 8.44487 61.467 8.22258H61.7503C61.7503 8.52795 61.6856 8.79515 61.554 9.02642H61.5562ZM60.5945 9.31607C60.8333 9.31607 61.0296 9.23075 61.1814 9.05785L60.4495 8.27647L60.3558 8.35281C60.2442 8.44712 60.1639 8.5302 60.1126 8.5998C60.068 8.66267 60.0434 8.74351 60.0434 8.84006C60.0434 8.98151 60.0947 9.09827 60.1974 9.18584C60.3 9.27341 60.4317 9.31832 60.5923 9.31832L60.5945 9.31607ZM60.213 7.44569C60.213 7.50632 60.2241 7.5602 60.2487 7.60511C60.2732 7.65002 60.3223 7.71289 60.3937 7.79148L60.4874 7.89027L60.6459 7.76004C60.7753 7.65675 60.84 7.54449 60.84 7.42773C60.84 7.33791 60.811 7.26606 60.753 7.21217C60.6949 7.15829 60.6213 7.13134 60.5298 7.13134C60.4339 7.13134 60.358 7.16053 60.2978 7.21667C60.2398 7.2728 60.2108 7.34914 60.2108 7.44345L60.213 7.44569Z" fill="#CCCCCC"/>
<path id="Vector_31" d="M63.6882 9.5473H63.3691V6.87982H63.6882L64.5428 8.23152L65.3974 6.87982H65.7031V9.5473H65.384V7.4681L64.641 8.64242H64.4245L63.6815 7.4726V9.54955L63.6882 9.5473Z" fill="#CCCCCC"/>
<path id="Vector_32" d="M66.4558 9.5473H66.1523V9.43728L67.1408 6.87982H67.471L68.4639 9.43728V9.5473H68.1382L67.8727 8.83777H66.7302L66.458 9.5473H66.4558ZM67.2992 7.32216L66.8262 8.5571H67.7678L67.2992 7.32216Z" fill="#CCCCCC"/>
<path id="Vector_33" d="M69.832 9.5473H68.9082V6.87982H69.832C70.1466 6.87982 70.3965 6.96065 70.5772 7.12457C70.7579 7.28848 70.8494 7.5175 70.8494 7.8094V8.61772C70.8494 8.90962 70.7579 9.13865 70.5772 9.30256C70.3965 9.46647 70.1466 9.5473 69.832 9.5473ZM69.2384 7.17396V9.25316H69.832C70.0462 9.25316 70.2157 9.19703 70.3385 9.08251C70.4612 8.97025 70.5214 8.81756 70.5214 8.62446V7.80042C70.5214 7.60732 70.4612 7.45463 70.3385 7.34236C70.2157 7.2301 70.0484 7.17172 69.832 7.17172H69.2384V7.17396Z" fill="#CCCCCC"/>
<path id="Vector_34" d="M73.0541 9.5473H71.3984V6.87982H73.0496V7.17396H71.7287V8.05863H72.8711V8.35277H71.7287V9.2554H73.0541V9.54955V9.5473Z" fill="#CCCCCC"/>
<path id="Vector_35" d="M74.9142 9.5473H74.584V6.87982H74.9142V9.5473Z" fill="#CCCCCC"/>
<path id="Vector_36" d="M75.8498 9.5473H75.5195V6.87982H75.823L77.1394 8.93432V6.87982H77.4697V9.5473H77.1662L75.8475 7.49729V9.5473H75.8498Z" fill="#CCCCCC"/>
<path id="Vector_37" d="M79.4748 9.5473H79.1445V6.87982H79.4748V9.5473Z" fill="#CCCCCC"/>
<path id="Vector_38" d="M80.4123 9.5473H80.082V6.87982H80.3855L81.7019 8.93432V6.87982H82.0322V9.5473H81.7287L80.41 7.49729V9.5473H80.4123Z" fill="#CCCCCC"/>
<path id="Vector_39" d="M83.5683 9.5473H82.6445V6.87982H83.5683C83.8829 6.87982 84.1328 6.96065 84.3135 7.12457C84.4943 7.28848 84.5857 7.5175 84.5857 7.8094V8.61772C84.5857 8.90962 84.4943 9.13865 84.3135 9.30256C84.1328 9.46647 83.8829 9.5473 83.5683 9.5473ZM82.9748 7.17396V9.25316H83.5683C83.7825 9.25316 83.9521 9.19703 84.0748 9.08251C84.1975 8.97025 84.2578 8.81756 84.2578 8.62446V7.80042C84.2578 7.60732 84.1975 7.45463 84.0748 7.34236C83.9521 7.2301 83.7847 7.17172 83.5683 7.17172H82.9748V7.17396Z" fill="#CCCCCC"/>
<path id="Vector_40" d="M85.467 9.5473H85.1367V6.87982H85.467V9.5473Z" fill="#CCCCCC"/>
<path id="Vector_41" d="M86.2156 9.5473H85.9121V9.43728L86.9006 6.87982H87.2308L88.2237 9.43728V9.5473H87.8979L87.6324 8.83777H86.49L86.2178 9.5473H86.2156ZM87.059 7.32216L86.586 8.5571H87.5276L87.059 7.32216Z" fill="#CCCCCC"/>
</g>
<g id="Group_5">
<path id="Vector_42" d="M53.8576 13.4608H53.5273V10.7933H54.6363C54.8795 10.7933 55.0669 10.8652 55.203 11.0066C55.3391 11.1481 55.4061 11.3457 55.4061 11.5972C55.4061 11.9879 55.2365 12.2438 54.8996 12.3628L55.4485 13.3485V13.4586H55.1227L54.5359 12.4033H53.8576V13.4586V13.4608ZM53.8576 11.0875V12.1114H54.5805C54.7367 12.1114 54.8572 12.0665 54.942 11.9789C55.0268 11.8913 55.0692 11.7633 55.0692 11.5949C55.0692 11.2536 54.9063 11.0852 54.5805 11.0852H53.8576V11.0875Z" fill="#CCCCCC"/>
<path id="Vector_43" d="M56.2716 13.4609H55.9414V10.7935H56.2716V13.4609Z" fill="#CCCCCC"/>
<path id="Vector_44" d="M57.8027 13.4609H56.8789V10.7935H57.8027C58.1173 10.7935 58.3672 10.8743 58.5479 11.0382C58.7286 11.2021 58.8201 11.4311 58.8201 11.723V12.5314C58.8201 12.8233 58.7286 13.0523 58.5479 13.2162C58.3672 13.3801 58.1173 13.4609 57.8027 13.4609ZM57.2091 11.0876V13.1668H57.8027C58.0169 13.1668 58.1864 13.1107 58.3092 12.9961C58.4319 12.8839 58.4921 12.7312 58.4921 12.5381V11.7141C58.4921 11.521 58.4319 11.3683 58.3092 11.256C58.1864 11.1437 58.0191 11.0854 57.8027 11.0854H57.2091V11.0876Z" fill="#CCCCCC"/>
<path id="Vector_45" d="M59.6994 13.4609H59.3691V10.7935H59.6994V13.4609Z" fill="#CCCCCC"/>
<path id="Vector_46" d="M60.6369 13.4609H60.3066V10.7935H60.6101L61.9288 12.848V10.7935H62.259V13.4609H61.9556L60.6391 11.4109V13.4609H60.6369Z" fill="#CCCCCC"/>
<path id="Vector_47" d="M63.8035 13.5167C63.4955 13.5167 63.2523 13.4314 63.0761 13.2608C62.8998 13.0901 62.8105 12.8566 62.8105 12.5557V11.6958C62.8105 11.3926 62.902 11.1569 63.085 10.9885C63.268 10.8201 63.5201 10.7347 63.8436 10.7347C64.1203 10.7347 64.3546 10.8133 64.5398 10.9683C64.7272 11.1209 64.8232 11.341 64.8276 11.6284V11.6508H64.4974V11.6284C64.4952 11.4488 64.4327 11.3051 64.3077 11.1995C64.185 11.094 64.0266 11.0424 63.8347 11.0424C63.6183 11.0424 63.4465 11.0985 63.3237 11.2108C63.201 11.323 63.1385 11.478 63.1385 11.6755V12.5602C63.1385 12.76 63.1988 12.9195 63.3193 13.0385C63.4398 13.1575 63.6071 13.2159 63.8191 13.2159C64.1315 13.2159 64.3568 13.0744 64.4974 12.7892V12.3851H63.8927V12.1022H64.8276V13.4628H64.6424L64.5509 13.1305C64.3814 13.3887 64.1315 13.519 63.8012 13.519L63.8035 13.5167Z" fill="#CCCCCC"/>
<path id="Vector_48" d="M68.1244 13.4609H66.4688V10.7935H68.1199V11.0876H66.799V11.9723H67.9414V12.2664H66.799V13.169H68.1244V13.4632V13.4609Z" fill="#CCCCCC"/>
<path id="Vector_49" d="M70.3096 13.4609H68.625V10.7935H68.9552V13.1668H70.3118V13.4609H70.3096Z" fill="#CCCCCC"/>
<path id="Vector_50" d="M72.4134 13.4609H70.7578V10.7935H72.409V11.0876H71.088V11.9723H72.2305V12.2664H71.088V13.169H72.4134V13.4632V13.4609Z" fill="#CCCCCC"/>
<path id="Vector_51" d="M73.818 13.5167C73.4967 13.5167 73.249 13.4314 73.0705 13.263C72.892 13.0946 72.8027 12.8588 72.8027 12.5557V11.6958C72.8027 11.3926 72.892 11.1569 73.0705 10.9885C73.249 10.8201 73.4967 10.7347 73.818 10.7347C74.0924 10.7347 74.3222 10.8133 74.5074 10.9683C74.6926 11.1232 74.7841 11.3477 74.7841 11.6419V11.68H74.4539V11.6419C74.4539 11.4465 74.3892 11.2983 74.2598 11.195C74.1326 11.0918 73.9853 11.0379 73.8135 11.0379C73.5948 11.0379 73.4253 11.094 73.307 11.204C73.1887 11.314 73.1307 11.4712 73.1307 11.6711V12.5782C73.1307 12.778 73.1887 12.9352 73.307 13.0452C73.4253 13.1552 73.5926 13.2114 73.8135 13.2114C73.9853 13.2114 74.1348 13.1597 74.2598 13.0542C74.3892 12.9531 74.4539 12.805 74.4539 12.6074V12.5692H74.7841V12.6074C74.7841 12.9015 74.6926 13.126 74.5074 13.281C74.3222 13.4359 74.0924 13.5145 73.818 13.5145V13.5167Z" fill="#CCCCCC"/>
<path id="Vector_52" d="M76.2431 13.4609H75.9129V11.0876H75.1074V10.7935H77.0464V11.0876H76.2431V13.4609V13.4609Z" fill="#CCCCCC"/>
<path id="Vector_53" d="M77.8205 13.4609H77.4902V10.7935H78.5992C78.8424 10.7935 79.0298 10.8653 79.1659 11.0068C79.302 11.1482 79.369 11.3458 79.369 11.5973C79.369 11.988 79.1994 12.244 78.8625 12.363L79.4114 13.3487V13.4587H79.0856L78.4988 12.4034H77.8205V13.4587V13.4609ZM77.8205 11.0876V12.1115H78.5434C78.6996 12.1115 78.8201 12.0666 78.9049 11.979C78.9897 11.8914 79.0321 11.7634 79.0321 11.595C79.0321 11.2538 78.8692 11.0854 78.5434 11.0854H77.8205V11.0876Z" fill="#CCCCCC"/>
<path id="Vector_54" d="M80.2345 13.4609H79.9043V10.7935H80.2345V13.4609Z" fill="#CCCCCC"/>
<path id="Vector_55" d="M81.1762 13.4609H80.8438V10.7935H82.5128V11.0876H81.1762V11.9902H82.332V12.2844H81.1762V13.4609V13.4609Z" fill="#CCCCCC"/>
<path id="Vector_56" d="M83.3263 13.4609H82.9961V10.7935H83.3263V13.4609Z" fill="#CCCCCC"/>
<path id="Vector_57" d="M85.5872 13.4609H83.9316V10.7935H85.5828V11.0876H84.2619V11.9723H85.4043V12.2664H84.2619V13.169H85.5872V13.4632V13.4609Z" fill="#CCCCCC"/>
<path id="Vector_58" d="M87.0116 13.4609H86.0879V10.7935H87.0116C87.3263 10.7935 87.5762 10.8743 87.7569 11.0382C87.9376 11.2021 88.0291 11.4311 88.0291 11.723V12.5314C88.0291 12.8233 87.9376 13.0523 87.7569 13.2162C87.5762 13.3801 87.3263 13.4609 87.0116 13.4609ZM86.4181 11.0876V13.1668H87.0116C87.2258 13.1668 87.3954 13.1107 87.5181 12.9961C87.6409 12.8839 87.7011 12.7312 87.7011 12.5381V11.7141C87.7011 11.521 87.6409 11.3683 87.5181 11.256C87.3954 11.1437 87.2281 11.0854 87.0116 11.0854H86.4181V11.0876Z" fill="#CCCCCC"/>
</g>
<g id="Group_6">
<path id="Vector_59" d="M3.5847 13.4609H3.28125V13.3509L4.26971 10.7935H4.59994L5.59286 13.3509V13.4609H5.26709L5.00157 12.7514H3.85915L3.58694 13.4609H3.5847ZM4.42813 11.2358L3.9551 12.4707H4.89893L4.43036 11.2358H4.42813Z" fill="#CCCCCC"/>
<path id="Vector_60" d="M6.90085 13.5168C6.60632 13.5168 6.36981 13.436 6.19353 13.2721C6.01503 13.1059 5.92578 12.8791 5.92578 12.5895V10.791H6.25601V12.6007C6.25601 12.7871 6.31402 12.933 6.42782 13.0453C6.54162 13.1553 6.70004 13.2114 6.90308 13.2114C7.10613 13.2114 7.26232 13.1576 7.37611 13.0498C7.48991 12.942 7.54569 12.7916 7.54569 12.603V10.7932H7.87592V12.5917C7.87592 12.8814 7.78667 13.1082 7.60817 13.2743C7.4319 13.436 7.19761 13.5191 6.90308 13.5191L6.90085 13.5168Z" fill="#CCCCCC"/>
<path id="Vector_61" d="M9.44041 13.4607H9.11018V11.0874H8.30469V10.7932H10.2437V11.0874H9.44041V13.4607Z" fill="#CCCCCC"/>
<path id="Vector_62" d="M10.5723 12.5603V11.6913C10.5723 11.3949 10.6637 11.1614 10.8467 10.9908C11.0297 10.8201 11.2774 10.7348 11.5897 10.7348C11.9021 10.7348 12.1498 10.8201 12.3327 10.9908C12.5157 11.1614 12.6072 11.3949 12.6072 11.6913V12.5603C12.6072 12.8567 12.5157 13.0902 12.3327 13.2608C12.1498 13.4315 11.9021 13.5168 11.5897 13.5168C11.2774 13.5168 11.0297 13.4315 10.8467 13.2608C10.6637 13.0902 10.5723 12.8567 10.5723 12.5603ZM11.5897 13.2114C11.8039 13.2114 11.9735 13.153 12.0962 13.0385C12.219 12.924 12.2792 12.7691 12.2792 12.576V11.6779C12.2792 11.4848 12.219 11.3298 12.0962 11.2153C11.9735 11.1008 11.8062 11.0424 11.5897 11.0424C11.3733 11.0424 11.2037 11.1008 11.0832 11.2153C10.9627 11.3298 10.9025 11.4848 10.9025 11.6779V12.576C10.9025 12.7691 10.9627 12.924 11.0832 13.0385C11.2037 13.153 11.3733 13.2114 11.5897 13.2114Z" fill="#CCCCCC"/>
<path id="Vector_63" d="M13.4831 13.4607H13.1641V10.7932H13.4831L14.3377 12.1449L15.1923 10.7932H15.498V13.4607H15.1789V11.3815L14.4359 12.5558H14.2195L13.4764 11.386V13.4629L13.4831 13.4607Z" fill="#CCCCCC"/>
<path id="Vector_64" d="M16.0566 12.5603V11.6913C16.0566 11.3949 16.1481 11.1614 16.3311 10.9908C16.5141 10.8201 16.7617 10.7348 17.0741 10.7348C17.3865 10.7348 17.6342 10.8201 17.8171 10.9908C18.0001 11.1614 18.0916 11.3949 18.0916 11.6913V12.5603C18.0916 12.8567 18.0001 13.0902 17.8171 13.2608C17.6342 13.4315 17.3865 13.5168 17.0741 13.5168C16.7617 13.5168 16.5141 13.4315 16.3311 13.2608C16.1481 13.0902 16.0566 12.8567 16.0566 12.5603ZM17.0741 13.2114C17.2883 13.2114 17.4579 13.153 17.5806 13.0385C17.7033 12.924 17.7636 12.7691 17.7636 12.576V11.6779C17.7636 11.4848 17.7033 11.3298 17.5806 11.2153C17.4579 11.1008 17.2905 11.0424 17.0741 11.0424C16.8577 11.0424 16.6881 11.1008 16.5676 11.2153C16.4471 11.3298 16.3869 11.4848 16.3869 11.6779V12.576C16.3869 12.7691 16.4471 12.924 16.5676 13.0385C16.6881 13.153 16.8577 13.2114 17.0741 13.2114Z" fill="#CCCCCC"/>
<path id="Vector_65" d="M19.5615 13.4607H19.2313V11.0874H18.4258V10.7932H20.3648V11.0874H19.5615V13.4607Z" fill="#CCCCCC"/>
<path id="Vector_66" d="M21.1388 13.4607H20.8086V10.7932H21.1388V13.4607Z" fill="#CCCCCC"/>
<path id="Vector_67" d="M22.9052 13.4607H22.575L21.582 10.9032V10.7932H21.8966L22.7445 13.0184L23.5813 10.7932H23.8914V10.9032L22.903 13.4607H22.9052Z" fill="#CCCCCC"/>
<path id="Vector_68" d="M25.9935 13.4607H24.3379V10.7932H25.989V11.0874H24.6681V11.972H25.8105V12.2662H24.6681V13.1688H25.9935V13.4629V13.4607Z" fill="#CCCCCC"/>
</g>
<g id="Group_7">
<path id="Vector_69" d="M3.88818 26.3319H3.58472V24.0529H3.32812V23.8935L3.69852 23.6644H3.88818V26.3319Z" fill="#CCCCCC"/>
<path id="Vector_70" d="M6.06186 26.3316H4.39955V26.0801L5.19835 25.2606L5.41478 25.0361C5.4728 24.9732 5.52412 24.9081 5.57097 24.8452C5.67361 24.7082 5.72716 24.5623 5.72716 24.4118C5.72716 24.2524 5.68254 24.1244 5.59329 24.0279C5.50403 23.9336 5.37908 23.8842 5.22066 23.8842C5.06224 23.8842 4.92836 23.9381 4.83688 24.0436C4.7454 24.1491 4.69631 24.2973 4.69408 24.4814H4.39062C4.39509 24.2075 4.47318 23.992 4.62268 23.837C4.77664 23.6821 4.97522 23.6035 5.2162 23.6035C5.45718 23.6035 5.66692 23.6776 5.80972 23.8281C5.95698 23.9762 6.02839 24.1649 6.02839 24.4006C6.02839 24.6072 5.96368 24.7958 5.83203 24.9732C5.76733 25.0585 5.70708 25.1326 5.65353 25.191C5.61114 25.2404 5.53527 25.319 5.42594 25.4312L4.81234 26.0532H6.06186V26.3316V26.3316Z" fill="#CCCCCC"/>
<path id="Vector_71" d="M7.04554 24.9687C6.86704 24.9687 6.72647 24.9193 6.62606 24.8205C6.52565 24.7217 6.47656 24.5847 6.47656 24.4096V24.1693C6.47656 23.9942 6.52565 23.8572 6.62606 23.7584C6.72647 23.6596 6.86481 23.6102 7.04554 23.6102C7.22627 23.6102 7.36908 23.6596 7.46725 23.7584C7.56766 23.8572 7.61675 23.9942 7.61675 24.1693V24.4096C7.61675 24.5847 7.56766 24.7217 7.46725 24.8205C7.36684 24.9193 7.22627 24.9687 7.04554 24.9687ZM7.34899 24.4433V24.1356C7.34899 24.0458 7.32222 23.974 7.26867 23.9201C7.21512 23.8662 7.14148 23.8393 7.04777 23.8393C6.95406 23.8393 6.88042 23.8662 6.8291 23.9201C6.77555 23.974 6.74878 24.0458 6.74878 24.1356V24.4433C6.74878 24.5331 6.77555 24.6049 6.8291 24.6588C6.88266 24.7127 6.95629 24.7396 7.04777 24.7396C7.13925 24.7396 7.21512 24.7127 7.26867 24.6588C7.32222 24.6049 7.34899 24.5331 7.34899 24.4433Z" fill="#CCCCCC"/>
<path id="Vector_72" d="M8.84146 26.388C8.59825 26.388 8.39967 26.3206 8.24571 26.1859C8.08952 26.0512 7.99803 25.8626 7.9668 25.6223H8.27025C8.29033 25.7728 8.35281 25.8918 8.45768 25.9793C8.56255 26.0669 8.69196 26.1118 8.85038 26.1118C9.02889 26.1118 9.16723 26.0534 9.26094 25.9389C9.35465 25.8244 9.40374 25.665 9.40374 25.4607C9.40374 25.2563 9.35465 25.1104 9.25871 25.0004C9.16053 24.8881 9.02889 24.832 8.85931 24.832C8.65403 24.832 8.49338 24.9106 8.37512 25.0677H8.07613L8.20108 23.6666H9.55547V23.945H8.45098L8.37958 24.7556C8.53354 24.6366 8.71204 24.576 8.91286 24.576C9.14714 24.576 9.33903 24.6501 9.48407 24.796C9.63356 24.9397 9.7072 25.1598 9.7072 25.4562C9.7072 25.7526 9.6291 25.9748 9.47514 26.141C9.32118 26.3072 9.11144 26.3902 8.84369 26.3902L8.84146 26.388Z" fill="#CCCCCC"/>
<path id="Vector_73" d="M10.8083 26.3316H10.5361V26.2216L11.4108 23.9425H10.342V24.4118H10.0586V23.6641H11.7254V23.9223L10.8083 26.3294V26.3316Z" fill="#CCCCCC"/>
<path id="Vector_74" d="M12.3057 24.5421H12.0625L12.2856 23.6439H12.6181V23.7876L12.3035 24.5421H12.3057Z" fill="#CCCCCC"/>
<path id="Vector_75" d="M13.8189 26.3877C13.5511 26.3877 13.3391 26.3113 13.1807 26.1586C13.0223 26.0059 12.942 25.7949 12.9375 25.5254H13.241C13.2454 25.7051 13.3012 25.8488 13.4061 25.9521C13.5109 26.0553 13.6537 26.1092 13.8322 26.1092C14.0107 26.1092 14.1446 26.0598 14.2406 25.9633C14.3365 25.8645 14.3834 25.732 14.3834 25.5614C14.3834 25.4132 14.3365 25.2964 14.2428 25.2111C14.1491 25.1258 14.0219 25.0809 13.8613 25.0809H13.6537V24.8024H13.8434C13.9907 24.8024 14.1067 24.762 14.1915 24.6834C14.2763 24.6048 14.3209 24.4948 14.3209 24.3511C14.3209 24.2164 14.2763 24.1041 14.1892 24.0166C14.1022 23.9268 13.9817 23.8841 13.8278 23.8841C13.6604 23.8841 13.531 23.9357 13.4395 24.039C13.3481 24.1423 13.299 24.286 13.2967 24.4724H12.9933C12.9955 24.2007 13.0714 23.9896 13.2209 23.8369C13.3704 23.6843 13.5712 23.6079 13.8256 23.6079C14.0799 23.6079 14.2651 23.6775 14.4057 23.8145C14.544 23.947 14.6132 24.1176 14.6132 24.3287C14.6132 24.6161 14.486 24.8159 14.2339 24.9304C14.3655 24.9708 14.4726 25.0494 14.5574 25.1684C14.6422 25.2874 14.6846 25.4244 14.6846 25.5816C14.6846 25.8331 14.6087 26.0306 14.4548 26.1743C14.303 26.3181 14.0888 26.3899 13.8166 26.3899L13.8189 26.3877Z" fill="#CCCCCC"/>
<path id="Vector_76" d="M15.9238 26.3316H15.6471V26.2216L16.2719 25.2201C16.1625 25.292 16.0309 25.3257 15.8747 25.3257C15.6382 25.3257 15.4485 25.2516 15.3057 25.1011C15.1652 24.9507 15.0938 24.7486 15.0938 24.4927C15.0938 24.2187 15.1718 24.0032 15.328 23.846C15.4842 23.6888 15.7007 23.6102 15.9751 23.6102C16.2496 23.6102 16.466 23.6888 16.6199 23.846C16.7739 24.0032 16.852 24.2187 16.852 24.4927C16.852 24.6992 16.7694 24.9372 16.6066 25.2089L15.9216 26.3338L15.9238 26.3316ZM15.9773 23.8864C15.7899 23.8864 15.6471 23.9381 15.5467 24.0436C15.4463 24.1491 15.3972 24.2951 15.3972 24.4792C15.3972 24.6633 15.4463 24.8115 15.5445 24.917C15.6426 25.0226 15.7832 25.0764 15.9684 25.0764C16.1536 25.0764 16.2919 25.0226 16.3968 24.917C16.4995 24.8092 16.553 24.6633 16.553 24.4792C16.553 24.2951 16.5017 24.1491 16.4013 24.0436C16.3009 23.9381 16.1581 23.8864 15.9773 23.8864V23.8864Z" fill="#CCCCCC"/>
<path id="Vector_77" d="M17.4082 26.3319H17.0508V25.8284H17.4082V26.3319Z" fill="#CCCCCC"/>
<path id="Vector_78" d="M18.7594 26.388C18.5162 26.388 18.3176 26.3206 18.1637 26.1859C18.0075 26.0512 17.916 25.8626 17.8848 25.6223H18.1882C18.2083 25.7728 18.2708 25.8918 18.3756 25.9793C18.4805 26.0669 18.6099 26.1118 18.7684 26.1118C18.9469 26.1118 19.0852 26.0534 19.1789 25.9389C19.2726 25.8244 19.3217 25.665 19.3217 25.4607C19.3217 25.2563 19.2726 25.1104 19.1767 25.0004C19.0785 24.8881 18.9469 24.832 18.7773 24.832C18.572 24.832 18.4113 24.9106 18.2931 25.0677H17.9941L18.1191 23.6666H19.4734V23.945H18.369L18.2976 24.7556C18.4515 24.6366 18.63 24.576 18.8308 24.576C19.0651 24.576 19.257 24.6501 19.402 24.796C19.5515 24.9397 19.6252 25.1598 19.6252 25.4562C19.6252 25.7526 19.5471 25.9748 19.3931 26.141C19.2392 26.3072 19.0294 26.3902 18.7617 26.3902L18.7594 26.388Z" fill="#CCCCCC"/>
<path id="Vector_79" d="M20.2502 24.5443H20.0427L19.9824 23.9538V23.6462H20.3127V23.9538L20.2524 24.5443H20.2502ZM20.9173 24.5443H20.7098L20.6496 23.9538V23.6462H20.9798V23.9538L20.9196 24.5443H20.9173Z" fill="#CCCCCC"/>
<path id="Vector_80" d="M21.8341 26.3316H21.5039V23.6641H21.8074L23.126 25.7186V23.6641H23.4563V26.3316H23.1528L21.8341 24.2816V26.3316Z" fill="#CCCCCC"/>
</g>
<g id="Group_8">
<path id="Vector_81" d="M67.9372 26.3317H67.665V26.2216L68.5397 23.9426H67.4709V24.4119H67.1875V23.6642H68.8543V23.9224L67.9372 26.3294V26.3317Z" fill="#CCCCCC"/>
<path id="Vector_82" d="M70.0173 26.3313H69.7451V26.2213L70.6197 23.9422H69.5509V24.4115H69.2676V23.6638H70.9343V23.922L70.0173 26.3291V26.3313Z" fill="#CCCCCC"/>
<path id="Vector_83" d="M71.8988 24.9684C71.7203 24.9684 71.5797 24.919 71.4815 24.8202C71.3811 24.7214 71.332 24.5844 71.332 24.4093V24.169C71.332 23.9939 71.3811 23.8569 71.4815 23.7581C71.5819 23.6593 71.7203 23.6099 71.8988 23.6099C72.0773 23.6099 72.2201 23.6593 72.3205 23.7581C72.4209 23.8569 72.47 23.9939 72.47 24.169V24.4093C72.47 24.5844 72.4209 24.7214 72.3205 24.8202C72.2201 24.919 72.0795 24.9684 71.8988 24.9684ZM72.2022 24.443V24.1353C72.2022 24.0455 72.1755 23.9737 72.1219 23.9198C72.0684 23.8659 71.9947 23.8389 71.901 23.8389C71.8073 23.8389 71.7337 23.8659 71.6823 23.9198C71.631 23.9737 71.602 24.0455 71.602 24.1353V24.443C71.602 24.5328 71.6288 24.6046 71.6823 24.6585C71.7359 24.7124 71.8095 24.7393 71.901 24.7393C71.9925 24.7393 72.0684 24.7124 72.1219 24.6585C72.1755 24.6046 72.2022 24.5328 72.2022 24.443Z" fill="#CCCCCC"/>
<path id="Vector_84" d="M73.729 26.3874C73.4613 26.3874 73.2493 26.311 73.0909 26.1583C72.9324 26.0056 72.8521 25.7946 72.8477 25.5251H73.1511C73.1556 25.7048 73.2114 25.8485 73.3162 25.9518C73.4211 26.055 73.5639 26.1089 73.7424 26.1089C73.9209 26.1089 74.0548 26.0595 74.1507 25.963C74.2467 25.8642 74.2935 25.7317 74.2935 25.5611C74.2935 25.4129 74.2467 25.2961 74.153 25.2108C74.0592 25.1255 73.9321 25.0806 73.7714 25.0806H73.5639V24.8021H73.7536C73.9008 24.8021 74.0168 24.7617 74.1016 24.6831C74.1864 24.6045 74.2311 24.4945 74.2311 24.3508C74.2311 24.2161 74.1864 24.1038 74.0994 24.0163C74.0124 23.9264 73.8919 23.8838 73.7379 23.8838C73.5706 23.8838 73.4412 23.9354 73.3497 24.0387C73.2582 24.142 73.2091 24.2857 73.2069 24.4721H72.9034C72.9057 24.2004 72.9815 23.9893 73.131 23.8366C73.2805 23.6839 73.4813 23.6076 73.7357 23.6076C73.9901 23.6076 74.1753 23.6772 74.3158 23.8142C74.4542 23.9467 74.5234 24.1173 74.5234 24.3284C74.5234 24.6158 74.3962 24.8156 74.144 24.9301C74.2757 24.9705 74.3828 25.0491 74.4676 25.1681C74.5524 25.2871 74.5948 25.4241 74.5948 25.5813C74.5948 25.8328 74.5189 26.0303 74.3649 26.174C74.2132 26.3177 73.999 26.3896 73.7268 26.3896L73.729 26.3874Z" fill="#CCCCCC"/>
<path id="Vector_85" d="M75.0589 25.5993C75.0589 25.4377 75.1035 25.2962 75.195 25.175C75.2865 25.0537 75.4003 24.9729 75.5386 24.9325C75.2708 24.8157 75.137 24.6159 75.137 24.3307C75.137 24.1219 75.2106 23.949 75.3556 23.812C75.5029 23.6751 75.7059 23.6055 75.9692 23.6055C76.2325 23.6055 76.4356 23.6751 76.5828 23.812C76.7301 23.949 76.8015 24.1219 76.8015 24.3307C76.8015 24.6136 76.6699 24.8135 76.4043 24.9325C76.5427 24.9729 76.6565 25.0537 76.748 25.175C76.8372 25.2962 76.8818 25.4377 76.8818 25.5993C76.8818 25.8441 76.8015 26.0349 76.6386 26.1764C76.4757 26.3179 76.2526 26.3875 75.9692 26.3875C75.6859 26.3875 75.4605 26.3179 75.2999 26.1764C75.1392 26.0349 75.0566 25.8441 75.0566 25.5993H75.0589ZM75.5274 25.2064C75.4181 25.3007 75.3646 25.4265 75.3646 25.5881C75.3646 25.7498 75.4181 25.8755 75.523 25.9698C75.6256 26.0641 75.7751 26.1113 75.9692 26.1113C76.1634 26.1113 76.3129 26.0641 76.4155 25.9698C76.5226 25.8755 76.5739 25.7498 76.5739 25.5881C76.5739 25.4265 76.5204 25.3007 76.411 25.2064C76.2995 25.1099 76.1522 25.0627 75.967 25.0627C75.7818 25.0627 75.6345 25.1099 75.523 25.2064H75.5274ZM75.5765 24.0141C75.4828 24.0972 75.436 24.2117 75.436 24.3532C75.436 24.4946 75.4828 24.6069 75.5788 24.6967C75.6769 24.7798 75.8064 24.8225 75.9692 24.8225C76.1321 24.8225 76.2593 24.7798 76.3552 24.6967C76.4512 24.6069 76.4981 24.4946 76.4981 24.3532C76.4981 24.2117 76.4512 24.0972 76.3575 24.0141C76.2638 23.9288 76.1344 23.8839 75.967 23.8839C75.7997 23.8839 75.6658 23.9266 75.5743 24.0141H75.5765Z" fill="#CCCCCC"/>
<path id="Vector_86" d="M77.501 24.5417H77.2578L77.4809 23.6436H77.8134V23.7873L77.4988 24.5417H77.501Z" fill="#CCCCCC"/>
<path id="Vector_87" d="M78.7788 26.3313H78.4753V24.0523H78.2188V23.8928L78.5891 23.6638H78.7788V26.3313V26.3313Z" fill="#CCCCCC"/>
<path id="Vector_88" d="M80.1093 26.3313H79.8327V26.2213L80.4574 25.2198C80.3481 25.2917 80.2164 25.3254 80.0602 25.3254C79.8237 25.3254 79.6341 25.2513 79.4913 25.1008C79.3507 24.9504 79.2793 24.7483 79.2793 24.4923C79.2793 24.2184 79.3574 24.0029 79.5136 23.8457C79.6698 23.6885 79.8862 23.6099 80.1607 23.6099C80.4351 23.6099 80.6515 23.6885 80.8055 23.8457C80.9595 24.0029 81.0375 24.2184 81.0375 24.4923C81.0375 24.6989 80.955 24.9369 80.7921 25.2086L80.1071 26.3335L80.1093 26.3313ZM80.1629 23.8861C79.9755 23.8861 79.8327 23.9377 79.7322 24.0433C79.6318 24.1488 79.5828 24.2948 79.5828 24.4789C79.5828 24.663 79.6318 24.8112 79.73 24.9167C79.8282 25.0223 79.9688 25.0761 80.154 25.0761C80.3392 25.0761 80.4775 25.0223 80.5824 24.9167C80.685 24.8089 80.7386 24.663 80.7386 24.4789C80.7386 24.2948 80.6872 24.1488 80.5868 24.0433C80.4864 23.9377 80.3436 23.8861 80.1629 23.8861Z" fill="#CCCCCC"/>
<path id="Vector_89" d="M81.5938 26.3319H81.2363V25.8284H81.5938V26.3319Z" fill="#CCCCCC"/>
<path id="Vector_90" d="M83.5432 26.3313H83.2398V25.752H82.0215V25.5162L83.0144 23.6638H83.2822V23.7738L82.3696 25.4736H83.2398V24.764H83.5432V25.4736H83.8801V25.752H83.5432V26.3313V26.3313Z" fill="#CCCCCC"/>
<path id="Vector_91" d="M84.2385 24.544H84.0309L83.9707 23.9535V23.6459H84.3009V23.9535L84.2407 24.544H84.2385ZM84.9056 24.544H84.6981L84.6379 23.9535V23.6459H84.9681V23.9535L84.9078 24.544H84.9056Z" fill="#CCCCCC"/>
<path id="Vector_92" d="M86.2112 26.3313H85.901L85.3789 23.7738V23.6638H85.7047L86.1242 25.8014L86.6664 24.4183H86.8739L87.4228 25.8081L87.84 23.6638H88.1457V23.7738L87.6236 26.3313H87.3134L86.7645 24.9257L86.2112 26.3313V26.3313Z" fill="#CCCCCC"/>
</g>
<g id="Group_9">
<path id="Vector_93" d="M48.1804 5.63598H47.877V5.52596L48.8654 2.96851H49.1956L50.1886 5.52596V5.63598H49.8628L49.5973 4.92645H48.4549L48.1826 5.63598H48.1804ZM49.0238 3.41084L48.5508 4.64578H49.4924L49.0238 3.41084Z" fill="#CCCCCC"/>
<path id="Vector_94" d="M52.3194 5.63562H50.6348V2.96814H50.965V5.34148H52.3194V5.63562V5.63562Z" fill="#CCCCCC"/>
<path id="Vector_95" d="M54.4502 5.63562H52.7656V2.96814H53.0959V5.34148H54.4525V5.63562H54.4502Z" fill="#CCCCCC"/>
<path id="Vector_96" d="M56.1935 5.63562H55.8633V2.96814H56.9722C57.2154 2.96814 57.4029 3.03999 57.539 3.18145C57.6729 3.32291 57.742 3.5205 57.742 3.77198C57.742 4.16267 57.5724 4.41864 57.2355 4.53764L57.7844 5.52335V5.63337H57.4586L56.8718 4.57806H56.1935V5.63337V5.63562ZM56.1935 3.26228V4.28616H56.9164C57.0726 4.28616 57.1931 4.24125 57.2779 4.15369C57.3627 4.06612 57.4051 3.93813 57.4051 3.76973C57.4051 3.42844 57.2422 3.26004 56.9164 3.26004H56.1935V3.26228Z" fill="#CCCCCC"/>
<path id="Vector_97" d="M58.6076 5.63562H58.2773V2.96814H58.6076V5.63562V5.63562Z" fill="#CCCCCC"/>
<path id="Vector_98" d="M60.157 5.69428C59.8491 5.69428 59.6058 5.60896 59.4296 5.43831C59.2533 5.26767 59.1641 5.03415 59.1641 4.73327V3.8733C59.1641 3.57018 59.2555 3.33442 59.4385 3.16602C59.6215 2.99762 59.8736 2.91229 60.1971 2.91229C60.4738 2.91229 60.7081 2.99088 60.8933 3.14581C61.0807 3.29849 61.1767 3.51854 61.1811 3.80594V3.8284H60.8509V3.80594C60.8487 3.62631 60.7862 3.48261 60.6613 3.37708C60.5385 3.27155 60.3801 3.21991 60.1882 3.21991C59.9718 3.21991 59.8 3.27604 59.6773 3.38831C59.5545 3.50057 59.4921 3.6555 59.4921 3.8531V4.73776C59.4921 4.9376 59.5523 5.09702 59.6728 5.21602C59.7933 5.33503 59.9606 5.39341 60.1726 5.39341C60.485 5.39341 60.7126 5.25195 60.8509 4.96679V4.56263H60.2462V4.27971H61.1811V5.6404H60.9959L60.9045 5.30808C60.7349 5.5663 60.485 5.69653 60.1547 5.69653L60.157 5.69428Z" fill="#CCCCCC"/>
<path id="Vector_99" d="M62.0959 5.63562H61.7656V2.96814H62.0959V4.1492H63.3878V2.96814H63.718V5.63562H63.3878V4.44334H62.0959V5.63562Z" fill="#CCCCCC"/>
<path id="Vector_100" d="M65.2998 5.63562H64.9696V3.26228H64.1641V2.96814H66.103V3.26228H65.2998V5.63562V5.63562Z" fill="#CCCCCC"/>
<path id="Vector_101" d="M67.4047 5.69405C67.1191 5.69405 66.8782 5.61547 66.6773 5.45829C66.481 5.30336 66.3828 5.07434 66.3828 4.77346H66.713C66.713 4.88573 66.7354 4.98228 66.7778 5.0676C66.8201 5.15292 66.8782 5.21579 66.9496 5.2607C67.021 5.30561 67.0968 5.33929 67.1749 5.3595C67.253 5.38195 67.3356 5.39093 67.4204 5.39093C67.6078 5.39093 67.7528 5.35051 67.8555 5.27193C67.9581 5.19334 68.0117 5.09005 68.0117 4.95982C68.0117 4.84306 67.967 4.75325 67.8755 4.69038C67.7841 4.62078 67.6279 4.54668 67.407 4.46135L67.2173 4.39175C66.9563 4.29969 66.7666 4.20089 66.6416 4.09087C66.5256 3.98983 66.4676 3.84164 66.4676 3.64854C66.4676 3.424 66.5502 3.24662 66.713 3.11414C66.8782 2.98167 67.0991 2.91431 67.3802 2.91431C67.677 2.91431 67.9135 2.99065 68.0853 3.14109C68.2571 3.29153 68.3419 3.51606 68.3419 3.81245H68.0117C68.0117 3.6171 67.9536 3.46891 67.8376 3.36787C67.7216 3.26683 67.5676 3.21743 67.3757 3.21743C67.2017 3.21743 67.0611 3.2556 66.9563 3.3297C66.8492 3.40379 66.7978 3.50259 66.7978 3.62608C66.7978 3.7406 66.838 3.83041 66.9183 3.89553C66.9964 3.9584 67.1414 4.028 67.3534 4.1021L67.5319 4.16721C67.7997 4.26825 67.9916 4.36256 68.1121 4.45013C68.2794 4.56913 68.362 4.73529 68.362 4.94635C68.362 5.17313 68.2772 5.35501 68.1098 5.49197C67.9425 5.62894 67.7082 5.69854 67.407 5.69854L67.4047 5.69405Z" fill="#CCCCCC"/>
<path id="Vector_102" d="M70.2521 5.63562H69.9219V2.96814H71.0308C71.274 2.96814 71.4615 3.03999 71.5976 3.18145C71.7337 3.32291 71.8006 3.5205 71.8006 3.77198C71.8006 4.16267 71.631 4.41864 71.2941 4.53764L71.843 5.52335V5.63337H71.5172L70.9304 4.57806H70.2521V5.63337V5.63562ZM70.2521 3.26228V4.28616H70.975C71.1312 4.28616 71.2517 4.24125 71.3365 4.15369C71.4213 4.06612 71.4637 3.93813 71.4637 3.76973C71.4637 3.42844 71.3008 3.26004 70.975 3.26004H70.2521V3.26228Z" fill="#CCCCCC"/>
<path id="Vector_103" d="M73.9915 5.63562H72.3359V2.96814H73.9871V3.26228H72.6662V4.14695H73.8086V4.44109H72.6662V5.34372H73.9915V5.63786V5.63562Z" fill="#CCCCCC"/>
<path id="Vector_104" d="M75.3618 5.69405C75.0762 5.69405 74.8352 5.61547 74.6344 5.45829C74.438 5.30336 74.3398 5.07434 74.3398 4.77346H74.6701C74.6701 4.88573 74.6924 4.98228 74.7348 5.0676C74.7772 5.15068 74.8352 5.21579 74.9066 5.2607C74.978 5.30561 75.0539 5.33929 75.132 5.3595C75.21 5.38195 75.2926 5.39093 75.3774 5.39093C75.5648 5.39093 75.7099 5.35051 75.8125 5.27193C75.9151 5.19334 75.9687 5.09005 75.9687 4.95982C75.9687 4.84306 75.9241 4.75325 75.8326 4.69038C75.7411 4.62078 75.5849 4.54668 75.364 4.46135L75.1743 4.39175C74.9133 4.29969 74.7214 4.20089 74.5987 4.09087C74.4826 3.98983 74.4246 3.84164 74.4246 3.64854C74.4246 3.424 74.5072 3.24662 74.6701 3.11414C74.833 2.98167 75.0561 2.91431 75.3372 2.91431C75.634 2.91431 75.8705 2.99065 76.0423 3.14109C76.2141 3.29153 76.2989 3.51606 76.2989 3.81245H75.9687C75.9687 3.6171 75.9107 3.46891 75.7946 3.36787C75.6786 3.26683 75.5247 3.21743 75.3328 3.21743C75.1587 3.21743 75.0182 3.2556 74.9133 3.3297C74.8084 3.40379 74.7549 3.50259 74.7549 3.62608C74.7549 3.7406 74.795 3.83041 74.8753 3.89553C74.9534 3.9584 75.0985 4.028 75.3105 4.1021L75.489 4.16721C75.7567 4.26825 75.9486 4.36256 76.0691 4.45013C76.2364 4.56913 76.319 4.73529 76.319 4.94635C76.319 5.17313 76.2342 5.35501 76.0669 5.49197C75.8995 5.62894 75.6652 5.69854 75.364 5.69854L75.3618 5.69405Z" fill="#CCCCCC"/>
<path id="Vector_105" d="M78.4876 5.63562H76.832V2.96814H78.4832V3.26228H77.1623V4.14695H78.3047V4.44109H77.1623V5.34372H78.4876V5.63786V5.63562Z" fill="#CCCCCC"/>
<path id="Vector_106" d="M79.3205 5.63562H78.9902V2.96814H80.0992C80.3424 2.96814 80.5298 3.03999 80.6659 3.18145C80.802 3.32291 80.869 3.5205 80.869 3.77198C80.869 4.16267 80.6994 4.41864 80.3625 4.53764L80.9114 5.52335V5.63337H80.5856L79.9988 4.57806H79.3205V5.63337V5.63562ZM79.3205 3.26228V4.28616H80.0434C80.1996 4.28616 80.3201 4.24125 80.4049 4.15369C80.4897 4.06612 80.5321 3.93813 80.5321 3.76973C80.5321 3.42844 80.3692 3.26004 80.0434 3.26004H79.3205V3.26228Z" fill="#CCCCCC"/>
<path id="Vector_107" d="M82.497 5.63562H82.1668L81.1738 3.07816V2.96814H81.4884L82.3363 5.19328L83.1731 2.96814H83.4832V3.07816L82.4947 5.63562H82.497Z" fill="#CCCCCC"/>
<path id="Vector_108" d="M85.5853 5.63562H83.9297V2.96814H85.5808V3.26228H84.2599V4.14695H85.4023V4.44109H84.2599V5.34372H85.5853V5.63786V5.63562Z" fill="#CCCCCC"/>
<path id="Vector_109" d="M87.0116 5.63562H86.0879V2.96814H87.0116C87.3263 2.96814 87.5762 3.04897 87.7569 3.21288C87.9376 3.37679 88.0291 3.60582 88.0291 3.89772V4.70604C88.0291 4.99794 87.9376 5.22696 87.7569 5.39088C87.5762 5.55479 87.3263 5.63562 87.0116 5.63562V5.63562ZM86.4181 3.26228V5.34148H87.0116C87.2258 5.34148 87.3954 5.28534 87.5181 5.17083C87.6409 5.05856 87.7011 4.90588 87.7011 4.71278V3.88873C87.7011 3.69563 87.6409 3.54295 87.5181 3.43068C87.3954 3.31841 87.2281 3.26004 87.0116 3.26004H86.4181V3.26228Z" fill="#CCCCCC"/>
</g>
<path id="Vector_110" d="M89.4735 0.359266C90.2477 0.359266 90.877 0.992455 90.877 1.77159V26.5468C90.877 27.326 90.2477 27.9591 89.4735 27.9591H2.20136C1.4271 27.9591 0.797879 27.326 0.797879 26.5468V1.76935C0.80011 0.992455 1.42933 0.359266 2.20136 0.359266H89.4735ZM89.4735 0.0651245H2.20136C1.26645 0.0651245 0.507812 0.828545 0.507812 1.76935V26.5468C0.507812 27.4899 1.26645 28.2533 2.20136 28.2533H89.4735C90.4084 28.2533 91.167 27.4899 91.167 26.5491V1.76935C91.167 0.828545 90.4084 0.0651245 89.4735 0.0651245Z" fill="#CCCCCC"/>
<path id="Vector_111" d="M45.1085 2.86707H17.2487C16.6572 2.86707 16.1777 3.3496 16.1777 3.94483V4.5915C16.1777 5.18673 16.6572 5.66927 17.2487 5.66927H45.1085C45.7 5.66927 46.1796 5.18673 46.1796 4.5915V3.94483C46.1796 3.3496 45.7 2.86707 45.1085 2.86707Z" fill="#CCCCCC"/>
<path id="Vector_112" d="M49.7734 10.7373H29.6941C29.1026 10.7373 28.623 11.2198 28.623 11.8151V12.4617C28.623 13.057 29.1026 13.5395 29.6941 13.5395H49.7734C50.3649 13.5395 50.8444 13.057 50.8444 12.4617V11.8151C50.8444 11.2198 50.3649 10.7373 49.7734 10.7373Z" fill="#CCCCCC"/>
<g id="Group_10">
<g id="Group_11">
<path id="Vector_113" d="M27.5152 25.1959C27.4437 25.1307 27.4102 25.0542 27.4102 24.9711C27.4102 24.9059 27.4392 24.8384 27.4995 24.771C27.5665 24.6968 27.6425 24.6608 27.7229 24.6608C27.7877 24.6608 27.8547 24.6901 27.9217 24.7507C27.9954 24.8182 28.0312 24.8924 28.0312 24.9711C28.0312 25.0587 28.0021 25.1329 27.9418 25.1959C27.8815 25.2566 27.8078 25.2858 27.7229 25.2858C27.6514 25.2858 27.5822 25.2566 27.5152 25.1959V25.1959Z" fill="#CCCCCC"/>
<path id="Vector_114" d="M27.5152 26.2422C27.4437 26.177 27.4102 26.1006 27.4102 26.0174C27.4102 25.9522 27.4392 25.8847 27.4995 25.8173C27.5665 25.7431 27.6425 25.7072 27.7229 25.7072C27.7877 25.7072 27.8547 25.7364 27.9217 25.7971C27.9954 25.8645 28.0312 25.9387 28.0312 26.0174C28.0312 26.1051 28.0021 26.1792 27.9418 26.2422C27.8815 26.3029 27.8078 26.3321 27.7229 26.3321C27.6514 26.3321 27.5822 26.3029 27.5152 26.2422V26.2422Z" fill="#CCCCCC"/>
<path id="Vector_115" d="M28.5542 24.1472C28.4827 24.082 28.4492 24.0056 28.4492 23.9224C28.4492 23.8572 28.4783 23.7898 28.5386 23.7223C28.6056 23.6482 28.6815 23.6122 28.762 23.6122C28.8268 23.6122 28.8938 23.6414 28.9608 23.7021C29.0345 23.7695 29.0702 23.8437 29.0702 23.9224C29.0702 24.0101 29.0412 24.0843 28.9809 24.1472C28.9206 24.2079 28.8469 24.2371 28.762 24.2371C28.6905 24.2371 28.6212 24.2079 28.5542 24.1472V24.1472Z" fill="#CCCCCC"/>
</g>
<g id="Group_12">
<path id="Vector_116" d="M30.6362 25.1961C30.5648 25.1309 30.5312 25.0545 30.5312 24.9713C30.5312 24.9061 30.5603 24.8387 30.6206 24.7712C30.6876 24.697 30.7636 24.6611 30.844 24.6611C30.9088 24.6611 30.9758 24.6903 31.0428 24.751C31.1165 24.8184 31.1523 24.8926 31.1523 24.9713C31.1523 25.059 31.1232 25.1332 31.0629 25.1961C31.0026 25.2568 30.9289 25.286 30.844 25.286C30.7725 25.286 30.7033 25.2568 30.6362 25.1961V25.1961Z" fill="#CCCCCC"/>
<path id="Vector_117" d="M30.6362 26.2422C30.5648 26.177 30.5312 26.1006 30.5312 26.0174C30.5312 25.9522 30.5603 25.8847 30.6206 25.8173C30.6876 25.7431 30.7636 25.7072 30.844 25.7072C30.9088 25.7072 30.9758 25.7364 31.0428 25.7971C31.1165 25.8645 31.1523 25.9387 31.1523 26.0174C31.1523 26.1051 31.1232 26.1792 31.0629 26.2422C31.0026 26.3029 30.9289 26.3321 30.844 26.3321C30.7725 26.3321 30.7033 26.3029 30.6362 26.2422V26.2422Z" fill="#CCCCCC"/>
<path id="Vector_118" d="M31.6773 24.1472C31.6058 24.082 31.5723 24.0056 31.5723 23.9224C31.5723 23.8572 31.6013 23.7898 31.6616 23.7223C31.7286 23.6482 31.8046 23.6122 31.885 23.6122C31.9498 23.6122 32.0168 23.6414 32.0838 23.7021C32.1576 23.7695 32.1933 23.8437 32.1933 23.9224C32.1933 24.0101 32.1643 24.0843 32.1039 24.1472C32.0436 24.2079 31.9699 24.2371 31.885 24.2371C31.8135 24.2371 31.7443 24.2079 31.6773 24.1472V24.1472Z" fill="#CCCCCC"/>
<path id="Vector_119" d="M31.6773 25.1961C31.6058 25.1309 31.5723 25.0545 31.5723 24.9713C31.5723 24.9061 31.6013 24.8387 31.6616 24.7712C31.7286 24.697 31.8046 24.6611 31.885 24.6611C31.9498 24.6611 32.0168 24.6903 32.0838 24.751C32.1576 24.8184 32.1933 24.8926 32.1933 24.9713C32.1933 25.059 32.1643 25.1332 32.1039 25.1961C32.0436 25.2568 31.9699 25.286 31.885 25.286C31.8135 25.286 31.7443 25.2568 31.6773 25.1961V25.1961Z" fill="#CCCCCC"/>
</g>
<g id="Group_13">
<path id="Vector_120" d="M33.7593 24.1473C33.6878 24.0821 33.6543 24.0056 33.6543 23.9225C33.6543 23.8573 33.6833 23.7898 33.7437 23.7224C33.8107 23.6482 33.8866 23.6122 33.967 23.6122C34.0318 23.6122 34.0988 23.6415 34.1659 23.7022C34.2396 23.7696 34.2753 23.8438 34.2753 23.9225C34.2753 24.0101 34.2463 24.0843 34.186 24.1473C34.1257 24.208 34.0519 24.2372 33.967 24.2372C33.8956 24.2372 33.8263 24.208 33.7593 24.1473V24.1473Z" fill="#CCCCCC"/>
<path id="Vector_121" d="M33.7593 26.2422C33.6878 26.1771 33.6543 26.1006 33.6543 26.0174C33.6543 25.9522 33.6833 25.8848 33.7437 25.8174C33.8107 25.7432 33.8866 25.7072 33.967 25.7072C34.0318 25.7072 34.0988 25.7364 34.1659 25.7971C34.2396 25.8646 34.2753 25.9388 34.2753 26.0174C34.2753 26.1051 34.2463 26.1793 34.186 26.2422C34.1257 26.3029 34.0519 26.3322 33.967 26.3322C33.8956 26.3322 33.8263 26.3029 33.7593 26.2422V26.2422Z" fill="#CCCCCC"/>
<path id="Vector_122" d="M34.7984 26.2422C34.7269 26.1771 34.6934 26.1006 34.6934 26.0174C34.6934 25.9522 34.7224 25.8848 34.7827 25.8174C34.8497 25.7432 34.9257 25.7072 35.0061 25.7072C35.0709 25.7072 35.1379 25.7364 35.2049 25.7971C35.2786 25.8646 35.3144 25.9388 35.3144 26.0174C35.3144 26.1051 35.2853 26.1793 35.225 26.2422C35.1647 26.3029 35.091 26.3322 35.0061 26.3322C34.9346 26.3322 34.8654 26.3029 34.7984 26.2422V26.2422Z" fill="#CCCCCC"/>
</g>
<g id="Group_14">
<path id="Vector_123" d="M36.8804 24.1473C36.8089 24.0821 36.7754 24.0056 36.7754 23.9225C36.7754 23.8573 36.8044 23.7898 36.8647 23.7224C36.9318 23.6482 37.0077 23.6122 37.0881 23.6122C37.1529 23.6122 37.2199 23.6415 37.287 23.7022C37.3607 23.7696 37.3964 23.8438 37.3964 23.9225C37.3964 24.0101 37.3674 24.0843 37.3071 24.1473C37.2468 24.208 37.173 24.2372 37.0881 24.2372C37.0167 24.2372 36.9474 24.208 36.8804 24.1473V24.1473Z" fill="#CCCCCC"/>
<path id="Vector_124" d="M37.9214 24.1473C37.8499 24.0821 37.8164 24.0056 37.8164 23.9225C37.8164 23.8573 37.8454 23.7898 37.9058 23.7224C37.9728 23.6482 38.0487 23.6122 38.1292 23.6122C38.1939 23.6122 38.261 23.6415 38.328 23.7022C38.4017 23.7696 38.4374 23.8438 38.4374 23.9225C38.4374 24.0101 38.4084 24.0843 38.3481 24.1473C38.2878 24.208 38.214 24.2372 38.1292 24.2372C38.0577 24.2372 37.9884 24.208 37.9214 24.1473V24.1473Z" fill="#CCCCCC"/>
<path id="Vector_125" d="M37.9214 25.1959C37.8499 25.1307 37.8164 25.0543 37.8164 24.9711C37.8164 24.9059 37.8454 24.8385 37.9058 24.771C37.9728 24.6969 38.0487 24.6609 38.1292 24.6609C38.1939 24.6609 38.261 24.6901 38.328 24.7508C38.4017 24.8183 38.4374 24.8924 38.4374 24.9711C38.4374 25.0588 38.4084 25.133 38.3481 25.1959C38.2878 25.2566 38.214 25.2858 38.1292 25.2858C38.0577 25.2858 37.9884 25.2566 37.9214 25.1959V25.1959Z" fill="#CCCCCC"/>
</g>
<g id="Group_15">
<path id="Vector_126" d="M40.0015 25.1959C39.93 25.1307 39.8965 25.0543 39.8965 24.9711C39.8965 24.9059 39.9255 24.8385 39.9858 24.771C40.0529 24.6969 40.1288 24.6609 40.2092 24.6609C40.274 24.6609 40.341 24.6901 40.4081 24.7508C40.4818 24.8183 40.5175 24.8924 40.5175 24.9711C40.5175 25.0588 40.4885 25.133 40.4282 25.1959C40.3678 25.2566 40.2941 25.2858 40.2092 25.2858C40.1377 25.2858 40.0685 25.2566 40.0015 25.1959V25.1959Z" fill="#CCCCCC"/>
<path id="Vector_127" d="M41.0425 24.1473C40.971 24.0821 40.9375 24.0056 40.9375 23.9225C40.9375 23.8573 40.9665 23.7898 41.0269 23.7224C41.0939 23.6482 41.1698 23.6122 41.2503 23.6122C41.315 23.6122 41.3821 23.6415 41.4491 23.7022C41.5228 23.7696 41.5585 23.8438 41.5585 23.9225C41.5585 24.0101 41.5295 24.0843 41.4692 24.1473C41.4089 24.208 41.3351 24.2372 41.2503 24.2372C41.1788 24.2372 41.1095 24.208 41.0425 24.1473V24.1473Z" fill="#CCCCCC"/>
</g>
<g id="Group_16">
<path id="Vector_128" d="M43.1265 24.1472C43.055 24.082 43.0215 24.0056 43.0215 23.9224C43.0215 23.8572 43.0505 23.7898 43.1108 23.7223C43.1779 23.6482 43.2538 23.6122 43.3342 23.6122C43.399 23.6122 43.466 23.6414 43.5331 23.7021C43.6068 23.7695 43.6425 23.8437 43.6425 23.9224C43.6425 24.0101 43.6135 24.0843 43.5532 24.1472C43.4928 24.2079 43.4191 24.2371 43.3342 24.2371C43.2627 24.2371 43.1935 24.2079 43.1265 24.1472V24.1472Z" fill="#CCCCCC"/>
<path id="Vector_129" d="M43.1265 26.2422C43.055 26.177 43.0215 26.1006 43.0215 26.0174C43.0215 25.9522 43.0505 25.8847 43.1108 25.8173C43.1779 25.7431 43.2538 25.7072 43.3342 25.7072C43.399 25.7072 43.466 25.7364 43.5331 25.7971C43.6068 25.8645 43.6425 25.9387 43.6425 26.0174C43.6425 26.1051 43.6135 26.1792 43.5532 26.2422C43.4928 26.3029 43.4191 26.3321 43.3342 26.3321C43.2627 26.3321 43.1935 26.3029 43.1265 26.2422V26.2422Z" fill="#CCCCCC"/>
<path id="Vector_130" d="M44.1655 25.1961C44.0941 25.1309 44.0605 25.0545 44.0605 24.9713C44.0605 24.9061 44.0896 24.8387 44.1499 24.7712C44.2169 24.697 44.2929 24.6611 44.3733 24.6611C44.4381 24.6611 44.5051 24.6903 44.5721 24.751C44.6458 24.8184 44.6816 24.8926 44.6816 24.9713C44.6816 25.059 44.6525 25.1332 44.5922 25.1961C44.5319 25.2568 44.4582 25.286 44.3733 25.286C44.3018 25.286 44.2326 25.2568 44.1655 25.1961V25.1961Z" fill="#CCCCCC"/>
</g>
<g id="Group_17">
<path id="Vector_131" d="M47.2866 25.1959C47.2151 25.1307 47.1816 25.0543 47.1816 24.9711C47.1816 24.9059 47.2107 24.8385 47.271 24.771C47.338 24.6969 47.414 24.6609 47.4944 24.6609C47.5592 24.6609 47.6262 24.6901 47.6932 24.7508C47.7669 24.8183 47.8027 24.8924 47.8027 24.9711C47.8027 25.0588 47.7736 25.133 47.7133 25.1959C47.653 25.2566 47.5793 25.2858 47.4944 25.2858C47.4229 25.2858 47.3537 25.2566 47.2866 25.1959V25.1959Z" fill="#CCCCCC"/>
<path id="Vector_132" d="M48.3277 24.1473C48.2562 24.0821 48.2227 24.0056 48.2227 23.9225C48.2227 23.8573 48.2517 23.7898 48.312 23.7224C48.379 23.6482 48.455 23.6122 48.5354 23.6122C48.6002 23.6122 48.6672 23.6415 48.7342 23.7022C48.8079 23.7696 48.8437 23.8438 48.8437 23.9225C48.8437 24.0101 48.8146 24.0843 48.7543 24.1473C48.694 24.208 48.6203 24.2372 48.5354 24.2372C48.4639 24.2372 48.3947 24.208 48.3277 24.1473V24.1473Z" fill="#CCCCCC"/>
</g>
<g id="Group_18">
<path id="Vector_133" d="M50.4077 24.1472C50.3362 24.082 50.3027 24.0056 50.3027 23.9224C50.3027 23.8572 50.3318 23.7898 50.3921 23.7223C50.4591 23.6482 50.5351 23.6122 50.6155 23.6122C50.6803 23.6122 50.7473 23.6414 50.8143 23.7021C50.888 23.7695 50.9238 23.8437 50.9238 23.9224C50.9238 24.0101 50.8947 24.0843 50.8344 24.1472C50.7741 24.2079 50.7004 24.2371 50.6155 24.2371C50.544 24.2371 50.4747 24.2079 50.4077 24.1472V24.1472Z" fill="#CCCCCC"/>
<path id="Vector_134" d="M50.4077 26.2422C50.3362 26.177 50.3027 26.1006 50.3027 26.0174C50.3027 25.9522 50.3318 25.8847 50.3921 25.8173C50.4591 25.7431 50.5351 25.7072 50.6155 25.7072C50.6803 25.7072 50.7473 25.7364 50.8143 25.7971C50.888 25.8645 50.9238 25.9387 50.9238 26.0174C50.9238 26.1051 50.8947 26.1792 50.8344 26.2422C50.7741 26.3029 50.7004 26.3321 50.6155 26.3321C50.544 26.3321 50.4747 26.3029 50.4077 26.2422V26.2422Z" fill="#CCCCCC"/>
<path id="Vector_135" d="M51.4487 24.1472C51.3773 24.082 51.3438 24.0056 51.3438 23.9224C51.3438 23.8572 51.3728 23.7898 51.4331 23.7223C51.5001 23.6482 51.5761 23.6122 51.6565 23.6122C51.7213 23.6122 51.7883 23.6414 51.8553 23.7021C51.929 23.7695 51.9648 23.8437 51.9648 23.9224C51.9648 24.0101 51.9357 24.0843 51.8754 24.1472C51.8151 24.2079 51.7414 24.2371 51.6565 24.2371C51.585 24.2371 51.5158 24.2079 51.4487 24.1472V24.1472Z" fill="#CCCCCC"/>
<path id="Vector_136" d="M51.4487 25.1961C51.3773 25.1309 51.3438 25.0545 51.3438 24.9713C51.3438 24.9061 51.3728 24.8387 51.4331 24.7712C51.5001 24.697 51.5761 24.6611 51.6565 24.6611C51.7213 24.6611 51.7883 24.6903 51.8553 24.751C51.929 24.8184 51.9648 24.8926 51.9648 24.9713C51.9648 25.059 51.9357 25.1332 51.8754 25.1961C51.8151 25.2568 51.7414 25.286 51.6565 25.286C51.585 25.286 51.5158 25.2568 51.4487 25.1961V25.1961Z" fill="#CCCCCC"/>
</g>
<g id="Group_19">
<path id="Vector_137" d="M53.5308 24.1472C53.4593 24.082 53.4258 24.0056 53.4258 23.9224C53.4258 23.8572 53.4548 23.7898 53.5151 23.7223C53.5822 23.6482 53.6581 23.6122 53.7385 23.6122C53.8033 23.6122 53.8703 23.6414 53.9373 23.7021C54.0111 23.7695 54.0468 23.8437 54.0468 23.9224C54.0468 24.0101 54.0178 24.0843 53.9575 24.1472C53.8971 24.2079 53.8234 24.2371 53.7385 24.2371C53.667 24.2371 53.5978 24.2079 53.5308 24.1472V24.1472Z" fill="#CCCCCC"/>
<path id="Vector_138" d="M53.5308 26.2422C53.4593 26.177 53.4258 26.1006 53.4258 26.0174C53.4258 25.9522 53.4548 25.8847 53.5151 25.8173C53.5822 25.7431 53.6581 25.7072 53.7385 25.7072C53.8033 25.7072 53.8703 25.7364 53.9373 25.7971C54.0111 25.8645 54.0468 25.9387 54.0468 26.0174C54.0468 26.1051 54.0178 26.1792 53.9575 26.2422C53.8971 26.3029 53.8234 26.3321 53.7385 26.3321C53.667 26.3321 53.5978 26.3029 53.5308 26.2422V26.2422Z" fill="#CCCCCC"/>
<path id="Vector_139" d="M54.5718 24.1472C54.5003 24.082 54.4668 24.0056 54.4668 23.9224C54.4668 23.8572 54.4958 23.7898 54.5562 23.7223C54.6232 23.6482 54.6991 23.6122 54.7795 23.6122C54.8443 23.6122 54.9113 23.6414 54.9784 23.7021C55.0521 23.7695 55.0878 23.8437 55.0878 23.9224C55.0878 24.0101 55.0588 24.0843 54.9985 24.1472C54.9382 24.2079 54.8644 24.2371 54.7795 24.2371C54.7081 24.2371 54.6388 24.2079 54.5718 24.1472V24.1472Z" fill="#CCCCCC"/>
<path id="Vector_140" d="M54.5718 25.1961C54.5003 25.1309 54.4668 25.0545 54.4668 24.9713C54.4668 24.9061 54.4958 24.8387 54.5562 24.7712C54.6232 24.697 54.6991 24.6611 54.7795 24.6611C54.8443 24.6611 54.9113 24.6903 54.9784 24.751C55.0521 24.8184 55.0878 24.8926 55.0878 24.9713C55.0878 25.059 55.0588 25.1332 54.9985 25.1961C54.9382 25.2568 54.8644 25.286 54.7795 25.286C54.7081 25.286 54.6388 25.2568 54.5718 25.1961V25.1961Z" fill="#CCCCCC"/>
</g>
<path id="Vector_141" d="M56.6538 24.1472C56.5823 24.082 56.5488 24.0056 56.5488 23.9224C56.5488 23.8572 56.5779 23.7898 56.6382 23.7223C56.7052 23.6482 56.7812 23.6122 56.8616 23.6122C56.9264 23.6122 56.9934 23.6414 57.0604 23.7021C57.1341 23.7695 57.1699 23.8437 57.1699 23.9224C57.1699 24.0101 57.1408 24.0843 57.0805 24.1472C57.0202 24.2079 56.9465 24.2371 56.8616 24.2371C56.7901 24.2371 56.7208 24.2079 56.6538 24.1472V24.1472Z" fill="#CCCCCC"/>
<g id="Group_20">
<path id="Vector_142" d="M58.7339 25.1961C58.6624 25.1309 58.6289 25.0545 58.6289 24.9713C58.6289 24.9061 58.6579 24.8387 58.7183 24.7712C58.7853 24.697 58.8612 24.6611 58.9417 24.6611C59.0064 24.6611 59.0735 24.6903 59.1405 24.751C59.2142 24.8184 59.2499 24.8926 59.2499 24.9713C59.2499 25.059 59.2209 25.1332 59.1606 25.1961C59.1003 25.2568 59.0265 25.286 58.9417 25.286C58.8702 25.286 58.8009 25.2568 58.7339 25.1961V25.1961Z" fill="#CCCCCC"/>
<path id="Vector_143" d="M58.7339 26.2422C58.6624 26.177 58.6289 26.1006 58.6289 26.0174C58.6289 25.9522 58.6579 25.8847 58.7183 25.8173C58.7853 25.7431 58.8612 25.7072 58.9417 25.7072C59.0064 25.7072 59.0735 25.7364 59.1405 25.7971C59.2142 25.8645 59.2499 25.9387 59.2499 26.0174C59.2499 26.1051 59.2209 26.1792 59.1606 26.2422C59.1003 26.3029 59.0265 26.3321 58.9417 26.3321C58.8702 26.3321 58.8009 26.3029 58.7339 26.2422V26.2422Z" fill="#CCCCCC"/>
<path id="Vector_144" d="M59.7749 24.1472C59.7034 24.082 59.6699 24.0056 59.6699 23.9224C59.6699 23.8572 59.699 23.7898 59.7593 23.7223C59.8263 23.6482 59.9022 23.6122 59.9827 23.6122C60.0475 23.6122 60.1145 23.6414 60.1815 23.7021C60.2552 23.7695 60.291 23.8437 60.291 23.9224C60.291 24.0101 60.2619 24.0843 60.2016 24.1472C60.1413 24.2079 60.0676 24.2371 59.9827 24.2371C59.9112 24.2371 59.8419 24.2079 59.7749 24.1472V24.1472Z" fill="#CCCCCC"/>
<path id="Vector_145" d="M59.7749 25.1961C59.7034 25.1309 59.6699 25.0545 59.6699 24.9713C59.6699 24.9061 59.699 24.8387 59.7593 24.7712C59.8263 24.697 59.9022 24.6611 59.9827 24.6611C60.0475 24.6611 60.1145 24.6903 60.1815 24.751C60.2552 24.8184 60.291 24.8926 60.291 24.9713C60.291 25.059 60.2619 25.1332 60.2016 25.1961C60.1413 25.2568 60.0676 25.286 59.9827 25.286C59.9112 25.286 59.8419 25.2568 59.7749 25.1961V25.1961Z" fill="#CCCCCC"/>
</g>
<g id="Group_21">
<path id="Vector_146" d="M61.8569 24.1473C61.7855 24.0821 61.752 24.0056 61.752 23.9225C61.752 23.8573 61.781 23.7898 61.8413 23.7224C61.9083 23.6482 61.9843 23.6122 62.0647 23.6122C62.1295 23.6122 62.1965 23.6415 62.2635 23.7022C62.3372 23.7696 62.373 23.8438 62.373 23.9225C62.373 24.0101 62.3439 24.0843 62.2836 24.1473C62.2233 24.208 62.1496 24.2372 62.0647 24.2372C61.9932 24.2372 61.924 24.208 61.8569 24.1473V24.1473Z" fill="#CCCCCC"/>
<path id="Vector_147" d="M62.896 25.1959C62.8245 25.1307 62.791 25.0543 62.791 24.9711C62.791 24.9059 62.8201 24.8385 62.8804 24.771C62.9474 24.6969 63.0233 24.6609 63.1038 24.6609C63.1685 24.6609 63.2356 24.6901 63.3026 24.7508C63.3763 24.8183 63.412 24.8924 63.412 24.9711C63.412 25.0588 63.383 25.133 63.3227 25.1959C63.2624 25.2566 63.1887 25.2858 63.1038 25.2858C63.0323 25.2858 62.963 25.2566 62.896 25.1959V25.1959Z" fill="#CCCCCC"/>
</g>
</g>
</g>
<defs>
<clipPath id="clip0_12801_13472">
<rect width="90.6592" height="28.1882" fill="white" transform="translate(0.507812 0.0649414)"/>
</clipPath>
</defs>
</svg>
