<svg width="16" height="16" viewBox="0 0 16 16" fill="none" xmlns="http://www.w3.org/2000/svg">
<path d="M16.0041 7.54525H10.6245C10.4818 7.4963 10.339 7.44328 10.1963 7.38618C9.48254 7.08845 8.96049 6.59495 8.66684 5.88121C8.58934 5.68952 8.52001 5.49375 8.45475 5.29799V0H7.54525V5.41218C7.52485 5.47336 7.50854 5.53454 7.48815 5.59572C7.17002 6.51338 6.5664 7.13739 5.64874 7.46368C5.55901 7.4963 5.46928 7.52077 5.38364 7.54525H0V8.45475H5.35101C5.39995 8.47107 5.44889 8.4833 5.50191 8.49962C5.93831 8.65052 6.34616 8.84629 6.69284 9.16034C7.09253 9.51924 7.33316 9.98012 7.50854 10.4777C7.52078 10.5185 7.53301 10.5552 7.54525 10.596V16H8.45475V10.6939C8.48738 10.5878 8.52409 10.4777 8.5608 10.3717C8.86668 9.5274 9.42136 8.92786 10.2656 8.5975C10.4002 8.54448 10.5348 8.49554 10.6694 8.45475H16V7.54525H16.0041Z" fill="black"/>
</svg>
