<svg width="238" height="77" viewBox="0 0 238 77" fill="none" xmlns="http://www.w3.org/2000/svg">
<line x1="57.002" y1="20.7012" x2="94.9698" y2="20.9711" stroke="#6840DA" stroke-width="0.560582" stroke-dasharray="1.79 1.79"/>
<line x1="142.528" y1="21.1403" x2="179.999" y2="20.8677" stroke="#6840DA" stroke-width="0.225315" stroke-dasharray="1.8 1.8"/>
<path opacity="0.4" d="M126.274 0.804826L150.239 41.7007L87.7715 41.7007L111.736 0.804825L126.274 0.804826Z" fill="#6840DA" fill-opacity="0.5" stroke="#9557F6" stroke-width="1.60834"/>
<g filter="url(#filter0_iiii_11700_15322)">
<path d="M0.780413 0.761828C0.582742 0.424504 0.826006 0 1.21698 0L64.7253 0C65.1163 0 65.3596 0.424505 65.1619 0.76183L40.8476 42.2541C40.7568 42.409 40.5907 42.5042 40.4111 42.5042H25.5313C25.3517 42.5042 25.1855 42.409 25.0947 42.2541L0.780413 0.761828Z" fill="#6840DA" fill-opacity="0.5"/>
</g>
<path d="M25.7021 41.7001L1.7373 0.804172L64.205 0.804172L40.2402 41.7001H25.7021Z" stroke="#6840DA" stroke-width="1.60834"/>
<path opacity="0.4" d="M197.761 41.7001L173.796 0.804172L236.264 0.804172L212.299 41.7001H197.761Z" fill="#6840DA" fill-opacity="0.5" stroke="#9557F6" stroke-width="1.60834"/>
<path d="M24.4939 74.2021H23.4379V65.8021H28.7299V66.7261H24.4939V69.5701H28.1539V70.4941H24.4939V74.2021ZM32.7757 74.2021H31.9117V73.8541L34.6837 66.6781H31.2997V68.1541H30.3997V65.8021H35.6797V66.6181L32.7757 74.2021ZM39.8092 74.2021H38.9452V73.8541L41.7172 66.6781H38.3332V68.1541H37.4332V65.8021H42.7132V66.6181L39.8092 74.2021Z" fill="white"/>
<path d="M94.9402 74.2021H93.8962L90.7522 66.1501V65.8021H91.7482L94.4362 72.8101L97.0882 65.8021H98.0722V66.1501L94.9402 74.2021ZM101.111 74.2021H100.067V65.8021H101.111V74.2021ZM106.936 73.4221C107.616 73.4221 108.148 73.2421 108.532 72.8821C108.924 72.5141 109.12 72.0261 109.12 71.4181V68.5861C109.12 67.9781 108.924 67.4941 108.532 67.1341C108.148 66.7661 107.616 66.5821 106.936 66.5821C106.248 66.5821 105.712 66.7661 105.328 67.1341C104.944 67.4941 104.752 67.9781 104.752 68.5861V71.4181C104.752 72.0261 104.944 72.5141 105.328 72.8821C105.712 73.2421 106.248 73.4221 106.936 73.4221ZM103.708 71.3701V68.6341C103.708 67.6981 103.996 66.9621 104.572 66.4261C105.156 65.8901 105.944 65.6221 106.936 65.6221C107.928 65.6221 108.712 65.8901 109.288 66.4261C109.872 66.9621 110.164 67.6981 110.164 68.6341V71.3701C110.164 72.3061 109.872 73.0421 109.288 73.5781C108.712 74.1141 107.928 74.3821 106.936 74.3821C105.944 74.3821 105.156 74.1141 104.572 73.5781C103.996 73.0421 103.708 72.3061 103.708 71.3701ZM118.092 74.2021H112.752V65.8021H113.796V73.2781H118.092V74.2021ZM125.322 74.2021H120.078V65.8021H125.31V66.7261H121.122V69.5101H124.746V70.4341H121.122V73.2781H125.322V74.2021ZM130.446 74.2021H129.402V66.7261H126.846V65.8021H132.99V66.7261H130.446V74.2021ZM138.101 74.2021H137.057V66.7261H134.501V65.8021H140.645V66.7261H138.101V74.2021ZM147.876 74.2021H142.632V65.8021H147.864V66.7261H143.676V69.5101H147.3V70.4341H143.676V73.2781H147.876V74.2021Z" fill="white"/>
<path d="M197.599 74.2021H196.555V70.8661L193.579 66.1501V65.8021H194.611L197.083 69.8221L199.615 65.8021H200.563V66.1501L197.599 70.8301V74.2021ZM205.44 73.4221C206.12 73.4221 206.652 73.2421 207.036 72.8821C207.428 72.5141 207.624 72.0261 207.624 71.4181V68.5861C207.624 67.9781 207.428 67.4941 207.036 67.1341C206.652 66.7661 206.12 66.5821 205.44 66.5821C204.752 66.5821 204.216 66.7661 203.832 67.1341C203.448 67.4941 203.256 67.9781 203.256 68.5861V71.4181C203.256 72.0261 203.448 72.5141 203.832 72.8821C204.216 73.2421 204.752 73.4221 205.44 73.4221ZM202.212 71.3701V68.6341C202.212 67.6981 202.5 66.9621 203.076 66.4261C203.66 65.8901 204.448 65.6221 205.44 65.6221C206.432 65.6221 207.216 65.8901 207.792 66.4261C208.376 66.9621 208.668 67.6981 208.668 68.6341V71.3701C208.668 72.3061 208.376 73.0421 207.792 73.5781C207.216 74.1141 206.432 74.3821 205.44 74.3821C204.448 74.3821 203.66 74.1141 203.076 73.5781C202.5 73.0421 202.212 72.3061 202.212 71.3701ZM214.231 74.3821C213.295 74.3821 212.547 74.1261 211.987 73.6141C211.419 73.0941 211.135 72.3781 211.135 71.4661V65.8021H212.179V71.5021C212.179 72.0861 212.359 72.5541 212.719 72.9061C213.087 73.2501 213.591 73.4221 214.231 73.4221C214.871 73.4221 215.371 73.2541 215.731 72.9181C216.091 72.5741 216.271 72.1021 216.271 71.5021V65.8021H217.315V71.4661C217.315 72.3781 217.031 73.0941 216.463 73.6141C215.903 74.1261 215.159 74.3821 214.231 74.3821Z" fill="white"/>
<defs>
<filter id="filter0_iiii_11700_15322" x="0.710938" y="0" width="77.1716" height="55.154" filterUnits="userSpaceOnUse" color-interpolation-filters="sRGB">
<feFlood flood-opacity="0" result="BackgroundImageFix"/>
<feBlend mode="normal" in="SourceGraphic" in2="BackgroundImageFix" result="shape"/>
<feColorMatrix in="SourceAlpha" type="matrix" values="0 0 0 0 0 0 0 0 0 0 0 0 0 0 0 0 0 0 127 0" result="hardAlpha"/>
<feOffset dx="1.51801" dy="1.51801"/>
<feGaussianBlur stdDeviation="2.02401"/>
<feComposite in2="hardAlpha" operator="arithmetic" k2="-1" k3="1"/>
<feColorMatrix type="matrix" values="0 0 0 0 0.592157 0 0 0 0 0.34902 0 0 0 0 0.964706 0 0 0 0.1 0"/>
<feBlend mode="normal" in2="shape" result="effect1_innerShadow_11700_15322"/>
<feColorMatrix in="SourceAlpha" type="matrix" values="0 0 0 0 0 0 0 0 0 0 0 0 0 0 0 0 0 0 127 0" result="hardAlpha"/>
<feOffset dx="6.07203" dy="5.06003"/>
<feGaussianBlur stdDeviation="3.79502"/>
<feComposite in2="hardAlpha" operator="arithmetic" k2="-1" k3="1"/>
<feColorMatrix type="matrix" values="0 0 0 0 0.592157 0 0 0 0 0.34902 0 0 0 0 0.964706 0 0 0 0.09 0"/>
<feBlend mode="normal" in2="effect1_innerShadow_11700_15322" result="effect2_innerShadow_11700_15322"/>
<feColorMatrix in="SourceAlpha" type="matrix" values="0 0 0 0 0 0 0 0 0 0 0 0 0 0 0 0 0 0 127 0" result="hardAlpha"/>
<feOffset dx="13.1561" dy="11.6381"/>
<feGaussianBlur stdDeviation="5.31303"/>
<feComposite in2="hardAlpha" operator="arithmetic" k2="-1" k3="1"/>
<feColorMatrix type="matrix" values="0 0 0 0 0.592157 0 0 0 0 0.34902 0 0 0 0 0.964706 0 0 0 0.05 0"/>
<feBlend mode="normal" in2="effect2_innerShadow_11700_15322" result="effect3_innerShadow_11700_15322"/>
<feColorMatrix in="SourceAlpha" type="matrix" values="0 0 0 0 0 0 0 0 0 0 0 0 0 0 0 0 0 0 127 0" result="hardAlpha"/>
<feOffset dx="23.7821" dy="20.2401"/>
<feGaussianBlur stdDeviation="6.32503"/>
<feComposite in2="hardAlpha" operator="arithmetic" k2="-1" k3="1"/>
<feColorMatrix type="matrix" values="0 0 0 0 0.592157 0 0 0 0 0.34902 0 0 0 0 0.964706 0 0 0 0.01 0"/>
<feBlend mode="normal" in2="effect3_innerShadow_11700_15322" result="effect4_innerShadow_11700_15322"/>
</filter>
</defs>
</svg>
