<svg width="330" height="43" viewBox="0 0 330 43" fill="none" xmlns="http://www.w3.org/2000/svg">
<g clip-path="url(#clip0_10655_70269)">
<path d="M73.1324 21.0318V13.9666H76.1742C76.405 13.9666 76.5938 14.1569 76.5938 14.3896V21.7511C76.5938 23.4645 76.1742 24.8606 75.3351 25.9395C74.496 27.0183 73.2793 27.8221 71.7269 28.3298C70.1536 28.8375 68.3075 29.1125 66.1468 29.1125C63.986 29.1125 62.1609 28.8586 60.5876 28.3298C59.0142 27.8221 57.8185 27.0183 56.9794 25.9395C56.1403 24.8606 55.7207 23.4645 55.7207 21.7511V14.3896C55.7207 14.1569 55.9095 13.9666 56.1403 13.9666H59.1821V21.0318C59.1821 22.2164 59.4338 23.1895 59.9373 23.9299C60.4407 24.6702 61.196 25.2202 62.2239 25.5587C63.2518 25.9183 64.5734 26.0875 66.1468 26.0875C67.7201 26.0875 69.0837 25.9183 70.1116 25.5587C71.1395 25.1991 71.8947 24.6702 72.3982 23.9299C72.9017 23.1895 73.1534 22.2164 73.1534 21.0318H73.1324Z" fill="white"/>
<path d="M82.9692 25.8562H98.409V28.4369C98.409 28.6696 98.2202 28.86 97.9894 28.86H79.5078V14.3698C79.5078 14.1372 79.6966 13.9468 79.9274 13.9468H82.9692V25.8351V25.8562Z" fill="white"/>
<path d="M104.662 16.9506H95.8301V14.3698C95.8301 14.1372 96.0189 13.9468 96.2496 13.9468H116.976V16.5275C116.976 16.7602 116.787 16.9506 116.556 16.9506H108.165V28.8389H104.683V16.9506H104.662Z" fill="white"/>
<path d="M122.388 28.8389H119.346V14.3698C119.346 14.1372 119.535 13.9468 119.765 13.9468H133.821C134.723 13.9468 135.541 14.0314 136.275 14.2218C137.009 14.4122 137.618 14.6872 138.142 15.0891C138.645 15.491 139.044 15.9987 139.317 16.6333C139.589 17.2679 139.736 18.0506 139.736 18.9602C139.736 20.0178 139.548 20.9063 139.149 21.6255C138.75 22.3447 138.163 22.8947 137.408 23.2543C136.653 23.6351 135.688 23.8466 134.576 23.9101H133.254L139.527 28.8177H135.289C135.289 28.8177 135.1 28.7754 135.037 28.7331L129.457 24.1216H122.849V28.4158C122.849 28.6485 122.66 28.8389 122.429 28.8389H122.388ZM122.807 16.9506V21.4986H133.506C134.45 21.4986 135.121 21.3294 135.52 20.9697C135.939 20.6101 136.128 20.039 136.128 19.2352C136.128 18.389 135.918 17.7967 135.52 17.4583C135.1 17.1198 134.429 16.9506 133.506 16.9506H122.807Z" fill="white"/>
<path d="M155.218 14.1372C155.134 14.0314 155.008 13.9468 154.882 13.9468H150.708C150.561 13.9468 150.435 14.0102 150.372 14.1372L140.533 28.8389H144.477C144.624 28.8389 144.75 28.7754 144.813 28.6485L146.764 25.6658H158.805L160.756 28.6485C160.84 28.7754 160.966 28.8389 161.092 28.8389H165.077L155.239 14.1372H155.218ZM148.358 23.212L152.763 16.4429L157.169 23.212H148.337H148.358Z" fill="white"/>
<path d="M171.579 28.6485L161.824 13.9468H165.831C165.978 13.9468 166.104 14.0102 166.167 14.1372L174.033 25.9831L181.879 14.1372C181.963 14.0314 182.089 13.9468 182.215 13.9468H186.159L176.425 28.6485C176.341 28.7542 176.215 28.8389 176.089 28.8389H171.915C171.768 28.8389 171.642 28.7754 171.579 28.6485Z" fill="white"/>
<path d="M191.237 28.8389H188.195V14.3698C188.195 14.1372 188.384 13.9468 188.615 13.9468H191.657V28.4158C191.657 28.6485 191.468 28.8389 191.237 28.8389Z" fill="white"/>
<path d="M206.22 29.1126C203.493 29.1126 201.248 28.8376 199.507 28.2877C197.745 27.7377 196.465 26.8915 195.626 25.7492C194.787 24.6069 194.367 23.1473 194.367 21.3705C194.367 19.5936 194.787 18.1128 195.626 16.9917C196.465 15.8494 197.766 15.0244 199.507 14.4744C201.269 13.9244 203.493 13.6494 206.22 13.6494C208.947 13.6494 211.213 13.9244 212.954 14.4744C214.695 15.0244 215.995 15.8705 216.835 16.9917C217.674 18.134 218.093 19.5936 218.093 21.3705C218.093 23.1473 217.674 24.6069 216.835 25.7492C215.995 26.8915 214.716 27.7377 212.954 28.2877C211.213 28.8376 208.968 29.1126 206.22 29.1126ZM206.22 26.1088C207.814 26.1088 209.136 26.0242 210.206 25.8338C211.275 25.6435 212.136 25.3685 212.765 24.9877C213.415 24.6069 213.877 24.1204 214.149 23.5281C214.422 22.9358 214.569 22.2166 214.569 21.3916C214.569 20.5666 214.422 19.8262 214.149 19.2339C213.877 18.6416 213.415 18.1551 212.765 17.7744C212.115 17.3936 211.275 17.1186 210.206 16.9282C209.136 16.759 207.814 16.6744 206.22 16.6744C204.122 16.6744 202.444 16.8436 201.227 17.1609C200.01 17.4782 199.129 17.9859 198.605 18.684C198.08 19.382 197.829 20.2916 197.829 21.3916C197.829 22.4916 198.08 23.4223 198.605 24.0993C199.129 24.7973 199.989 25.305 201.227 25.6223C202.465 25.9396 204.122 26.1088 206.22 26.1088Z" fill="white"/>
<path d="M224.215 25.8562H239.655V28.4369C239.655 28.6696 239.466 28.86 239.236 28.86H220.754V14.3698C220.754 14.1372 220.943 13.9468 221.173 13.9468H224.215V25.8351V25.8562Z" fill="white"/>
<path d="M260.841 28.8389H242.275C242.044 28.8389 241.855 28.6485 241.855 28.4158V14.3698C241.855 14.1372 242.044 13.9468 242.275 13.9468H260.841C261.071 13.9468 261.26 14.1372 261.26 14.3698V16.7179H245.317V19.7005C245.317 19.9332 245.506 20.1236 245.736 20.1236H260.82V22.4082H245.736C245.506 22.4082 245.317 22.5986 245.317 22.8313V26.0677H261.26V28.4158C261.26 28.6485 261.071 28.8389 260.841 28.8389Z" fill="white"/>
<path d="M272.234 16.9506H263.402V14.3698C263.402 14.1372 263.591 13.9468 263.822 13.9468H284.548V16.5275C284.548 16.7602 284.359 16.9506 284.129 16.9506H275.737V28.8389H272.255V16.9506H272.234Z" fill="white"/>
<path d="M295.267 16.9506H286.436V14.3698C286.436 14.1372 286.624 13.9468 286.855 13.9468H307.581V16.5275C307.581 16.7602 307.393 16.9506 307.162 16.9506H298.771V28.8389H295.288V16.9506H295.267Z" fill="white"/>
<path d="M328.919 28.8389H310.353C310.122 28.8389 309.934 28.6485 309.934 28.4158V14.3698C309.934 14.1372 310.122 13.9468 310.353 13.9468H328.919C329.149 13.9468 329.338 14.1372 329.338 14.3698V16.7179H313.395V19.7005C313.395 19.9332 313.584 20.1236 313.815 20.1236H328.898V22.4082H313.815C313.584 22.4082 313.395 22.5986 313.395 22.8313V26.0677H329.338V28.4158C329.338 28.6485 329.149 28.8389 328.919 28.8389Z" fill="white"/>
<path d="M46.1989 2.33494C46.4507 2.18687 46.5136 1.86957 46.3458 1.63688L45.6955 0.68497C45.6115 0.579202 45.5276 0.494588 45.4018 0.431127C45.2339 0.346513 45.1081 0.346513 45.0242 0.346513C38.542 0.134978 31.0319 0.00805664 24.214 0.00805664C16.7668 0.00805664 10.3685 0.113824 3.31994 0.346513C3.04723 0.346513 2.79549 0.494588 2.64865 0.727277L1.97735 1.78495C1.83051 2.01764 1.91442 2.31379 2.14518 2.46187L6.13099 4.80991C6.13099 4.80991 9.06791 4.80991 10.2217 4.80991C10.3895 4.80991 10.5364 4.85221 10.6832 4.95798C11.837 5.76182 13.8509 7.20026 14.7949 7.89832C14.9837 8.02524 15.1935 8.10986 15.4242 8.10986H36.4442L46.2409 2.39841L46.1989 2.33494Z" fill="white"/>
<path d="M24.8813 42.1846C24.8813 42.4596 25.133 42.6923 25.4057 42.6711L26.5595 42.5865C26.6854 42.5865 26.8113 42.5231 26.9162 42.4596C27.063 42.3538 27.1469 42.2481 27.1889 42.1846C30.6293 36.6424 34.5312 30.1694 37.9716 24.2252C41.7476 17.7523 44.8733 12.1254 48.2298 5.86399C48.3766 5.6313 48.3766 5.33515 48.2508 5.0813L47.6844 3.96017C47.5585 3.72748 47.2648 3.62171 47.034 3.74863L43.0063 6.03321C43.0063 6.03321 41.5168 8.59279 40.9294 9.60816C40.8455 9.75623 40.7197 9.862 40.5728 9.92546C39.3141 10.5178 37.0485 11.5543 35.9996 12.0197C35.7898 12.1043 35.622 12.2735 35.4962 12.4639L24.8813 30.7617L24.8184 42.1634L24.8813 42.1846Z" fill="white"/>
<path d="M1.23965 3.77311C0.987918 3.62503 0.673249 3.7308 0.568359 4.0058L0.0858651 5.06347C0.0229311 5.19039 0.00195312 5.31731 0.00195312 5.44424C0.00195312 5.61346 0.0648871 5.76154 0.106843 5.825C3.19061 11.5788 6.88273 18.1787 10.3021 24.1228C14.0362 30.6169 17.3717 36.138 21.1058 42.1668C21.2526 42.3994 21.4834 42.5475 21.7561 42.5687L22.9938 42.6321C23.2665 42.6321 23.4763 42.4206 23.4973 42.1456V37.4918C23.4973 37.4918 22.0288 34.9323 21.4415 33.9169C21.3575 33.7688 21.3156 33.6207 21.3366 33.4515C21.4415 32.0554 21.6722 29.5593 21.7771 28.3958C21.7981 28.1631 21.7561 27.9304 21.6303 27.7401L11.0573 9.4211L1.23965 3.77311Z" fill="white"/>
</g>
<defs>
<clipPath id="clip0_10655_70269">
<rect width="329.333" height="42.6667" fill="white"/>
</clipPath>
</defs>
</svg>
