<svg width="16" height="16" viewBox="0 0 16 16" fill="none" xmlns="http://www.w3.org/2000/svg">
<path d="M7.25529 15.9559L15.755 8.5384C15.8319 8.47135 15.8936 8.38846 15.9358 8.29534C15.9781 8.20222 16 8.10105 16 7.99868C16 7.89632 15.9781 7.79515 15.9358 7.70203C15.8936 7.60891 15.8319 7.52601 15.755 7.45897L7.25529 0.0437141C7.22967 0.0213067 7.19819 0.00677766 7.16459 0.00185792C7.13099 -0.00306182 7.09669 0.00183495 7.06579 0.0159649C7.03488 0.0300948 7.00866 0.0528625 6.99025 0.0815558C6.97185 0.110249 6.96203 0.143659 6.96197 0.177805L6.96197 1.98804C6.96197 2.09084 7.00641 2.18918 7.08419 2.25846L12.6906 7.15055L0.17777 7.15055C0.0799969 7.15055 -2.09717e-07 7.23101 -2.12569e-07 7.32934L-2.51459e-07 8.67026C-2.54311e-07 8.76859 0.0799968 8.84904 0.17777 8.84904L12.6906 8.84905L7.08419 13.7411C7.00641 13.8082 6.96197 13.9065 6.96197 14.0116L6.96197 15.8218C6.96197 15.9738 7.13974 16.0565 7.25529 15.9559Z" fill="white"/>
</svg>
