<svg width="21" height="21" viewBox="0 0 21 21" fill="none" xmlns="http://www.w3.org/2000/svg">
<path d="M9.95537 20.9421L20.597 11.2066C20.6933 11.1186 20.7706 11.0099 20.8235 10.8876C20.8764 10.7654 20.9038 10.6326 20.9038 10.4983C20.9038 10.3639 20.8764 10.2311 20.8235 10.1089C20.7706 9.98669 20.6933 9.87789 20.597 9.78989L9.95538 0.057375C9.9233 0.0279653 9.88388 0.00889597 9.84182 0.00243881C9.79975 -0.00401835 9.75681 0.00240866 9.71811 0.0209542C9.67942 0.0394998 9.64659 0.0693823 9.62355 0.107042C9.6005 0.144702 9.58821 0.188553 9.58813 0.23337L9.58813 2.6093C9.58813 2.74423 9.64378 2.87329 9.74115 2.96422L16.7605 9.3851L1.09428 9.3851C0.971862 9.3851 0.871706 9.4907 0.871706 9.61976L0.871706 11.3797C0.871705 11.5088 0.971862 11.6144 1.09428 11.6144L16.7605 11.6144L9.74115 18.0353C9.64378 18.1233 9.58813 18.2523 9.58813 18.3902L9.58813 20.7661C9.58813 20.9656 9.8107 21.0741 9.95537 20.9421Z" fill="white"/>
</svg>
