<svg width="16" height="16" viewBox="0 0 16 16" fill="none" xmlns="http://www.w3.org/2000/svg">
<path d="M8.02158 12C7.08153 12 6.34293 11.7472 5.80576 11.2416C5.26859 10.7261 5 10.0322 5 9.15985V6.84015C5 5.96778 5.26859 5.27881 5.80576 4.77323C6.34293 4.25774 7.08153 4 8.02158 4C8.93285 4 9.65707 4.24783 10.1942 4.74349C10.7314 5.22924 11 5.89343 11 6.73606V6.81041H9.84892V6.72119C9.84892 6.23544 9.68585 5.84387 9.35971 5.54647C9.03357 5.23916 8.58753 5.0855 8.02158 5.0855C7.42686 5.0855 6.96643 5.23916 6.64029 5.54647C6.31415 5.85378 6.15108 6.27509 6.15108 6.81041V9.18959C6.15108 9.72491 6.31415 10.1462 6.64029 10.4535C6.96643 10.7608 7.42686 10.9145 8.02158 10.9145C8.58753 10.9145 9.03357 10.7658 9.35971 10.4684C9.68585 10.1611 9.84892 9.75465 9.84892 9.24907V9.14498H11V9.2342C11 10.0669 10.7266 10.7361 10.1799 11.2416C9.64269 11.7472 8.92326 12 8.02158 12Z" fill="#565656"/>
<circle cx="8" cy="8" r="7.25" stroke="#565656" stroke-width="1.5"/>
</svg>
