<svg width="83" height="50" viewBox="0 0 83 50" fill="none" xmlns="http://www.w3.org/2000/svg">
<path d="M0 0.999999C0 0.447714 0.447715 0 1 0H82C82.5523 0 83 0.447715 83 1V32C83 32.5523 82.5523 33 82 33H0.999999C0.447715 33 0 32.5523 0 32V0.999999Z" fill="white"/>
<path d="M13.1517 16.8856V15.8715C13.1517 15.8214 13.1642 15.7714 13.1893 15.7213C13.2226 15.6712 13.2602 15.6378 13.3019 15.6211L19.4239 12.8543C19.4657 12.8376 19.5032 12.8376 19.5366 12.8543C19.57 12.871 19.5867 12.9044 19.5867 12.9545V13.4928C19.5867 13.5429 19.57 13.593 19.5366 13.6431C19.5032 13.6931 19.4657 13.7265 19.4239 13.7432L13.7025 16.3723L19.4239 19.0014C19.4657 19.0181 19.5032 19.0515 19.5366 19.1015C19.57 19.1516 19.5867 19.2017 19.5867 19.2518V19.7901C19.5867 19.8402 19.57 19.8777 19.5366 19.9028C19.5032 19.9195 19.4657 19.9153 19.4239 19.8903L13.3019 17.136C13.2018 17.0776 13.1517 16.9941 13.1517 16.8856Z" fill="black"/>
<path d="M23.1083 20.4912V12.2534C23.1083 12.2117 23.125 12.1741 23.1583 12.1407C23.2001 12.099 23.2418 12.0781 23.2835 12.0781H27.7279C27.9783 12.0781 28.212 12.1282 28.429 12.2284C28.6544 12.3202 28.8505 12.4495 29.0174 12.6165C29.1844 12.7834 29.3137 12.9795 29.4055 13.2049C29.5057 13.4219 29.5558 13.6556 29.5558 13.906V18.8386C29.5558 19.089 29.5057 19.3269 29.4055 19.5522C29.3137 19.7776 29.1844 19.9737 29.0174 20.1406C28.8505 20.2992 28.6544 20.4286 28.429 20.5287C28.212 20.6206 27.9783 20.6665 27.7279 20.6665H23.2835C23.2418 20.6665 23.2001 20.6498 23.1583 20.6164C23.125 20.583 23.1083 20.5413 23.1083 20.4912ZM24.0597 19.715H27.7279C27.97 19.715 28.1745 19.6315 28.3414 19.4646C28.5167 19.2893 28.6043 19.0807 28.6043 18.8386V13.906C28.6043 13.6639 28.5167 13.4594 28.3414 13.2925C28.1745 13.1172 27.97 13.0296 27.7279 13.0296H24.0597V19.715Z" fill="black"/>
<path d="M38.3477 20.5037L36.7202 16.848H34.0411V20.4912C34.0411 20.608 33.9826 20.6665 33.8658 20.6665H33.2774C33.1605 20.6665 33.1021 20.608 33.1021 20.4912V12.2534C33.1021 12.1365 33.1605 12.0781 33.2774 12.0781H37.7093C37.9596 12.0781 38.1933 12.1282 38.4103 12.2284C38.6357 12.3202 38.8318 12.4495 38.9988 12.6165C39.1657 12.7834 39.295 12.9795 39.3869 13.2049C39.487 13.4219 39.5371 13.6556 39.5371 13.906V15.0202C39.5371 15.4292 39.4119 15.7964 39.1615 16.1219C38.9195 16.4391 38.6023 16.6561 38.21 16.7729L37.7844 16.8981L39.3869 20.5037C39.4119 20.5454 39.4119 20.583 39.3869 20.6164C39.3702 20.6498 39.3368 20.6665 39.2867 20.6665H38.5981C38.548 20.6665 38.498 20.6498 38.4479 20.6164C38.3978 20.583 38.3644 20.5454 38.3477 20.5037ZM34.0411 15.8966H37.7093C37.9513 15.8966 38.1558 15.8131 38.3227 15.6462C38.498 15.4709 38.5856 15.2622 38.5856 15.0202V13.906C38.5856 13.6639 38.498 13.4594 38.3227 13.2925C38.1558 13.1172 37.9513 13.0296 37.7093 13.0296H34.0411V15.8966Z" fill="black"/>
<path d="M47.4652 12.0781C47.5153 12.0781 47.5612 12.0948 47.6029 12.1282C47.653 12.1616 47.6864 12.1991 47.7031 12.2409L49.4433 16.5976C49.46 16.6394 49.4725 16.6936 49.4808 16.7604C49.4975 16.8272 49.5059 16.8856 49.5059 16.9357V20.4912C49.5059 20.608 49.4475 20.6665 49.3306 20.6665H48.7422C48.6254 20.6665 48.5669 20.608 48.5669 20.4912V18.1751H44.0224V20.4912C44.0224 20.608 43.9639 20.6665 43.8471 20.6665H43.2462C43.1293 20.6665 43.0709 20.608 43.0709 20.4912V16.9357C43.0709 16.8856 43.0751 16.8272 43.0834 16.7604C43.1001 16.6936 43.1168 16.6394 43.1335 16.5976L44.8737 12.2409C44.8904 12.1991 44.9238 12.1616 44.9738 12.1282C45.0239 12.0948 45.0698 12.0781 45.1116 12.0781H47.4652ZM48.5669 17.2361V16.9357L47.002 13.0296H45.5873L44.0224 16.9357V17.2361H48.5669Z" fill="black"/>
<path d="M59.3244 15.8966C59.3745 15.8966 59.4163 15.9174 59.4496 15.9591C59.483 15.9925 59.4997 16.0301 59.4997 16.0718V18.8386C59.4997 19.089 59.4496 19.3269 59.3495 19.5522C59.2577 19.7776 59.1283 19.9737 58.9614 20.1406C58.7945 20.2992 58.5983 20.4286 58.373 20.5287C58.156 20.6206 57.9223 20.6665 57.6719 20.6665H54.88C54.6297 20.6665 54.3918 20.6206 54.1664 20.5287C53.9494 20.4286 53.7575 20.2992 53.5905 20.1406C53.4236 19.9737 53.2901 19.7776 53.1899 19.5522C53.0981 19.3269 53.0522 19.089 53.0522 18.8386V13.906C53.0522 13.6556 53.0981 13.4219 53.1899 13.2049C53.2901 12.9795 53.4236 12.7834 53.5905 12.6165C53.7575 12.4495 53.9494 12.3202 54.1664 12.2284C54.3918 12.1282 54.6297 12.0781 54.88 12.0781H57.6719C57.9223 12.0781 58.156 12.1282 58.373 12.2284C58.5983 12.3202 58.7903 12.4495 58.9489 12.6165C59.1158 12.775 59.2493 12.967 59.3495 13.1924C59.4496 13.4094 59.4997 13.6431 59.4997 13.8934V14.4819C59.4997 14.5987 59.4413 14.6571 59.3244 14.6571H58.7235C58.6067 14.6571 58.5482 14.5987 58.5482 14.4819V13.8934C58.5399 13.6514 58.4523 13.4469 58.2853 13.28C58.1184 13.1131 57.9139 13.0296 57.6719 13.0296H54.88C54.638 13.0296 54.4293 13.1172 54.2541 13.2925C54.0871 13.4594 54.0037 13.6639 54.0037 13.906V18.8386C54.0037 19.0807 54.0871 19.2893 54.2541 19.4646C54.4293 19.6315 54.638 19.715 54.88 19.715H57.6719C57.9139 19.715 58.1184 19.6315 58.2853 19.4646C58.4606 19.2893 58.5482 19.0807 58.5482 18.8386V16.848H56.4951C56.4533 16.848 56.4116 16.8313 56.3699 16.798C56.3365 16.7646 56.3198 16.7228 56.3198 16.6728V16.0718C56.3198 16.0301 56.3365 15.9925 56.3699 15.9591C56.4116 15.9174 56.4533 15.8966 56.4951 15.8966H59.3244Z" fill="black"/>
<path d="M63.184 19.0014L68.9054 16.3723L63.184 13.7432C63.1423 13.7265 63.1048 13.6931 63.0714 13.6431C63.0463 13.593 63.0338 13.5429 63.0338 13.4928V12.9545C63.0338 12.846 63.0839 12.8126 63.184 12.8543L69.3061 15.6211C69.3478 15.6378 69.3853 15.6712 69.4187 15.7213C69.4521 15.7714 69.4688 15.8214 69.4688 15.8715V16.8856C69.4688 16.9941 69.4146 17.0776 69.3061 17.136L63.184 19.8903C63.1423 19.9153 63.1048 19.9195 63.0714 19.9028C63.0463 19.8777 63.0338 19.8402 63.0338 19.7901V19.2518C63.0338 19.2017 63.0463 19.1516 63.0714 19.1015C63.1048 19.0515 63.1423 19.0181 63.184 19.0014Z" fill="black"/>
<path d="M83 26.9997H60V50H66.004V37L78 49L82 45L70 33H83V26.9997Z" fill="#DA4F46"/>
</svg>
