<svg width="92" height="50" viewBox="0 0 92 50" fill="none" xmlns="http://www.w3.org/2000/svg">
<rect width="92" height="33" fill="#D9D9D9"/>
<path d="M92 27H69V50.0003H75.004V37.0003L87 49.0003L91 45.0003L79 33.0003H92V27Z" fill="#DA4F46"/>
<path d="M10 17.376V16.242C10 16.186 10.014 16.13 10.042 16.074C10.0793 16.018 10.1213 15.9807 10.168 15.962L17.014 12.868C17.0607 12.8493 17.1027 12.8493 17.14 12.868C17.1773 12.8867 17.196 12.924 17.196 12.98V13.582C17.196 13.638 17.1773 13.694 17.14 13.75C17.1027 13.806 17.0607 13.8433 17.014 13.862L10.616 16.802L17.014 19.742C17.0607 19.7607 17.1027 19.798 17.14 19.854C17.1773 19.91 17.196 19.966 17.196 20.022V20.624C17.196 20.68 17.1773 20.722 17.14 20.75C17.1027 20.7687 17.0607 20.764 17.014 20.736L10.168 17.656C10.056 17.5907 10 17.4973 10 17.376Z" fill="black"/>
<path d="M21.6904 21.408V12.196C21.6904 12.0653 21.7557 12 21.8864 12H28.4103C28.541 12 28.6063 12.0653 28.6063 12.196V12.868C28.6063 12.9987 28.541 13.064 28.4103 13.064H22.7404V16.27H27.6543C27.701 16.27 27.743 16.2933 27.7803 16.34C27.827 16.3773 27.8503 16.4193 27.8503 16.466V17.138C27.8503 17.194 27.827 17.2407 27.7803 17.278C27.743 17.3153 27.701 17.334 27.6543 17.334H22.7404V20.54H28.4103C28.4663 20.54 28.513 20.5633 28.5503 20.61C28.5877 20.6473 28.6063 20.6893 28.6063 20.736V21.408C28.6063 21.5387 28.541 21.604 28.4103 21.604H21.8864C21.7557 21.604 21.6904 21.5387 21.6904 21.408Z" fill="black"/>
<path d="M37.3604 21.408V17.39L32.2784 13.19V21.408C32.2784 21.5387 32.213 21.604 32.0824 21.604H31.4104C31.3637 21.604 31.317 21.5853 31.2704 21.548C31.233 21.5107 31.2144 21.464 31.2144 21.408V12.196C31.2144 12.14 31.233 12.0933 31.2704 12.056C31.317 12.0187 31.3637 12 31.4104 12H32.3484C32.479 12 32.5957 12.042 32.6984 12.126L37.3604 15.976V12.196C37.3604 12.0653 37.4257 12 37.5564 12H38.2284C38.359 12 38.4244 12.0653 38.4244 12.196V21.408C38.4244 21.5387 38.359 21.604 38.2284 21.604H37.5564C37.4257 21.604 37.3604 21.5387 37.3604 21.408Z" fill="black"/>
<path d="M44.0561 21.408V13.064H41.1861C41.0554 13.064 40.9901 12.9987 40.9901 12.868V12.196C40.9901 12.0653 41.0554 12 41.1861 12H47.9901C48.1208 12 48.1861 12.0653 48.1861 12.196V12.868C48.1861 12.9987 48.1208 13.064 47.9901 13.064H45.1201V21.408C45.1201 21.464 45.0968 21.5107 45.0501 21.548C45.0128 21.5853 44.9708 21.604 44.9241 21.604H44.2521C44.1214 21.604 44.0561 21.5387 44.0561 21.408Z" fill="black"/>
<path d="M50.9618 21.408V12.196C50.9618 12.0653 51.0271 12 51.1578 12H57.6818C57.8125 12 57.8778 12.0653 57.8778 12.196V12.868C57.8778 12.9987 57.8125 13.064 57.6818 13.064H52.0118V16.27H56.9258C56.9725 16.27 57.0145 16.2933 57.0518 16.34C57.0985 16.3773 57.1218 16.4193 57.1218 16.466V17.138C57.1218 17.194 57.0985 17.2407 57.0518 17.278C57.0145 17.3153 56.9725 17.334 56.9258 17.334H52.0118V20.54H57.6818C57.7378 20.54 57.7845 20.5633 57.8218 20.61C57.8591 20.6473 57.8778 20.6893 57.8778 20.736V21.408C57.8778 21.5387 57.8125 21.604 57.6818 21.604H51.1578C51.0271 21.604 50.9618 21.5387 50.9618 21.408Z" fill="black"/>
<path d="M66.3659 21.422L64.5459 17.334H61.5499V21.408C61.5499 21.5387 61.4845 21.604 61.3539 21.604H60.6959C60.5652 21.604 60.4999 21.5387 60.4999 21.408V12.196C60.4999 12.0653 60.5652 12 60.6959 12H65.6519C65.9319 12 66.1932 12.056 66.4359 12.168C66.6879 12.2707 66.9072 12.4153 67.0939 12.602C67.2805 12.7887 67.4252 13.008 67.5279 13.26C67.6399 13.5027 67.6959 13.764 67.6959 14.044V15.29C67.6959 15.7473 67.5559 16.158 67.2759 16.522C67.0052 16.8767 66.6505 17.1193 66.2119 17.25L65.7359 17.39L67.5279 21.422C67.5559 21.4687 67.5559 21.5107 67.5279 21.548C67.5092 21.5853 67.4719 21.604 67.4159 21.604H66.6459C66.5899 21.604 66.5339 21.5853 66.4779 21.548C66.4219 21.5107 66.3845 21.4687 66.3659 21.422ZM61.5499 16.27H65.6519C65.9225 16.27 66.1512 16.1767 66.3379 15.99C66.5339 15.794 66.6319 15.5607 66.6319 15.29V14.044C66.6319 13.7733 66.5339 13.5447 66.3379 13.358C66.1512 13.162 65.9225 13.064 65.6519 13.064H61.5499V16.27Z" fill="black"/>
<path d="M70.4296 19.742L76.8276 16.802L70.4296 13.862C70.3829 13.8433 70.3409 13.806 70.3036 13.75C70.2756 13.694 70.2616 13.638 70.2616 13.582V12.98C70.2616 12.8587 70.3176 12.8213 70.4296 12.868L77.2756 15.962C77.3223 15.9807 77.3643 16.018 77.4016 16.074C77.4389 16.13 77.4576 16.186 77.4576 16.242V17.376C77.4576 17.4973 77.3969 17.5907 77.2756 17.656L70.4296 20.736C70.3829 20.764 70.3409 20.7687 70.3036 20.75C70.2756 20.722 70.2616 20.68 70.2616 20.624V20.022C70.2616 19.966 70.2756 19.91 70.3036 19.854C70.3409 19.798 70.3829 19.7607 70.4296 19.742Z" fill="black"/>
</svg>
