<svg width="104" height="24" viewBox="0 0 104 24" fill="none" xmlns="http://www.w3.org/2000/svg">
<g clip-path="url(#clip0_497_972)">
<path d="M27.8992 13.9461L36.9207 13.8437L42.2817 9.11617L23.2467 9.00586C22.3807 9.00586 21.5148 9.17132 20.7197 9.51013L11.6352 13.3788C11.5407 13.4182 11.4541 13.4734 11.3832 13.5443L0 23.9999H15.7681L16.6498 23.2593C17.2638 22.7393 17.988 22.369 18.7753 22.1641L31.1504 18.973C31.4181 18.9021 31.67 18.7682 31.8747 18.5712L34.1025 16.4438L24.8526 16.499L21.2786 19.5009H20.9008L25.9626 14.734C26.49 14.2376 27.1828 13.954 27.907 13.9461H27.8992Z" fill="#1D2024"/>
<path d="M72.7158 9.6914C72.7946 9.62049 72.8418 9.53382 72.8733 9.45502C72.9205 9.36047 72.9363 9.25804 72.9363 9.14773C72.9363 8.96651 72.8733 8.77741 72.7316 8.64347L67.5123 3.6323L65.1742 1.38674H65.1664L63.7257 0H37.9757L36.417 1.56008L43.069 8.1392H52.6653L53.5076 9.09258L39.4084 21.8253C39.0384 22.1484 38.8259 22.6133 38.8259 23.1018V23.8897H57.5146L65.4025 16.4911L72.6922 9.69928L72.7158 9.6914Z" fill="#1D2024"/>
<path d="M104 9.15555C104 8.97433 103.937 8.78523 103.795 8.65128L98.5762 3.64012L96.2381 1.39455H96.2303L94.7897 0.0078125H69.0475L67.4888 1.56789L74.1408 8.14701H83.737L84.5794 9.10039L70.4802 21.8332C70.1102 22.1562 69.8977 22.6211 69.8977 23.1096V23.8975H88.5863L96.4743 16.4989L103.764 9.70709C103.843 9.63618 103.89 9.54951 103.921 9.47072C103.969 9.37617 103.984 9.27374 103.984 9.16343L104 9.15555Z" fill="#1D2024"/>
</g>
<defs>
<clipPath id="clip0_497_972">
<rect width="104" height="24" fill="white"/>
</clipPath>
</defs>
</svg>
