<svg width="104" height="24" viewBox="0 0 104 24" fill="none" xmlns="http://www.w3.org/2000/svg">
<g clip-path="url(#clip0_1763_10097)">
<path d="M27.8992 13.9462L36.9207 13.8437L42.2817 9.11623L23.2467 9.00592C22.3807 9.00592 21.5148 9.17138 20.7197 9.51019L11.6352 13.3789C11.5407 13.4183 11.4541 13.4734 11.3832 13.5443L0 24H15.7681L16.6498 23.2594C17.2638 22.7393 17.988 22.369 18.7753 22.1642L31.1504 18.9731C31.4181 18.9022 31.67 18.7682 31.8747 18.5713L34.1025 16.4439L24.8526 16.499L21.2786 19.501H20.9008L25.9626 14.7341C26.49 14.2377 27.1828 13.954 27.907 13.9462H27.8992Z" fill="white"/>
<path d="M72.7158 9.6914C72.7946 9.62049 72.8418 9.53382 72.8733 9.45502C72.9205 9.36047 72.9363 9.25804 72.9363 9.14773C72.9363 8.96651 72.8733 8.77741 72.7316 8.64347L67.5123 3.6323L65.1742 1.38674H65.1664L63.7257 0H37.9757L36.417 1.56008L43.069 8.1392H52.6653L53.5076 9.09258L39.4084 21.8253C39.0384 22.1484 38.8259 22.6133 38.8259 23.1018V23.8897H57.5146L65.4025 16.4911L72.6922 9.69928L72.7158 9.6914Z" fill="white"/>
<path d="M104 9.15561C104 8.97439 103.937 8.78529 103.795 8.65134L98.5757 3.64018L96.2377 1.39461H96.2298L94.7892 0.00787354H69.047L67.4883 1.56795L74.1403 8.14707H83.7366L84.5789 9.10045L70.4797 21.8332C70.1097 22.1563 69.8972 22.6211 69.8972 23.1096V23.8976H88.5858L96.4738 16.499L103.764 9.70715C103.842 9.63624 103.889 9.54957 103.921 9.47078C103.968 9.37623 103.984 9.2738 103.984 9.16349L104 9.15561Z" fill="white"/>
</g>
<defs>
<clipPath id="clip0_1763_10097">
<rect width="104" height="24" fill="white"/>
</clipPath>
</defs>
</svg>
