<svg width="21" height="21" viewBox="0 0 21 21" fill="none" xmlns="http://www.w3.org/2000/svg">
<path d="M9.75901 20.8955L20.1924 11.2802C20.2868 11.1933 20.3625 11.0858 20.4144 10.9651C20.4663 10.8444 20.4932 10.7133 20.4932 10.5806C20.4932 10.4479 20.4663 10.3167 20.4144 10.196C20.3625 10.0753 20.2868 9.96786 20.1924 9.88094L9.75901 0.268581C9.72756 0.239534 9.68892 0.2207 9.64767 0.214323C9.60643 0.207945 9.56433 0.214293 9.52639 0.23261C9.48845 0.250926 9.45627 0.28044 9.43368 0.317635C9.41108 0.35483 9.39903 0.398139 9.39896 0.442403L9.39896 2.789C9.39896 2.92226 9.45351 3.04973 9.54898 3.13954L16.4309 9.48115L1.07134 9.48115C0.95132 9.48115 0.853124 9.58544 0.853124 9.71291L0.853124 11.4511C0.853124 11.5786 0.95132 11.6829 1.07134 11.6829L16.4309 11.6829L9.54898 18.0245C9.45351 18.1114 9.39896 18.2389 9.39896 18.375L9.39896 20.7216C9.39896 20.9186 9.61717 21.0258 9.75901 20.8955Z" fill="white"/>
</svg>
