<svg width="18" height="18" viewBox="0 0 18 18" fill="none" xmlns="http://www.w3.org/2000/svg">
<path d="M9 18C13.9537 18 18 13.9782 18 9C18 4.0218 13.9538 0 9 0C4.04623 0 0 4.04623 0 9C0 13.9538 4.04623 18 9 18ZM3.55586 14.861C5.02733 13.0218 6.96458 12.0163 9 12.0163C11.0354 12.0163 12.9727 13.0218 14.4441 14.861C13.0218 16.1852 11.109 16.9945 9 16.9945C6.89101 16.9945 4.9782 16.1852 3.55586 14.861ZM9 0.980926C13.4142 0.980926 17.0191 4.58583 17.0191 9C17.0191 10.9619 16.308 12.752 15.1307 14.1499C13.4633 12.1389 11.3052 11.0354 8.99996 11.0354C6.69473 11.0354 4.53674 12.1389 2.86917 14.1499C1.6921 12.752 0.980839 10.9618 0.980839 9C0.980839 4.58583 4.58574 0.980926 8.99991 0.980926H9Z" fill="white"/>
<path d="M8.99962 9.8093C10.9124 9.8093 12.4819 8.23982 12.4819 6.32702C12.4819 4.41421 10.9124 2.84473 8.99962 2.84473C7.08682 2.84473 5.51733 4.41421 5.51733 6.32702C5.51733 8.23982 7.08682 9.8093 8.99962 9.8093ZM8.99962 3.82565C10.3729 3.82565 11.501 4.95381 11.501 6.32706C11.501 7.70031 10.3729 8.82829 8.99962 8.82829C7.62637 8.82829 6.49822 7.70014 6.49822 6.32688C6.49822 4.95381 7.62637 3.82565 8.99962 3.82565Z" fill="white"/>
</svg>
