<svg width="25" height="107" viewBox="0 0 25 107" fill="none" xmlns="http://www.w3.org/2000/svg">
<g clip-path="url(#clip0_7548_5908)">
<path d="M20.1461 57.4283C20.1461 56.0966 21.2388 55.006 22.573 55.006C23.9073 55.006 25 56.0966 25 57.4283C25 58.7599 23.9073 59.8505 22.573 59.8505C21.2388 59.8505 20.1461 58.7599 20.1461 57.4283ZM22.573 66.5388C23.9073 66.5388 25 65.4482 25 64.1166C25 62.7849 23.9073 61.6943 22.573 61.6943C21.2388 61.6943 20.1461 62.7849 20.1461 64.1166C20.1461 65.4482 21.2388 66.5388 22.573 66.5388ZM22.573 73.2331C23.9073 73.2331 25 72.1425 25 70.8109C25 69.4793 23.9073 68.3886 22.573 68.3886C21.2388 68.3886 20.1461 69.4793 20.1461 70.8109C20.1461 72.1425 21.2388 73.2331 22.573 73.2331ZM22.573 79.9214C23.9073 79.9214 25 78.8308 25 77.4992C25 76.1676 23.9073 75.0769 22.573 75.0769C21.2388 75.0769 20.1461 76.1676 20.1461 77.4992C20.1461 78.8308 21.2388 79.9214 22.573 79.9214ZM22.573 86.9231C23.9073 86.9231 25 85.8324 25 84.5008C25 83.1692 23.9073 82.0786 22.573 82.0786C21.2388 82.0786 20.1461 83.1692 20.1461 84.5008C20.1461 85.8324 21.2388 86.9231 22.573 86.9231ZM22.573 100.306C23.9073 100.306 25 99.2151 25 97.8834C25 96.5518 23.9073 95.4612 22.573 95.4612C21.2388 95.4612 20.1461 96.5518 20.1461 97.8834C20.1461 99.2151 21.2388 100.306 22.573 100.306ZM22.5731 107C23.9073 107 25 105.909 25 104.578C25 103.246 23.9073 102.156 22.573 102.156C21.2388 102.156 20.1461 103.246 20.1461 104.578C20.1461 105.909 21.2388 107 22.5731 107ZM15.8597 59.8505C17.1939 59.8505 18.2866 58.7599 18.2866 57.4283C18.2866 56.0966 17.1939 55.006 15.8597 55.006C14.5255 55.006 13.4327 56.0966 13.4327 57.4283C13.4327 58.7599 14.5255 59.8505 15.8597 59.8505ZM15.8597 73.2331C17.1939 73.2331 18.2866 72.1425 18.2866 70.8109C18.2866 69.4793 17.1939 68.3886 15.8597 68.3886C14.5255 68.3886 13.4327 69.4793 13.4327 70.8109C13.4327 72.1425 14.5255 73.2331 15.8597 73.2331ZM15.8597 79.9214C17.1939 79.9214 18.2866 78.8308 18.2866 77.4992C18.2866 76.1676 17.1939 75.0769 15.8597 75.0769C14.5255 75.0769 13.4327 76.1676 13.4327 77.4992C13.4327 78.8308 14.5255 79.9214 15.8597 79.9214ZM15.8597 86.9231C17.1939 86.9231 18.2866 85.8324 18.2866 84.5008C18.2866 83.1692 17.1939 82.0786 15.8597 82.0786C14.5255 82.0786 13.4327 83.1692 13.4327 84.5008C13.4327 85.8324 14.5255 86.9231 15.8597 86.9231ZM15.8597 93.6114C17.1939 93.6114 18.2866 92.5207 18.2866 91.1891C18.2866 89.8575 17.1939 88.7669 15.8597 88.7669C14.5255 88.7669 13.4327 89.8575 13.4327 91.1891C13.4327 92.5207 14.5255 93.6114 15.8597 93.6114ZM15.8597 100.306C17.1939 100.306 18.2866 99.2151 18.2866 97.8834C18.2866 96.5518 17.1939 95.4612 15.8597 95.4612C14.5255 95.4612 13.4327 96.5518 13.4327 97.8834C13.4327 99.2151 14.5255 100.306 15.8597 100.306ZM9.14634 59.8445C10.4806 59.8445 11.5733 58.7539 11.5733 57.4223C11.5733 56.0906 10.4806 55 9.14634 55C7.81212 55 6.71939 56.0906 6.71939 57.4223C6.71939 58.7539 7.81212 59.8445 9.14634 59.8445ZM9.14634 66.5328C10.4806 66.5328 11.5733 65.4422 11.5733 64.1105C11.5733 62.7789 10.4806 61.6883 9.14634 61.6883C7.81212 61.6883 6.71939 62.7789 6.71939 64.1105C6.71939 65.4422 7.81212 66.5328 9.14634 66.5328ZM9.14634 73.2271C10.4806 73.2271 11.5733 72.1365 11.5733 70.8049C11.5733 69.4732 10.4806 68.3826 9.14634 68.3826C7.81212 68.3826 6.71939 69.4732 6.71939 70.8049C6.71939 72.1365 7.81212 73.2271 9.14634 73.2271ZM9.14634 79.9154C10.4806 79.9154 11.5733 78.8248 11.5733 77.4932C11.5733 76.1615 10.4806 75.0709 9.14634 75.0709C7.81212 75.0709 6.71939 76.1615 6.71939 77.4932C6.71939 78.8248 7.81212 79.9154 9.14634 79.9154ZM9.14634 86.917C10.4806 86.917 11.5733 85.8264 11.5733 84.4948C11.5733 83.1632 10.4806 82.0725 9.14634 82.0725C7.81212 82.0725 6.71939 83.1632 6.71939 84.4948C6.71939 85.8264 7.81212 86.917 9.14634 86.917ZM9.14634 100.3C10.4806 100.3 11.5733 99.209 11.5733 97.8774C11.5733 96.5458 10.4806 95.4552 9.14634 95.4552C7.81212 95.4552 6.71939 96.5458 6.71939 97.8774C6.71939 99.209 7.81212 100.3 9.14634 100.3ZM9.14634 106.988C10.4806 106.988 11.5733 105.897 11.5733 104.566C11.5733 103.234 10.4806 102.143 9.14634 102.143C7.81212 102.143 6.71939 103.234 6.71939 104.566C6.71939 105.897 7.81212 106.988 9.14634 106.988ZM2.43298 59.8385C3.7672 59.8385 4.85993 58.7479 4.85993 57.4162C4.85993 56.0846 3.7672 54.994 2.43298 54.994C1.09876 54.994 0.00603231 56.0846 0.00603242 57.4162C0.00603254 58.7479 1.09876 59.8385 2.43298 59.8385ZM2.43298 73.2211C3.7672 73.2211 4.85993 72.1305 4.85993 70.7988C4.85993 69.4672 3.7672 68.3766 2.43298 68.3766C1.09876 68.3766 0.00603348 69.4672 0.00603359 70.7988C0.00603371 72.1305 1.09877 73.2211 2.43298 73.2211ZM2.43298 79.9094C3.7672 79.9094 4.85994 78.8188 4.85994 77.4871C4.85993 76.1555 3.7672 75.0649 2.43298 75.0649C1.09877 75.0649 0.00603406 76.1555 0.00603418 77.4871C0.00603429 78.8188 1.09877 79.9094 2.43298 79.9094ZM2.43299 86.911C3.7672 86.911 4.85994 85.8204 4.85994 84.4888C4.85994 83.1571 3.7672 82.0665 2.43299 82.0665C1.09877 82.0665 0.00603467 83.1571 0.00603479 84.4888C0.00603491 85.8204 1.09877 86.911 2.43299 86.911ZM2.43299 93.5993C3.76721 93.5993 4.85994 92.5087 4.85994 91.1771C4.85994 89.8454 3.7672 88.7548 2.43299 88.7548C1.09877 88.7548 0.00603526 89.8454 0.00603538 91.1771C0.00603549 92.5087 1.09877 93.5993 2.43299 93.5993ZM2.43299 100.294C3.76721 100.294 4.85994 99.203 4.85994 97.8714C4.85994 96.5397 3.76721 95.4491 2.43299 95.4491C1.09877 95.4491 0.00603584 96.5397 0.00603596 97.8714C0.00603608 99.203 1.09877 100.294 2.43299 100.294ZM2.43299 106.982C3.76721 106.982 4.85994 105.891 4.85994 104.56C4.85994 103.228 3.76721 102.137 2.43299 102.137C1.09877 102.137 0.00603643 103.228 0.00603655 104.56C0.00603666 105.891 1.09877 106.982 2.43299 106.982Z" fill="#CECECE"/>
</g>
<g clip-path="url(#clip1_7548_5908)">
<path d="M20.1461 2.42828C20.1461 1.09664 21.2388 0.00602374 22.573 0.00602362C23.9073 0.0060235 25 1.09664 25 2.42828C25 3.75991 23.9073 4.85052 22.573 4.85052C21.2388 4.85052 20.1461 3.75991 20.1461 2.42828ZM22.573 11.5388C23.9073 11.5388 25 10.4482 25 9.11657C25 7.78493 23.9073 6.69432 22.573 6.69432C21.2388 6.69432 20.1461 7.78494 20.1461 9.11657C20.1461 10.4482 21.2388 11.5388 22.573 11.5388ZM22.573 18.2331C23.9073 18.2331 25 17.1425 25 15.8109C25 14.4793 23.9073 13.3886 22.573 13.3886C21.2388 13.3886 20.1461 14.4793 20.1461 15.8109C20.1461 17.1425 21.2388 18.2331 22.573 18.2331ZM22.573 24.9214C23.9073 24.9214 25 23.8308 25 22.4992C25 21.1676 23.9073 20.0769 22.573 20.0769C21.2388 20.0769 20.1461 21.1676 20.1461 22.4992C20.1461 23.8308 21.2388 24.9214 22.573 24.9214ZM22.573 31.9231C23.9073 31.9231 25 30.8324 25 29.5008C25 28.1692 23.9073 27.0786 22.573 27.0786C21.2388 27.0786 20.1461 28.1692 20.1461 29.5008C20.1461 30.8324 21.2388 31.9231 22.573 31.9231ZM22.573 45.3057C23.9073 45.3057 25 44.2151 25 42.8834C25 41.5518 23.9073 40.4612 22.573 40.4612C21.2388 40.4612 20.1461 41.5518 20.1461 42.8834C20.1461 44.2151 21.2388 45.3057 22.573 45.3057ZM22.5731 52C23.9073 52 25 50.9094 25 49.5778C25 48.2461 23.9073 47.1555 22.573 47.1555C21.2388 47.1555 20.1461 48.2461 20.1461 49.5778C20.1461 50.9094 21.2388 52 22.5731 52ZM15.8597 4.85052C17.1939 4.85052 18.2866 3.75991 18.2866 2.42828C18.2866 1.09664 17.1939 0.00602409 15.8597 0.00602421C14.5255 0.00602432 13.4327 1.09664 13.4327 2.42828C13.4327 3.75991 14.5255 4.85052 15.8597 4.85052ZM15.8597 18.2331C17.1939 18.2331 18.2866 17.1425 18.2866 15.8109C18.2866 14.4793 17.1939 13.3886 15.8597 13.3886C14.5255 13.3886 13.4327 14.4793 13.4327 15.8109C13.4327 17.1425 14.5255 18.2331 15.8597 18.2331ZM15.8597 24.9214C17.1939 24.9214 18.2866 23.8308 18.2866 22.4992C18.2866 21.1676 17.1939 20.0769 15.8597 20.0769C14.5255 20.0769 13.4327 21.1676 13.4327 22.4992C13.4327 23.8308 14.5255 24.9214 15.8597 24.9214ZM15.8597 31.9231C17.1939 31.9231 18.2866 30.8324 18.2866 29.5008C18.2866 28.1692 17.1939 27.0786 15.8597 27.0786C14.5255 27.0786 13.4327 28.1692 13.4327 29.5008C13.4327 30.8324 14.5255 31.9231 15.8597 31.9231ZM15.8597 38.6114C17.1939 38.6114 18.2866 37.5207 18.2866 36.1891C18.2866 34.8575 17.1939 33.7669 15.8597 33.7669C14.5255 33.7669 13.4327 34.8575 13.4327 36.1891C13.4327 37.5207 14.5255 38.6114 15.8597 38.6114ZM15.8597 45.3057C17.1939 45.3057 18.2866 44.2151 18.2866 42.8834C18.2866 41.5518 17.1939 40.4612 15.8597 40.4612C14.5255 40.4612 13.4327 41.5518 13.4327 42.8834C13.4327 44.2151 14.5255 45.3057 15.8597 45.3057ZM9.14634 4.8445C10.4806 4.8445 11.5733 3.75388 11.5733 2.42225C11.5733 1.09062 10.4806 -2.54537e-06 9.14634 -2.42873e-06C7.81212 -2.31209e-06 6.71939 1.09062 6.71939 2.42225C6.71939 3.75388 7.81212 4.8445 9.14634 4.8445ZM9.14634 11.5328C10.4806 11.5328 11.5733 10.4422 11.5733 9.11054C11.5733 7.77891 10.4806 6.6883 9.14634 6.6883C7.81212 6.6883 6.71939 7.77891 6.71939 9.11054C6.71939 10.4422 7.81212 11.5328 9.14634 11.5328ZM9.14634 18.2271C10.4806 18.2271 11.5733 17.1365 11.5733 15.8049C11.5733 14.4732 10.4806 13.3826 9.14634 13.3826C7.81212 13.3826 6.71939 14.4732 6.71939 15.8049C6.71939 17.1365 7.81212 18.2271 9.14634 18.2271ZM9.14634 24.9154C10.4806 24.9154 11.5733 23.8248 11.5733 22.4932C11.5733 21.1615 10.4806 20.0709 9.14634 20.0709C7.81212 20.0709 6.71939 21.1615 6.71939 22.4932C6.71939 23.8248 7.81212 24.9154 9.14634 24.9154ZM9.14634 31.917C10.4806 31.917 11.5733 30.8264 11.5733 29.4948C11.5733 28.1632 10.4806 27.0725 9.14634 27.0725C7.81212 27.0725 6.71939 28.1632 6.71939 29.4948C6.71939 30.8264 7.81212 31.917 9.14634 31.917ZM9.14634 45.2997C10.4806 45.2997 11.5733 44.209 11.5733 42.8774C11.5733 41.5458 10.4806 40.4552 9.14634 40.4552C7.81212 40.4552 6.71939 41.5458 6.71939 42.8774C6.71939 44.209 7.81212 45.2997 9.14634 45.2997ZM9.14634 51.988C10.4806 51.988 11.5733 50.8973 11.5733 49.5657C11.5733 48.2341 10.4806 47.1435 9.14634 47.1435C7.81212 47.1435 6.71939 48.2341 6.71939 49.5657C6.71939 50.8973 7.81212 51.988 9.14634 51.988ZM2.43298 4.83847C3.7672 4.83847 4.85993 3.74786 4.85993 2.41622C4.85993 1.08459 3.7672 -0.00602155 2.43298 -0.00602143C1.09876 -0.00602132 0.00603231 1.08459 0.00603242 2.41622C0.00603254 3.74786 1.09876 4.83847 2.43298 4.83847ZM2.43298 18.2211C3.7672 18.2211 4.85993 17.1305 4.85993 15.7988C4.85993 14.4672 3.7672 13.3766 2.43298 13.3766C1.09876 13.3766 0.00603348 14.4672 0.00603359 15.7988C0.00603371 17.1305 1.09877 18.2211 2.43298 18.2211ZM2.43298 24.9094C3.7672 24.9094 4.85994 23.8188 4.85994 22.4871C4.85993 21.1555 3.7672 20.0649 2.43298 20.0649C1.09877 20.0649 0.00603406 21.1555 0.00603418 22.4871C0.00603429 23.8188 1.09877 24.9094 2.43298 24.9094ZM2.43299 31.911C3.7672 31.911 4.85994 30.8204 4.85994 29.4888C4.85994 28.1571 3.7672 27.0665 2.43299 27.0665C1.09877 27.0665 0.00603467 28.1571 0.00603479 29.4888C0.00603491 30.8204 1.09877 31.911 2.43299 31.911ZM2.43299 38.5993C3.76721 38.5993 4.85994 37.5087 4.85994 36.1771C4.85994 34.8454 3.7672 33.7548 2.43299 33.7548C1.09877 33.7548 0.00603526 34.8454 0.00603538 36.1771C0.00603549 37.5087 1.09877 38.5993 2.43299 38.5993ZM2.43299 45.2936C3.76721 45.2936 4.85994 44.203 4.85994 42.8714C4.85994 41.5397 3.76721 40.4491 2.43299 40.4491C1.09877 40.4491 0.00603584 41.5397 0.00603596 42.8714C0.00603608 44.203 1.09877 45.2936 2.43299 45.2936ZM2.43299 51.9819C3.76721 51.9819 4.85994 50.8913 4.85994 49.5597C4.85994 48.228 3.76721 47.1374 2.43299 47.1374C1.09877 47.1374 0.00603643 48.228 0.00603655 49.5597C0.00603666 50.8913 1.09877 51.9819 2.43299 51.9819Z" fill="#CECECE"/>
</g>
<defs>
<clipPath id="clip0_7548_5908">
<rect width="25" height="52" fill="white" transform="translate(25 107) rotate(180)"/>
</clipPath>
<clipPath id="clip1_7548_5908">
<rect width="25" height="52" fill="white" transform="translate(25 52) rotate(180)"/>
</clipPath>
</defs>
</svg>
