<svg width="442" height="39" viewBox="0 0 442 39" fill="none" xmlns="http://www.w3.org/2000/svg">
<g clip-path="url(#clip0_1209_8606)">
<path d="M3.75339 7.53799C1.69311 7.53799 0.00572942 5.84101 0.00572951 3.76899C0.0057296 1.69698 1.69312 -3.45035e-06 3.75339 -3.36009e-06C5.81367 -3.26983e-06 7.50104 1.69698 7.50104 3.76899C7.50104 5.84101 5.81367 7.53799 3.75339 7.53799ZM17.849 3.76899C17.849 1.69698 16.1617 -2.81648e-06 14.1014 -2.90674e-06C12.0411 -2.997e-06 10.3537 1.69698 10.3537 3.76899C10.3537 5.84101 12.0411 7.53799 14.1014 7.53799C16.1617 7.53799 17.849 5.84101 17.849 3.76899ZM28.2063 3.769C28.2063 1.69698 26.519 -2.36272e-06 24.4587 -2.45298e-06C22.3984 -2.54324e-06 20.711 1.69698 20.711 3.769C20.711 5.84101 22.3984 7.53799 24.4587 7.53799C26.519 7.53799 28.2063 5.84101 28.2063 3.769ZM38.5543 3.769C38.5543 1.69698 36.867 -1.90937e-06 34.8067 -1.99963e-06C32.7464 -2.0899e-06 31.059 1.69698 31.059 3.769C31.059 5.84101 32.7464 7.53799 34.8067 7.53799C36.867 7.53799 38.5543 5.84101 38.5543 3.769ZM49.3871 3.769C49.3871 1.69699 47.6997 -1.43479e-06 45.6394 -1.52505e-06C43.5792 -1.61531e-06 41.8918 1.69698 41.8918 3.769C41.8918 5.84101 43.5792 7.53799 45.6394 7.53799C47.6997 7.53799 49.3871 5.84101 49.3871 3.769ZM70.0924 3.769C70.0924 1.69699 68.405 -5.27681e-07 66.3447 -6.17942e-07C64.2845 -7.08204e-07 62.5971 1.69699 62.5971 3.769C62.5971 5.84101 64.2845 7.53799 66.3447 7.53799C68.405 7.53799 70.0924 5.84101 70.0924 3.769ZM80.4497 3.769C80.4497 1.69699 78.7623 -7.39244e-08 76.7021 -1.64186e-07C74.6418 -2.54447e-07 72.9544 1.69699 72.9544 3.769C72.9544 5.84101 74.6418 7.538 76.7021 7.538C78.7623 7.538 80.4497 5.84101 80.4497 3.769ZM7.50104 14.1947C7.50104 12.1227 5.81367 10.4257 3.75339 10.4257C1.69311 10.4257 0.00572915 12.1227 0.00572906 14.1947C0.00572897 16.2667 1.69311 17.9637 3.75339 17.9637C5.81367 17.9637 7.50104 16.2667 7.50104 14.1947ZM28.2063 14.1947C28.2063 12.1227 26.519 10.4257 24.4587 10.4257C22.3984 10.4257 20.711 12.1227 20.711 14.1947C20.711 16.2667 22.3984 17.9637 24.4587 17.9637C26.519 17.9637 28.2063 16.2667 28.2063 14.1947ZM38.5543 14.1947C38.5543 12.1227 36.867 10.4257 34.8067 10.4257C32.7464 10.4257 31.059 12.1227 31.059 14.1947C31.059 16.2667 32.7464 17.9637 34.8067 17.9637C36.867 17.9637 38.5543 16.2667 38.5543 14.1947ZM49.3871 14.1947C49.3871 12.1227 47.6997 10.4257 45.6394 10.4257C43.5792 10.4257 41.8918 12.1227 41.8918 14.1947C41.8918 16.2667 43.5792 17.9637 45.6394 17.9637C47.6997 17.9637 49.3871 16.2667 49.3871 14.1947ZM59.7351 14.1947C59.7351 12.1227 58.0477 10.4257 55.9874 10.4257C53.9272 10.4257 52.2398 12.1227 52.2398 14.1947C52.2398 16.2667 53.9272 17.9637 55.9874 17.9637C58.0477 17.9637 59.7351 16.2667 59.7351 14.1947ZM70.0924 14.1947C70.0924 12.1227 68.405 10.4257 66.3447 10.4257C64.2845 10.4257 62.5971 12.1227 62.5971 14.1947C62.5971 16.2667 64.2845 17.9637 66.3447 17.9637C68.405 17.9637 70.0924 16.2667 70.0924 14.1947ZM7.49171 24.6204C7.49171 22.5484 5.80434 20.8514 3.74406 20.8514C1.68378 20.8514 -0.00359443 22.5484 -0.00359452 24.6204C-0.00359461 26.6924 1.68378 28.3894 3.74406 28.3894C5.80434 28.3894 7.49171 26.6924 7.49171 24.6204ZM17.8397 24.6204C17.8397 22.5484 16.1523 20.8514 14.0921 20.8514C12.0318 20.8514 10.3444 22.5484 10.3444 24.6204C10.3444 26.6924 12.0318 28.3894 14.0921 28.3894C16.1523 28.3894 17.8397 26.6924 17.8397 24.6204ZM28.197 24.6204C28.197 22.5484 26.5096 20.8514 24.4494 20.8514C22.3891 20.8514 20.7017 22.5484 20.7017 24.6204C20.7017 26.6924 22.3891 28.3894 24.4494 28.3894C26.5096 28.3894 28.197 26.6924 28.197 24.6204ZM38.545 24.6204C38.545 22.5484 36.8576 20.8514 34.7974 20.8514C32.7371 20.8514 31.0497 22.5484 31.0497 24.6204C31.0497 26.6924 32.7371 28.3894 34.7974 28.3894C36.8576 28.3894 38.545 26.6924 38.545 24.6204ZM49.3778 24.6204C49.3778 22.5484 47.6904 20.8514 45.6301 20.8514C43.5698 20.8514 41.8825 22.5484 41.8825 24.6204C41.8825 26.6924 43.5698 28.3894 45.6301 28.3894C47.6904 28.3894 49.3778 26.6924 49.3778 24.6204ZM70.0831 24.6204C70.0831 22.5484 68.3957 20.8514 66.3354 20.8514C64.2751 20.8514 62.5878 22.5484 62.5878 24.6204C62.5878 26.6924 64.2751 28.3894 66.3354 28.3894C68.3957 28.3894 70.0831 26.6924 70.0831 24.6204ZM80.4311 24.6204C80.4311 22.5484 78.7437 20.8514 76.6834 20.8514C74.6231 20.8514 72.9358 22.5484 72.9358 24.6204C72.9358 26.6924 74.6231 28.3894 76.6834 28.3894C78.7437 28.3894 80.4311 26.6924 80.4311 24.6204ZM7.48239 35.0461C7.48239 32.974 5.79501 31.2771 3.73474 31.2771C1.67446 31.2771 -0.0129104 32.974 -0.0129105 35.0461C-0.0129106 37.1181 1.67446 38.815 3.73474 38.815C5.79501 38.815 7.48239 37.1181 7.48239 35.0461ZM28.1877 35.0461C28.1877 32.974 26.5003 31.2771 24.44 31.2771C22.3798 31.2771 20.6924 32.974 20.6924 35.0461C20.6924 37.1181 22.3798 38.815 24.44 38.815C26.5003 38.815 28.1877 37.1181 28.1877 35.0461ZM38.5357 35.0461C38.5357 32.974 36.8483 31.2771 34.788 31.2771C32.7278 31.2771 31.0404 32.974 31.0404 35.0461C31.0404 37.1181 32.7278 38.815 34.788 38.8151C36.8483 38.8151 38.5357 37.1181 38.5357 35.0461ZM49.3684 35.0461C49.3684 32.974 47.6811 31.2771 45.6208 31.2771C43.5605 31.2771 41.8731 32.974 41.8731 35.0461C41.8731 37.1181 43.5605 38.8151 45.6208 38.8151C47.6811 38.8151 49.3684 37.1181 49.3684 35.0461ZM59.7164 35.0461C59.7164 32.974 58.0291 31.2771 55.9688 31.2771C53.9085 31.2771 52.2211 32.974 52.2211 35.0461C52.2211 37.1181 53.9085 38.8151 55.9688 38.8151C58.0291 38.8151 59.7164 37.1181 59.7164 35.0461ZM70.0737 35.0461C70.0737 32.974 68.3864 31.2771 66.3261 31.2771C64.2658 31.2771 62.5784 32.974 62.5784 35.0461C62.5784 37.1181 64.2658 38.8151 66.3261 38.8151C68.3864 38.8151 70.0737 37.1181 70.0737 35.0461ZM80.4217 35.0461C80.4217 32.974 78.7344 31.2771 76.6741 31.2771C74.6138 31.2771 72.9264 32.974 72.9264 35.0461C72.9264 37.1181 74.6138 38.8151 76.6741 38.8151C78.7344 38.8151 80.4217 37.1181 80.4217 35.0461Z" fill="#2C2C2C"/>
</g>
<g clip-path="url(#clip1_1209_8606)">
<path d="M93.1972 7.53799C91.1114 7.53799 89.4032 5.84101 89.4032 3.76899C89.4032 1.69698 91.1114 -3.49295e-06 93.1972 -3.40157e-06C95.2829 -3.31019e-06 96.9911 1.69698 96.9911 3.76899C96.9911 5.84101 95.2829 7.53799 93.1972 7.53799ZM107.467 3.76899C107.467 1.69698 105.759 -2.85125e-06 103.673 -2.94262e-06C101.587 -3.034e-06 99.879 1.69698 99.879 3.76899C99.879 5.84101 101.587 7.53799 103.673 7.53799C105.759 7.53799 107.467 5.84101 107.467 3.76899ZM117.952 3.769C117.952 1.69698 116.244 -2.39189e-06 114.158 -2.48327e-06C112.072 -2.57464e-06 110.364 1.69698 110.364 3.769C110.364 5.84101 112.072 7.53799 114.158 7.53799C116.244 7.53799 117.952 5.84101 117.952 3.769ZM128.428 3.769C128.428 1.69698 126.72 -1.93295e-06 124.634 -2.02432e-06C122.548 -2.1157e-06 120.84 1.69698 120.84 3.769C120.84 5.84101 122.548 7.53799 124.634 7.53799C126.72 7.53799 128.428 5.84101 128.428 3.769ZM139.394 3.769C139.394 1.69699 137.686 -1.4525e-06 135.6 -1.54388e-06C133.515 -1.63525e-06 131.806 1.69698 131.806 3.769C131.806 5.84101 133.515 7.53799 135.6 7.53799C137.686 7.53799 139.394 5.84101 139.394 3.769ZM160.355 3.769C160.355 1.69699 158.647 -5.34196e-07 156.561 -6.25571e-07C154.476 -7.16947e-07 152.767 1.69699 152.767 3.769C152.767 5.84101 154.476 7.53799 156.561 7.53799C158.647 7.53799 160.355 5.84101 160.355 3.769ZM170.84 3.769C170.84 1.69699 169.132 -7.4837e-08 167.046 -1.66213e-07C164.961 -2.57588e-07 163.252 1.69699 163.252 3.769C163.252 5.84101 164.961 7.538 167.046 7.538C169.132 7.538 170.84 5.84101 170.84 3.769ZM96.9911 14.1947C96.9911 12.1227 95.2829 10.4257 93.1972 10.4257C91.1114 10.4257 89.4032 12.1227 89.4032 14.1947C89.4032 16.2667 91.1114 17.9637 93.1972 17.9637C95.2829 17.9637 96.9911 16.2667 96.9911 14.1947ZM117.952 14.1947C117.952 12.1227 116.244 10.4257 114.158 10.4257C112.072 10.4257 110.364 12.1227 110.364 14.1947C110.364 16.2667 112.072 17.9637 114.158 17.9637C116.244 17.9637 117.952 16.2667 117.952 14.1947ZM128.428 14.1947C128.428 12.1227 126.72 10.4257 124.634 10.4257C122.548 10.4257 120.84 12.1227 120.84 14.1947C120.84 16.2667 122.548 17.9637 124.634 17.9637C126.72 17.9637 128.428 16.2667 128.428 14.1947ZM139.394 14.1947C139.394 12.1227 137.686 10.4257 135.6 10.4257C133.515 10.4257 131.806 12.1227 131.806 14.1947C131.806 16.2667 133.515 17.9637 135.6 17.9637C137.686 17.9637 139.394 16.2667 139.394 14.1947ZM149.87 14.1947C149.87 12.1227 148.162 10.4257 146.076 10.4257C143.99 10.4257 142.282 12.1227 142.282 14.1947C142.282 16.2667 143.99 17.9637 146.076 17.9637C148.162 17.9637 149.87 16.2667 149.87 14.1947ZM160.355 14.1947C160.355 12.1227 158.647 10.4257 156.561 10.4257C154.476 10.4257 152.767 12.1227 152.767 14.1947C152.767 16.2667 154.476 17.9637 156.561 17.9637C158.647 17.9637 160.355 16.2667 160.355 14.1947ZM96.9816 24.6204C96.9816 22.5484 95.2734 20.8514 93.1877 20.8514C91.102 20.8514 89.3938 22.5484 89.3938 24.6204C89.3938 26.6924 91.102 28.3894 93.1877 28.3894C95.2734 28.3894 96.9816 26.6924 96.9816 24.6204ZM107.457 24.6204C107.457 22.5484 105.749 20.8514 103.663 20.8514C101.578 20.8514 99.8695 22.5484 99.8695 24.6204C99.8695 26.6924 101.578 28.3894 103.663 28.3894C105.749 28.3894 107.457 26.6924 107.457 24.6204ZM117.943 24.6204C117.943 22.5484 116.234 20.8514 114.149 20.8514C112.063 20.8514 110.355 22.5484 110.355 24.6204C110.355 26.6924 112.063 28.3894 114.149 28.3894C116.234 28.3894 117.943 26.6924 117.943 24.6204ZM128.418 24.6204C128.418 22.5484 126.71 20.8514 124.624 20.8514C122.539 20.8514 120.83 22.5484 120.83 24.6204C120.83 26.6924 122.539 28.3894 124.624 28.3894C126.71 28.3894 128.418 26.6924 128.418 24.6204ZM139.385 24.6204C139.385 22.5484 137.677 20.8514 135.591 20.8514C133.505 20.8514 131.797 22.5484 131.797 24.6204C131.797 26.6924 133.505 28.3894 135.591 28.3894C137.677 28.3894 139.385 26.6924 139.385 24.6204ZM160.346 24.6204C160.346 22.5484 158.638 20.8514 156.552 20.8514C154.466 20.8514 152.758 22.5484 152.758 24.6204C152.758 26.6924 154.466 28.3894 156.552 28.3894C158.638 28.3894 160.346 26.6924 160.346 24.6204ZM170.821 24.6204C170.821 22.5484 169.113 20.8514 167.028 20.8514C164.942 20.8514 163.234 22.5484 163.234 24.6204C163.234 26.6924 164.942 28.3894 167.028 28.3894C169.113 28.3894 170.821 26.6924 170.821 24.6204ZM96.9722 35.0461C96.9722 32.974 95.264 31.2771 93.1783 31.2771C91.0926 31.2771 89.3844 32.974 89.3844 35.0461C89.3844 37.1181 91.0926 38.815 93.1783 38.815C95.264 38.815 96.9722 37.1181 96.9722 35.0461ZM117.933 35.0461C117.933 32.974 116.225 31.2771 114.139 31.2771C112.053 31.2771 110.345 32.974 110.345 35.0461C110.345 37.1181 112.053 38.815 114.139 38.815C116.225 38.815 117.933 37.1181 117.933 35.0461ZM128.409 35.0461C128.409 32.974 126.701 31.2771 124.615 31.2771C122.529 31.2771 120.821 32.974 120.821 35.0461C120.821 37.1181 122.529 38.815 124.615 38.8151C126.701 38.8151 128.409 37.1181 128.409 35.0461ZM139.375 35.0461C139.375 32.974 137.667 31.2771 135.581 31.2771C133.496 31.2771 131.788 32.974 131.788 35.0461C131.788 37.1181 133.496 38.8151 135.581 38.8151C137.667 38.8151 139.375 37.1181 139.375 35.0461ZM149.851 35.0461C149.851 32.974 148.143 31.2771 146.057 31.2771C143.971 31.2771 142.263 32.974 142.263 35.0461C142.263 37.1181 143.971 38.8151 146.057 38.8151C148.143 38.8151 149.851 37.1181 149.851 35.0461ZM160.336 35.0461C160.336 32.974 158.628 31.2771 156.542 31.2771C154.457 31.2771 152.748 32.974 152.748 35.0461C152.748 37.1181 154.457 38.8151 156.542 38.8151C158.628 38.8151 160.336 37.1181 160.336 35.0461ZM170.812 35.0461C170.812 32.974 169.104 31.2771 167.018 31.2771C164.932 31.2771 163.224 32.974 163.224 35.0461C163.224 37.1181 164.932 38.8151 167.018 38.8151C169.104 38.8151 170.812 37.1181 170.812 35.0461Z" fill="#2C2C2C"/>
</g>
<g clip-path="url(#clip2_1209_8606)">
<path d="M183.535 7.53799C181.474 7.53799 179.787 5.84101 179.787 3.76899C179.787 1.69698 181.474 -3.45035e-06 183.535 -3.36009e-06C185.595 -3.26983e-06 187.282 1.69698 187.282 3.76899C187.282 5.84101 185.595 7.53799 183.535 7.53799ZM197.63 3.76899C197.63 1.69698 195.943 -2.81648e-06 193.883 -2.90674e-06C191.822 -2.997e-06 190.135 1.69698 190.135 3.76899C190.135 5.84101 191.822 7.53799 193.883 7.53799C195.943 7.53799 197.63 5.84101 197.63 3.76899ZM207.988 3.769C207.988 1.69698 206.3 -2.36272e-06 204.24 -2.45298e-06C202.18 -2.54324e-06 200.492 1.69698 200.492 3.769C200.492 5.84101 202.18 7.53799 204.24 7.53799C206.3 7.53799 207.988 5.84101 207.988 3.769ZM218.336 3.769C218.336 1.69698 216.648 -1.90937e-06 214.588 -1.99963e-06C212.528 -2.0899e-06 210.84 1.69698 210.84 3.769C210.84 5.84101 212.528 7.53799 214.588 7.53799C216.648 7.53799 218.336 5.84101 218.336 3.769ZM229.168 3.769C229.168 1.69699 227.481 -1.43479e-06 225.421 -1.52505e-06C223.36 -1.61531e-06 221.673 1.69698 221.673 3.769C221.673 5.84101 223.36 7.53799 225.421 7.53799C227.481 7.53799 229.168 5.84101 229.168 3.769ZM249.874 3.769C249.874 1.69699 248.186 -5.27681e-07 246.126 -6.17942e-07C244.066 -7.08204e-07 242.378 1.69699 242.378 3.769C242.378 5.84101 244.066 7.53799 246.126 7.53799C248.186 7.53799 249.874 5.84101 249.874 3.769ZM260.231 3.769C260.231 1.69699 258.544 -7.39244e-08 256.483 -1.64186e-07C254.423 -2.54447e-07 252.736 1.69699 252.736 3.769C252.736 5.84101 254.423 7.538 256.483 7.538C258.544 7.538 260.231 5.84101 260.231 3.769ZM187.282 14.1947C187.282 12.1227 185.595 10.4257 183.535 10.4257C181.474 10.4257 179.787 12.1227 179.787 14.1947C179.787 16.2667 181.474 17.9637 183.535 17.9637C185.595 17.9637 187.282 16.2667 187.282 14.1947ZM207.988 14.1947C207.988 12.1227 206.3 10.4257 204.24 10.4257C202.18 10.4257 200.492 12.1227 200.492 14.1947C200.492 16.2667 202.18 17.9637 204.24 17.9637C206.3 17.9637 207.988 16.2667 207.988 14.1947ZM218.336 14.1947C218.336 12.1227 216.648 10.4257 214.588 10.4257C212.528 10.4257 210.84 12.1227 210.84 14.1947C210.84 16.2667 212.528 17.9637 214.588 17.9637C216.648 17.9637 218.336 16.2667 218.336 14.1947ZM229.168 14.1947C229.168 12.1227 227.481 10.4257 225.421 10.4257C223.36 10.4257 221.673 12.1227 221.673 14.1947C221.673 16.2667 223.36 17.9637 225.421 17.9637C227.481 17.9637 229.168 16.2667 229.168 14.1947ZM239.516 14.1947C239.516 12.1227 237.829 10.4257 235.769 10.4257C233.708 10.4257 232.021 12.1227 232.021 14.1947C232.021 16.2667 233.708 17.9637 235.769 17.9637C237.829 17.9637 239.516 16.2667 239.516 14.1947ZM249.874 14.1947C249.874 12.1227 248.186 10.4257 246.126 10.4257C244.066 10.4257 242.378 12.1227 242.378 14.1947C242.378 16.2667 244.066 17.9637 246.126 17.9637C248.186 17.9637 249.874 16.2667 249.874 14.1947ZM187.273 24.6204C187.273 22.5484 185.586 20.8514 183.525 20.8514C181.465 20.8514 179.778 22.5484 179.778 24.6204C179.778 26.6924 181.465 28.3894 183.525 28.3894C185.586 28.3894 187.273 26.6924 187.273 24.6204ZM197.621 24.6204C197.621 22.5484 195.934 20.8514 193.873 20.8514C191.813 20.8514 190.126 22.5484 190.126 24.6204C190.126 26.6924 191.813 28.3894 193.873 28.3894C195.934 28.3894 197.621 26.6924 197.621 24.6204ZM207.978 24.6204C207.978 22.5484 206.291 20.8514 204.231 20.8514C202.17 20.8514 200.483 22.5484 200.483 24.6204C200.483 26.6924 202.17 28.3894 204.231 28.3894C206.291 28.3894 207.978 26.6924 207.978 24.6204ZM218.326 24.6204C218.326 22.5484 216.639 20.8514 214.579 20.8514C212.518 20.8514 210.831 22.5484 210.831 24.6204C210.831 26.6924 212.518 28.3894 214.579 28.3894C216.639 28.3894 218.326 26.6924 218.326 24.6204ZM229.159 24.6204C229.159 22.5484 227.472 20.8514 225.411 20.8514C223.351 20.8514 221.664 22.5484 221.664 24.6204C221.664 26.6924 223.351 28.3894 225.411 28.3894C227.472 28.3894 229.159 26.6924 229.159 24.6204ZM249.864 24.6204C249.864 22.5484 248.177 20.8514 246.117 20.8514C244.056 20.8514 242.369 22.5484 242.369 24.6204C242.369 26.6924 244.056 28.3894 246.117 28.3894C248.177 28.3894 249.864 26.6924 249.864 24.6204ZM260.212 24.6204C260.212 22.5484 258.525 20.8514 256.465 20.8514C254.404 20.8514 252.717 22.5484 252.717 24.6204C252.717 26.6924 254.404 28.3894 256.465 28.3894C258.525 28.3894 260.212 26.6924 260.212 24.6204ZM187.264 35.0461C187.264 32.974 185.576 31.2771 183.516 31.2771C181.456 31.2771 179.768 32.974 179.768 35.0461C179.768 37.1181 181.456 38.815 183.516 38.815C185.576 38.815 187.264 37.1181 187.264 35.0461ZM207.969 35.0461C207.969 32.974 206.282 31.2771 204.221 31.2771C202.161 31.2771 200.474 32.974 200.474 35.0461C200.474 37.1181 202.161 38.815 204.221 38.815C206.282 38.815 207.969 37.1181 207.969 35.0461ZM218.317 35.0461C218.317 32.974 216.63 31.2771 214.569 31.2771C212.509 31.2771 210.822 32.974 210.822 35.0461C210.822 37.1181 212.509 38.815 214.569 38.8151C216.63 38.8151 218.317 37.1181 218.317 35.0461ZM229.15 35.0461C229.15 32.974 227.462 31.2771 225.402 31.2771C223.342 31.2771 221.654 32.974 221.654 35.0461C221.654 37.1181 223.342 38.8151 225.402 38.8151C227.462 38.8151 229.15 37.1181 229.15 35.0461ZM239.498 35.0461C239.498 32.974 237.81 31.2771 235.75 31.2771C233.69 31.2771 232.002 32.974 232.002 35.0461C232.002 37.1181 233.69 38.8151 235.75 38.8151C237.81 38.8151 239.498 37.1181 239.498 35.0461ZM249.855 35.0461C249.855 32.974 248.168 31.2771 246.107 31.2771C244.047 31.2771 242.36 32.974 242.36 35.0461C242.36 37.1181 244.047 38.8151 246.107 38.8151C248.168 38.8151 249.855 37.1181 249.855 35.0461ZM260.203 35.0461C260.203 32.974 258.516 31.2771 256.455 31.2771C254.395 31.2771 252.708 32.974 252.708 35.0461C252.708 37.1181 254.395 38.8151 256.455 38.8151C258.516 38.8151 260.203 37.1181 260.203 35.0461Z" fill="#2C2C2C"/>
</g>
<g clip-path="url(#clip3_1209_8606)">
<path d="M272.929 7.53799C270.869 7.53799 269.182 5.84101 269.182 3.76899C269.182 1.69698 270.869 -3.45035e-06 272.929 -3.36009e-06C274.989 -3.26983e-06 276.677 1.69698 276.677 3.76899C276.677 5.84101 274.989 7.53799 272.929 7.53799ZM287.025 3.76899C287.025 1.69698 285.337 -2.81648e-06 283.277 -2.90674e-06C281.217 -2.997e-06 279.53 1.69698 279.53 3.76899C279.53 5.84101 281.217 7.53799 283.277 7.53799C285.337 7.53799 287.025 5.84101 287.025 3.76899ZM297.382 3.769C297.382 1.69698 295.695 -2.36272e-06 293.634 -2.45298e-06C291.574 -2.54324e-06 289.887 1.69698 289.887 3.769C289.887 5.84101 291.574 7.53799 293.634 7.53799C295.695 7.53799 297.382 5.84101 297.382 3.769ZM307.73 3.769C307.73 1.69698 306.043 -1.90937e-06 303.982 -1.99963e-06C301.922 -2.0899e-06 300.235 1.69698 300.235 3.769C300.235 5.84101 301.922 7.53799 303.982 7.53799C306.043 7.53799 307.73 5.84101 307.73 3.769ZM318.563 3.769C318.563 1.69699 316.875 -1.43479e-06 314.815 -1.52505e-06C312.755 -1.61531e-06 311.068 1.69698 311.068 3.769C311.068 5.84101 312.755 7.53799 314.815 7.53799C316.875 7.53799 318.563 5.84101 318.563 3.769ZM339.268 3.769C339.268 1.69699 337.581 -5.27681e-07 335.521 -6.17942e-07C333.46 -7.08204e-07 331.773 1.69699 331.773 3.769C331.773 5.84101 333.46 7.53799 335.521 7.53799C337.581 7.53799 339.268 5.84101 339.268 3.769ZM349.625 3.769C349.625 1.69699 347.938 -7.39244e-08 345.878 -1.64186e-07C343.818 -2.54447e-07 342.13 1.69699 342.13 3.769C342.13 5.84101 343.818 7.538 345.878 7.538C347.938 7.538 349.625 5.84101 349.625 3.769ZM276.677 14.1947C276.677 12.1227 274.989 10.4257 272.929 10.4257C270.869 10.4257 269.182 12.1227 269.182 14.1947C269.182 16.2667 270.869 17.9637 272.929 17.9637C274.989 17.9637 276.677 16.2667 276.677 14.1947ZM297.382 14.1947C297.382 12.1227 295.695 10.4257 293.634 10.4257C291.574 10.4257 289.887 12.1227 289.887 14.1947C289.887 16.2667 291.574 17.9637 293.634 17.9637C295.695 17.9637 297.382 16.2667 297.382 14.1947ZM307.73 14.1947C307.73 12.1227 306.043 10.4257 303.982 10.4257C301.922 10.4257 300.235 12.1227 300.235 14.1947C300.235 16.2667 301.922 17.9637 303.982 17.9637C306.043 17.9637 307.73 16.2667 307.73 14.1947ZM318.563 14.1947C318.563 12.1227 316.875 10.4257 314.815 10.4257C312.755 10.4257 311.068 12.1227 311.068 14.1947C311.068 16.2667 312.755 17.9637 314.815 17.9637C316.875 17.9637 318.563 16.2667 318.563 14.1947ZM328.911 14.1947C328.911 12.1227 327.223 10.4257 325.163 10.4257C323.103 10.4257 321.416 12.1227 321.416 14.1947C321.416 16.2667 323.103 17.9637 325.163 17.9637C327.223 17.9637 328.911 16.2667 328.911 14.1947ZM339.268 14.1947C339.268 12.1227 337.581 10.4257 335.521 10.4257C333.46 10.4257 331.773 12.1227 331.773 14.1947C331.773 16.2667 333.46 17.9637 335.521 17.9637C337.581 17.9637 339.268 16.2667 339.268 14.1947ZM276.667 24.6204C276.667 22.5484 274.98 20.8514 272.92 20.8514C270.86 20.8514 269.172 22.5484 269.172 24.6204C269.172 26.6924 270.86 28.3894 272.92 28.3894C274.98 28.3894 276.667 26.6924 276.667 24.6204ZM287.015 24.6204C287.015 22.5484 285.328 20.8514 283.268 20.8514C281.208 20.8514 279.52 22.5484 279.52 24.6204C279.52 26.6924 281.208 28.3894 283.268 28.3894C285.328 28.3894 287.015 26.6924 287.015 24.6204ZM297.373 24.6204C297.373 22.5484 295.685 20.8514 293.625 20.8514C291.565 20.8514 289.877 22.5484 289.877 24.6204C289.877 26.6924 291.565 28.3894 293.625 28.3894C295.685 28.3894 297.373 26.6924 297.373 24.6204ZM307.721 24.6204C307.721 22.5484 306.033 20.8514 303.973 20.8514C301.913 20.8514 300.225 22.5484 300.225 24.6204C300.225 26.6924 301.913 28.3894 303.973 28.3894C306.033 28.3894 307.721 26.6924 307.721 24.6204ZM318.554 24.6204C318.554 22.5484 316.866 20.8514 314.806 20.8514C312.746 20.8514 311.058 22.5484 311.058 24.6204C311.058 26.6924 312.746 28.3894 314.806 28.3894C316.866 28.3894 318.554 26.6924 318.554 24.6204ZM339.259 24.6204C339.259 22.5484 337.571 20.8514 335.511 20.8514C333.451 20.8514 331.764 22.5484 331.764 24.6204C331.764 26.6924 333.451 28.3894 335.511 28.3894C337.571 28.3894 339.259 26.6924 339.259 24.6204ZM349.607 24.6204C349.607 22.5484 347.919 20.8514 345.859 20.8514C343.799 20.8514 342.112 22.5484 342.112 24.6204C342.112 26.6924 343.799 28.3894 345.859 28.3894C347.919 28.3894 349.607 26.6924 349.607 24.6204ZM276.658 35.0461C276.658 32.974 274.971 31.2771 272.911 31.2771C270.85 31.2771 269.163 32.974 269.163 35.0461C269.163 37.1181 270.85 38.815 272.911 38.815C274.971 38.815 276.658 37.1181 276.658 35.0461ZM297.363 35.0461C297.363 32.974 295.676 31.2771 293.616 31.2771C291.556 31.2771 289.868 32.974 289.868 35.0461C289.868 37.1181 291.556 38.815 293.616 38.815C295.676 38.815 297.363 37.1181 297.363 35.0461ZM307.711 35.0461C307.711 32.974 306.024 31.2771 303.964 31.2771C301.904 31.2771 300.216 32.974 300.216 35.0461C300.216 37.1181 301.904 38.815 303.964 38.8151C306.024 38.8151 307.711 37.1181 307.711 35.0461ZM318.544 35.0461C318.544 32.974 316.857 31.2771 314.797 31.2771C312.736 31.2771 311.049 32.974 311.049 35.0461C311.049 37.1181 312.736 38.8151 314.797 38.8151C316.857 38.8151 318.544 37.1181 318.544 35.0461ZM328.892 35.0461C328.892 32.974 327.205 31.2771 325.145 31.2771C323.084 31.2771 321.397 32.974 321.397 35.0461C321.397 37.1181 323.084 38.8151 325.145 38.8151C327.205 38.8151 328.892 37.1181 328.892 35.0461ZM339.25 35.0461C339.25 32.974 337.562 31.2771 335.502 31.2771C333.442 31.2771 331.754 32.974 331.754 35.0461C331.754 37.1181 333.442 38.8151 335.502 38.8151C337.562 38.8151 339.25 37.1181 339.25 35.0461ZM349.598 35.0461C349.598 32.974 347.91 31.2771 345.85 31.2771C343.79 31.2771 342.102 32.974 342.102 35.0461C342.102 37.1181 343.79 38.8151 345.85 38.8151C347.91 38.8151 349.598 37.1181 349.598 35.0461Z" fill="#2C2C2C"/>
</g>
<g clip-path="url(#clip4_1209_8606)">
<g clip-path="url(#clip5_1209_8606)">
<path d="M362.362 7.53799C360.276 7.53799 358.568 5.84101 358.568 3.769C358.568 1.69698 360.276 -2.11528e-06 362.362 -2.0239e-06C364.448 -1.93253e-06 366.156 1.69698 366.156 3.769C366.156 5.84101 364.448 7.53799 362.362 7.53799ZM376.632 3.769C376.632 1.69699 374.923 -1.47358e-06 372.838 -1.56496e-06C370.752 -1.65633e-06 369.044 1.69698 369.044 3.769C369.044 5.84101 370.752 7.53799 372.838 7.53799C374.923 7.53799 376.632 5.84101 376.632 3.769ZM387.117 3.769C387.117 1.69699 385.409 -1.01422e-06 383.323 -1.1056e-06C381.237 -1.19698e-06 379.529 1.69699 379.529 3.769C379.529 5.84101 381.237 7.53799 383.323 7.53799C385.409 7.53799 387.117 5.84101 387.117 3.769ZM397.593 3.769C397.593 1.69699 395.884 -5.55281e-07 393.799 -6.46656e-07C391.713 -7.38031e-07 390.005 1.69699 390.005 3.769C390.005 5.84101 391.713 7.53799 393.799 7.53799C395.884 7.53799 397.593 5.84101 397.593 3.769ZM408.559 3.769C408.559 1.69699 406.851 -7.48368e-08 404.765 -1.66212e-07C402.679 -2.57587e-07 400.971 1.69699 400.971 3.769C400.971 5.84101 402.679 7.538 404.765 7.538C406.851 7.538 408.559 5.84101 408.559 3.769ZM366.156 14.1947C366.156 12.1227 364.448 10.4257 362.362 10.4257C360.276 10.4257 358.568 12.1227 358.568 14.1947C358.568 16.2667 360.276 17.9637 362.362 17.9637C364.448 17.9637 366.156 16.2667 366.156 14.1947ZM387.117 14.1947C387.117 12.1227 385.409 10.4257 383.323 10.4257C381.237 10.4257 379.529 12.1227 379.529 14.1947C379.529 16.2667 381.237 17.9637 383.323 17.9637C385.409 17.9637 387.117 16.2667 387.117 14.1947ZM397.593 14.1947C397.593 12.1227 395.884 10.4257 393.799 10.4257C391.713 10.4257 390.005 12.1227 390.005 14.1947C390.005 16.2667 391.713 17.9637 393.799 17.9637C395.884 17.9637 397.593 16.2667 397.593 14.1947ZM408.559 14.1947C408.559 12.1227 406.851 10.4257 404.765 10.4257C402.679 10.4257 400.971 12.1227 400.971 14.1947C400.971 16.2667 402.679 17.9637 404.765 17.9637C406.851 17.9637 408.559 16.2667 408.559 14.1947ZM366.146 24.6204C366.146 22.5484 364.438 20.8514 362.353 20.8514C360.267 20.8514 358.559 22.5484 358.559 24.6204C358.559 26.6924 360.267 28.3894 362.353 28.3894C364.438 28.3894 366.146 26.6924 366.146 24.6204ZM376.622 24.6204C376.622 22.5484 374.914 20.8514 372.828 20.8514C370.743 20.8514 369.034 22.5484 369.034 24.6204C369.034 26.6924 370.743 28.3894 372.828 28.3894C374.914 28.3894 376.622 26.6924 376.622 24.6204ZM387.107 24.6204C387.107 22.5484 385.399 20.8514 383.313 20.8514C381.228 20.8514 379.52 22.5484 379.52 24.6204C379.52 26.6924 381.228 28.3894 383.313 28.3894C385.399 28.3894 387.107 26.6924 387.107 24.6204ZM397.583 24.6204C397.583 22.5484 395.875 20.8514 393.789 20.8514C391.704 20.8514 389.995 22.5484 389.995 24.6204C389.995 26.6924 391.704 28.3894 393.789 28.3894C395.875 28.3894 397.583 26.6924 397.583 24.6204ZM408.55 24.6204C408.55 22.5484 406.841 20.8514 404.756 20.8514C402.67 20.8514 400.962 22.5484 400.962 24.6204C400.962 26.6924 402.67 28.3894 404.756 28.3894C406.841 28.3894 408.55 26.6924 408.55 24.6204ZM366.137 35.0461C366.137 32.974 364.429 31.2771 362.343 31.2771C360.257 31.2771 358.549 32.974 358.549 35.0461C358.549 37.1181 360.257 38.815 362.343 38.8151C364.429 38.8151 366.137 37.1181 366.137 35.0461ZM387.098 35.0461C387.098 32.974 385.39 31.2771 383.304 31.2771C381.218 31.2771 379.51 32.974 379.51 35.0461C379.51 37.1181 381.218 38.8151 383.304 38.8151C385.39 38.8151 387.098 37.1181 387.098 35.0461ZM397.574 35.0461C397.574 32.974 395.865 31.2771 393.78 31.2771C391.694 31.2771 389.986 32.974 389.986 35.0461C389.986 37.1181 391.694 38.8151 393.78 38.8151C395.865 38.8151 397.574 37.1181 397.574 35.0461ZM408.54 35.0461C408.54 32.974 406.832 31.2771 404.746 31.2771C402.661 31.2771 400.952 32.974 400.952 35.0461C400.952 37.1181 402.661 38.8151 404.746 38.8151C406.832 38.8151 408.54 37.1181 408.54 35.0461Z" fill="#2C2C2C"/>
</g>
<g clip-path="url(#clip6_1209_8606)">
<path d="M416.467 7.53799C414.382 7.53799 412.674 5.84101 412.674 3.76899C412.674 1.69698 414.382 -2.11528e-06 416.467 -2.02391e-06C418.553 -1.93253e-06 420.261 1.69698 420.261 3.76899C420.261 5.84101 418.553 7.53799 416.467 7.53799ZM430.737 3.769C430.737 1.69698 429.029 -1.47359e-06 426.943 -1.56496e-06C424.857 -1.65634e-06 423.149 1.69698 423.149 3.76899C423.149 5.84101 424.857 7.53799 426.943 7.53799C429.029 7.53799 430.737 5.84101 430.737 3.769ZM441.222 3.769C441.222 1.69699 439.514 -1.01423e-06 437.428 -1.1056e-06C435.343 -1.19698e-06 433.634 1.69698 433.634 3.769C433.634 5.84101 435.343 7.53799 437.428 7.53799C439.514 7.53799 441.222 5.84101 441.222 3.769ZM451.698 3.769C451.698 1.69699 449.99 -5.55282e-07 447.904 -6.46658e-07C445.818 -7.38034e-07 444.11 1.69699 444.11 3.769C444.11 5.84101 445.818 7.53799 447.904 7.53799C449.99 7.53799 451.698 5.84101 451.698 3.769ZM462.665 3.769C462.665 1.69699 460.956 -7.4837e-08 458.871 -1.66213e-07C456.785 -2.57588e-07 455.077 1.69699 455.077 3.769C455.077 5.84101 456.785 7.53799 458.871 7.53799C460.956 7.53799 462.665 5.84101 462.665 3.769ZM420.261 14.1947C420.261 12.1227 418.553 10.4257 416.467 10.4257C414.382 10.4257 412.674 12.1227 412.674 14.1947C412.674 16.2667 414.382 17.9637 416.467 17.9637C418.553 17.9637 420.261 16.2667 420.261 14.1947ZM441.222 14.1947C441.222 12.1227 439.514 10.4257 437.428 10.4257C435.343 10.4257 433.634 12.1227 433.634 14.1947C433.634 16.2667 435.343 17.9637 437.428 17.9637C439.514 17.9637 441.222 16.2667 441.222 14.1947ZM451.698 14.1947C451.698 12.1227 449.99 10.4257 447.904 10.4257C445.818 10.4257 444.11 12.1227 444.11 14.1947C444.11 16.2667 445.818 17.9637 447.904 17.9637C449.99 17.9637 451.698 16.2667 451.698 14.1947ZM462.665 14.1947C462.665 12.1227 460.956 10.4257 458.871 10.4257C456.785 10.4257 455.077 12.1227 455.077 14.1947C455.077 16.2667 456.785 17.9637 458.871 17.9637C460.956 17.9637 462.665 16.2667 462.665 14.1947ZM420.252 24.6204C420.252 22.5483 418.544 20.8514 416.458 20.8514C414.372 20.8514 412.664 22.5483 412.664 24.6204C412.664 26.6924 414.372 28.3894 416.458 28.3894C418.544 28.3894 420.252 26.6924 420.252 24.6204ZM430.728 24.6204C430.728 22.5483 429.019 20.8514 426.934 20.8514C424.848 20.8514 423.14 22.5483 423.14 24.6204C423.14 26.6924 424.848 28.3894 426.934 28.3894C429.019 28.3894 430.728 26.6924 430.728 24.6204ZM441.213 24.6204C441.213 22.5483 439.505 20.8514 437.419 20.8514C435.333 20.8514 433.625 22.5483 433.625 24.6204C433.625 26.6924 435.333 28.3894 437.419 28.3894C439.505 28.3894 441.213 26.6924 441.213 24.6204ZM451.689 24.6204C451.689 22.5483 449.98 20.8514 447.895 20.8514C445.809 20.8514 444.101 22.5483 444.101 24.6204C444.101 26.6924 445.809 28.3894 447.895 28.3894C449.98 28.3894 451.689 26.6924 451.689 24.6204ZM462.655 24.6204C462.655 22.5483 460.947 20.8514 458.861 20.8514C456.775 20.8514 455.067 22.5483 455.067 24.6204C455.067 26.6924 456.775 28.3894 458.861 28.3894C460.947 28.3894 462.655 26.6924 462.655 24.6204ZM420.243 35.046C420.243 32.974 418.534 31.277 416.449 31.277C414.363 31.277 412.655 32.974 412.655 35.046C412.655 37.1181 414.363 38.815 416.449 38.815C418.534 38.815 420.243 37.1181 420.243 35.046ZM441.203 35.046C441.203 32.974 439.495 31.277 437.41 31.277C435.324 31.277 433.616 32.974 433.616 35.046C433.616 37.1181 435.324 38.815 437.41 38.815C439.495 38.815 441.203 37.1181 441.203 35.046ZM451.679 35.046C451.679 32.974 449.971 31.277 447.885 31.277C445.8 31.277 444.091 32.974 444.091 35.046C444.091 37.1181 445.8 38.815 447.885 38.815C449.971 38.815 451.679 37.1181 451.679 35.046ZM462.646 35.046C462.646 32.974 460.937 31.277 458.852 31.277C456.766 31.277 455.058 32.974 455.058 35.046C455.058 37.1181 456.766 38.815 458.852 38.815C460.937 38.815 462.646 37.1181 462.646 35.046Z" fill="#2C2C2C"/>
</g>
</g>
<defs>
<clipPath id="clip0_1209_8606">
<rect width="38.8244" height="80.817" fill="white" transform="translate(80.8169) rotate(90)"/>
</clipPath>
<clipPath id="clip1_1209_8606">
<rect width="38.8244" height="81.8148" fill="white" transform="translate(171.614) rotate(90)"/>
</clipPath>
<clipPath id="clip2_1209_8606">
<rect width="38.8244" height="80.817" fill="white" transform="translate(261.411) rotate(90)"/>
</clipPath>
<clipPath id="clip3_1209_8606">
<rect width="38.8244" height="80.817" fill="white" transform="translate(351.208) rotate(90)"/>
</clipPath>
<clipPath id="clip4_1209_8606">
<rect width="38.8244" height="81.8148" fill="white" transform="translate(442) rotate(90)"/>
</clipPath>
<clipPath id="clip5_1209_8606">
<rect width="38.8244" height="81.4465" fill="white" transform="translate(440.008) rotate(90)"/>
</clipPath>
<clipPath id="clip6_1209_8606">
<rect width="38.9439" height="49.9818" fill="white" transform="translate(462.649) rotate(90)"/>
</clipPath>
</defs>
</svg>
