<svg width="107" height="141" viewBox="0 0 107 141" fill="none" xmlns="http://www.w3.org/2000/svg">
<g clip-path="url(#clip0_1679_10141)">
<path d="M106.305 52.3271H101.194C101.01 39.6064 95.8452 27.4628 86.8047 18.4944C77.7641 9.52604 65.5658 4.44534 52.8197 4.33941V0H52.3889V4.33941C39.5986 4.37908 27.3355 9.43048 18.2402 18.4059C9.14492 27.3813 3.94503 39.5627 3.76024 52.3271H0V52.8158H3.74066V52.9721C3.75099 65.8536 8.87723 78.2057 17.9961 87.3217C27.1149 96.4376 39.4825 101.574 52.3889 101.605V105.143H52.8785V101.605C65.7356 101.497 78.0301 96.327 87.0886 87.22C96.1472 78.113 101.237 65.8049 101.252 52.9721V52.8158H106.364L106.305 52.3271ZM100.704 52.3271H84.6056C84.4283 43.9959 81.0135 36.0596 75.0824 30.1946C69.1512 24.3296 61.1683 20.9952 52.8197 20.8957V4.82809C65.4344 4.93896 77.5053 9.96976 86.453 18.8454C95.4007 27.7211 100.515 39.7376 100.704 52.3271ZM84.1355 52.9721C84.1308 61.2943 80.8378 69.2788 74.9712 75.1926C69.1046 81.1065 61.1379 84.4725 52.8001 84.5599V52.8158H84.1355V52.9721ZM20.7989 52.8158H52.3889V84.5795C44.0169 84.5331 36.003 81.1837 30.0959 75.2624C24.1888 69.341 20.8678 61.3281 20.8576 52.9721L20.7989 52.8158ZM52.3889 52.3271H20.838C21.0117 44.0785 24.408 36.2241 30.3024 30.4396C36.1968 24.6552 44.1226 21.3987 52.3889 21.3648V52.3271ZM52.8785 52.3271V21.3843C61.1025 21.4786 68.968 24.7587 74.8147 30.5321C80.6613 36.3054 84.0315 44.1204 84.2139 52.3271H52.8785ZM52.3889 4.82809V20.8761C43.9912 20.905 35.938 24.2115 29.9508 30.0886C23.9635 35.9657 20.5171 43.9472 20.3484 52.3271H4.24986C4.43462 39.6923 9.58292 27.6352 18.5864 18.7514C27.5898 9.86765 39.7284 4.86773 52.3889 4.82809ZM4.23028 52.9721V52.8158H20.3092V52.9721C20.3195 61.4678 23.7002 69.6138 29.7118 75.6285C35.7234 81.6432 43.8768 85.0372 52.3889 85.0682V101.116C39.614 101.08 27.3739 95.9936 18.348 86.9704C9.32209 77.9473 4.24577 65.7225 4.23028 52.9721ZM100.704 52.9721C100.689 65.6753 95.6504 77.8591 86.6837 86.8745C77.7169 95.8899 65.547 101.008 52.8197 101.116V85.0486C61.2839 84.956 69.3702 81.5363 75.3244 75.5314C81.2786 69.5264 84.6205 61.4205 84.6251 52.9721V52.8158H100.704V52.9721Z" fill="url(#paint0_radial_1679_10141)"/>
</g>
<g clip-path="url(#clip1_1679_10141)">
<path d="M28.1953 76.3192L28.774 69.4267C28.8297 68.8472 29.1 68.3091 29.5323 67.9171L43.2215 55.3834C43.2586 55.3558 43.3021 55.3378 43.3479 55.3311C43.3938 55.3244 43.4406 55.3291 43.4841 55.3449C43.5276 55.3606 43.5666 55.3869 43.5974 55.4214C43.6282 55.4558 43.6499 55.4974 43.6605 55.5423L44.1594 60.3095L32.6852 69.2877C32.4929 69.4329 32.3642 69.6463 32.326 69.8835L31.7673 73.2603L28.1953 76.3192Z" fill="url(#paint1_linear_1679_10141)"/>
<path d="M76.9445 76.2207L76.3459 69.2884C76.3023 68.7042 76.0385 68.1579 75.6076 67.7589L61.8984 55.2252C61.8662 55.1888 61.8235 55.1631 61.7762 55.1515C61.7289 55.1399 61.6791 55.1429 61.6336 55.1601C61.588 55.1774 61.5488 55.2081 61.5213 55.2481C61.4937 55.2882 61.4791 55.3356 61.4793 55.3841L60.9805 60.1513L72.4547 69.2884C72.6401 69.448 72.7666 69.6648 72.8138 69.9042L73.3526 73.0624L76.9445 76.2207Z" fill="url(#paint2_linear_1679_10141)"/>
<path d="M14.7255 71.4336L12.5703 75.585L13.3286 79.22C13.4271 79.6997 13.6392 80.1492 13.9472 80.531L16.4416 83.4509L17.9981 81.981L15.1645 75.2473L14.7255 71.4336Z" fill="url(#paint3_linear_1679_10141)"/>
<path d="M89.6974 69.9647L88.54 67.7201L84.6687 60.1721L85.7862 56.9145L82.2541 49.724L75.0104 46.4863C71.0532 41.5453 67.6037 36.2218 64.7136 30.5957L65.0329 37.9848L63.4764 32.2046L62.6582 20.823C62.6278 20.0856 62.4059 19.3686 62.0142 18.742C61.6226 18.1154 61.0744 17.6005 60.4233 17.2476L58.2681 16.0955C56.2726 11.9243 53.9179 6.79953 52.9601 4.83307C52.925 4.757 52.8688 4.69254 52.7981 4.64734C52.7273 4.60215 52.645 4.57812 52.561 4.57812C52.4769 4.57812 52.3946 4.60215 52.3238 4.64734C52.2531 4.69254 52.1969 4.757 52.1618 4.83307C50.9246 7.47488 49.0489 11.4475 46.8738 16.2147L44.7186 17.3668C44.0767 17.7002 43.5331 18.1942 43.1412 18.8002C42.7494 19.4062 42.5227 20.1034 42.4836 20.823L41.6455 32.2046L40.089 38.0047L40.4083 30.5957C37.5294 36.2593 34.0793 41.6168 30.1115 46.5856L22.8678 49.8432L19.3557 57.0337L20.4732 60.2913L16.6019 67.8195L15.4844 70.0839L15.9034 74.6127L18.7171 81.3464L20.5729 79.5984L21.411 78.8634H24.7435C25.1165 78.8356 25.4687 78.6813 25.7413 78.4265L27.2379 76.9963L27.8366 68.9517C27.8786 68.3471 28.1582 67.7833 28.6148 67.3825L43.8007 53.8953C43.836 53.8669 43.8781 53.8482 43.9229 53.8411C43.9678 53.834 44.0137 53.8387 44.0561 53.8548C44.0985 53.8709 44.1359 53.8978 44.1647 53.9328C44.1934 53.9678 44.2124 54.0096 44.2197 54.0542L44.8383 59.7947L48.6098 56.4378C48.6301 56.4091 48.657 56.3857 48.6882 56.3696C48.7195 56.3534 48.7542 56.3449 48.7894 56.3449C48.8247 56.3449 48.8594 56.3534 48.8906 56.3696C48.9219 56.3857 48.9488 56.4091 48.969 56.4378L50.4657 60.1324C50.6104 60.5492 50.8785 60.9127 51.2346 61.1751C51.5908 61.4374 52.0184 61.5864 52.4612 61.6023V61.4831H52.561C53.0045 61.4699 53.4334 61.3221 53.7901 61.0593C54.1468 60.7966 54.4142 60.4316 54.5565 60.0132L56.0531 56.3385C56.0755 56.3096 56.1042 56.2863 56.1371 56.2702C56.1699 56.2541 56.2061 56.2458 56.2427 56.2458C56.2793 56.2458 56.3154 56.2541 56.3483 56.2702C56.3811 56.2863 56.4099 56.3096 56.4322 56.3385L60.2038 59.6954L60.8024 53.9748C60.8067 53.9285 60.8235 53.8843 60.851 53.8467C60.8785 53.8091 60.9156 53.7796 60.9585 53.7613C61.0014 53.743 61.0485 53.7366 61.0948 53.7427C61.1411 53.7488 61.1848 53.7672 61.2215 53.796L76.5669 67.303C77.0202 67.7065 77.299 68.2688 77.3452 68.8722L77.9438 76.8175L79.4405 78.2477C79.7122 78.5039 80.0648 78.6584 80.4382 78.6847L83.7707 78.784L84.6288 79.4991L86.4647 81.247L89.3183 74.4935L89.6974 69.9647ZM46.0157 20.6442L44.3993 18.6579L46.7341 17.2079L46.0157 20.6442ZM59.1262 20.525L58.4078 17.0887L60.7226 18.5189L59.1262 20.525Z" fill="url(#paint4_linear_1679_10141)"/>
<path d="M90.3937 71.2734L89.9747 75.0077L87.1211 81.8407L88.6975 83.3106L91.172 80.3907C91.4897 80.0201 91.7092 79.5762 91.8105 79.0996L92.5688 75.4646L90.3937 71.2734Z" fill="url(#paint5_linear_1679_10141)"/>
</g>
<path d="M3.9234 134.145L6.47426 119.745H12.2754C13.592 119.745 14.5863 120.033 15.2583 120.609C15.9303 121.171 16.2663 121.925 16.2663 122.871C16.2663 123.818 15.9714 124.641 15.3817 125.34C14.8057 126.026 14.0583 126.485 13.1394 126.718C13.8251 126.869 14.3737 127.205 14.7851 127.726C15.1965 128.247 15.4023 128.865 15.4023 129.578C15.4023 130.497 15.1554 131.299 14.6617 131.985C14.168 132.67 13.5028 133.205 12.6663 133.589C11.8434 133.959 10.9245 134.145 9.90969 134.145H3.9234ZM8.03769 125.813H10.7737C11.6103 125.813 12.2685 125.601 12.7485 125.175C13.2423 124.737 13.4891 124.147 13.4891 123.406C13.4891 122.913 13.3177 122.522 12.9748 122.234C12.6457 121.946 12.1383 121.809 11.4525 121.822H8.73712L8.03769 125.813ZM6.92683 132.046H9.88912C10.7668 132.046 11.4663 131.806 11.9874 131.326C12.5085 130.846 12.7691 130.222 12.7691 129.454C12.7691 128.933 12.5771 128.522 12.1931 128.22C11.8091 127.918 11.2743 127.767 10.5885 127.767H7.68797L6.92683 132.046ZM15.9352 134.145L23.7318 119.745H26.7146L29.43 134.145H26.6529L26.0769 130.812H20.4609L18.7123 134.145H15.9352ZM21.51 128.796H25.7478L24.6986 122.707L21.51 128.796ZM31.3056 134.145L33.8359 119.745H36.469L34.2884 132.087H40.6656L40.3159 134.145H31.3056ZM42.656 134.145L45.1863 119.745H47.8195L45.6389 132.087H52.016L51.6663 134.145H42.656ZM53.9859 134.145L56.5368 119.745H59.1699L56.619 134.145H53.9859ZM64.4706 134.391C63.5243 134.391 62.6877 134.247 61.9609 133.959C61.234 133.658 60.6649 133.226 60.2534 132.663C59.842 132.087 59.6363 131.402 59.6363 130.606C59.6363 130.469 59.6431 130.339 59.6569 130.215C59.6706 130.078 59.6843 129.941 59.698 129.804H62.4957C62.482 129.955 62.4751 130.092 62.4751 130.215C62.4751 130.805 62.6809 131.285 63.0923 131.655C63.5174 132.012 64.0866 132.19 64.7997 132.19C65.5951 132.19 66.2191 131.991 66.6717 131.594C67.1243 131.182 67.3506 130.647 67.3506 129.989C67.3506 129.495 67.1791 129.105 66.8363 128.817C66.4934 128.529 66.0546 128.289 65.5197 128.097C64.9986 127.905 64.45 127.706 63.874 127.5C62.9689 127.171 62.2763 126.718 61.7963 126.142C61.3163 125.566 61.0763 124.887 61.0763 124.106C61.0763 123.187 61.3094 122.385 61.7757 121.699C62.2557 120.999 62.9071 120.458 63.73 120.074C64.5666 119.69 65.5266 119.498 66.61 119.498C67.9129 119.498 68.962 119.813 69.7574 120.444C70.5529 121.075 70.9506 121.932 70.9506 123.015C70.9506 123.111 70.9437 123.214 70.93 123.324C70.93 123.434 70.9231 123.543 70.9094 123.653H68.0911C68.1049 123.53 68.1117 123.413 68.1117 123.303C68.1117 122.878 67.9471 122.508 67.618 122.193C67.2889 121.877 66.8089 121.719 66.178 121.719C65.4786 121.719 64.9231 121.905 64.5117 122.275C64.114 122.631 63.9151 123.084 63.9151 123.633C63.9151 124.058 64.0523 124.401 64.3266 124.661C64.6009 124.908 64.9711 125.127 65.4374 125.319C65.9037 125.498 66.418 125.69 66.9803 125.895C67.57 126.101 68.1049 126.375 68.5849 126.718C69.0786 127.047 69.4694 127.452 69.7574 127.932C70.0591 128.412 70.21 128.981 70.21 129.639C70.21 130.599 69.9631 131.436 69.4694 132.149C68.9757 132.862 68.2969 133.418 67.4329 133.815C66.5689 134.199 65.5814 134.391 64.4706 134.391ZM74.4958 134.145L76.6558 121.822H72.4592L72.8295 119.745H83.8763L83.5266 121.822H79.2889L77.1289 134.145H74.4958ZM83.2761 134.145L85.8269 119.745H88.4601L85.9092 134.145H83.2761ZM95.2213 134.391C93.987 134.391 92.931 134.151 92.0533 133.671C91.1893 133.178 90.5242 132.499 90.0579 131.635C89.6053 130.771 89.379 129.763 89.379 128.611C89.379 127.322 89.5916 126.122 90.0168 125.011C90.4419 123.9 91.0316 122.933 91.7859 122.11C92.5539 121.287 93.4453 120.65 94.4602 120.197C95.4888 119.731 96.6065 119.498 97.8133 119.498C99.5413 119.498 100.885 119.93 101.845 120.794C102.805 121.644 103.292 122.844 103.306 124.394H100.385C100.357 123.598 100.09 122.981 99.5825 122.542C99.075 122.103 98.3482 121.884 97.4019 121.884C96.387 121.884 95.4819 122.165 94.6865 122.727C93.891 123.29 93.2602 124.058 92.7939 125.031C92.3276 126.005 92.0945 127.102 92.0945 128.323C92.0945 129.489 92.403 130.401 93.0202 131.059C93.651 131.703 94.5288 132.026 95.6533 132.026C96.5996 132.026 97.3882 131.82 98.019 131.409C98.6636 130.997 99.1436 130.414 99.459 129.66H102.38C101.832 131.155 100.926 132.321 99.6648 133.157C98.4168 133.98 96.9356 134.391 95.2213 134.391Z" fill="url(#paint6_linear_1679_10141)"/>
<defs>
<radialGradient id="paint0_radial_1679_10141" cx="0" cy="0" r="1" gradientUnits="userSpaceOnUse" gradientTransform="translate(53.182 52.5714) rotate(90.2139) scale(81.3255 82.2701)">
<stop stop-color="#FFA100"/>
<stop offset="1" stop-color="#FFA100" stop-opacity="0"/>
</radialGradient>
<linearGradient id="paint1_linear_1679_10141" x1="36.1774" y1="55.3281" x2="36.1774" y2="76.3192" gradientUnits="userSpaceOnUse">
<stop stop-color="#D2390F"/>
<stop offset="1" stop-color="#69400F"/>
</linearGradient>
<linearGradient id="paint2_linear_1679_10141" x1="68.9625" y1="55.1445" x2="68.9625" y2="76.2207" gradientUnits="userSpaceOnUse">
<stop stop-color="#D2390F"/>
<stop offset="1" stop-color="#69400F"/>
</linearGradient>
<linearGradient id="paint3_linear_1679_10141" x1="15.2842" y1="71.4336" x2="15.2842" y2="83.4509" gradientUnits="userSpaceOnUse">
<stop stop-color="#D2390F"/>
<stop offset="1" stop-color="#69400F"/>
</linearGradient>
<linearGradient id="paint4_linear_1679_10141" x1="52.5909" y1="4.57812" x2="52.5909" y2="81.3464" gradientUnits="userSpaceOnUse">
<stop stop-color="#E33708"/>
<stop offset="1" stop-color="#E38B08"/>
</linearGradient>
<linearGradient id="paint5_linear_1679_10141" x1="89.845" y1="71.2734" x2="89.845" y2="83.3106" gradientUnits="userSpaceOnUse">
<stop stop-color="#D2390F"/>
<stop offset="1" stop-color="#69400F"/>
</linearGradient>
<linearGradient id="paint6_linear_1679_10141" x1="53.4297" y1="113.145" x2="53.4297" y2="140.145" gradientUnits="userSpaceOnUse">
<stop stop-color="white"/>
<stop offset="1" stop-color="#494949"/>
</linearGradient>
<clipPath id="clip0_1679_10141">
<rect width="106.286" height="105.143" fill="white"/>
</clipPath>
<clipPath id="clip1_1679_10141">
<rect width="80" height="78.8571" fill="white" transform="translate(12.5703 4.57422)"/>
</clipPath>
</defs>
</svg>
