<svg width="107" height="141" viewBox="0 0 107 141" fill="none" xmlns="http://www.w3.org/2000/svg">
<g clip-path="url(#clip0_1679_10120)">
<path d="M106.305 52.3271H101.194C101.01 39.6064 95.8452 27.4628 86.8047 18.4944C77.7641 9.52604 65.5658 4.44534 52.8197 4.33941V0H52.3889V4.33941C39.5986 4.37908 27.3355 9.43048 18.2402 18.4059C9.14492 27.3813 3.94503 39.5627 3.76024 52.3271H0V52.8158H3.74066V52.9721C3.75099 65.8536 8.87723 78.2057 17.9961 87.3217C27.1149 96.4376 39.4825 101.574 52.3889 101.605V105.143H52.8785V101.605C65.7356 101.497 78.0301 96.327 87.0886 87.22C96.1472 78.113 101.237 65.8049 101.252 52.9721V52.8158H106.364L106.305 52.3271ZM100.704 52.3271H84.6056C84.4283 43.9959 81.0135 36.0596 75.0824 30.1946C69.1512 24.3296 61.1683 20.9952 52.8197 20.8957V4.82809C65.4344 4.93896 77.5053 9.96976 86.453 18.8454C95.4007 27.7211 100.515 39.7376 100.704 52.3271ZM84.1355 52.9721C84.1308 61.2943 80.8378 69.2788 74.9712 75.1926C69.1046 81.1065 61.1379 84.4725 52.8001 84.5599V52.8158H84.1355V52.9721ZM20.7989 52.8158H52.3889V84.5795C44.0169 84.5331 36.003 81.1837 30.0959 75.2624C24.1888 69.341 20.8678 61.3281 20.8576 52.9721L20.7989 52.8158ZM52.3889 52.3271H20.838C21.0117 44.0785 24.408 36.2241 30.3024 30.4396C36.1968 24.6552 44.1226 21.3987 52.3889 21.3648V52.3271ZM52.8785 52.3271V21.3843C61.1025 21.4786 68.968 24.7587 74.8147 30.5321C80.6613 36.3054 84.0315 44.1204 84.2139 52.3271H52.8785ZM52.3889 4.82809V20.8761C43.9912 20.905 35.938 24.2115 29.9508 30.0886C23.9635 35.9657 20.5171 43.9472 20.3484 52.3271H4.24986C4.43462 39.6923 9.58292 27.6352 18.5864 18.7514C27.5898 9.86765 39.7284 4.86773 52.3889 4.82809ZM4.23028 52.9721V52.8158H20.3092V52.9721C20.3195 61.4678 23.7002 69.6138 29.7118 75.6285C35.7234 81.6432 43.8768 85.0372 52.3889 85.0682V101.116C39.614 101.08 27.3739 95.9936 18.348 86.9704C9.32209 77.9473 4.24577 65.7225 4.23028 52.9721ZM100.704 52.9721C100.689 65.6753 95.6504 77.8591 86.6837 86.8745C77.7169 95.8899 65.547 101.008 52.8197 101.116V85.0486C61.2839 84.956 69.3702 81.5363 75.3244 75.5314C81.2786 69.5264 84.6205 61.4205 84.6251 52.9721V52.8158H100.704V52.9721Z" fill="url(#paint0_radial_1679_10120)"/>
</g>
<path d="M31.6305 38.3926L17.9213 44.2567C17.1576 44.5847 16.5083 45.131 16.0553 45.8267C15.6022 46.5224 15.3656 47.3364 15.3753 48.1661V49.7885L43.3029 42.7125L35.2928 38.5099C34.729 38.2216 34.1081 38.0615 33.4749 38.0413C32.8416 38.021 32.2118 38.141 31.6305 38.3926Z" fill="url(#paint1_linear_1679_10120)"/>
<path d="M3.17589 48.24V55.1791C3.1766 55.2503 3.19353 55.3205 3.22542 55.3842C3.2573 55.4479 3.3033 55.5035 3.35992 55.5468C3.41654 55.5901 3.48229 55.62 3.55221 55.6342C3.62212 55.6484 3.69435 55.6465 3.76343 55.6287L4.86017 55.316V46.1094L3.56758 47.3408C3.44217 47.4544 3.34238 47.5933 3.27485 47.7484C3.20732 47.9034 3.17359 48.071 3.17589 48.24Z" fill="#14C6A0"/>
<path d="M85.4327 44.3114L71.7234 38.4473C71.1422 38.1957 70.5123 38.0757 69.8791 38.096C69.2458 38.1162 68.625 38.2763 68.0611 38.5646L59.9727 42.7281L87.9003 49.8041V48.1817C87.9065 47.3678 87.6769 46.5695 87.2391 45.8828C86.8013 45.1962 86.174 44.6505 85.4327 44.3114Z" fill="url(#paint2_linear_1679_10120)"/>
<path d="M99.7458 47.3408L98.4336 46.1094V55.316L99.5303 55.6287C99.5994 55.6465 99.6716 55.6484 99.7416 55.6342C99.8115 55.62 99.8772 55.5901 99.9339 55.5468C99.9905 55.5035 100.036 55.4479 100.068 55.3842C100.1 55.3205 100.117 55.2503 100.118 55.1791V48.24C100.119 48.0729 100.087 47.9073 100.023 47.7528C99.9591 47.5984 99.8648 47.4583 99.7458 47.3408Z" fill="#14C6A0"/>
<path d="M75.1493 29.3196L72.3095 22.2631C72.0383 21.6019 71.6078 21.0178 71.0561 20.5626C62.1451 13.2911 51.6673 5.86328 51.6673 5.86328C51.6673 5.86328 41.1895 13.2911 32.259 20.5626C31.7073 21.0178 31.2767 21.6019 31.0055 22.2631L28.1658 29.3196L28.6358 24.1396C21.1545 30.7465 11.0096 40.3831 6.03516 44.9571V54.9456H6.17225C6.62326 54.8319 7.01898 54.5616 7.28857 54.1833L8.4049 52.7759C9.13454 51.8328 10.1878 51.1922 11.3622 50.9776L13.3206 50.6648C13.4406 50.6399 13.5493 50.577 13.6305 50.4854C13.7116 50.3938 13.761 50.2785 13.7711 50.1566L13.9669 47.4982C14.0117 46.8192 14.2415 46.1653 14.6315 45.6072C15.0216 45.0491 15.557 44.608 16.18 44.3316C20.5865 42.3769 30.653 37.7638 31.6323 37.412C32.2318 37.1927 32.8705 37.1003 33.5077 37.1407C34.145 37.181 34.7668 37.3533 35.3337 37.6466L35.7059 37.8225C36.8418 38.5066 39.4073 39.7772 41.5812 40.8523L44.3623 42.1815L50.2376 40.5786C50.7224 40.4452 51.2233 40.3794 51.7261 40.3831C52.2224 40.3794 52.7169 40.4452 53.1949 40.5786L59.0703 42.1815L61.8513 40.8523C64.0448 39.7967 66.6104 38.5066 67.7267 37.8225L68.0792 37.6466C68.6495 37.3528 69.2747 37.1804 69.9151 37.14C70.5556 37.0996 71.1975 37.1922 71.8003 37.412C72.7599 37.7638 82.8264 42.3183 87.233 44.3316C87.8321 44.6184 88.3438 45.0594 88.7156 45.609C89.0873 46.1587 89.3056 46.7973 89.3481 47.4591L89.544 50.1175C89.557 50.2384 89.6074 50.3522 89.6881 50.4432C89.7688 50.5343 89.8758 50.5981 89.9944 50.6257L91.9529 50.9385C93.1272 51.1531 94.1805 51.7937 94.9102 52.7368L96.0265 54.2028C96.3079 54.5778 96.7083 54.8465 97.1624 54.9651H97.2995V44.9571C92.4033 40.3245 82.1606 30.6879 74.6792 24.081L75.1493 29.3196Z" fill="url(#paint3_linear_1679_10120)"/>
<path d="M29.28 134.821C28.1005 134.821 27.0925 134.561 26.256 134.039C25.4194 133.505 24.7748 132.785 24.3223 131.879C23.8697 130.974 23.6434 129.946 23.6434 128.794C23.6434 127.491 23.856 126.298 24.2811 125.214C24.7063 124.131 25.3028 123.198 26.0708 122.417C26.8525 121.621 27.7645 121.011 28.8068 120.586C29.8491 120.147 30.9943 119.927 32.2423 119.927C33.9291 119.927 35.2731 120.332 36.2743 121.141C37.2754 121.95 37.8103 123.068 37.8788 124.494H34.9371C34.8411 123.822 34.5325 123.301 34.0114 122.931C33.504 122.547 32.7908 122.355 31.872 122.355C30.7885 122.355 29.8285 122.622 28.992 123.157C28.1691 123.678 27.5245 124.405 27.0583 125.338C26.592 126.27 26.3588 127.354 26.3588 128.588C26.3588 129.795 26.6743 130.748 27.3051 131.447C27.936 132.133 28.8137 132.476 29.9383 132.476C31.2411 132.476 32.2834 132.126 33.0651 131.427C33.8605 130.714 34.4228 129.781 34.752 128.629H31.1314L31.4811 126.654H37.7554L36.3565 134.574H33.9703L34.0525 132.682C33.4765 133.367 32.8114 133.895 32.0571 134.266C31.3028 134.636 30.3771 134.821 29.28 134.821ZM38.935 134.574L41.4653 120.174H44.0985L41.9179 132.517H48.295L47.9453 134.574H38.935ZM50.2649 134.574L52.8158 120.174H55.4489L52.8981 134.574H50.2649ZM55.7096 134.574L58.2399 120.174H63.1565C65.3233 120.174 66.9142 120.702 67.929 121.758C68.9439 122.814 69.4513 124.241 69.4513 126.037C69.4513 127.71 69.081 129.191 68.3405 130.481C67.6136 131.77 66.5919 132.778 65.2753 133.505C63.9587 134.218 62.409 134.574 60.6262 134.574H55.7096ZM58.7336 132.311H60.8936C62.1416 132.311 63.1976 132.065 64.0616 131.571C64.9393 131.077 65.6045 130.378 66.057 129.473C66.5096 128.567 66.7359 127.498 66.7359 126.263C66.7359 124.974 66.4067 124.014 65.7485 123.383C65.0902 122.739 64.0547 122.417 62.6422 122.417H60.4822L58.7336 132.311ZM70.4145 134.574L72.9653 120.174H81.8728L81.4819 122.252H75.2282L74.5288 126.263H80.1653L79.8156 128.279H74.179L73.4179 132.497H79.6922L79.3219 134.574H70.4145Z" fill="url(#paint4_linear_1679_10120)"/>
<defs>
<radialGradient id="paint0_radial_1679_10120" cx="0" cy="0" r="1" gradientUnits="userSpaceOnUse" gradientTransform="translate(53.182 52.5714) rotate(90.2139) scale(81.3255 82.2701)">
<stop stop-color="#2AD382"/>
<stop offset="1" stop-color="#2AD382" stop-opacity="0"/>
</radialGradient>
<linearGradient id="paint1_linear_1679_10120" x1="29.339" y1="38.0391" x2="29.339" y2="49.7885" gradientUnits="userSpaceOnUse">
<stop stop-color="#169B5E"/>
<stop offset="1" stop-color="#08411E"/>
</linearGradient>
<linearGradient id="paint2_linear_1679_10120" x1="73.9365" y1="38.0938" x2="73.9365" y2="49.8041" gradientUnits="userSpaceOnUse">
<stop stop-color="#169B5E"/>
<stop offset="1" stop-color="#08411E"/>
</linearGradient>
<linearGradient id="paint3_linear_1679_10120" x1="51.6673" y1="5.86328" x2="51.6673" y2="54.9651" gradientUnits="userSpaceOnUse">
<stop stop-color="#14C6A0"/>
<stop offset="1" stop-color="#178034"/>
</linearGradient>
<linearGradient id="paint4_linear_1679_10120" x1="52.4297" y1="113.574" x2="52.4297" y2="140.574" gradientUnits="userSpaceOnUse">
<stop stop-color="white"/>
<stop offset="1" stop-color="#494949"/>
</linearGradient>
<clipPath id="clip0_1679_10120">
<rect width="106.286" height="105.143" fill="white"/>
</clipPath>
</defs>
</svg>
