<svg width="107" height="25" viewBox="0 0 107 25" fill="none" xmlns="http://www.w3.org/2000/svg">
<g clip-path="url(#clip0_1679_10083)">
<path d="M49.5717 20.1461C50.9034 20.1461 51.994 21.2388 51.994 22.573C51.994 23.9073 50.9034 25 49.5717 25C48.2401 25 47.1495 23.9073 47.1495 22.573C47.1495 21.2388 48.2401 20.1461 49.5717 20.1461ZM40.4612 22.573C40.4612 23.9073 41.5518 25 42.8834 25C44.2151 25 45.3057 23.9073 45.3057 22.573C45.3057 21.2388 44.2151 20.1461 42.8834 20.1461C41.5518 20.1461 40.4612 21.2388 40.4612 22.573ZM33.7669 22.573C33.7669 23.9073 34.8575 25 36.1891 25C37.5207 25 38.6114 23.9073 38.6114 22.573C38.6114 21.2388 37.5207 20.1461 36.1891 20.1461C34.8575 20.1461 33.7669 21.2388 33.7669 22.573ZM27.0786 22.573C27.0786 23.9073 28.1692 25 29.5008 25C30.8324 25 31.9231 23.9073 31.9231 22.573C31.9231 21.2388 30.8324 20.1461 29.5008 20.1461C28.1692 20.1461 27.0786 21.2388 27.0786 22.573ZM20.0769 22.573C20.0769 23.9073 21.1676 25 22.4992 25C23.8308 25 24.9214 23.9073 24.9214 22.573C24.9214 21.2388 23.8308 20.1461 22.4992 20.1461C21.1676 20.1461 20.0769 21.2388 20.0769 22.573ZM6.69432 22.573C6.69432 23.9073 7.78494 25 9.11657 25C10.4482 25 11.5388 23.9073 11.5388 22.573C11.5388 21.2388 10.4482 20.1461 9.11657 20.1461C7.78494 20.1461 6.69432 21.2388 6.69432 22.573ZM-1.06085e-07 22.5731C-4.77648e-08 23.9073 1.09061 25 2.42225 25C3.75388 25 4.8445 23.9073 4.8445 22.573C4.8445 21.2388 3.75388 20.1461 2.42225 20.1461C1.09061 20.1461 -1.64406e-07 21.2388 -1.06085e-07 22.5731ZM47.1495 15.8597C47.1495 17.1939 48.2401 18.2866 49.5717 18.2866C50.9034 18.2866 51.994 17.1939 51.994 15.8597C51.994 14.5255 50.9034 13.4327 49.5717 13.4327C48.2401 13.4327 47.1495 14.5255 47.1495 15.8597ZM33.7669 15.8597C33.7669 17.1939 34.8575 18.2866 36.1891 18.2866C37.5207 18.2866 38.6114 17.1939 38.6114 15.8597C38.6114 14.5255 37.5207 13.4327 36.1891 13.4327C34.8575 13.4327 33.7669 14.5255 33.7669 15.8597ZM27.0786 15.8597C27.0786 17.1939 28.1692 18.2866 29.5008 18.2866C30.8324 18.2866 31.9231 17.1939 31.9231 15.8597C31.9231 14.5255 30.8324 13.4327 29.5008 13.4327C28.1692 13.4327 27.0786 14.5255 27.0786 15.8597ZM20.0769 15.8597C20.0769 17.1939 21.1676 18.2866 22.4992 18.2866C23.8308 18.2866 24.9214 17.1939 24.9214 15.8597C24.9214 14.5255 23.8308 13.4327 22.4992 13.4327C21.1676 13.4327 20.0769 14.5255 20.0769 15.8597ZM13.3886 15.8597C13.3886 17.1939 14.4793 18.2866 15.8109 18.2866C17.1425 18.2866 18.2331 17.1939 18.2331 15.8597C18.2331 14.5255 17.1425 13.4327 15.8109 13.4327C14.4793 13.4327 13.3886 14.5255 13.3886 15.8597ZM6.69432 15.8597C6.69432 17.1939 7.78494 18.2866 9.11657 18.2866C10.4482 18.2866 11.5388 17.1939 11.5388 15.8597C11.5388 14.5255 10.4482 13.4327 9.11657 13.4327C7.78494 13.4327 6.69432 14.5255 6.69432 15.8597ZM47.1555 9.14634C47.1555 10.4806 48.2461 11.5733 49.5778 11.5733C50.9094 11.5733 52 10.4806 52 9.14634C52 7.81212 50.9094 6.71939 49.5778 6.71939C48.2461 6.71939 47.1555 7.81212 47.1555 9.14634ZM40.4672 9.14634C40.4672 10.4806 41.5578 11.5733 42.8895 11.5733C44.2211 11.5733 45.3117 10.4806 45.3117 9.14634C45.3117 7.81212 44.2211 6.71939 42.8895 6.71939C41.5578 6.71939 40.4672 7.81212 40.4672 9.14634ZM33.7729 9.14634C33.7729 10.4806 34.8635 11.5733 36.1951 11.5733C37.5268 11.5733 38.6174 10.4806 38.6174 9.14634C38.6174 7.81212 37.5268 6.71939 36.1951 6.71939C34.8635 6.71939 33.7729 7.81212 33.7729 9.14634ZM27.0846 9.14634C27.0846 10.4806 28.1752 11.5733 29.5068 11.5733C30.8385 11.5733 31.9291 10.4806 31.9291 9.14634C31.9291 7.81212 30.8385 6.71939 29.5068 6.71939C28.1752 6.71939 27.0846 7.81212 27.0846 9.14634ZM20.083 9.14634C20.083 10.4806 21.1736 11.5733 22.5052 11.5733C23.8368 11.5733 24.9275 10.4806 24.9275 9.14634C24.9275 7.81212 23.8368 6.71939 22.5052 6.71939C21.1736 6.71939 20.083 7.81212 20.083 9.14634ZM6.70035 9.14634C6.70035 10.4806 7.79096 11.5733 9.1226 11.5733C10.4542 11.5733 11.5448 10.4806 11.5448 9.14634C11.5448 7.81212 10.4542 6.71939 9.12259 6.71939C7.79096 6.71939 6.70035 7.81212 6.70035 9.14634ZM0.0120503 9.14634C0.0120503 10.4806 1.10266 11.5733 2.4343 11.5733C3.76593 11.5733 4.85655 10.4806 4.85655 9.14634C4.85655 7.81212 3.76593 6.71939 2.4343 6.71939C1.10266 6.71939 0.0120502 7.81212 0.0120503 9.14634ZM47.1615 2.43299C47.1615 3.7672 48.2521 4.85994 49.5838 4.85994C50.9154 4.85994 52.006 3.7672 52.006 2.43298C52.006 1.09877 50.9154 0.00603453 49.5838 0.00603459C48.2521 0.00603465 47.1615 1.09877 47.1615 2.43299ZM33.7789 2.43299C33.7789 3.7672 34.8695 4.85994 36.2012 4.85994C37.5328 4.85994 38.6234 3.7672 38.6234 2.43299C38.6234 1.09877 37.5328 0.00603512 36.2012 0.00603518C34.8695 0.00603523 33.7789 1.09877 33.7789 2.43299ZM27.0906 2.43299C27.0906 3.76721 28.1812 4.85994 29.5129 4.85994C30.8445 4.85994 31.9351 3.7672 31.9351 2.43299C31.9351 1.09877 30.8445 0.00603541 29.5129 0.00603547C28.1812 0.00603553 27.0906 1.09877 27.0906 2.43299ZM20.089 2.43299C20.089 3.76721 21.1796 4.85994 22.5112 4.85994C23.8429 4.85994 24.9335 3.76721 24.9335 2.43299C24.9335 1.09877 23.8429 0.00603572 22.5112 0.00603577C21.1796 0.00603583 20.089 1.09877 20.089 2.43299ZM13.4007 2.43299C13.4007 3.76721 14.4913 4.85994 15.8229 4.85994C17.1546 4.85994 18.2452 3.76721 18.2452 2.43299C18.2452 1.09877 17.1546 0.00603601 15.8229 0.00603607C14.4913 0.00603612 13.4007 1.09877 13.4007 2.43299ZM6.70637 2.43299C6.70637 3.76721 7.79699 4.85994 9.12862 4.85994C10.4603 4.85994 11.5509 3.76721 11.5509 2.43299C11.5509 1.09877 10.4603 0.0060363 9.12862 0.00603636C7.79699 0.00603642 6.70637 1.09877 6.70637 2.43299ZM0.0180755 2.43299C0.0180755 3.76721 1.10869 4.85994 2.44032 4.85994C3.77196 4.85994 4.86257 3.76721 4.86257 2.43299C4.86257 1.09877 3.77196 0.00603659 2.44032 0.00603665C1.10869 0.00603671 0.0180754 1.09877 0.0180755 2.43299Z" fill="#353535"/>
</g>
<g clip-path="url(#clip1_1679_10083)">
<path d="M104.572 20.1461C105.903 20.1461 106.994 21.2388 106.994 22.573C106.994 23.9073 105.903 25 104.572 25C103.24 25 102.149 23.9073 102.149 22.573C102.149 21.2388 103.24 20.1461 104.572 20.1461ZM95.4612 22.573C95.4612 23.9073 96.5518 25 97.8834 25C99.2151 25 100.306 23.9073 100.306 22.573C100.306 21.2388 99.2151 20.1461 97.8834 20.1461C96.5518 20.1461 95.4612 21.2388 95.4612 22.573ZM88.7669 22.573C88.7669 23.9073 89.8575 25 91.1891 25C92.5207 25 93.6114 23.9073 93.6114 22.573C93.6114 21.2388 92.5207 20.1461 91.1891 20.1461C89.8575 20.1461 88.7669 21.2388 88.7669 22.573ZM82.0786 22.573C82.0786 23.9073 83.1692 25 84.5008 25C85.8324 25 86.9231 23.9073 86.9231 22.573C86.9231 21.2388 85.8324 20.1461 84.5008 20.1461C83.1692 20.1461 82.0786 21.2388 82.0786 22.573ZM75.0769 22.573C75.0769 23.9073 76.1676 25 77.4992 25C78.8308 25 79.9214 23.9073 79.9214 22.573C79.9214 21.2388 78.8308 20.1461 77.4992 20.1461C76.1676 20.1461 75.0769 21.2388 75.0769 22.573ZM61.6943 22.573C61.6943 23.9073 62.7849 25 64.1166 25C65.4482 25 66.5388 23.9073 66.5388 22.573C66.5388 21.2388 65.4482 20.1461 64.1166 20.1461C62.7849 20.1461 61.6943 21.2388 61.6943 22.573ZM55 22.5731C55 23.9073 56.0906 25 57.4222 25C58.7539 25 59.8445 23.9073 59.8445 22.573C59.8445 21.2388 58.7539 20.1461 57.4222 20.1461C56.0906 20.1461 55 21.2388 55 22.5731ZM102.149 15.8597C102.149 17.1939 103.24 18.2866 104.572 18.2866C105.903 18.2866 106.994 17.1939 106.994 15.8597C106.994 14.5255 105.903 13.4327 104.572 13.4327C103.24 13.4327 102.149 14.5255 102.149 15.8597ZM88.7669 15.8597C88.7669 17.1939 89.8575 18.2866 91.1891 18.2866C92.5207 18.2866 93.6114 17.1939 93.6114 15.8597C93.6114 14.5255 92.5207 13.4327 91.1891 13.4327C89.8575 13.4327 88.7669 14.5255 88.7669 15.8597ZM82.0786 15.8597C82.0786 17.1939 83.1692 18.2866 84.5008 18.2866C85.8324 18.2866 86.9231 17.1939 86.9231 15.8597C86.9231 14.5255 85.8324 13.4327 84.5008 13.4327C83.1692 13.4327 82.0786 14.5255 82.0786 15.8597ZM75.0769 15.8597C75.0769 17.1939 76.1676 18.2866 77.4992 18.2866C78.8308 18.2866 79.9214 17.1939 79.9214 15.8597C79.9214 14.5255 78.8308 13.4327 77.4992 13.4327C76.1676 13.4327 75.0769 14.5255 75.0769 15.8597ZM68.3886 15.8597C68.3886 17.1939 69.4793 18.2866 70.8109 18.2866C72.1425 18.2866 73.2331 17.1939 73.2331 15.8597C73.2331 14.5255 72.1425 13.4327 70.8109 13.4327C69.4793 13.4327 68.3886 14.5255 68.3886 15.8597ZM61.6943 15.8597C61.6943 17.1939 62.7849 18.2866 64.1166 18.2866C65.4482 18.2866 66.5388 17.1939 66.5388 15.8597C66.5388 14.5255 65.4482 13.4327 64.1166 13.4327C62.7849 13.4327 61.6943 14.5255 61.6943 15.8597ZM102.156 9.14634C102.156 10.4806 103.246 11.5733 104.578 11.5733C105.909 11.5733 107 10.4806 107 9.14634C107 7.81212 105.909 6.71939 104.578 6.71939C103.246 6.71939 102.156 7.81212 102.156 9.14634ZM95.4672 9.14634C95.4672 10.4806 96.5578 11.5733 97.8895 11.5733C99.2211 11.5733 100.312 10.4806 100.312 9.14634C100.312 7.81212 99.2211 6.71939 97.8895 6.71939C96.5578 6.71939 95.4672 7.81212 95.4672 9.14634ZM88.7729 9.14634C88.7729 10.4806 89.8635 11.5733 91.1951 11.5733C92.5268 11.5733 93.6174 10.4806 93.6174 9.14634C93.6174 7.81212 92.5268 6.71939 91.1951 6.71939C89.8635 6.71939 88.7729 7.81212 88.7729 9.14634ZM82.0846 9.14634C82.0846 10.4806 83.1752 11.5733 84.5068 11.5733C85.8385 11.5733 86.9291 10.4806 86.9291 9.14634C86.9291 7.81212 85.8385 6.71939 84.5068 6.71939C83.1752 6.71939 82.0846 7.81212 82.0846 9.14634ZM75.083 9.14634C75.083 10.4806 76.1736 11.5733 77.5052 11.5733C78.8368 11.5733 79.9275 10.4806 79.9275 9.14634C79.9275 7.81212 78.8368 6.71939 77.5052 6.71939C76.1736 6.71939 75.083 7.81212 75.083 9.14634ZM61.7003 9.14634C61.7003 10.4806 62.791 11.5733 64.1226 11.5733C65.4542 11.5733 66.5448 10.4806 66.5448 9.14634C66.5448 7.81212 65.4542 6.71939 64.1226 6.71939C62.791 6.71939 61.7003 7.81212 61.7003 9.14634ZM55.0121 9.14634C55.0121 10.4806 56.1027 11.5733 57.4343 11.5733C58.7659 11.5733 59.8565 10.4806 59.8565 9.14634C59.8565 7.81212 58.7659 6.71939 57.4343 6.71939C56.1027 6.71939 55.0121 7.81212 55.0121 9.14634ZM102.162 2.43299C102.162 3.7672 103.252 4.85994 104.584 4.85994C105.915 4.85994 107.006 3.7672 107.006 2.43298C107.006 1.09877 105.915 0.00603453 104.584 0.00603459C103.252 0.00603465 102.162 1.09877 102.162 2.43299ZM88.7789 2.43299C88.7789 3.7672 89.8695 4.85994 91.2012 4.85994C92.5328 4.85994 93.6234 3.7672 93.6234 2.43299C93.6234 1.09877 92.5328 0.00603512 91.2012 0.00603518C89.8695 0.00603523 88.7789 1.09877 88.7789 2.43299ZM82.0906 2.43299C82.0906 3.76721 83.1812 4.85994 84.5129 4.85994C85.8445 4.85994 86.9351 3.7672 86.9351 2.43299C86.9351 1.09877 85.8445 0.00603541 84.5129 0.00603547C83.1812 0.00603553 82.0906 1.09877 82.0906 2.43299ZM75.089 2.43299C75.089 3.76721 76.1796 4.85994 77.5112 4.85994C78.8429 4.85994 79.9335 3.76721 79.9335 2.43299C79.9335 1.09877 78.8429 0.00603572 77.5112 0.00603577C76.1796 0.00603583 75.089 1.09877 75.089 2.43299ZM68.4007 2.43299C68.4007 3.76721 69.4913 4.85994 70.8229 4.85994C72.1546 4.85994 73.2452 3.76721 73.2452 2.43299C73.2452 1.09877 72.1546 0.00603601 70.8229 0.00603607C69.4913 0.00603612 68.4007 1.09877 68.4007 2.43299ZM61.7064 2.43299C61.7064 3.76721 62.797 4.85994 64.1286 4.85994C65.4603 4.85994 66.5509 3.76721 66.5509 2.43299C66.5509 1.09877 65.4603 0.0060363 64.1286 0.00603636C62.797 0.00603642 61.7064 1.09877 61.7064 2.43299ZM55.0181 2.43299C55.0181 3.76721 56.1087 4.85994 57.4403 4.85994C58.772 4.85994 59.8626 3.76721 59.8626 2.43299C59.8626 1.09877 58.772 0.00603659 57.4403 0.00603665C56.1087 0.00603671 55.0181 1.09877 55.0181 2.43299Z" fill="#353535"/>
</g>
<defs>
<clipPath id="clip0_1679_10083">
<rect width="25" height="52" fill="white" transform="translate(0 25) rotate(-90)"/>
</clipPath>
<clipPath id="clip1_1679_10083">
<rect width="25" height="52" fill="white" transform="translate(55 25) rotate(-90)"/>
</clipPath>
</defs>
</svg>
