<svg width="89" height="12" viewBox="0 0 89 12" fill="none" xmlns="http://www.w3.org/2000/svg">
<g id="Frame" clip-path="url(#clip0_12801_13676)">
<g id="Group">
<path id="Vector" d="M19.7461 5.67825V3.77063H20.5674C20.6297 3.77063 20.6807 3.82203 20.6807 3.88486V5.87244C20.6807 6.33507 20.5674 6.71203 20.3408 7.00331C20.1143 7.2946 19.7857 7.51163 19.3666 7.64871C18.9418 7.78578 18.4434 7.86003 17.86 7.86003C17.2766 7.86003 16.7838 7.79149 16.359 7.64871C15.9342 7.51163 15.6113 7.2946 15.3848 7.00331C15.1582 6.71203 15.0449 6.33507 15.0449 5.87244V3.88486C15.0449 3.82203 15.0959 3.77063 15.1582 3.77063H15.9795V5.67825C15.9795 5.9981 16.0475 6.26082 16.1834 6.46072C16.3193 6.66063 16.5232 6.80912 16.8008 6.90051C17.0783 6.9976 17.4352 7.04329 17.86 7.04329C18.2848 7.04329 18.6529 6.9976 18.9305 6.90051C19.208 6.80341 19.4119 6.66063 19.5478 6.46072C19.6838 6.26082 19.7518 5.9981 19.7518 5.67825H19.7461Z" fill="#1E1F1E"/>
<path id="Vector_2" d="M22.4014 6.98093H26.5701V7.67773C26.5701 7.74055 26.5191 7.79195 26.4568 7.79195H21.4668V3.87961C21.4668 3.81678 21.5178 3.76538 21.5801 3.76538H22.4014V6.97522V6.98093Z" fill="#1E1F1E"/>
<path id="Vector_3" d="M28.2596 4.57641H25.875V3.87961C25.875 3.81678 25.926 3.76538 25.9883 3.76538H31.5844V4.46218C31.5844 4.525 31.5334 4.57641 31.4711 4.57641H29.2055V7.78624H28.2652V4.57641H28.2596Z" fill="#1E1F1E"/>
<path id="Vector_4" d="M33.0459 7.78624H32.2246V3.87961C32.2246 3.81678 32.2756 3.76538 32.3379 3.76538H36.1328C36.3764 3.76538 36.5973 3.78823 36.7955 3.83963C36.9937 3.89103 37.158 3.96528 37.2996 4.0738C37.4355 4.18232 37.5432 4.31939 37.6168 4.49074C37.6904 4.66208 37.7301 4.8734 37.7301 5.119C37.7301 5.40457 37.6791 5.64445 37.5715 5.83864C37.4639 6.03283 37.3053 6.18132 37.1014 6.27842C36.8975 6.38123 36.6369 6.43834 36.3367 6.45547H35.9799L37.6734 7.78053H36.5293C36.5293 7.78053 36.4783 7.76911 36.4613 7.75769L34.9547 6.51259H33.1705V7.67201C33.1705 7.73484 33.1195 7.78624 33.0572 7.78624H33.0459ZM33.1592 4.57641V5.80437H36.0478C36.3027 5.80437 36.484 5.75868 36.5916 5.66158C36.7049 5.56449 36.7559 5.41028 36.7559 5.19324C36.7559 4.96479 36.6992 4.80487 36.5916 4.71348C36.4783 4.6221 36.2971 4.57641 36.0478 4.57641H33.1592Z" fill="#1E1F1E"/>
<path id="Vector_5" d="M41.9102 3.81678C41.8875 3.78823 41.8535 3.76538 41.8195 3.76538H40.6924C40.6527 3.76538 40.6187 3.78252 40.6018 3.81678L37.9453 7.78624H39.0102C39.0498 7.78624 39.0838 7.76911 39.1008 7.73484L39.6275 6.92953H42.8787L43.4055 7.73484C43.4281 7.76911 43.4621 7.78624 43.4961 7.78624H44.5723L41.9158 3.81678H41.9102ZM40.058 6.267L41.2475 4.43933L42.4369 6.267H40.0523H40.058Z" fill="#1E1F1E"/>
<path id="Vector_6" d="M46.3271 7.73484L43.6934 3.76538H44.7752C44.8148 3.76538 44.8488 3.78252 44.8658 3.81678L46.9898 7.0152L49.1082 3.81678C49.1309 3.78823 49.1648 3.76538 49.1988 3.76538H50.2637L47.6355 7.73484C47.6129 7.7634 47.5789 7.78624 47.5449 7.78624H46.4178C46.3781 7.78624 46.3441 7.76911 46.3271 7.73484V7.73484Z" fill="#1E1F1E"/>
<path id="Vector_7" d="M51.6338 7.78624H50.8125V3.87961C50.8125 3.81678 50.8635 3.76538 50.9258 3.76538H51.7471V7.67201C51.7471 7.73484 51.6961 7.78624 51.6338 7.78624Z" fill="#1E1F1E"/>
<path id="Vector_8" d="M55.6787 7.86013C54.9424 7.86013 54.3363 7.78588 53.8662 7.63738C53.3904 7.48889 53.0449 7.26043 52.8184 6.95201C52.5918 6.64359 52.4785 6.2495 52.4785 5.76974C52.4785 5.28998 52.5918 4.89018 52.8184 4.58747C53.0449 4.27905 53.3961 4.0563 53.8662 3.90781C54.342 3.75931 54.9424 3.68506 55.6787 3.68506C56.415 3.68506 57.0268 3.75931 57.4969 3.90781C57.967 4.0563 58.3182 4.28476 58.5447 4.58747C58.7713 4.89589 58.8846 5.28998 58.8846 5.76974C58.8846 6.2495 58.7713 6.64359 58.5447 6.95201C58.3182 7.26043 57.9726 7.48889 57.4969 7.63738C57.0268 7.78588 56.4207 7.86013 55.6787 7.86013ZM55.6787 7.0491C56.1092 7.0491 56.466 7.02626 56.7549 6.97486C57.0437 6.92345 57.276 6.8492 57.4459 6.7464C57.6215 6.64359 57.7461 6.51223 57.8197 6.35231C57.8934 6.19239 57.933 5.9982 57.933 5.77545C57.933 5.5527 57.8934 5.3528 57.8197 5.19288C57.7461 5.03296 57.6215 4.9016 57.4459 4.79879C57.2703 4.69599 57.0437 4.62174 56.7549 4.57033C56.466 4.52464 56.1092 4.5018 55.6787 4.5018C55.1123 4.5018 54.6592 4.54749 54.3307 4.63316C54.0021 4.71883 53.7643 4.85591 53.6227 5.04438C53.4811 5.23286 53.4131 5.47845 53.4131 5.77545C53.4131 6.07245 53.4811 6.32375 53.6227 6.50652C53.7643 6.69499 53.9965 6.83207 54.3307 6.91774C54.6648 7.00341 55.1123 7.0491 55.6787 7.0491Z" fill="#1E1F1E"/>
<path id="Vector_9" d="M60.5381 6.98093H64.7068V7.67773C64.7068 7.74055 64.6559 7.79195 64.5935 7.79195H59.6035V3.87961C59.6035 3.81678 59.6545 3.76538 59.7168 3.76538H60.5381V6.97522V6.98093Z" fill="#1E1F1E"/>
<path id="Vector_10" d="M70.4267 7.78624H65.4141C65.3518 7.78624 65.3008 7.73484 65.3008 7.67201V3.87961C65.3008 3.81678 65.3518 3.76538 65.4141 3.76538H70.4267C70.4891 3.76538 70.54 3.81678 70.54 3.87961V4.51358H66.2354V5.3189C66.2354 5.38172 66.2863 5.43312 66.3486 5.43312H70.4211V6.04996H66.3486C66.2863 6.04996 66.2354 6.10136 66.2354 6.16419V7.03804H70.54V7.67201C70.54 7.73484 70.4891 7.78624 70.4267 7.78624V7.78624Z" fill="#1E1F1E"/>
<path id="Vector_11" d="M73.5037 4.57641H71.1191V3.87961C71.1191 3.81678 71.1701 3.76538 71.2324 3.76538H76.8285V4.46218C76.8285 4.525 76.7775 4.57641 76.7152 4.57641H74.4496V7.78624H73.5094V4.57641H73.5037Z" fill="#1E1F1E"/>
<path id="Vector_12" d="M79.7225 4.57641H77.3379V3.87961C77.3379 3.81678 77.3889 3.76538 77.4512 3.76538H83.0473V4.46218C83.0473 4.525 82.9963 4.57641 82.934 4.57641H80.6684V7.78624H79.7281V4.57641H79.7225Z" fill="#1E1F1E"/>
<path id="Vector_13" d="M88.8076 7.78624H83.7949C83.7326 7.78624 83.6816 7.73484 83.6816 7.67201V3.87961C83.6816 3.81678 83.7326 3.76538 83.7949 3.76538H88.8076C88.8699 3.76538 88.9209 3.81678 88.9209 3.87961V4.51358H84.6162V5.3189C84.6162 5.38172 84.6672 5.43312 84.7295 5.43312H88.8019V6.04996H84.7295C84.6672 6.04996 84.6162 6.10136 84.6162 6.16419V7.03804H88.9209V7.67201C88.9209 7.73484 88.8699 7.78624 88.8076 7.78624V7.78624Z" fill="#1E1F1E"/>
</g>
<g id="Group_2">
<g id="Group_3">
<path id="Vector_14" d="M12.4732 0.630274C12.5412 0.590294 12.5582 0.504622 12.5129 0.441796L12.3373 0.184781C12.3146 0.156223 12.292 0.133378 12.258 0.116243C12.2127 0.0933974 12.1787 0.0933974 12.156 0.0933974C10.4058 0.0362829 8.37811 0.00201416 6.53729 0.00201416C4.52656 0.00201416 2.79902 0.0305714 0.895896 0.0933974C0.822263 0.0933974 0.754295 0.133378 0.714646 0.196204L0.533397 0.481776C0.493748 0.544602 0.516404 0.624562 0.578709 0.664543L1.65488 1.29851C1.65488 1.29851 2.44785 1.29851 2.75937 1.29851C2.80468 1.29851 2.84433 1.30994 2.88398 1.33849C3.1955 1.55553 3.73925 1.94391 3.99413 2.13239C4.04511 2.16665 4.10175 2.1895 4.16406 2.1895H9.83944L12.4846 0.647408L12.4732 0.630274Z" fill="#1E1F1E"/>
</g>
<g id="Group_4">
<path id="Vector_15" d="M6.71816 11.3896C6.71816 11.4639 6.78613 11.5267 6.85977 11.521L7.17129 11.4981C7.20527 11.4981 7.23926 11.481 7.26758 11.4639C7.30723 11.4353 7.32988 11.4068 7.34121 11.3896C8.27012 9.89322 9.32363 8.14552 10.2525 6.5406C11.2721 4.79289 12.116 3.27365 13.0223 1.58306C13.0619 1.52023 13.0619 1.44027 13.0279 1.37173L12.875 1.06903C12.841 1.0062 12.7617 0.977645 12.6994 1.01191L11.6119 1.62875C11.6119 1.62875 11.2098 2.31984 11.0512 2.59399C11.0285 2.63397 10.9945 2.66252 10.9549 2.67966C10.615 2.83958 10.0033 3.11944 9.72011 3.24509C9.66347 3.26794 9.61816 3.31363 9.58418 3.36503L6.71816 8.30544L6.70117 11.3839L6.71816 11.3896Z" fill="#1E1F1E"/>
</g>
<g id="Group_5">
<path id="Vector_16" d="M0.334179 1.01853C0.266211 0.978551 0.18125 1.00711 0.152929 1.08136L0.0226562 1.36693C0.00566405 1.4012 0 1.43547 0 1.46974C0 1.51543 0.0169922 1.55541 0.0283203 1.57254C0.860936 3.12606 1.85781 4.90803 2.78105 6.51295C3.78925 8.26636 4.68984 9.75705 5.69804 11.3848C5.73769 11.4476 5.79999 11.4876 5.87362 11.4933L6.2078 11.5105C6.28144 11.5105 6.33808 11.4534 6.34374 11.3791V10.1226C6.34374 10.1226 5.94726 9.4315 5.78866 9.15735C5.76601 9.11737 5.75468 9.07739 5.76034 9.0317C5.78866 8.65474 5.85097 7.98079 5.87929 7.66666C5.88495 7.60384 5.87363 7.54101 5.83964 7.48961L2.98496 2.54349L0.334179 1.01853Z" fill="#1E1F1E"/>
</g>
</g>
</g>
<defs>
<clipPath id="clip0_12801_13676">
<rect width="88.92" height="11.52" fill="white"/>
</clipPath>
</defs>
</svg>
