<svg width="24" height="22" viewBox="0 0 24 22" fill="none" xmlns="http://www.w3.org/2000/svg">
<g clip-path="url(#clip0_12678_27880)">
<path d="M17.48 5.10734L13.4869 8.67261C13.3446 8.73478 13.1993 8.79424 13.051 8.85101C12.3002 9.12671 11.5464 9.14563 10.7986 8.86722C10.5988 8.79154 10.402 8.70775 10.2083 8.62125L6.27573 5.11004L5.60063 5.71282L9.61795 9.29971C9.64822 9.35377 9.68152 9.40512 9.7118 9.45918C10.1568 10.2782 10.172 11.0918 9.73299 11.9162C9.69061 11.9973 9.64217 12.073 9.59676 12.146L5.60063 15.7139L6.27573 16.3167L10.2476 12.7704C10.2961 12.7487 10.3415 12.7244 10.393 12.7001C10.8289 12.5109 11.2769 12.3703 11.7674 12.3487C12.3305 12.3217 12.8512 12.4676 13.3507 12.6812C13.3901 12.7001 13.4264 12.7163 13.4657 12.7352L17.477 16.3167L18.1521 15.7139L14.2135 12.1973C14.159 12.1054 14.1045 12.0081 14.053 11.9135C13.6534 11.1513 13.6201 10.3863 14.0016 9.60785C14.0621 9.48351 14.1257 9.36187 14.1953 9.24565L18.1521 5.71281L17.477 5.11004L17.48 5.10734Z" fill="white"/>
</g>
<defs>
<clipPath id="clip0_12678_27880">
<rect width="15.9255" height="15.9255" fill="white" transform="matrix(0.745938 -0.666016 0.745938 0.666016 0 10.7134)"/>
</clipPath>
</defs>
</svg>
