<svg width="18" height="21" viewBox="0 0 18 21" fill="none" xmlns="http://www.w3.org/2000/svg">
<path d="M8.37367 20.8945L17.2614 11.2792C17.3418 11.1923 17.4063 11.0849 17.4505 10.9642C17.4947 10.8434 17.5176 10.7123 17.5176 10.5796C17.5176 10.4469 17.4947 10.3158 17.4505 10.195C17.4063 10.0743 17.3418 9.96688 17.2614 9.87997L8.37367 0.267604C8.34688 0.238558 8.31396 0.219724 8.27883 0.213346C8.2437 0.206969 8.20783 0.213316 8.17551 0.231633C8.14319 0.24995 8.11578 0.279463 8.09653 0.316658C8.07729 0.353853 8.06702 0.397162 8.06696 0.441426L8.06696 2.78802C8.06696 2.92129 8.11343 3.04876 8.19475 3.13857L14.0572 9.48018L0.97306 9.48017C0.870822 9.48017 0.787173 9.58447 0.787173 9.71194L0.787173 11.4502C0.787173 11.5776 0.870822 11.6819 0.97306 11.6819L14.0572 11.6819L8.19475 18.0235C8.11343 18.1104 8.06696 18.2379 8.06696 18.3741L8.06696 20.7207C8.06696 20.9177 8.25284 21.0249 8.37367 20.8945Z" fill="black"/>
</svg>
