<svg width="148" height="34" viewBox="0 0 148 34" fill="none" xmlns="http://www.w3.org/2000/svg">
<g clip-path="url(#clip0_1209_8545)">
<path d="M39.7027 19.7575L52.5411 19.6124L60.1702 12.9151L33.0818 12.7588C31.8495 12.7588 30.6172 12.9932 29.4857 13.4732L16.5577 18.9538C16.4233 19.0096 16.3001 19.0877 16.1992 19.1882L0 34.0004H22.4392L23.6939 32.9512C24.5677 32.2145 25.5984 31.6898 26.7186 31.3996L44.3294 26.8789C44.7103 26.7785 45.0688 26.5887 45.3601 26.3097L48.5305 23.2959L35.3672 23.374L30.2811 27.6268H29.7434L36.9468 20.8737C37.6974 20.1705 38.6832 19.7686 39.7139 19.7575H39.7027Z" fill="white"/>
<path d="M103.479 13.7295C103.591 13.629 103.658 13.5062 103.703 13.3946C103.77 13.2607 103.792 13.1156 103.792 12.9593C103.792 12.7026 103.703 12.4347 103.501 12.2449L96.0738 5.14577L92.7465 1.96454H92.7353L90.6852 0H54.0409L51.8228 2.21011L61.2891 11.5305H74.9453L76.144 12.8812L56.0798 30.9192C55.5533 31.3769 55.2508 32.0355 55.2508 32.7275V33.8437H81.8462L93.0714 23.3624L103.445 13.7406L103.479 13.7295Z" fill="white"/>
<path d="M148 12.97C148 12.7133 147.91 12.4454 147.708 12.2557L140.281 5.15651L136.954 1.97529H136.942L134.892 0.0107422H98.2592L96.041 2.22085L105.507 11.5413H119.164L120.362 12.8919L100.298 30.93C99.7715 31.3876 99.4691 32.0462 99.4691 32.7383V33.8545H126.064L137.29 23.3732L147.663 13.7514C147.775 13.6509 147.843 13.5281 147.888 13.4165C147.955 13.2826 147.977 13.1375 147.977 12.9812L148 12.97Z" fill="white"/>
</g>
<defs>
<clipPath id="clip0_1209_8545">
<rect width="148" height="34" fill="white"/>
</clipPath>
</defs>
</svg>
