<svg width="339" height="21" viewBox="0 0 339 21" fill="none" xmlns="http://www.w3.org/2000/svg">
<path d="M91.2855 8.61246L79.0037 20.8943H61.1588L74.3221 7.73093L73.7146 7.19487H65.4235L59.0741 1.53643L60.5989 0.0116337H82.8753L91.2498 7.46886C91.5952 7.76667 91.6071 8.30273 91.2855 8.62437V8.61246Z" fill="white"/>
<path d="M22.05 12.8533L18.6788 16.2245H19.1672L21.3115 14.5925C21.6808 14.3066 22.1334 14.1637 22.598 14.1637H30.8891L29.1022 15.9506C28.6138 16.439 27.9825 16.7725 27.2915 16.9036L16.606 18.8572C16.1891 18.9287 15.796 19.1431 15.4863 19.4409L14.021 20.9062H0L8.27919 12.627C8.6723 12.2339 9.1488 11.9122 9.67295 11.6978L17.559 8.49334C18.512 8.11214 19.5246 7.90962 20.5491 7.90962H37.3933L33.0453 12.2577H23.551C22.9911 12.2577 22.4551 12.484 22.062 12.8771L22.05 12.8533Z" fill="white"/>
<path d="M63.9463 8.61246L51.6645 20.8943H33.8196L46.9829 7.73093L46.3754 7.19487H38.0843L31.7349 1.53643L33.2597 0.0116337H55.5361L63.9106 7.46886C64.256 7.76667 64.268 8.30273 63.9463 8.62437V8.61246Z" fill="white"/>
<path d="M297.979 13.1991C297.979 12.4486 298.217 11.8649 298.765 11.3169L301.124 8.9582C301.672 8.41023 302.267 8.17198 303.006 8.17198H333.192V4.4791H298.372V3.78688e-07H333.073C333.776 3.78688e-07 334.407 0.23825 334.955 0.786226L337.35 3.1449C337.898 3.69288 338.1 4.32424 338.1 5.02708V7.8146C338.1 8.60083 337.91 9.18454 337.314 9.73252L334.92 11.9363C334.288 12.52 333.74 12.7226 333.037 12.7226H302.887V16.4869H338.1V20.8826H297.979V13.1871V13.1991Z" fill="white"/>
<path d="M106.343 0H116.945L125.272 16.0938H127.535L135.862 0H146.464V20.8111H141.282L141.521 4.71735H139.4L130.68 20.8111H122.139L113.419 4.71735H111.299L111.537 20.8111H106.355V0H106.343Z" fill="white"/>
<path d="M191.791 5.02708V20.8945H186.609V15.1646H156.828V20.8945H151.646V5.02708C151.646 4.27659 151.884 3.69288 152.432 3.1449L154.791 0.786226C155.339 0.23825 155.935 3.78688e-07 156.673 3.78688e-07H186.776C187.527 3.78688e-07 188.11 0.23825 188.658 0.786226L191.017 3.1449C191.565 3.69288 191.803 4.2885 191.803 5.02708H191.791ZM186.609 10.4473V4.70544H156.828V10.4354H186.609V10.4473Z" fill="white"/>
<path d="M200.118 20.0964L197.759 17.7377C197.211 17.1897 196.973 16.5941 196.973 15.8555V5.02708C196.973 4.27659 197.211 3.69288 197.759 3.1449L200.118 0.786226C200.666 0.23825 201.261 3.78688e-07 202 3.78688e-07H237.118V4.70544H202.155V16.1653H237.118V20.8707H202C201.249 20.8707 200.666 20.6325 200.118 20.0845V20.0964Z" fill="white"/>
<path d="M282.434 3.78688e-07V20.8826H277.252V12.794H247.494V20.8826H242.312V3.78688e-07H247.494V8.08859H277.252V3.78688e-07H282.434Z" fill="white"/>
</svg>
