<svg width="126" height="16" viewBox="0 0 126 16" fill="none" xmlns="http://www.w3.org/2000/svg">
<g id="Frame" clip-path="url(#clip0_10730_23093)">
<g id="Group">
<path id="Vector" d="M27.978 7.88532V5.23584H29.1417C29.23 5.23584 29.3023 5.30723 29.3023 5.39449V8.15503C29.3023 8.79757 29.1417 9.32112 28.8207 9.72568C28.4997 10.1302 28.0342 10.4317 27.4402 10.6221C26.8383 10.8124 26.132 10.9156 25.3053 10.9156C24.4786 10.9156 23.7804 10.8204 23.1784 10.6221C22.5765 10.4317 22.119 10.1302 21.798 9.72568C21.4769 9.32112 21.3164 8.79757 21.3164 8.15503V5.39449C21.3164 5.30723 21.3886 5.23584 21.4769 5.23584H22.6407V7.88532C22.6407 8.32954 22.737 8.69444 22.9296 8.97208C23.1223 9.24972 23.4112 9.45597 23.8045 9.58289C24.1977 9.71774 24.7034 9.7812 25.3053 9.7812C25.9073 9.7812 26.429 9.71774 26.8222 9.58289C27.2155 9.44804 27.5044 9.24972 27.6971 8.97208C27.8897 8.69444 27.986 8.32954 27.986 7.88532H27.978Z" fill="white"/>
<path id="Vector_2" d="M31.7423 9.69358H37.6494V10.6614C37.6494 10.7486 37.5771 10.82 37.4889 10.82H30.418V5.38619C30.418 5.29893 30.4902 5.22754 30.5785 5.22754H31.7423V9.68565V9.69358Z" fill="white"/>
<path id="Vector_3" d="M40.041 6.35396H36.6621V5.38619C36.6621 5.29893 36.7343 5.22754 36.8226 5.22754H44.7523V6.19531C44.7523 6.28257 44.6801 6.35396 44.5918 6.35396H41.3814V10.8121H40.0491V6.35396H40.041Z" fill="white"/>
<path id="Vector_4" d="M46.8239 10.8121H45.6602V5.38619C45.6602 5.29893 45.7324 5.22754 45.8207 5.22754H51.1981C51.5432 5.22754 51.8562 5.25927 52.1371 5.33066C52.418 5.40206 52.6508 5.50518 52.8514 5.6559C53.0441 5.80662 53.1966 5.997 53.3009 6.23498C53.4052 6.47295 53.4614 6.76646 53.4614 7.10756C53.4614 7.50419 53.3892 7.83736 53.2367 8.10706C53.0842 8.37677 52.8595 8.58302 52.5705 8.71787C52.2816 8.86066 51.9124 8.93998 51.487 8.96378H50.9814L53.3812 10.8041H51.7599C51.7599 10.8041 51.6877 10.7883 51.6636 10.7724L49.5287 9.04311H47.0005V10.6534C47.0005 10.7407 46.9283 10.8121 46.84 10.8121H46.8239ZM46.9844 6.35396V8.05947H51.0777C51.4389 8.05947 51.6957 7.99601 51.8482 7.86115C52.0087 7.7263 52.0809 7.51212 52.0809 7.21068C52.0809 6.89338 52.0007 6.67127 51.8482 6.54435C51.6877 6.41742 51.4308 6.35396 51.0777 6.35396H46.9844Z" fill="white"/>
<path id="Vector_5" d="M59.3838 5.29893C59.3517 5.25927 59.3036 5.22754 59.2554 5.22754H57.6582C57.602 5.22754 57.5539 5.25134 57.5298 5.29893L53.7656 10.8121H55.2745C55.3307 10.8121 55.3788 10.7883 55.4029 10.7407L56.1493 9.62218H60.7563L61.5027 10.7407C61.5348 10.7883 61.5829 10.8121 61.6311 10.8121H63.156L59.3918 5.29893H59.3838ZM56.7593 8.70201L58.4448 6.16358L60.1302 8.70201H56.7513H56.7593Z" fill="white"/>
<path id="Vector_6" d="M65.6442 10.7407L61.9121 5.22754H63.4451C63.5013 5.22754 63.5494 5.25134 63.5735 5.29893L66.5832 9.74117L69.585 5.29893C69.6171 5.25927 69.6652 5.22754 69.7134 5.22754H71.2223L67.4982 10.7407C67.4661 10.7803 67.4179 10.8121 67.3698 10.8121H65.7726C65.7164 10.8121 65.6683 10.7883 65.6442 10.7407Z" fill="white"/>
<path id="Vector_7" d="M73.1638 10.8121H72V5.38619C72 5.29893 72.0722 5.22754 72.1605 5.22754H73.3243V10.6534C73.3243 10.7407 73.2521 10.8121 73.1638 10.8121Z" fill="white"/>
<path id="Vector_8" d="M78.8941 10.9154C77.8507 10.9154 76.9919 10.8123 76.3257 10.606C75.6516 10.3998 75.162 10.0825 74.8409 9.65413C74.5199 9.22577 74.3594 8.67842 74.3594 8.01209C74.3594 7.34575 74.5199 6.79047 74.8409 6.37005C75.162 5.94169 75.6596 5.63232 76.3257 5.42607C76.9999 5.21982 77.8507 5.1167 78.8941 5.1167C79.9374 5.1167 80.8042 5.21982 81.4704 5.42607C82.1366 5.63232 82.6342 5.94962 82.9552 6.37005C83.2762 6.7984 83.4368 7.34575 83.4368 8.01209C83.4368 8.67842 83.2762 9.22577 82.9552 9.65413C82.6342 10.0825 82.1446 10.3998 81.4704 10.606C80.8042 10.8123 79.9455 10.9154 78.8941 10.9154ZM78.8941 9.78898C79.504 9.78898 80.0097 9.75725 80.419 9.68586C80.8283 9.61447 81.1574 9.51134 81.3982 9.36856C81.647 9.22577 81.8235 9.04332 81.9279 8.82121C82.0322 8.5991 82.0884 8.32939 82.0884 8.02002C82.0884 7.71065 82.0322 7.43301 81.9279 7.2109C81.8235 6.98879 81.647 6.80634 81.3982 6.66355C81.1494 6.52076 80.8283 6.41764 80.419 6.34625C80.0097 6.28279 79.504 6.25106 78.8941 6.25106C78.0915 6.25106 77.4494 6.31452 76.9839 6.43351C76.5184 6.55249 76.1813 6.74288 75.9806 7.00465C75.78 7.26643 75.6837 7.60753 75.6837 8.02002C75.6837 8.43251 75.78 8.78155 75.9806 9.03539C76.1813 9.29717 76.5103 9.48755 76.9839 9.60654C77.4574 9.72552 78.0915 9.78898 78.8941 9.78898Z" fill="white"/>
<path id="Vector_9" d="M85.7813 9.69358H91.6884V10.6614C91.6884 10.7486 91.6162 10.82 91.5279 10.82H84.457V5.38619C84.457 5.29893 84.5293 5.22754 84.6175 5.22754H85.7813V9.68565V9.69358Z" fill="white"/>
<path id="Vector_10" d="M99.7948 10.8121H92.6918C92.6035 10.8121 92.5312 10.7407 92.5312 10.6534V5.38619C92.5312 5.29893 92.6035 5.22754 92.6918 5.22754H99.7948C99.8831 5.22754 99.9553 5.29893 99.9553 5.38619V6.26671H93.8555V7.3852C93.8555 7.47246 93.9278 7.54385 94.0161 7.54385H99.7867V8.40057H94.0161C93.9278 8.40057 93.8555 8.47196 93.8555 8.55922V9.7729H99.9553V10.6534C99.9553 10.7407 99.8831 10.8121 99.7948 10.8121Z" fill="white"/>
<path id="Vector_11" d="M104.152 6.35396H100.773V5.38619C100.773 5.29893 100.846 5.22754 100.934 5.22754H108.864V6.19531C108.864 6.28257 108.791 6.35396 108.703 6.35396H105.493V10.8121H104.16V6.35396H104.152Z" fill="white"/>
<path id="Vector_12" d="M112.965 6.35396H109.586V5.38619C109.586 5.29893 109.658 5.22754 109.746 5.22754H117.676V6.19531C117.676 6.28257 117.604 6.35396 117.516 6.35396H114.305V10.8121H112.973V6.35396H112.965Z" fill="white"/>
<path id="Vector_13" d="M125.84 10.8121H118.737C118.648 10.8121 118.576 10.7407 118.576 10.6534V5.38619C118.576 5.29893 118.648 5.22754 118.737 5.22754H125.84C125.928 5.22754 126 5.29893 126 5.38619V6.26671H119.9V7.3852C119.9 7.47246 119.973 7.54385 120.061 7.54385H125.832V8.40057H120.061C119.973 8.40057 119.9 8.47196 119.9 8.55922V9.7729H126V10.6534C126 10.7407 125.928 10.8121 125.84 10.8121Z" fill="white"/>
</g>
<g id="Group_2">
<g id="Group_3">
<path id="Vector_14" d="M5.65067 2.94282C5.2895 2.68898 4.51901 2.14163 4.07758 1.8402C4.02942 1.80847 3.96521 1.78467 3.90101 1.78467C3.45958 1.78467 2.33594 1.78467 2.33594 1.78467C3.17064 2.27649 4.13376 2.8635 4.69558 3.2046L5.64265 2.93489L5.65067 2.94282Z" fill="#64CAE0"/>
<path id="Vector_15" d="M17.6733 0.872583C17.7696 0.817055 17.7937 0.698066 17.7295 0.610808L17.4807 0.253842C17.4486 0.214179 17.4165 0.182449 17.3683 0.158651C17.3041 0.126921 17.2559 0.126921 17.2238 0.126921C14.7438 0.0475954 11.8705 0 9.26206 0C6.41284 0 3.96491 0.0396629 1.26818 0.126921C1.16384 0.126921 1.06753 0.182449 1.01134 0.269707L0.754513 0.666336C0.698331 0.753594 0.730435 0.86465 0.81872 0.920178L2.34366 1.80069C2.34366 1.80069 3.4673 1.80069 3.90873 1.80069C3.97293 1.80069 4.02912 1.81656 4.0853 1.85622C4.52673 2.15766 5.29722 2.69707 5.65839 2.95885C5.73063 3.00645 5.81089 3.03818 5.89917 3.03818H13.9412L17.6894 0.896381L17.6733 0.872583Z" fill="white"/>
<path id="Vector_16" d="M5.89097 3.01438C5.80269 3.01438 5.72243 2.99059 5.65019 2.93506L4.70312 3.20477C4.83154 3.28409 4.98403 3.32375 5.13653 3.32375H13.2829C13.3632 3.32375 13.4434 3.29996 13.5237 3.25236C13.5237 3.25236 13.5237 3.25236 13.5317 3.25236L13.933 3.02232H5.89097V3.01438Z" fill="#36B5CD"/>
</g>
<g id="Group_4">
<path id="Vector_17" d="M13.7871 4.51396C14.1884 4.33944 15.0632 3.95075 15.5368 3.72864C15.593 3.70484 15.6411 3.65724 15.6732 3.60965C15.8979 3.22888 16.4678 2.26904 16.4678 2.26904C15.617 2.72913 14.6138 3.26061 14.0359 3.56999L13.7951 4.51396H13.7871Z" fill="#64CAE0"/>
<path id="Vector_18" d="M9.51822 15.8176C9.51822 15.9208 9.61453 16.008 9.71887 16.0001L10.1603 15.9684C10.2085 15.9684 10.2566 15.9446 10.2967 15.9208C10.3529 15.8811 10.385 15.8414 10.4011 15.8176C11.7173 13.7393 13.2102 11.3119 14.5264 9.08288C15.9711 6.65551 17.167 4.54545 18.4511 2.19741C18.5073 2.11015 18.5073 1.99909 18.4592 1.9039L18.2425 1.48348C18.1943 1.39622 18.0819 1.35655 17.9937 1.40415L16.4527 2.26087C16.4527 2.26087 15.8828 3.22071 15.6581 3.60147C15.626 3.657 15.5778 3.69666 15.5217 3.72046C15.0401 3.94257 14.1733 4.33127 13.772 4.50579C13.6917 4.53752 13.6275 4.60098 13.5794 4.67237L9.51822 11.534L9.49414 15.8097L9.51822 15.8176Z" fill="white"/>
<path id="Vector_19" d="M13.5959 4.68038C13.636 4.60899 13.7083 4.54553 13.7885 4.5138L14.0293 3.56982C13.8929 3.64122 13.7805 3.75227 13.7002 3.87919L9.59092 10.8281C9.55079 10.8995 9.52671 10.9788 9.53474 11.0661C9.53474 11.0661 9.53474 11.0661 9.53474 11.074V11.5341L13.5959 4.67245V4.68038Z" fill="#36B5CD"/>
</g>
<g id="Group_5">
<path id="Vector_20" d="M8.33066 10.6455C8.29053 11.0818 8.20224 12.0178 8.16211 12.5414C8.16211 12.6049 8.17014 12.6604 8.20224 12.7159C8.42697 13.0967 8.98879 14.0565 8.98879 14.0565C8.99681 13.0967 9.02892 11.9782 9.03694 11.3277L8.32263 10.6534L8.33066 10.6455Z" fill="#64CAE0"/>
<path id="Vector_21" d="M0.473533 1.41186C0.377221 1.35634 0.256832 1.396 0.216702 1.49912L0.032104 1.89575C0.00802599 1.94335 0 1.99094 0 2.03854C0 2.102 0.024078 2.15753 0.0401299 2.18132C1.21995 4.33898 2.63252 6.81394 3.94076 9.043C5.36939 11.4783 6.64552 13.5487 8.07415 15.8095C8.13033 15.8967 8.21861 15.9523 8.32295 15.9602L8.79648 15.984C8.90082 15.984 8.98108 15.9047 8.98911 15.8016V14.0564C8.98911 14.0564 8.42729 13.0965 8.20256 12.7158C8.17046 12.6603 8.1544 12.6047 8.16243 12.5413C8.20256 12.0177 8.29085 11.0817 8.33098 10.6454C8.339 10.5581 8.32295 10.4709 8.27479 10.3995L4.2297 3.52986L0.473533 1.41186Z" fill="white"/>
<path id="Vector_22" d="M8.27557 10.3993C8.3157 10.4707 8.33978 10.5579 8.33175 10.6452L9.04606 11.3195C9.04606 11.1687 9.00593 11.018 8.9337 10.8832L4.82439 3.92629C4.78426 3.8549 4.72005 3.79937 4.63979 3.75971C4.63979 3.75971 4.63979 3.75971 4.63177 3.75971L4.23047 3.5376L8.27557 10.4072V10.3993Z" fill="#36B5CD"/>
</g>
</g>
</g>
<defs>
<clipPath id="clip0_10730_23093">
<rect width="126" height="16" fill="white"/>
</clipPath>
</defs>
</svg>
