<svg width="33" height="32" viewBox="0 0 33 32" fill="none" xmlns="http://www.w3.org/2000/svg">
<g id="Group 626956">
<circle id="Ellipse 25" cx="16.0938" cy="16" r="15.5" stroke="#B1A4A4"/>
<path id="Vector" d="M25.9426 15.3811L24.6447 13.1513L24.5081 12.8114C24.43 12.4214 24.2153 11.5115 23.9811 10.4716C23.6688 9.09174 21.3951 7.36192 20.6534 7.00196C20.318 6.84945 19.9921 6.6758 19.6776 6.48201C19.5121 6.36463 19.3268 6.27986 19.1311 6.23204C18.3484 6.06322 17.5496 5.98607 16.75 6.00206H16.4475C15.6576 5.98833 14.8687 6.06547 14.0957 6.23204C13.9015 6.27554 13.7186 6.36074 13.5589 6.48201C13.2428 6.67287 12.9171 6.84643 12.5831 7.00196C11.8609 7.36192 9.54816 9.09174 9.23589 10.4716C9.00168 11.4715 8.78699 12.4114 8.70892 12.8014L8.5723 13.1513L7.23538 15.3811C7.12525 15.567 7.07729 15.7847 7.09876 16.001C7.20312 17.2368 7.43872 18.4572 7.80137 19.6407C8.26721 20.5341 8.93677 21.2991 9.75309 21.8704C9.87254 21.9577 10.0163 22.0033 10.163 22.0004H11.1778C11.2928 22.002 11.406 22.0293 11.5096 22.0804C11.6135 22.1309 11.7039 22.2063 11.7731 22.3004L14.4958 25.4201C14.6534 25.6019 14.8461 25.7483 15.0618 25.85C15.2764 25.9494 15.5093 26.0006 15.7449 26H17.4233C17.6589 26.0006 17.8918 25.9494 18.1064 25.85C18.3221 25.7483 18.5148 25.6019 18.6724 25.4201L21.3853 22.3004C21.455 22.2089 21.5437 22.1345 21.645 22.0826C21.7463 22.0307 21.8576 22.0026 21.9708 22.0004H23.054C23.2007 22.0033 23.3444 21.9577 23.4639 21.8704C24.2624 21.293 24.9148 20.5285 25.3668 19.6407C25.7331 18.4743 25.9752 17.2707 26.0889 16.051C26.1105 15.8175 26.0592 15.5829 25.9426 15.3811ZM24.2543 16.071L23.4736 18.7507C23.4254 18.9212 23.3131 19.065 23.1614 19.1507L20.8291 20.5106C20.7229 20.5758 20.6015 20.6102 20.4778 20.6102C20.354 20.6102 20.2326 20.5758 20.1265 20.5106L18.3992 19.2507C18.2878 19.1798 18.1595 19.1417 18.0284 19.1407H15.1984C15.0624 19.1392 14.9294 19.1811 14.8178 19.2607L13.0125 20.4906C12.9063 20.5558 12.7849 20.5902 12.6611 20.5902C12.5374 20.5902 12.416 20.5558 12.3098 20.4906L9.97754 19.1507C9.8285 19.0618 9.71716 18.9192 9.66526 18.7507L8.88458 16.071C8.85041 15.9536 8.85041 15.8285 8.88458 15.7111C8.91339 15.5899 8.97415 15.4792 9.06023 15.3911L10.0361 14.3912C10.1354 14.2849 10.1973 14.1477 10.2117 14.0012L10.485 12.3614C10.5295 12.2192 10.6145 12.0939 10.7289 12.0014L11.3828 11.3615C11.3828 11.3615 11.4413 11.3615 11.4511 11.4415L11.5779 13.5013C11.5873 13.6309 11.6312 13.7554 11.7048 13.8612C11.7819 13.9619 11.8826 14.0411 11.9976 14.0912L15.3057 15.5611C15.4165 15.61 15.5364 15.6339 15.657 15.6311H17.5014C17.6188 15.6331 17.7353 15.6092 17.843 15.5611L21.2292 14.1312C21.3441 14.081 21.4448 14.0019 21.5219 13.9012C21.5909 13.7975 21.6313 13.6766 21.639 13.5513L21.7757 11.4915C21.7757 11.3915 21.7757 11.3915 21.844 11.4115L22.4978 12.0514C22.6018 12.1527 22.6704 12.2862 22.693 12.4314L22.9662 14.0612C22.9875 14.2018 23.0525 14.3316 23.1516 14.4312L24.1275 15.4311C24.2027 15.5151 24.2534 15.619 24.2739 15.7311C24.297 15.8441 24.2902 15.9615 24.2543 16.071Z" fill="#2D2626"/>
</g>
</svg>
