<svg width="126" height="16" viewBox="0 0 126 16" fill="none" xmlns="http://www.w3.org/2000/svg">
<g clip-path="url(#clip0_10730_23946)">
<path d="M27.978 7.8852V5.23572H29.1417C29.23 5.23572 29.3023 5.30711 29.3023 5.39437V8.1549C29.3023 8.79744 29.1417 9.32099 28.8207 9.72555C28.4997 10.1301 28.0342 10.4316 27.4402 10.6219C26.8383 10.8123 26.132 10.9154 25.3053 10.9154C24.4786 10.9154 23.7804 10.8203 23.1784 10.6219C22.5765 10.4316 22.119 10.1301 21.798 9.72555C21.4769 9.32099 21.3164 8.79744 21.3164 8.1549V5.39437C21.3164 5.30711 21.3886 5.23572 21.4769 5.23572H22.6407V7.8852C22.6407 8.32942 22.737 8.69432 22.9296 8.97196C23.1223 9.2496 23.4112 9.45585 23.8045 9.58277C24.1977 9.71762 24.7034 9.78108 25.3053 9.78108C25.9073 9.78108 26.429 9.71762 26.8222 9.58277C27.2155 9.44791 27.5044 9.2496 27.6971 8.97196C27.8897 8.69432 27.986 8.32942 27.986 7.8852H27.978Z" fill="black"/>
<path d="M31.7423 9.69382H37.6494V10.6616C37.6494 10.7489 37.5771 10.8202 37.4889 10.8202H30.418V5.38643C30.418 5.29918 30.4902 5.22778 30.5785 5.22778H31.7423V9.68589V9.69382Z" fill="black"/>
<path d="M40.041 6.35421H36.6621V5.38643C36.6621 5.29918 36.7343 5.22778 36.8226 5.22778H44.7523V6.19556C44.7523 6.28282 44.6801 6.35421 44.5918 6.35421H41.3814V10.8123H40.0491V6.35421H40.041Z" fill="black"/>
<path d="M46.8239 10.8121H45.6602V5.38619C45.6602 5.29893 45.7324 5.22754 45.8207 5.22754H51.1981C51.5432 5.22754 51.8562 5.25927 52.1371 5.33066C52.418 5.40206 52.6508 5.50518 52.8514 5.6559C53.0441 5.80662 53.1966 5.997 53.3009 6.23498C53.4052 6.47295 53.4614 6.76646 53.4614 7.10756C53.4614 7.50419 53.3892 7.83736 53.2367 8.10706C53.0842 8.37677 52.8595 8.58302 52.5705 8.71787C52.2816 8.86066 51.9124 8.93998 51.487 8.96378H50.9814L53.3812 10.8041H51.7599C51.7599 10.8041 51.6877 10.7883 51.6636 10.7724L49.5287 9.04311H47.0005V10.6534C47.0005 10.7407 46.9283 10.8121 46.84 10.8121H46.8239ZM46.9844 6.35396V8.05947H51.0777C51.4389 8.05947 51.6957 7.99601 51.8482 7.86115C52.0087 7.7263 52.0809 7.51212 52.0809 7.21068C52.0809 6.89338 52.0007 6.67127 51.8482 6.54435C51.6877 6.41742 51.4308 6.35396 51.0777 6.35396H46.9844Z" fill="black"/>
<path d="M59.3838 5.29918C59.3517 5.25951 59.3036 5.22778 59.2554 5.22778H57.6582C57.602 5.22778 57.5539 5.25158 57.5298 5.29918L53.7656 10.8123H55.2745C55.3307 10.8123 55.3788 10.7885 55.4029 10.7409L56.1493 9.62243H60.7563L61.5027 10.7409C61.5348 10.7885 61.5829 10.8123 61.6311 10.8123H63.156L59.3918 5.29918H59.3838ZM56.7593 8.70225L58.4448 6.16383L60.1302 8.70225H56.7513H56.7593Z" fill="black"/>
<path d="M65.6442 10.7407L61.9121 5.22754H63.4451C63.5013 5.22754 63.5494 5.25134 63.5735 5.29893L66.5832 9.74117L69.585 5.29893C69.6171 5.25927 69.6652 5.22754 69.7134 5.22754H71.2223L67.4982 10.7407C67.4661 10.7803 67.4179 10.8121 67.3698 10.8121H65.7726C65.7164 10.8121 65.6683 10.7883 65.6442 10.7407Z" fill="black"/>
<path d="M73.1638 10.8121H72V5.38619C72 5.29893 72.0722 5.22754 72.1605 5.22754H73.3243V10.6534C73.3243 10.7407 73.2521 10.8121 73.1638 10.8121Z" fill="black"/>
<path d="M78.8941 10.9154C77.8507 10.9154 76.9919 10.8123 76.3257 10.606C75.6516 10.3998 75.162 10.0825 74.8409 9.65413C74.5199 9.22577 74.3594 8.67842 74.3594 8.01209C74.3594 7.34575 74.5199 6.79047 74.8409 6.37005C75.162 5.94169 75.6596 5.63232 76.3257 5.42607C76.9999 5.21982 77.8507 5.1167 78.8941 5.1167C79.9374 5.1167 80.8042 5.21982 81.4704 5.42607C82.1366 5.63232 82.6342 5.94962 82.9552 6.37005C83.2762 6.7984 83.4368 7.34575 83.4368 8.01209C83.4368 8.67842 83.2762 9.22577 82.9552 9.65413C82.6342 10.0825 82.1446 10.3998 81.4704 10.606C80.8042 10.8123 79.9455 10.9154 78.8941 10.9154ZM78.8941 9.78898C79.504 9.78898 80.0097 9.75725 80.419 9.68586C80.8283 9.61447 81.1574 9.51134 81.3982 9.36856C81.647 9.22577 81.8235 9.04332 81.9279 8.82121C82.0322 8.5991 82.0884 8.32939 82.0884 8.02002C82.0884 7.71065 82.0322 7.43301 81.9279 7.2109C81.8235 6.98879 81.647 6.80634 81.3982 6.66355C81.1494 6.52076 80.8283 6.41764 80.419 6.34625C80.0097 6.28279 79.504 6.25106 78.8941 6.25106C78.0915 6.25106 77.4494 6.31452 76.9839 6.43351C76.5184 6.55249 76.1813 6.74288 75.9806 7.00465C75.78 7.26643 75.6837 7.60753 75.6837 8.02002C75.6837 8.43251 75.78 8.78155 75.9806 9.03539C76.1813 9.29717 76.5103 9.48755 76.9839 9.60654C77.4574 9.72552 78.0915 9.78898 78.8941 9.78898Z" fill="black"/>
<path d="M85.7813 9.69382H91.6884V10.6616C91.6884 10.7489 91.6162 10.8202 91.5279 10.8202H84.457V5.38643C84.457 5.29918 84.5293 5.22778 84.6175 5.22778H85.7813V9.68589V9.69382Z" fill="black"/>
<path d="M99.7948 10.8121H92.6918C92.6035 10.8121 92.5312 10.7407 92.5312 10.6534V5.38619C92.5312 5.29893 92.6035 5.22754 92.6918 5.22754H99.7948C99.8831 5.22754 99.9553 5.29893 99.9553 5.38619V6.26671H93.8555V7.3852C93.8555 7.47246 93.9278 7.54385 94.0161 7.54385H99.7867V8.40057H94.0161C93.9278 8.40057 93.8555 8.47196 93.8555 8.55922V9.7729H99.9553V10.6534C99.9553 10.7407 99.8831 10.8121 99.7948 10.8121Z" fill="black"/>
<path d="M104.152 6.35396H100.773V5.38619C100.773 5.29893 100.846 5.22754 100.934 5.22754H108.864V6.19531C108.864 6.28257 108.791 6.35396 108.703 6.35396H105.493V10.8121H104.16V6.35396H104.152Z" fill="black"/>
<path d="M112.965 6.35396H109.586V5.38619C109.586 5.29893 109.658 5.22754 109.746 5.22754H117.676V6.19531C117.676 6.28257 117.604 6.35396 117.516 6.35396H114.305V10.8121H112.973V6.35396H112.965Z" fill="black"/>
<path d="M125.84 10.8121H118.737C118.648 10.8121 118.576 10.7407 118.576 10.6534V5.38619C118.576 5.29893 118.648 5.22754 118.737 5.22754H125.84C125.928 5.22754 126 5.29893 126 5.38619V6.26671H119.9V7.3852C119.9 7.47246 119.973 7.54385 120.061 7.54385H125.832V8.40057H120.061C119.973 8.40057 119.9 8.47196 119.9 8.55922V9.7729H126V10.6534C126 10.7407 125.928 10.8121 125.84 10.8121Z" fill="black"/>
<path d="M17.6733 0.872583C17.7696 0.817055 17.7937 0.698066 17.7295 0.610808L17.4807 0.253842C17.4486 0.214179 17.4165 0.182449 17.3683 0.158651C17.3041 0.126921 17.2559 0.126921 17.2238 0.126921C14.7438 0.0475954 11.8705 0 9.26206 0C6.41284 0 3.96491 0.0396629 1.26818 0.126921C1.16384 0.126921 1.06753 0.182449 1.01134 0.269707L0.754513 0.666336C0.698331 0.753594 0.730435 0.86465 0.81872 0.920178L2.34366 1.80069C2.34366 1.80069 3.4673 1.80069 3.90873 1.80069C3.97293 1.80069 4.02912 1.81656 4.0853 1.85622C4.52673 2.15766 5.29722 2.69707 5.65839 2.95885C5.73063 3.00645 5.81089 3.03818 5.89917 3.03818H13.9412L17.6894 0.896381L17.6733 0.872583Z" fill="black"/>
<path d="M9.51822 15.8176C9.51822 15.9208 9.61453 16.008 9.71887 16.0001L10.1603 15.9684C10.2085 15.9684 10.2566 15.9446 10.2967 15.9208C10.3529 15.8811 10.385 15.8414 10.4011 15.8176C11.7173 13.7393 13.2102 11.3119 14.5264 9.08288C15.9711 6.65551 17.167 4.54545 18.4511 2.19741C18.5073 2.11015 18.5073 1.99909 18.4592 1.9039L18.2425 1.48348C18.1943 1.39622 18.0819 1.35655 17.9937 1.40415L16.4527 2.26087C16.4527 2.26087 15.8828 3.22071 15.6581 3.60147C15.626 3.657 15.5778 3.69666 15.5217 3.72046C15.0401 3.94257 14.1733 4.33127 13.772 4.50579C13.6917 4.53752 13.6275 4.60098 13.5794 4.67237L9.51822 11.534L9.49414 15.8097L9.51822 15.8176Z" fill="black"/>
<path d="M0.473533 1.41199C0.377221 1.35646 0.256832 1.39612 0.216702 1.49924L0.032104 1.89587C0.00802599 1.94347 0 1.99106 0 2.03866C0 2.10212 0.024078 2.15765 0.0401299 2.18144C1.21995 4.3391 2.63252 6.81407 3.94076 9.04312C5.36939 11.4784 6.64552 13.5488 8.07415 15.8096C8.13033 15.8969 8.21861 15.9524 8.32295 15.9603L8.79648 15.9841C8.90082 15.9841 8.98108 15.9048 8.98911 15.8017V14.0565C8.98911 14.0565 8.42729 13.0967 8.20256 12.7159C8.17046 12.6604 8.1544 12.6048 8.16243 12.5414C8.20256 12.0178 8.29085 11.0818 8.33098 10.6455C8.339 10.5582 8.32295 10.471 8.27479 10.3996L4.2297 3.52998L0.473533 1.41199Z" fill="black"/>
</g>
<defs>
<clipPath id="clip0_10730_23946">
<rect width="126" height="16" fill="white"/>
</clipPath>
</defs>
</svg>
