<svg width="39" height="49" viewBox="0 0 39 49" fill="none" xmlns="http://www.w3.org/2000/svg">
<path d="M0 0H38.4945V48.538L20.4972 40.6301L0 48.538L0 0Z" fill="#2778E1"/>
<path d="M3.65589 17H2.67152L4.46378 11.9091H5.60227L7.39702 17H6.41264L5.05291 12.9531H5.01314L3.65589 17ZM3.68821 15.0039H6.37287V15.7447H3.68821V15.0039ZM10.7522 13.3086C10.729 13.0915 10.6312 12.9225 10.4589 12.8015C10.2882 12.6805 10.0661 12.62 9.7927 12.62C9.60047 12.62 9.43558 12.649 9.29803 12.707C9.16048 12.765 9.05525 12.8437 8.98233 12.9432C8.90942 13.0426 8.87213 13.1561 8.87047 13.2837C8.87047 13.3898 8.8945 13.4818 8.94256 13.5597C8.99228 13.6375 9.05939 13.7038 9.14391 13.7585C9.22843 13.8116 9.32206 13.8563 9.4248 13.8928C9.52755 13.9292 9.63113 13.9599 9.73553 13.9847L10.2128 14.104C10.405 14.1488 10.5898 14.2093 10.7671 14.2855C10.9461 14.3617 11.106 14.4579 11.2469 14.5739C11.3894 14.6899 11.5021 14.8299 11.585 14.994C11.6678 15.158 11.7093 15.3503 11.7093 15.5707C11.7093 15.869 11.633 16.1316 11.4806 16.3587C11.3281 16.584 11.1077 16.7605 10.8193 16.8881C10.5326 17.0141 10.1855 17.0771 9.77779 17.0771C9.38172 17.0771 9.03785 17.0157 8.74618 16.8931C8.45617 16.7705 8.22914 16.5915 8.06507 16.3562C7.90267 16.1209 7.81484 15.8342 7.80158 15.4961H8.7089C8.72215 15.6734 8.77684 15.8209 8.87296 15.9386C8.96908 16.0562 9.09419 16.1441 9.24831 16.2021C9.40409 16.2601 9.5781 16.2891 9.77033 16.2891C9.97085 16.2891 10.1465 16.2592 10.2973 16.1996C10.4498 16.1383 10.5691 16.0537 10.6553 15.946C10.7414 15.8366 10.7854 15.709 10.787 15.5632C10.7854 15.4306 10.7464 15.3213 10.6702 15.2351C10.594 15.1473 10.4871 15.0743 10.3495 15.0163C10.2136 14.9567 10.0545 14.9036 9.87225 14.8572L9.29306 14.7081C8.87379 14.6004 8.54235 14.4371 8.29874 14.2184C8.05679 13.998 7.93581 13.7055 7.93581 13.3409C7.93581 13.041 8.01702 12.7783 8.17942 12.5529C8.34348 12.3275 8.56638 12.1527 8.8481 12.0284C9.12982 11.9025 9.44883 11.8395 9.80513 11.8395C10.1664 11.8395 10.4829 11.9025 10.7547 12.0284C11.0281 12.1527 11.2427 12.3259 11.3985 12.5479C11.5543 12.7683 11.6347 13.0219 11.6396 13.3086H10.7522ZM13.4537 11.9091V17H12.5314V11.9091H13.4537ZM15.1061 17H14.1217L15.914 11.9091H17.0525L18.8472 17H17.8628L16.5031 12.9531H16.4633L15.1061 17ZM15.1384 15.0039H17.8231V15.7447H15.1384V15.0039ZM3.00213 25V19.9091H4.95099C5.31889 19.9091 5.62464 19.9671 5.86825 20.0831C6.11352 20.1974 6.29664 20.354 6.41761 20.5529C6.54025 20.7518 6.60156 20.9772 6.60156 21.229C6.60156 21.4362 6.56179 21.6135 6.48224 21.761C6.4027 21.9068 6.29581 22.0253 6.16158 22.1165C6.02734 22.2076 5.87737 22.2731 5.71165 22.3129V22.3626C5.89228 22.3725 6.06546 22.428 6.23118 22.5291C6.39856 22.6286 6.53527 22.7694 6.64134 22.9517C6.7474 23.134 6.80043 23.3544 6.80043 23.6129C6.80043 23.8764 6.73662 24.1134 6.60902 24.3239C6.48142 24.5327 6.28918 24.6976 6.03232 24.8185C5.77545 24.9395 5.4523 25 5.06286 25H3.00213ZM3.92436 24.2294H4.91619C5.25095 24.2294 5.49207 24.1656 5.63956 24.038C5.78871 23.9087 5.86328 23.743 5.86328 23.5408C5.86328 23.39 5.82599 23.2541 5.75142 23.1332C5.67685 23.0105 5.57079 22.9144 5.43324 22.8448C5.29569 22.7736 5.13163 22.7379 4.94105 22.7379H3.92436V24.2294ZM3.92436 22.0742H4.83665C4.99574 22.0742 5.13909 22.0452 5.26669 21.9872C5.39429 21.9276 5.49456 21.8439 5.56747 21.7362C5.64205 21.6268 5.67933 21.4975 5.67933 21.3484C5.67933 21.1512 5.60973 20.9888 5.47053 20.8612C5.33298 20.7335 5.12831 20.6697 4.85653 20.6697H3.92436V22.0742ZM12.1517 22.4545C12.1517 23.0031 12.049 23.4729 11.8435 23.864C11.6396 24.2534 11.3612 24.5517 11.0083 24.7589C10.6569 24.966 10.2584 25.0696 9.81259 25.0696C9.3668 25.0696 8.96742 24.966 8.61444 24.7589C8.26311 24.5501 7.9847 24.2509 7.77921 23.8615C7.57537 23.4704 7.47346 23.0014 7.47346 22.4545C7.47346 21.906 7.57537 21.437 7.77921 21.0476C7.9847 20.6565 8.26311 20.3574 8.61444 20.1502C8.96742 19.9431 9.3668 19.8395 9.81259 19.8395C10.2584 19.8395 10.6569 19.9431 11.0083 20.1502C11.3612 20.3574 11.6396 20.6565 11.8435 21.0476C12.049 21.437 12.1517 21.906 12.1517 22.4545ZM11.2245 22.4545C11.2245 22.0684 11.164 21.7428 11.0431 21.4776C10.9237 21.2108 10.758 21.0095 10.5459 20.8736C10.3338 20.736 10.0893 20.6673 9.81259 20.6673C9.53584 20.6673 9.2914 20.736 9.07928 20.8736C8.86716 21.0095 8.70061 21.2108 8.57963 21.4776C8.46032 21.7428 8.40066 22.0684 8.40066 22.4545C8.40066 22.8407 8.46032 23.1671 8.57963 23.4339C8.70061 23.6991 8.86716 23.9004 9.07928 24.038C9.2914 24.1739 9.53584 24.2418 9.81259 24.2418C10.0893 24.2418 10.3338 24.1739 10.5459 24.038C10.758 23.9004 10.9237 23.6991 11.0431 23.4339C11.164 23.1671 11.2245 22.8407 11.2245 22.4545ZM17.5726 22.4545C17.5726 23.0031 17.4699 23.4729 17.2644 23.864C17.0605 24.2534 16.7821 24.5517 16.4292 24.7589C16.0778 24.966 15.6793 25.0696 15.2335 25.0696C14.7877 25.0696 14.3883 24.966 14.0353 24.7589C13.684 24.5501 13.4056 24.2509 13.2001 23.8615C12.9963 23.4704 12.8944 23.0014 12.8944 22.4545C12.8944 21.906 12.9963 21.437 13.2001 21.0476C13.4056 20.6565 13.684 20.3574 14.0353 20.1502C14.3883 19.9431 14.7877 19.8395 15.2335 19.8395C15.6793 19.8395 16.0778 19.9431 16.4292 20.1502C16.7821 20.3574 17.0605 20.6565 17.2644 21.0476C17.4699 21.437 17.5726 21.906 17.5726 22.4545ZM16.6454 22.4545C16.6454 22.0684 16.5849 21.7428 16.464 21.4776C16.3446 21.2108 16.1789 21.0095 15.9668 20.8736C15.7547 20.736 15.5102 20.6673 15.2335 20.6673C14.9567 20.6673 14.7123 20.736 14.5002 20.8736C14.2881 21.0095 14.1215 21.2108 14.0005 21.4776C13.8812 21.7428 13.8216 22.0684 13.8216 22.4545C13.8216 22.8407 13.8812 23.1671 14.0005 23.4339C14.1215 23.6991 14.2881 23.9004 14.5002 24.038C14.7123 24.1739 14.9567 24.2418 15.2335 24.2418C15.5102 24.2418 15.7547 24.1739 15.9668 24.038C16.1789 23.9004 16.3446 23.6991 16.464 23.4339C16.5849 23.1671 16.6454 22.8407 16.6454 22.4545ZM18.4445 25V19.9091H19.3667V22.2482H19.4289L21.415 19.9091H22.5411L20.5724 22.1935L22.5585 25H21.4498L19.931 22.8175L19.3667 23.4837V25H18.4445ZM29.4672 22.4545C29.4672 23.0031 29.3644 23.4729 29.1589 23.864C28.9551 24.2534 28.6767 24.5517 28.3237 24.7589C27.9724 24.966 27.5738 25.0696 27.128 25.0696C26.6822 25.0696 26.2828 24.966 25.9299 24.7589C25.5785 24.5501 25.3001 24.2509 25.0946 23.8615C24.8908 23.4704 24.7889 23.0014 24.7889 22.4545C24.7889 21.906 24.8908 21.437 25.0946 21.0476C25.3001 20.6565 25.5785 20.3574 25.9299 20.1502C26.2828 19.9431 26.6822 19.8395 27.128 19.8395C27.5738 19.8395 27.9724 19.9431 28.3237 20.1502C28.6767 20.3574 28.9551 20.6565 29.1589 21.0476C29.3644 21.437 29.4672 21.906 29.4672 22.4545ZM28.54 22.4545C28.54 22.0684 28.4795 21.7428 28.3585 21.4776C28.2392 21.2108 28.0734 21.0095 27.8613 20.8736C27.6492 20.736 27.4048 20.6673 27.128 20.6673C26.8513 20.6673 26.6068 20.736 26.3947 20.8736C26.1826 21.0095 26.016 21.2108 25.8951 21.4776C25.7757 21.7428 25.7161 22.0684 25.7161 22.4545C25.7161 22.8407 25.7757 23.1671 25.8951 23.4339C26.016 23.6991 26.1826 23.9004 26.3947 24.038C26.6068 24.1739 26.8513 24.2418 27.128 24.2418C27.4048 24.2418 27.6492 24.1739 27.8613 24.038C28.0734 23.9004 28.2392 23.6991 28.3585 23.4339C28.4795 23.1671 28.54 22.8407 28.54 22.4545ZM30.339 25V19.9091H33.6004V20.6822H31.2613V22.0643H33.3767V22.8374H31.2613V25H30.339ZM3.00213 33V27.9091H4.91122C5.30232 27.9091 5.63045 27.977 5.8956 28.1129C6.16241 28.2488 6.36375 28.4394 6.49965 28.6847C6.63719 28.9283 6.70597 29.2125 6.70597 29.5373C6.70597 29.8638 6.63636 30.1471 6.49716 30.3874C6.35961 30.6261 6.15661 30.8108 5.88814 30.9418C5.61967 31.071 5.28989 31.1357 4.89879 31.1357H3.53906V30.37H4.7745C5.0032 30.37 5.19046 30.3385 5.33629 30.2756C5.48213 30.2109 5.58984 30.1173 5.65945 29.9947C5.73071 29.8704 5.76634 29.7179 5.76634 29.5373C5.76634 29.3567 5.73071 29.2025 5.65945 29.0749C5.58819 28.9457 5.47964 28.8479 5.33381 28.7816C5.18797 28.7137 4.99988 28.6797 4.76953 28.6797H3.92436V33H3.00213ZM5.6321 30.6932L6.8924 33H5.86328L4.62536 30.6932H5.6321ZM7.55487 33V27.9091H10.8659V28.6822H8.4771V30.0643H10.6944V30.8374H8.4771V32.2269H10.8858V33H7.55487ZM16.1644 29.6268H15.2347C15.2082 29.4743 15.1593 29.3393 15.0881 29.2216C15.0168 29.1023 14.9281 29.0012 14.8221 28.9183C14.716 28.8355 14.5951 28.7733 14.4592 28.7319C14.3249 28.6888 14.1799 28.6673 14.0241 28.6673C13.7474 28.6673 13.5021 28.7369 13.2884 28.8761C13.0746 29.0136 12.9072 29.2158 12.7862 29.4826C12.6652 29.7478 12.6048 30.0717 12.6048 30.4545C12.6048 30.844 12.6652 31.1721 12.7862 31.4389C12.9089 31.7041 13.0762 31.9046 13.2884 32.0405C13.5021 32.1747 13.7466 32.2418 14.0217 32.2418C14.1741 32.2418 14.3166 32.2219 14.4492 32.1822C14.5835 32.1407 14.7036 32.0803 14.8097 32.0007C14.9174 31.9212 15.0077 31.8234 15.0806 31.7074C15.1552 31.5914 15.2066 31.4588 15.2347 31.3097L16.1644 31.3146C16.1296 31.5566 16.0542 31.7836 15.9382 31.9957C15.8239 32.2079 15.6739 32.3951 15.4883 32.5575C15.3027 32.7183 15.0856 32.8442 14.837 32.9354C14.5884 33.0249 14.3125 33.0696 14.0092 33.0696C13.5618 33.0696 13.1624 32.966 12.8111 32.7589C12.4598 32.5517 12.183 32.2526 11.9808 31.8615C11.7786 31.4704 11.6776 31.0014 11.6776 30.4545C11.6776 29.906 11.7795 29.437 11.9833 29.0476C12.1871 28.6565 12.4647 28.3574 12.8161 28.1502C13.1674 27.9431 13.5651 27.8395 14.0092 27.8395C14.2926 27.8395 14.5561 27.8793 14.7997 27.9588C15.0433 28.0384 15.2604 28.1552 15.451 28.3093C15.6416 28.4618 15.7982 28.649 15.9208 28.8711C16.0451 29.0915 16.1263 29.3434 16.1644 29.6268ZM21.558 30.4545C21.558 31.0031 21.4552 31.4729 21.2497 31.864C21.0459 32.2534 20.7675 32.5517 20.4145 32.7589C20.0632 32.966 19.6646 33.0696 19.2188 33.0696C18.7731 33.0696 18.3737 32.966 18.0207 32.7589C17.6694 32.5501 17.391 32.2509 17.1855 31.8615C16.9816 31.4704 16.8797 31.0014 16.8797 30.4545C16.8797 29.906 16.9816 29.437 17.1855 29.0476C17.391 28.6565 17.6694 28.3574 18.0207 28.1502C18.3737 27.9431 18.7731 27.8395 19.2188 27.8395C19.6646 27.8395 20.0632 27.9431 20.4145 28.1502C20.7675 28.3574 21.0459 28.6565 21.2497 29.0476C21.4552 29.437 21.558 29.906 21.558 30.4545ZM20.6308 30.4545C20.6308 30.0684 20.5703 29.7428 20.4493 29.4776C20.33 29.2108 20.1643 29.0095 19.9521 28.8736C19.74 28.736 19.4956 28.6673 19.2188 28.6673C18.9421 28.6673 18.6977 28.736 18.4855 28.8736C18.2734 29.0095 18.1069 29.2108 17.9859 29.4776C17.8666 29.7428 17.8069 30.0684 17.8069 30.4545C17.8069 30.8407 17.8666 31.1671 17.9859 31.4339C18.1069 31.6991 18.2734 31.9004 18.4855 32.038C18.6977 32.1739 18.9421 32.2418 19.2188 32.2418C19.4956 32.2418 19.74 32.1739 19.9521 32.038C20.1643 31.9004 20.33 31.6991 20.4493 31.4339C20.5703 31.1671 20.6308 30.8407 20.6308 30.4545ZM22.4299 33V27.9091H24.339C24.7301 27.9091 25.0582 27.977 25.3233 28.1129C25.5901 28.2488 25.7915 28.4394 25.9274 28.6847C26.0649 28.9283 26.1337 29.2125 26.1337 29.5373C26.1337 29.8638 26.0641 30.1471 25.9249 30.3874C25.7873 30.6261 25.5843 30.8108 25.3159 30.9418C25.0474 31.071 24.7176 31.1357 24.3265 31.1357H22.9668V30.37H24.2022C24.4309 30.37 24.6182 30.3385 24.764 30.2756C24.9099 30.2109 25.0176 30.1173 25.0872 29.9947C25.1584 29.8704 25.1941 29.7179 25.1941 29.5373C25.1941 29.3567 25.1584 29.2025 25.0872 29.0749C25.0159 28.9457 24.9074 28.8479 24.7615 28.7816C24.6157 28.7137 24.4276 28.6797 24.1973 28.6797H23.3521V33H22.4299ZM25.0598 30.6932L26.3201 33H25.291L24.0531 30.6932H25.0598ZM28.7077 33H26.9826V27.9091H28.7425C29.248 27.9091 29.6822 28.011 30.0451 28.2148C30.4097 28.417 30.6897 28.7079 30.8853 29.0874C31.0808 29.4669 31.1786 29.9209 31.1786 30.4496C31.1786 30.9799 31.08 31.4356 30.8828 31.8168C30.6873 32.1979 30.4047 32.4904 30.0352 32.6942C29.6673 32.8981 29.2248 33 28.7077 33ZM27.9048 32.2021H28.663C29.0176 32.2021 29.3134 32.1374 29.5504 32.0082C29.7874 31.8772 29.9656 31.6825 30.0849 31.424C30.2042 31.1638 30.2638 30.839 30.2638 30.4496C30.2638 30.0601 30.2042 29.737 30.0849 29.4801C29.9656 29.2216 29.7891 29.0285 29.5554 28.9009C29.3234 28.7717 29.035 28.707 28.6903 28.707H27.9048V32.2021ZM34.8216 29.3086C34.7984 29.0915 34.7006 28.9225 34.5282 28.8015C34.3575 28.6805 34.1355 28.62 33.862 28.62C33.6698 28.62 33.5049 28.649 33.3674 28.707C33.2298 28.765 33.1246 28.8437 33.0517 28.9432C32.9788 29.0426 32.9415 29.1561 32.9398 29.2837C32.9398 29.3898 32.9638 29.4818 33.0119 29.5597C33.0616 29.6375 33.1287 29.7038 33.2132 29.7585C33.2978 29.8116 33.3914 29.8563 33.4941 29.8928C33.5969 29.9292 33.7005 29.9599 33.8049 29.9847L34.2821 30.104C34.4744 30.1488 34.6592 30.2093 34.8365 30.2855C35.0154 30.3617 35.1754 30.4579 35.3162 30.5739C35.4587 30.6899 35.5714 30.8299 35.6543 30.994C35.7372 31.158 35.7786 31.3503 35.7786 31.5707C35.7786 31.869 35.7024 32.1316 35.5499 32.3587C35.3974 32.584 35.177 32.7605 34.8887 32.8881C34.602 33.0141 34.2548 33.0771 33.8471 33.0771C33.4511 33.0771 33.1072 33.0157 32.8155 32.8931C32.5255 32.7705 32.2985 32.5915 32.1344 32.3562C31.972 32.1209 31.8842 31.8342 31.8709 31.4961H32.7782C32.7915 31.6734 32.8462 31.8209 32.9423 31.9386C33.0384 32.0562 33.1635 32.1441 33.3176 32.2021C33.4734 32.2601 33.6474 32.2891 33.8397 32.2891C34.0402 32.2891 34.2159 32.2592 34.3667 32.1996C34.5191 32.1383 34.6384 32.0537 34.7246 31.946C34.8108 31.8366 34.8547 31.709 34.8564 31.5632C34.8547 31.4306 34.8158 31.3213 34.7395 31.2351C34.6633 31.1473 34.5564 31.0743 34.4189 31.0163C34.283 30.9567 34.1239 30.9036 33.9416 30.8572L33.3624 30.7081C32.9431 30.6004 32.6117 30.4371 32.3681 30.2184C32.1261 29.998 32.0051 29.7055 32.0051 29.3409C32.0051 29.041 32.0864 28.7783 32.2488 28.5529C32.4128 28.3275 32.6357 28.1527 32.9174 28.0284C33.1992 27.9025 33.5182 27.8395 33.8745 27.8395C34.2357 27.8395 34.5523 27.9025 34.824 28.0284C35.0975 28.1527 35.3121 28.3259 35.4679 28.5479C35.6236 28.7683 35.704 29.0219 35.709 29.3086H34.8216Z" fill="white"/>
<path d="M34.6914 4.78858C34.9588 4.78858 35.1755 4.57182 35.1755 4.30444C35.1755 4.03707 34.9588 3.82031 34.6914 3.82031C34.424 3.82031 34.2073 4.03707 34.2073 4.30444C34.2073 4.57182 34.424 4.78858 34.6914 4.78858Z" fill="white"/>
<path d="M33.6804 5.80029C33.9478 5.80029 34.1646 5.58354 34.1646 5.31616C34.1646 5.04878 33.9478 4.83203 33.6804 4.83203C33.413 4.83203 33.1963 5.04878 33.1963 5.31616C33.1963 5.58354 33.413 5.80029 33.6804 5.80029Z" fill="white"/>
<path d="M32.6663 6.81201C32.9336 6.81201 33.1504 6.59526 33.1504 6.32788C33.1504 6.0605 32.9336 5.84375 32.6663 5.84375C32.3989 5.84375 32.1821 6.0605 32.1821 6.32788C32.1821 6.59526 32.3989 6.81201 32.6663 6.81201Z" fill="white"/>
<path d="M32.6663 4.78858C32.9336 4.78858 33.1504 4.57182 33.1504 4.30444C33.1504 4.03707 32.9336 3.82031 32.6663 3.82031C32.3989 3.82031 32.1821 4.03707 32.1821 4.30444C32.1821 4.57182 32.3989 4.78858 32.6663 4.78858Z" fill="white"/>
<path d="M31.6555 5.80029C31.9229 5.80029 32.1397 5.58354 32.1397 5.31616C32.1397 5.04878 31.9229 4.83203 31.6555 4.83203C31.3881 4.83203 31.1714 5.04878 31.1714 5.31616C31.1714 5.58354 31.3881 5.80029 31.6555 5.80029Z" fill="white"/>
<path d="M30.6416 6.81201C30.909 6.81201 31.1257 6.59526 31.1257 6.32788C31.1257 6.0605 30.909 5.84375 30.6416 5.84375C30.3742 5.84375 30.1575 6.0605 30.1575 6.32788C30.1575 6.59526 30.3742 6.81201 30.6416 6.81201Z" fill="white"/>
<path d="M30.6416 4.78858C30.909 4.78858 31.1257 4.57182 31.1257 4.30444C31.1257 4.03707 30.909 3.82031 30.6416 3.82031C30.3742 3.82031 30.1575 4.03707 30.1575 4.30444C30.1575 4.57182 30.3742 4.78858 30.6416 4.78858Z" fill="white"/>
<path d="M29.6306 5.80029C29.898 5.80029 30.1147 5.58354 30.1147 5.31616C30.1147 5.04878 29.898 4.83203 29.6306 4.83203C29.3632 4.83203 29.1465 5.04878 29.1465 5.31616C29.1465 5.58354 29.3632 5.80029 29.6306 5.80029Z" fill="white"/>
<path d="M28.6167 6.81201C28.8841 6.81201 29.1008 6.59526 29.1008 6.32788C29.1008 6.0605 28.8841 5.84375 28.6167 5.84375C28.3493 5.84375 28.1326 6.0605 28.1326 6.32788C28.1326 6.59526 28.3493 6.81201 28.6167 6.81201Z" fill="white"/>
<path d="M34.6914 6.81201C34.9588 6.81201 35.1755 6.59526 35.1755 6.32788C35.1755 6.0605 34.9588 5.84375 34.6914 5.84375C34.424 5.84375 34.2073 6.0605 34.2073 6.32788C34.2073 6.59526 34.424 6.81201 34.6914 6.81201Z" fill="white"/>
<path d="M33.6804 7.82373C33.9478 7.82373 34.1646 7.60698 34.1646 7.3396C34.1646 7.07222 33.9478 6.85547 33.6804 6.85547C33.413 6.85547 33.1963 7.07222 33.1963 7.3396C33.1963 7.60698 33.413 7.82373 33.6804 7.82373Z" fill="white"/>
<path d="M32.6663 8.83936C32.9336 8.83936 33.1504 8.6226 33.1504 8.35523C33.1504 8.08785 32.9336 7.87109 32.6663 7.87109C32.3989 7.87109 32.1821 8.08785 32.1821 8.35523C32.1821 8.6226 32.3989 8.83936 32.6663 8.83936Z" fill="white"/>
<path d="M34.6914 8.83936C34.9588 8.83936 35.1755 8.6226 35.1755 8.35523C35.1755 8.08785 34.9588 7.87109 34.6914 7.87109C34.424 7.87109 34.2073 8.08785 34.2073 8.35523C34.2073 8.6226 34.424 8.83936 34.6914 8.83936Z" fill="white"/>
<path d="M33.6804 9.85107C33.9478 9.85107 34.1646 9.63432 34.1646 9.36694C34.1646 9.09956 33.9478 8.88281 33.6804 8.88281C33.413 8.88281 33.1963 9.09956 33.1963 9.36694C33.1963 9.63432 33.413 9.85107 33.6804 9.85107Z" fill="white"/>
<path d="M32.6663 10.8628C32.9336 10.8628 33.1504 10.646 33.1504 10.3787C33.1504 10.1113 32.9336 9.89453 32.6663 9.89453C32.3989 9.89453 32.1821 10.1113 32.1821 10.3787C32.1821 10.646 32.3989 10.8628 32.6663 10.8628Z" fill="white"/>
</svg>
