<svg width="608" height="620" viewBox="0 0 608 620" fill="none" xmlns="http://www.w3.org/2000/svg">
<path d="M607.244 56.1593L607.235 56.1688V56.4601V553.18C607.235 554.777 606.654 556.292 605.638 557.415C605.637 557.415 605.637 557.416 605.637 557.416L550.455 617.539C549.445 618.64 548.071 619.25 546.658 619.25H6.14305C3.22168 619.25 0.75 616.653 0.75 613.307V6.69322C0.75 3.34669 3.22168 0.75 6.14305 0.75H294.058C301.553 0.75 308.748 3.98483 314.066 9.77837L342.709 40.9867C348.296 47.0745 355.885 50.5008 363.821 50.5008H601.857C604.695 50.5008 607.109 52.9514 607.244 56.1593Z" fill="#1E1E1E"/>
<path d="M607.244 56.1593L607.235 56.1688V56.4601V553.18C607.235 554.777 606.654 556.292 605.638 557.415C605.637 557.415 605.637 557.416 605.637 557.416L550.455 617.539C549.445 618.64 548.071 619.25 546.658 619.25H6.14305C3.22168 619.25 0.75 616.653 0.75 613.307V6.69322C0.75 3.34669 3.22168 0.75 6.14305 0.75H294.058C301.553 0.75 308.748 3.98483 314.066 9.77837L342.709 40.9867C348.296 47.0745 355.885 50.5008 363.821 50.5008H601.857C604.695 50.5008 607.109 52.9514 607.244 56.1593Z" stroke="url(#paint0_linear_1370_9236)" stroke-width="1.5"/>
<path d="M607.244 56.1593L607.235 56.1688V56.4601V553.18C607.235 554.777 606.654 556.292 605.638 557.415C605.637 557.415 605.637 557.416 605.637 557.416L550.455 617.539C549.445 618.64 548.071 619.25 546.658 619.25H6.14305C3.22168 619.25 0.75 616.653 0.75 613.307V6.69322C0.75 3.34669 3.22168 0.75 6.14305 0.75H294.058C301.553 0.75 308.748 3.98483 314.066 9.77837L342.709 40.9867C348.296 47.0745 355.885 50.5008 363.821 50.5008H601.857C604.695 50.5008 607.109 52.9514 607.244 56.1593Z" stroke="url(#paint1_linear_1370_9236)" stroke-opacity="0.35" stroke-width="1.5"/>
<defs>
<linearGradient id="paint0_linear_1370_9236" x1="102" y1="-67.9824" x2="194.14" y2="328.585" gradientUnits="userSpaceOnUse">
<stop stop-color="white"/>
<stop offset="1" stop-opacity="0"/>
</linearGradient>
<linearGradient id="paint1_linear_1370_9236" x1="442.5" y1="714.631" x2="201.473" y2="264.626" gradientUnits="userSpaceOnUse">
<stop stop-color="white"/>
<stop offset="1" stop-color="#F0DDDD" stop-opacity="0"/>
</linearGradient>
</defs>
</svg>
