<svg width="608" height="510" viewBox="0 0 608 510" fill="none" xmlns="http://www.w3.org/2000/svg">
<path d="M607.238 46.1068L607.235 46.1087V46.443V455.035C607.235 456.268 606.691 457.467 605.691 458.376C605.69 458.377 605.689 458.378 605.688 458.379L550.507 507.835C549.508 508.73 548.117 509.25 546.658 509.25H6.14305C3.08305 509.25 0.75 507.048 0.75 504.494V5.50572C0.75 2.95244 3.08305 0.75 6.14305 0.75H294.058C301.6 0.75 308.811 3.42872 314.117 8.18485L342.761 33.8562C348.359 38.8734 355.932 41.6741 363.821 41.6741H601.857C604.787 41.6741 607.051 43.6936 607.238 46.1068Z" fill="#1E1E1E"/>
<path d="M607.238 46.1068L607.235 46.1087V46.443V455.035C607.235 456.268 606.691 457.467 605.691 458.376C605.69 458.377 605.689 458.378 605.688 458.379L550.507 507.835C549.508 508.73 548.117 509.25 546.658 509.25H6.14305C3.08305 509.25 0.75 507.048 0.75 504.494V5.50572C0.75 2.95244 3.08305 0.75 6.14305 0.75H294.058C301.6 0.75 308.811 3.42872 314.117 8.18485L342.761 33.8562C348.359 38.8734 355.932 41.6741 363.821 41.6741H601.857C604.787 41.6741 607.051 43.6936 607.238 46.1068Z" stroke="url(#paint0_linear_1432_9578)" stroke-width="1.5"/>
<path d="M607.238 46.1068L607.235 46.1087V46.443V455.035C607.235 456.268 606.691 457.467 605.691 458.376C605.69 458.377 605.689 458.378 605.688 458.379L550.507 507.835C549.508 508.73 548.117 509.25 546.658 509.25H6.14305C3.08305 509.25 0.75 507.048 0.75 504.494V5.50572C0.75 2.95244 3.08305 0.75 6.14305 0.75H294.058C301.6 0.75 308.811 3.42872 314.117 8.18485L342.761 33.8562C348.359 38.8734 355.932 41.6741 363.821 41.6741H601.857C604.787 41.6741 607.051 43.6936 607.238 46.1068Z" stroke="url(#paint1_linear_1432_9578)" stroke-opacity="0.35" stroke-width="1.5"/>
<defs>
<linearGradient id="paint0_linear_1432_9578" x1="102" y1="-55.921" x2="165.395" y2="275.781" gradientUnits="userSpaceOnUse">
<stop stop-color="white"/>
<stop offset="1" stop-opacity="0"/>
</linearGradient>
<linearGradient id="paint1_linear_1432_9578" x1="442.5" y1="587.842" x2="266.742" y2="188.92" gradientUnits="userSpaceOnUse">
<stop stop-color="white"/>
<stop offset="1" stop-color="#F0DDDD" stop-opacity="0"/>
</linearGradient>
</defs>
</svg>
