<svg width="42" height="42" viewBox="0 0 42 42" fill="none" xmlns="http://www.w3.org/2000/svg">
<path d="M38.2616 5.64863C39.8214 5.64863 41.086 4.38414 41.086 2.82431C41.086 1.26449 39.8214 0 38.2616 0C36.7017 0 35.4373 1.26449 35.4373 2.82431C35.4373 4.38414 36.7017 5.64863 38.2616 5.64863Z" fill="#ED3248"/>
<path d="M32.3644 11.5461C33.9242 11.5461 35.1887 10.2816 35.1887 8.72177C35.1887 7.16195 33.9242 5.89746 32.3644 5.89746C30.8045 5.89746 29.54 7.16195 29.54 8.72177C29.54 10.2816 30.8045 11.5461 32.3644 11.5461Z" fill="#ED3248"/>
<path d="M26.4491 17.4611C28.0089 17.4611 29.2734 16.1966 29.2734 14.6368C29.2734 13.077 28.0089 11.8125 26.4491 11.8125C24.8892 11.8125 23.6248 13.077 23.6248 14.6368C23.6248 16.1966 24.8892 17.4611 26.4491 17.4611Z" fill="#ED3248"/>
<path d="M26.4491 5.64863C28.0089 5.64863 29.2734 4.38414 29.2734 2.82431C29.2734 1.26449 28.0089 0 26.4491 0C24.8892 0 23.6248 1.26449 23.6248 2.82431C23.6248 4.38414 24.8892 5.64863 26.4491 5.64863Z" fill="#ED3248"/>
<path d="M20.5519 11.5461C22.1117 11.5461 23.3762 10.2816 23.3762 8.72177C23.3762 7.16195 22.1117 5.89746 20.5519 5.89746C18.992 5.89746 17.7275 7.16195 17.7275 8.72177C17.7275 10.2816 18.992 11.5461 20.5519 11.5461Z" fill="#ED3248"/>
<path d="M14.6368 17.4611C16.1967 17.4611 17.4611 16.1966 17.4611 14.6368C17.4611 13.077 16.1967 11.8125 14.6368 11.8125C13.077 11.8125 11.8125 13.077 11.8125 14.6368C11.8125 16.1966 13.077 17.4611 14.6368 17.4611Z" fill="#ED3248"/>
<path d="M14.6368 5.64863C16.1967 5.64863 17.4611 4.38414 17.4611 2.82431C17.4611 1.26449 16.1967 0 14.6368 0C13.077 0 11.8125 1.26449 11.8125 2.82431C11.8125 4.38414 13.077 5.64863 14.6368 5.64863Z" fill="#ED3248"/>
<path d="M8.73936 11.5461C10.2992 11.5461 11.5637 10.2816 11.5637 8.72177C11.5637 7.16195 10.2992 5.89746 8.73936 5.89746C7.17953 5.89746 5.91504 7.16195 5.91504 8.72177C5.91504 10.2816 7.17953 11.5461 8.73936 11.5461Z" fill="#ED3248"/>
<path d="M2.82432 17.4611C4.38415 17.4611 5.64864 16.1966 5.64864 14.6368C5.64864 13.077 4.38415 11.8125 2.82432 11.8125C1.26449 11.8125 0 13.077 0 14.6368C0 16.1966 1.26449 17.4611 2.82432 17.4611Z" fill="#ED3248"/>
<path d="M38.2616 17.4611C39.8214 17.4611 41.086 16.1966 41.086 14.6368C41.086 13.077 39.8214 11.8125 38.2616 11.8125C36.7017 11.8125 35.4373 13.077 35.4373 14.6368C35.4373 16.1966 36.7017 17.4611 38.2616 17.4611Z" fill="#ED3248"/>
<path d="M32.3644 23.3586C33.9242 23.3586 35.1887 22.0941 35.1887 20.5343C35.1887 18.9744 33.9242 17.71 32.3644 17.71C30.8045 17.71 29.54 18.9744 29.54 20.5343C29.54 22.0941 30.8045 23.3586 32.3644 23.3586Z" fill="#ED3248"/>
<path d="M26.4491 29.2736C28.0089 29.2736 29.2734 28.0091 29.2734 26.4493C29.2734 24.8895 28.0089 23.625 26.4491 23.625C24.8892 23.625 23.6248 24.8895 23.6248 26.4493C23.6248 28.0091 24.8892 29.2736 26.4491 29.2736Z" fill="#ED3248"/>
<path d="M38.2616 29.2736C39.8214 29.2736 41.086 28.0091 41.086 26.4493C41.086 24.8895 39.8214 23.625 38.2616 23.625C36.7017 23.625 35.4373 24.8895 35.4373 26.4493C35.4373 28.0091 36.7017 29.2736 38.2616 29.2736Z" fill="#ED3248"/>
<path d="M32.3644 35.1711C33.9242 35.1711 35.1887 33.9066 35.1887 32.3468C35.1887 30.7869 33.9242 29.5225 32.3644 29.5225C30.8045 29.5225 29.54 30.7869 29.54 32.3468C29.54 33.9066 30.8045 35.1711 32.3644 35.1711Z" fill="#ED3248"/>
<path d="M26.4491 41.0861C28.0089 41.0861 29.2734 39.8216 29.2734 38.2618C29.2734 36.702 28.0089 35.4375 26.4491 35.4375C24.8892 35.4375 23.6248 36.702 23.6248 38.2618C23.6248 39.8216 24.8892 41.0861 26.4491 41.0861Z" fill="#ED3248"/>
</svg>
