<svg width="1240" height="822" viewBox="0 0 1240 822" fill="none" xmlns="http://www.w3.org/2000/svg">
<g opacity="0.98" filter="url(#filter0_b_1370_9363)">
<path d="M42.46 69.8726H286.54C291.29 69.8726 295.88 67.3479 299.23 62.883L340.5 7.98958C343.88 3.49818 348.44 1 353.19 1L1184.89 5.46483C1189.64 5.46483 1194.22 7.98958 1197.57 12.4544L1234.25 64.1188C1237.63 68.6102 1239.5 74.6829 1239.5 80.9948V323.411C1239.5 329.736 1237.6 335.822 1234.25 340.287L1222.12 356.419C1218.75 360.91 1216.87 366.983 1216.87 373.295V724.089C1216.87 730.401 1218.77 736.5 1222.12 740.965L1225.56 745.536C1228.94 750.028 1230.81 756.101 1230.81 762.412V789.042C1230.81 795.367 1228.91 801.453 1225.56 805.918L1219.48 814.01C1216.1 818.502 1211.54 821 1206.78 821L83.11 816.535C77.42 816.535 72.02 813.093 68.44 807.22L5.19 721.737C2.48 717.273 1 711.705 1 705.991V120.168C1 113.126 3.33 106.482 7.36 101.937L30.87 75.5201C34.1 71.8924 38.21 69.8726 42.46 69.8726Z" fill="#1E1E1E"/>
<path d="M42.46 69.8726H286.54C291.29 69.8726 295.88 67.3479 299.23 62.883L340.5 7.98958C343.88 3.49818 348.44 1 353.19 1L1184.89 5.46483C1189.64 5.46483 1194.22 7.98958 1197.57 12.4544L1234.25 64.1188C1237.63 68.6102 1239.5 74.6829 1239.5 80.9948V323.411C1239.5 329.736 1237.6 335.822 1234.25 340.287L1222.12 356.419C1218.75 360.91 1216.87 366.983 1216.87 373.295V724.089C1216.87 730.401 1218.77 736.5 1222.12 740.965L1225.56 745.536C1228.94 750.028 1230.81 756.101 1230.81 762.412V789.042C1230.81 795.367 1228.91 801.453 1225.56 805.918L1219.48 814.01C1216.1 818.502 1211.54 821 1206.78 821L83.11 816.535C77.42 816.535 72.02 813.093 68.44 807.22L5.19 721.737C2.48 717.273 1 711.705 1 705.991V120.168C1 113.126 3.33 106.482 7.36 101.937L30.87 75.5201C34.1 71.8924 38.21 69.8726 42.46 69.8726Z" stroke="url(#paint0_linear_1370_9363)" stroke-opacity="0.35" stroke-miterlimit="10"/>
<path d="M42.46 69.8726H286.54C291.29 69.8726 295.88 67.3479 299.23 62.883L340.5 7.98958C343.88 3.49818 348.44 1 353.19 1L1184.89 5.46483C1189.64 5.46483 1194.22 7.98958 1197.57 12.4544L1234.25 64.1188C1237.63 68.6102 1239.5 74.6829 1239.5 80.9948V323.411C1239.5 329.736 1237.6 335.822 1234.25 340.287L1222.12 356.419C1218.75 360.91 1216.87 366.983 1216.87 373.295V724.089C1216.87 730.401 1218.77 736.5 1222.12 740.965L1225.56 745.536C1228.94 750.028 1230.81 756.101 1230.81 762.412V789.042C1230.81 795.367 1228.91 801.453 1225.56 805.918L1219.48 814.01C1216.1 818.502 1211.54 821 1206.78 821L83.11 816.535C77.42 816.535 72.02 813.093 68.44 807.22L5.19 721.737C2.48 717.273 1 711.705 1 705.991V120.168C1 113.126 3.33 106.482 7.36 101.937L30.87 75.5201C34.1 71.8924 38.21 69.8726 42.46 69.8726Z" stroke="url(#paint1_linear_1370_9363)" stroke-miterlimit="10"/>
</g>
<defs>
<filter id="filter0_b_1370_9363" x="-24.5" y="-24.5" width="1289.5" height="871" filterUnits="userSpaceOnUse" color-interpolation-filters="sRGB">
<feFlood flood-opacity="0" result="BackgroundImageFix"/>
<feGaussianBlur in="BackgroundImageFix" stdDeviation="12.5"/>
<feComposite in2="SourceAlpha" operator="in" result="effect1_backgroundBlur_1370_9363"/>
<feBlend mode="normal" in="SourceGraphic" in2="effect1_backgroundBlur_1370_9363" result="shape"/>
</filter>
<linearGradient id="paint0_linear_1370_9363" x1="279" y1="-42.851" x2="790.487" y2="700.658" gradientUnits="userSpaceOnUse">
<stop stop-color="white"/>
<stop offset="1" stop-opacity="0"/>
</linearGradient>
<linearGradient id="paint1_linear_1370_9363" x1="1123" y1="859.416" x2="594.58" y2="317.675" gradientUnits="userSpaceOnUse">
<stop stop-color="white"/>
<stop offset="1" stop-opacity="0"/>
</linearGradient>
</defs>
</svg>
