<svg width="1240" height="619" viewBox="0 0 1240 619" fill="none" xmlns="http://www.w3.org/2000/svg">
<g opacity="0.98" filter="url(#filter0_b_1370_9363)">
<path d="M42.46 52.83H286.54C291.29 52.83 295.88 50.93 299.23 47.57L340.5 6.26C343.88 2.88 348.44 1 353.19 1L1184.89 4.36C1189.64 4.36 1194.22 6.26 1197.57 9.62L1234.25 48.5C1237.63 51.88 1239.5 56.45 1239.5 61.2V243.63C1239.5 248.39 1237.6 252.97 1234.25 256.33L1222.12 268.47C1218.75 271.85 1216.87 276.42 1216.87 281.17V545.16C1216.87 549.91 1218.77 554.5 1222.12 557.86L1225.56 561.3C1228.94 564.68 1230.81 569.25 1230.81 574V594.04C1230.81 598.8 1228.91 603.38 1225.56 606.74L1219.48 612.83C1216.1 616.21 1211.54 618.09 1206.78 618.09L83.11 614.73C77.42 614.73 72.02 612.14 68.44 607.72L5.19 543.39C2.48 540.03 1 535.84 1 531.54V90.68C1 85.38 3.33 80.38 7.36 76.96L30.87 57.08C34.1 54.35 38.21 52.83 42.46 52.83Z" fill="#1E1E1E"/>
<path d="M42.46 52.83H286.54C291.29 52.83 295.88 50.93 299.23 47.57L340.5 6.26C343.88 2.88 348.44 1 353.19 1L1184.89 4.36C1189.64 4.36 1194.22 6.26 1197.57 9.62L1234.25 48.5C1237.63 51.88 1239.5 56.45 1239.5 61.2V243.63C1239.5 248.39 1237.6 252.97 1234.25 256.33L1222.12 268.47C1218.75 271.85 1216.87 276.42 1216.87 281.17V545.16C1216.87 549.91 1218.77 554.5 1222.12 557.86L1225.56 561.3C1228.94 564.68 1230.81 569.25 1230.81 574V594.04C1230.81 598.8 1228.91 603.38 1225.56 606.74L1219.48 612.83C1216.1 616.21 1211.54 618.09 1206.78 618.09L83.11 614.73C77.42 614.73 72.02 612.14 68.44 607.72L5.19 543.39C2.48 540.03 1 535.84 1 531.54V90.68C1 85.38 3.33 80.38 7.36 76.96L30.87 57.08C34.1 54.35 38.21 52.83 42.46 52.83Z" stroke="url(#paint0_linear_1370_9363)" stroke-opacity="0.35" stroke-miterlimit="10"/>
<path d="M42.46 52.83H286.54C291.29 52.83 295.88 50.93 299.23 47.57L340.5 6.26C343.88 2.88 348.44 1 353.19 1L1184.89 4.36C1189.64 4.36 1194.22 6.26 1197.57 9.62L1234.25 48.5C1237.63 51.88 1239.5 56.45 1239.5 61.2V243.63C1239.5 248.39 1237.6 252.97 1234.25 256.33L1222.12 268.47C1218.75 271.85 1216.87 276.42 1216.87 281.17V545.16C1216.87 549.91 1218.77 554.5 1222.12 557.86L1225.56 561.3C1228.94 564.68 1230.81 569.25 1230.81 574V594.04C1230.81 598.8 1228.91 603.38 1225.56 606.74L1219.48 612.83C1216.1 616.21 1211.54 618.09 1206.78 618.09L83.11 614.73C77.42 614.73 72.02 612.14 68.44 607.72L5.19 543.39C2.48 540.03 1 535.84 1 531.54V90.68C1 85.38 3.33 80.38 7.36 76.96L30.87 57.08C34.1 54.35 38.21 52.83 42.46 52.83Z" stroke="url(#paint1_linear_1370_9363)" stroke-miterlimit="10"/>
</g>
<defs>
<filter id="filter0_b_1370_9363" x="-24.5" y="-24.5" width="1289.5" height="668.09" filterUnits="userSpaceOnUse" color-interpolation-filters="sRGB">
<feFlood flood-opacity="0" result="BackgroundImageFix"/>
<feGaussianBlur in="BackgroundImageFix" stdDeviation="12.5"/>
<feComposite in2="SourceAlpha" operator="in" result="effect1_backgroundBlur_1370_9363"/>
<feBlend mode="normal" in="SourceGraphic" in2="effect1_backgroundBlur_1370_9363" result="shape"/>
</filter>
<linearGradient id="paint0_linear_1370_9363" x1="279" y1="-32" x2="615.555" y2="618.09" gradientUnits="userSpaceOnUse">
<stop stop-color="white"/>
<stop offset="1" stop-opacity="0"/>
</linearGradient>
<linearGradient id="paint1_linear_1370_9363" x1="1123" y1="647" x2="743.5" y2="130" gradientUnits="userSpaceOnUse">
<stop stop-color="white"/>
<stop offset="1" stop-opacity="0"/>
</linearGradient>
</defs>
</svg>
