<svg width="6" height="9" viewBox="0 0 6 9" fill="none" xmlns="http://www.w3.org/2000/svg">
<path d="M5.46673 3.06311H3.51631L3.37124 0.305358C3.36778 0.239858 3.34442 0.176972 3.30428 0.125096C3.26414 0.0732195 3.20913 0.0348215 3.14659 0.0150281C3.08405 -0.0047652 3.01696 -0.00501205 2.95428 0.0143211C2.8916 0.0336542 2.83631 0.0716471 2.79578 0.123227L0.377906 3.1856C0.332977 3.24253 0.308557 3.31294 0.308594 3.38546V7.89843C0.308594 7.98393 0.342559 8.06592 0.403018 8.12637C0.463476 8.18682 0.545476 8.22079 0.630978 8.22079H5.46673C5.55224 8.22079 5.63424 8.18682 5.69469 8.12637C5.75515 8.06592 5.78912 7.98393 5.78912 7.89843V3.38546C5.78912 3.29997 5.75515 3.21797 5.69469 3.15752C5.63424 3.09707 5.55224 3.06311 5.46673 3.06311Z" fill="#FB5247"/>
</svg>
