<svg width="21" height="20" viewBox="0 0 21 20" fill="none" xmlns="http://www.w3.org/2000/svg">
<path d="M11.9123 5.71443C11.9123 5.90387 11.837 6.08555 11.7031 6.2195C11.5691 6.35346 11.3875 6.42871 11.198 6.42871C11.0086 6.42871 10.8269 6.35346 10.6929 6.2195C10.559 6.08555 10.4837 5.90387 10.4837 5.71443C10.4837 5.52498 10.559 5.3433 10.6929 5.20935C10.8269 5.07539 11.0086 5.00014 11.198 5.00014C11.3875 5.00014 11.5691 5.07539 11.7031 5.20935C11.837 5.3433 11.9123 5.52498 11.9123 5.71443ZM10.6623 8.393V13.7501C10.6623 13.8922 10.7187 14.0285 10.8192 14.1289C10.9197 14.2294 11.0559 14.2859 11.198 14.2859C11.3401 14.2859 11.4764 14.2294 11.5768 14.1289C11.6773 14.0285 11.7337 13.8922 11.7337 13.7501V8.393C11.7337 8.25092 11.6773 8.11466 11.5768 8.01419C11.4764 7.91372 11.3401 7.85728 11.198 7.85728C11.0559 7.85728 10.9197 7.91372 10.8192 8.01419C10.7187 8.11466 10.6623 8.25092 10.6623 8.393ZM2.62659 10.0001C2.62659 5.26657 6.46444 1.42871 11.198 1.42871C15.9316 1.42871 19.7694 5.26657 19.7694 10.0001C19.7694 14.7337 15.9316 18.5716 11.198 18.5716C6.46444 18.5716 2.62659 14.7337 2.62659 10.0001ZM11.198 2.50014C7.05587 2.50014 3.69802 5.858 3.69802 10.0001C3.69802 14.1423 7.05587 17.5001 11.198 17.5001C15.3402 17.5001 18.698 14.1423 18.698 10.0001C18.698 5.858 15.3402 2.50014 11.198 2.50014Z" fill="black"/>
</svg>
