<svg width="1240" height="482" viewBox="0 0 1240 482" fill="none" xmlns="http://www.w3.org/2000/svg">
<g opacity="0.98" filter="url(#filter0_b_1370_9363)">
<path d="M42.46 41.3157H286.54C291.29 41.3157 295.88 39.8378 299.23 37.2242L340.5 5.09146C343.88 2.46235 348.44 1 353.19 1L1184.89 3.61356C1189.64 3.61356 1194.22 5.09146 1197.57 7.70502L1234.25 37.9476C1237.63 40.5767 1239.5 44.1315 1239.5 47.8262V189.728C1239.5 193.431 1237.6 196.993 1234.25 199.607L1222.12 209.05C1218.75 211.679 1216.87 215.234 1216.87 218.929V424.272C1216.87 427.967 1218.77 431.537 1222.12 434.15L1225.56 436.826C1228.94 439.455 1230.81 443.01 1230.81 446.705V462.293C1230.81 465.995 1228.91 469.558 1225.56 472.171L1219.48 476.909C1216.1 479.538 1211.54 481 1206.78 481L83.11 478.386C77.42 478.386 72.02 476.372 68.44 472.934L5.19 422.895C2.48 420.281 1 417.022 1 413.678V70.7571C1 66.6345 3.33 62.7453 7.36 60.0851L30.87 44.6215C34.1 42.498 38.21 41.3157 42.46 41.3157Z" fill="#1E1E1E"/>
<path d="M42.46 41.3157H286.54C291.29 41.3157 295.88 39.8378 299.23 37.2242L340.5 5.09146C343.88 2.46235 348.44 1 353.19 1L1184.89 3.61356C1189.64 3.61356 1194.22 5.09146 1197.57 7.70502L1234.25 37.9476C1237.63 40.5767 1239.5 44.1315 1239.5 47.8262V189.728C1239.5 193.431 1237.6 196.993 1234.25 199.607L1222.12 209.05C1218.75 211.679 1216.87 215.234 1216.87 218.929V424.272C1216.87 427.967 1218.77 431.537 1222.12 434.15L1225.56 436.826C1228.94 439.455 1230.81 443.01 1230.81 446.705V462.293C1230.81 465.995 1228.91 469.558 1225.56 472.171L1219.48 476.909C1216.1 479.538 1211.54 481 1206.78 481L83.11 478.386C77.42 478.386 72.02 476.372 68.44 472.934L5.19 422.895C2.48 420.281 1 417.022 1 413.678V70.7571C1 66.6345 3.33 62.7453 7.36 60.0851L30.87 44.6215C34.1 42.498 38.21 41.3157 42.46 41.3157Z" stroke="url(#paint0_linear_1370_9363)" stroke-opacity="0.35" stroke-miterlimit="10"/>
<path d="M42.46 41.3157H286.54C291.29 41.3157 295.88 39.8378 299.23 37.2242L340.5 5.09146C343.88 2.46235 348.44 1 353.19 1L1184.89 3.61356C1189.64 3.61356 1194.22 5.09146 1197.57 7.70502L1234.25 37.9476C1237.63 40.5767 1239.5 44.1315 1239.5 47.8262V189.728C1239.5 193.431 1237.6 196.993 1234.25 199.607L1222.12 209.05C1218.75 211.679 1216.87 215.234 1216.87 218.929V424.272C1216.87 427.967 1218.77 431.537 1222.12 434.15L1225.56 436.826C1228.94 439.455 1230.81 443.01 1230.81 446.705V462.293C1230.81 465.995 1228.91 469.558 1225.56 472.171L1219.48 476.909C1216.1 479.538 1211.54 481 1206.78 481L83.11 478.386C77.42 478.386 72.02 476.372 68.44 472.934L5.19 422.895C2.48 420.281 1 417.022 1 413.678V70.7571C1 66.6345 3.33 62.7453 7.36 60.0851L30.87 44.6215C34.1 42.498 38.21 41.3157 42.46 41.3157Z" stroke="url(#paint1_linear_1370_9363)" stroke-miterlimit="10"/>
</g>
<defs>
<filter id="filter0_b_1370_9363" x="-24.5" y="-24.5" width="1289.5" height="531" filterUnits="userSpaceOnUse" color-interpolation-filters="sRGB">
<feFlood flood-opacity="0" result="BackgroundImageFix"/>
<feGaussianBlur in="BackgroundImageFix" stdDeviation="12.5"/>
<feComposite in2="SourceAlpha" operator="in" result="effect1_backgroundBlur_1370_9363"/>
<feBlend mode="normal" in="SourceGraphic" in2="effect1_backgroundBlur_1370_9363" result="shape"/>
</filter>
<linearGradient id="paint0_linear_1370_9363" x1="279" y1="-24.6689" x2="501.178" y2="527.059" gradientUnits="userSpaceOnUse">
<stop stop-color="white"/>
<stop offset="1" stop-opacity="0"/>
</linearGradient>
<linearGradient id="paint1_linear_1370_9363" x1="1123" y1="503.487" x2="856.536" y2="36.8017" gradientUnits="userSpaceOnUse">
<stop stop-color="white"/>
<stop offset="1" stop-opacity="0"/>
</linearGradient>
</defs>
</svg>
