<svg width="6" height="9" viewBox="0 0 6 9" fill="none" xmlns="http://www.w3.org/2000/svg">
<path d="M0.535219 5.3783H2.48564L2.63071 8.13605C2.63417 8.20155 2.65753 8.26443 2.69767 8.31631C2.73781 8.36819 2.79282 8.40658 2.85536 8.42638C2.9179 8.44617 2.98499 8.44642 3.04767 8.42709C3.11035 8.40775 3.16565 8.36976 3.20617 8.31818L5.62405 5.25581C5.66898 5.19888 5.6934 5.12847 5.69336 5.05595V0.542975C5.69336 0.457481 5.65939 0.375488 5.59894 0.315035C5.53848 0.254582 5.45648 0.22062 5.37098 0.22062H0.535219C0.449718 0.22062 0.367718 0.254582 0.307259 0.315035C0.2468 0.375488 0.212835 0.457481 0.212835 0.542975V5.05595C0.212835 5.14144 0.2468 5.22343 0.307259 5.28389C0.367718 5.34434 0.449718 5.3783 0.535219 5.3783Z" fill="#FB5247"/>
</svg>
