<svg width="66" height="89" viewBox="0 0 66 89" fill="none" xmlns="http://www.w3.org/2000/svg">
<path d="M0 0H66V89L33 74.5L0 89L0 0Z" fill="#2778E1"/>
<path d="M5.98153 28H4.29403L7.36648 19.2727H9.31818L12.3949 28H10.7074L8.37642 21.0625H8.30824L5.98153 28ZM6.03693 24.5781H10.6392V25.848H6.03693V24.5781ZM18.1467 21.6719C18.1069 21.2997 17.9393 21.0099 17.6438 20.8026C17.3512 20.5952 16.9705 20.4915 16.5018 20.4915C16.1722 20.4915 15.8896 20.5412 15.6538 20.6406C15.418 20.7401 15.2376 20.875 15.1126 21.0455C14.9876 21.2159 14.9237 21.4105 14.9208 21.6293C14.9208 21.8111 14.962 21.9687 15.0444 22.1023C15.1296 22.2358 15.2447 22.3494 15.3896 22.4432C15.5344 22.5341 15.695 22.6108 15.8711 22.6733C16.0472 22.7358 16.2248 22.7884 16.4038 22.831L17.2219 23.0355C17.5515 23.1122 17.8683 23.2159 18.1722 23.3466C18.479 23.4773 18.7532 23.642 18.9947 23.8409C19.239 24.0398 19.4322 24.2798 19.5742 24.5611C19.7163 24.8423 19.7873 25.1719 19.7873 25.5497C19.7873 26.0611 19.6566 26.5114 19.3952 26.9006C19.1339 27.2869 18.756 27.5895 18.2617 27.8082C17.7702 28.0241 17.1751 28.1321 16.4762 28.1321C15.7972 28.1321 15.2077 28.027 14.7077 27.8168C14.2106 27.6065 13.8214 27.2997 13.5401 26.8963C13.2617 26.4929 13.1112 26.0014 13.0884 25.4219H14.6438C14.6665 25.7259 14.7603 25.9787 14.9251 26.1804C15.0898 26.3821 15.3043 26.5327 15.5685 26.6321C15.8356 26.7315 16.1339 26.7812 16.4634 26.7812C16.8072 26.7812 17.1083 26.7301 17.3668 26.6278C17.6282 26.5227 17.8327 26.3778 17.9805 26.1932C18.1282 26.0057 18.2035 25.7869 18.2063 25.5369C18.2035 25.3097 18.1367 25.1222 18.006 24.9744C17.8754 24.8239 17.6921 24.6989 17.4563 24.5994C17.2234 24.4972 16.9506 24.4062 16.6381 24.3267L15.6452 24.071C14.9265 23.8864 14.3583 23.6065 13.9407 23.2315C13.5259 22.8537 13.3185 22.3523 13.3185 21.7273C13.3185 21.2131 13.4577 20.7628 13.7362 20.3764C14.0174 19.9901 14.3995 19.6903 14.8825 19.4773C15.3654 19.2614 15.9123 19.1534 16.5231 19.1534C17.1424 19.1534 17.685 19.2614 18.1509 19.4773C18.6197 19.6903 18.9876 19.9872 19.2546 20.3679C19.5217 20.7457 19.6594 21.1804 19.668 21.6719H18.1467ZM22.7777 19.2727V28H21.1967V19.2727H22.7777ZM25.6104 28H23.9229L26.9954 19.2727H28.9471L32.0238 28H30.3363L28.0053 21.0625H27.9371L25.6104 28ZM25.6658 24.5781H30.2681V25.848H25.6658V24.5781ZM4.8608 43V34.2727H8.2017C8.83239 34.2727 9.35653 34.3722 9.77415 34.571C10.1946 34.767 10.5085 35.0355 10.7159 35.3764C10.9261 35.7173 11.0312 36.1037 11.0312 36.5355C11.0312 36.8906 10.9631 37.1946 10.8267 37.4474C10.6903 37.6974 10.5071 37.9006 10.277 38.0568C10.0469 38.2131 9.78977 38.3253 9.50568 38.3935V38.4787C9.81534 38.4957 10.1122 38.5909 10.3963 38.7642C10.6832 38.9347 10.9176 39.1761 11.0994 39.4886C11.2813 39.8011 11.3722 40.179 11.3722 40.6222C11.3722 41.0739 11.2628 41.4801 11.044 41.8409C10.8253 42.1989 10.4957 42.4815 10.0554 42.6889C9.61506 42.8963 9.06108 43 8.39347 43H4.8608ZM6.44176 41.679H8.14205C8.71591 41.679 9.12926 41.5696 9.3821 41.3509C9.63778 41.1293 9.76562 40.8452 9.76562 40.4986C9.76562 40.2401 9.7017 40.0071 9.57386 39.7997C9.44602 39.5895 9.2642 39.4247 9.02841 39.3054C8.79261 39.1832 8.51136 39.1222 8.18466 39.1222H6.44176V41.679ZM6.44176 37.9844H8.00568C8.27841 37.9844 8.52415 37.9347 8.7429 37.8352C8.96165 37.733 9.13352 37.5895 9.25852 37.4048C9.38636 37.2173 9.45028 36.9957 9.45028 36.7401C9.45028 36.402 9.33097 36.1236 9.09233 35.9048C8.85653 35.6861 8.50568 35.5767 8.03977 35.5767H6.44176V37.9844ZM20.5458 38.6364C20.5458 39.5767 20.3697 40.3821 20.0174 41.0526C19.668 41.7202 19.1907 42.2315 18.5856 42.5866C17.9833 42.9418 17.3001 43.1193 16.5359 43.1193C15.7717 43.1193 15.087 42.9418 14.4819 42.5866C13.8796 42.2287 13.4023 41.7159 13.0501 41.0483C12.7006 40.3778 12.5259 39.5739 12.5259 38.6364C12.5259 37.696 12.7006 36.892 13.0501 36.2244C13.4023 35.554 13.8796 35.0412 14.4819 34.6861C15.087 34.331 15.7717 34.1534 16.5359 34.1534C17.3001 34.1534 17.9833 34.331 18.5856 34.6861C19.1907 35.0412 19.668 35.554 20.0174 36.2244C20.3697 36.892 20.5458 37.696 20.5458 38.6364ZM18.9563 38.6364C18.9563 37.9744 18.8526 37.4162 18.6452 36.9616C18.4407 36.5043 18.1566 36.1591 17.793 35.9261C17.4293 35.6903 17.0103 35.5724 16.5359 35.5724C16.0614 35.5724 15.6424 35.6903 15.2788 35.9261C14.9151 36.1591 14.6296 36.5043 14.4222 36.9616C14.2177 37.4162 14.1154 37.9744 14.1154 38.6364C14.1154 39.2983 14.2177 39.858 14.4222 40.3153C14.6296 40.7699 14.9151 41.1151 15.2788 41.3509C15.6424 41.5838 16.0614 41.7003 16.5359 41.7003C17.0103 41.7003 17.4293 41.5838 17.793 41.3509C18.1566 41.1151 18.4407 40.7699 18.6452 40.3153C18.8526 39.858 18.9563 39.2983 18.9563 38.6364ZM29.8388 38.6364C29.8388 39.5767 29.6626 40.3821 29.3104 41.0526C28.9609 41.7202 28.4837 42.2315 27.8786 42.5866C27.2763 42.9418 26.593 43.1193 25.8288 43.1193C25.0646 43.1193 24.38 42.9418 23.7749 42.5866C23.1726 42.2287 22.6953 41.7159 22.343 41.0483C21.9936 40.3778 21.8189 39.5739 21.8189 38.6364C21.8189 37.696 21.9936 36.892 22.343 36.2244C22.6953 35.554 23.1726 35.0412 23.7749 34.6861C24.38 34.331 25.0646 34.1534 25.8288 34.1534C26.593 34.1534 27.2763 34.331 27.8786 34.6861C28.4837 35.0412 28.9609 35.554 29.3104 36.2244C29.6626 36.892 29.8388 37.696 29.8388 38.6364ZM28.2493 38.6364C28.2493 37.9744 28.1456 37.4162 27.9382 36.9616C27.7337 36.5043 27.4496 36.1591 27.0859 35.9261C26.7223 35.6903 26.3033 35.5724 25.8288 35.5724C25.3544 35.5724 24.9354 35.6903 24.5717 35.9261C24.2081 36.1591 23.9226 36.5043 23.7152 36.9616C23.5107 37.4162 23.4084 37.9744 23.4084 38.6364C23.4084 39.2983 23.5107 39.858 23.7152 40.3153C23.9226 40.7699 24.2081 41.1151 24.5717 41.3509C24.9354 41.5838 25.3544 41.7003 25.8288 41.7003C26.3033 41.7003 26.7223 41.5838 27.0859 41.3509C27.4496 41.1151 27.7337 40.7699 27.9382 40.3153C28.1456 39.858 28.2493 39.2983 28.2493 38.6364ZM31.3335 43V34.2727H32.9144V38.2827H33.021L36.4258 34.2727H38.3562L34.9812 38.1889L38.386 43H36.4854L33.8817 39.2585L32.9144 40.4006V43H31.3335ZM50.2294 38.6364C50.2294 39.5767 50.0533 40.3821 49.701 41.0526C49.3516 41.7202 48.8743 42.2315 48.2692 42.5866C47.6669 42.9418 46.9837 43.1193 46.2195 43.1193C45.4553 43.1193 44.7706 42.9418 44.1655 42.5866C43.5632 42.2287 43.0859 41.7159 42.7337 41.0483C42.3842 40.3778 42.2095 39.5739 42.2095 38.6364C42.2095 37.696 42.3842 36.892 42.7337 36.2244C43.0859 35.554 43.5632 35.0412 44.1655 34.6861C44.7706 34.331 45.4553 34.1534 46.2195 34.1534C46.9837 34.1534 47.6669 34.331 48.2692 34.6861C48.8743 35.0412 49.3516 35.554 49.701 36.2244C50.0533 36.892 50.2294 37.696 50.2294 38.6364ZM48.6399 38.6364C48.6399 37.9744 48.5362 37.4162 48.3288 36.9616C48.1243 36.5043 47.8402 36.1591 47.4766 35.9261C47.1129 35.6903 46.6939 35.5724 46.2195 35.5724C45.745 35.5724 45.326 35.6903 44.9624 35.9261C44.5987 36.1591 44.3132 36.5043 44.1058 36.9616C43.9013 37.4162 43.799 37.9744 43.799 38.6364C43.799 39.2983 43.9013 39.858 44.1058 40.3153C44.3132 40.7699 44.5987 41.1151 44.9624 41.3509C45.326 41.5838 45.745 41.7003 46.2195 41.7003C46.6939 41.7003 47.1129 41.5838 47.4766 41.3509C47.8402 41.1151 48.1243 40.7699 48.3288 40.3153C48.5362 39.858 48.6399 39.2983 48.6399 38.6364ZM51.7241 43V34.2727H57.315V35.598H53.305V37.9673H56.9315V39.2926H53.305V43H51.7241ZM4.8608 58V49.2727H8.13352C8.80398 49.2727 9.36648 49.3892 9.82102 49.6222C10.2784 49.8551 10.6236 50.1818 10.8565 50.6023C11.0923 51.0199 11.2102 51.5071 11.2102 52.0639C11.2102 52.6236 11.0909 53.1094 10.8523 53.5213C10.6165 53.9304 10.2685 54.2472 9.80824 54.4716C9.34801 54.6932 8.78267 54.804 8.11222 54.804H5.78125V53.4915H7.89915C8.29119 53.4915 8.61222 53.4375 8.86222 53.3295C9.11222 53.2187 9.29688 53.0582 9.41619 52.848C9.53835 52.6349 9.59943 52.3736 9.59943 52.0639C9.59943 51.7543 9.53835 51.4901 9.41619 51.2713C9.29403 51.0497 9.10795 50.8821 8.85795 50.7685C8.60795 50.652 8.28551 50.5938 7.89062 50.5938H6.44176V58H4.8608ZM9.36932 54.0455L11.5298 58H9.76562L7.64347 54.0455H9.36932ZM12.6655 58V49.2727H18.3416V50.598H14.2464V52.9673H18.0476V54.2926H14.2464V56.6747H18.3757V58H12.6655ZM27.4247 52.2173H25.831C25.7855 51.956 25.7017 51.7244 25.5795 51.5227C25.4574 51.3182 25.3054 51.1449 25.1236 51.0028C24.9418 50.8608 24.7344 50.7543 24.5014 50.6832C24.2713 50.6094 24.0227 50.5724 23.7557 50.5724C23.2813 50.5724 22.8608 50.6918 22.4943 50.9304C22.1278 51.1662 21.8409 51.5128 21.6335 51.9702C21.4261 52.4247 21.3224 52.9801 21.3224 53.6364C21.3224 54.304 21.4261 54.8665 21.6335 55.3239C21.8438 55.7784 22.1307 56.1222 22.4943 56.3551C22.8608 56.5852 23.2798 56.7003 23.7514 56.7003C24.0128 56.7003 24.2571 56.6662 24.4844 56.598C24.7145 56.527 24.9205 56.4233 25.1023 56.2869C25.2869 56.1506 25.4418 55.983 25.5668 55.7841C25.6946 55.5852 25.7827 55.358 25.831 55.1023L27.4247 55.1108C27.3651 55.5256 27.2358 55.9148 27.0369 56.2784C26.8409 56.642 26.5838 56.9631 26.2656 57.2415C25.9474 57.517 25.5753 57.733 25.1491 57.8892C24.723 58.0426 24.25 58.1193 23.7301 58.1193C22.9631 58.1193 22.2784 57.9418 21.6761 57.5866C21.0739 57.2315 20.5994 56.7188 20.2528 56.0483C19.9063 55.3778 19.733 54.5739 19.733 53.6364C19.733 52.696 19.9077 51.892 20.2571 51.2244C20.6065 50.554 21.0824 50.0412 21.6847 49.6861C22.2869 49.331 22.9688 49.1534 23.7301 49.1534C24.2159 49.1534 24.6676 49.2216 25.0852 49.358C25.5028 49.4943 25.875 49.6946 26.2017 49.9588C26.5284 50.2202 26.7969 50.5412 27.0071 50.9219C27.2202 51.2997 27.3594 51.7315 27.4247 52.2173ZM36.6708 53.6364C36.6708 54.5767 36.4947 55.3821 36.1424 56.0526C35.793 56.7202 35.3157 57.2315 34.7106 57.5866C34.1083 57.9418 33.4251 58.1193 32.6609 58.1193C31.8967 58.1193 31.212 57.9418 30.6069 57.5866C30.0046 57.2287 29.5273 56.7159 29.1751 56.0483C28.8256 55.3778 28.6509 54.5739 28.6509 53.6364C28.6509 52.696 28.8256 51.892 29.1751 51.2244C29.5273 50.554 30.0046 50.0412 30.6069 49.6861C31.212 49.331 31.8967 49.1534 32.6609 49.1534C33.4251 49.1534 34.1083 49.331 34.7106 49.6861C35.3157 50.0412 35.793 50.554 36.1424 51.2244C36.4947 51.892 36.6708 52.696 36.6708 53.6364ZM35.0813 53.6364C35.0813 52.9744 34.9776 52.4162 34.7702 51.9616C34.5657 51.5043 34.2816 51.1591 33.918 50.9261C33.5543 50.6903 33.1353 50.5724 32.6609 50.5724C32.1864 50.5724 31.7674 50.6903 31.4038 50.9261C31.0401 51.1591 30.7546 51.5043 30.5472 51.9616C30.3427 52.4162 30.2404 52.9744 30.2404 53.6364C30.2404 54.2983 30.3427 54.858 30.5472 55.3153C30.7546 55.7699 31.0401 56.1151 31.4038 56.3509C31.7674 56.5838 32.1864 56.7003 32.6609 56.7003C33.1353 56.7003 33.5543 56.5838 33.918 56.3509C34.2816 56.1151 34.5657 55.7699 34.7702 55.3153C34.9776 54.858 35.0813 54.2983 35.0813 53.6364ZM38.1655 58V49.2727H41.4382C42.1087 49.2727 42.6712 49.3892 43.1257 49.6222C43.5831 49.8551 43.9283 50.1818 44.1612 50.6023C44.397 51.0199 44.5149 51.5071 44.5149 52.0639C44.5149 52.6236 44.3956 53.1094 44.157 53.5213C43.9212 53.9304 43.5732 54.2472 43.1129 54.4716C42.6527 54.6932 42.0874 54.804 41.4169 54.804H39.0859V53.4915H41.2038C41.5959 53.4915 41.9169 53.4375 42.1669 53.3295C42.4169 53.2187 42.6016 53.0582 42.7209 52.848C42.843 52.6349 42.9041 52.3736 42.9041 52.0639C42.9041 51.7543 42.843 51.4901 42.7209 51.2713C42.5987 51.0497 42.4126 50.8821 42.1626 50.7685C41.9126 50.652 41.5902 50.5938 41.1953 50.5938H39.7464V58H38.1655ZM42.674 54.0455L44.8345 58H43.0703L40.9482 54.0455H42.674ZM48.9276 58H45.9702V49.2727H48.9872C49.8537 49.2727 50.598 49.4474 51.2202 49.7969C51.8452 50.1435 52.3253 50.642 52.6605 51.2926C52.9957 51.9432 53.1634 52.7216 53.1634 53.6278C53.1634 54.5369 52.9943 55.3182 52.6562 55.9716C52.321 56.625 51.8366 57.1264 51.2031 57.4759C50.5724 57.8253 49.8139 58 48.9276 58ZM47.5511 56.6321H48.8509C49.4588 56.6321 49.9659 56.5213 50.3722 56.2997C50.7784 56.0753 51.0838 55.7415 51.2884 55.2983C51.4929 54.8523 51.5952 54.2955 51.5952 53.6278C51.5952 52.9602 51.4929 52.4062 51.2884 51.9659C51.0838 51.5227 50.7813 51.1918 50.3807 50.973C49.983 50.7514 49.4886 50.6406 48.8977 50.6406H47.5511V56.6321ZM59.4084 51.6719C59.3686 51.2997 59.201 51.0099 58.9055 50.8026C58.6129 50.5952 58.2322 50.4915 57.7635 50.4915C57.4339 50.4915 57.1513 50.5412 56.9155 50.6406C56.6797 50.7401 56.4993 50.875 56.3743 51.0455C56.2493 51.2159 56.1854 51.4105 56.1825 51.6293C56.1825 51.8111 56.2237 51.9687 56.3061 52.1023C56.3913 52.2358 56.5064 52.3494 56.6513 52.4432C56.7962 52.5341 56.9567 52.6108 57.1328 52.6733C57.3089 52.7358 57.4865 52.7884 57.6655 52.831L58.4837 53.0355C58.8132 53.1122 59.13 53.2159 59.4339 53.3466C59.7408 53.4773 60.0149 53.642 60.2564 53.8409C60.5007 54.0398 60.6939 54.2798 60.8359 54.5611C60.978 54.8423 61.049 55.1719 61.049 55.5497C61.049 56.0611 60.9183 56.5114 60.657 56.9006C60.3956 57.2869 60.0178 57.5895 59.5234 57.8082C59.032 58.0241 58.4368 58.1321 57.7379 58.1321C57.0589 58.1321 56.4695 58.027 55.9695 57.8168C55.4723 57.6065 55.0831 57.2997 54.8018 56.8963C54.5234 56.4929 54.3729 56.0014 54.3501 55.4219H55.9055C55.9283 55.7259 56.022 55.9787 56.1868 56.1804C56.3516 56.3821 56.5661 56.5327 56.8303 56.6321C57.0973 56.7315 57.3956 56.7812 57.7251 56.7812C58.0689 56.7812 58.37 56.7301 58.6286 56.6278C58.8899 56.5227 59.0945 56.3778 59.2422 56.1932C59.3899 56.0057 59.4652 55.7869 59.468 55.5369C59.4652 55.3097 59.3984 55.1222 59.2678 54.9744C59.1371 54.8239 58.9538 54.6989 58.718 54.5994C58.4851 54.4972 58.2124 54.4062 57.8999 54.3267L56.907 54.071C56.1882 53.8864 55.62 53.6065 55.2024 53.2315C54.7876 52.8537 54.5803 52.3523 54.5803 51.7273C54.5803 51.2131 54.7195 50.7628 54.9979 50.3764C55.2791 49.9901 55.6612 49.6903 56.1442 49.4773C56.6271 49.2614 57.174 49.1534 57.7848 49.1534C58.4041 49.1534 58.9467 49.2614 59.4126 49.4773C59.8814 49.6903 60.2493 49.9872 60.5163 50.3679C60.7834 50.7457 60.9212 51.1804 60.9297 51.6719H59.4084Z" fill="white"/>
<path d="M59.0259 8.77542C59.5162 8.77542 59.9136 8.37798 59.9136 7.88771C59.9136 7.39744 59.5162 7 59.0259 7C58.5356 7 58.1382 7.39744 58.1382 7.88771C58.1382 8.37798 58.5356 8.77542 59.0259 8.77542Z" fill="white"/>
<path d="M57.1724 10.6309C57.6627 10.6309 58.0601 10.2334 58.0601 9.74318C58.0601 9.25291 57.6627 8.85547 57.1724 8.85547C56.6821 8.85547 56.2847 9.25291 56.2847 9.74318C56.2847 10.2334 56.6821 10.6309 57.1724 10.6309Z" fill="white"/>
<path d="M55.3135 12.4864C55.8038 12.4864 56.2012 12.0889 56.2012 11.5986C56.2012 11.1084 55.8038 10.7109 55.3135 10.7109C54.8232 10.7109 54.4258 11.1084 54.4258 11.5986C54.4258 12.0889 54.8232 12.4864 55.3135 12.4864Z" fill="white"/>
<path d="M55.3135 8.77542C55.8038 8.77542 56.2012 8.37798 56.2012 7.88771C56.2012 7.39744 55.8038 7 55.3135 7C54.8232 7 54.4258 7.39744 54.4258 7.88771C54.4258 8.37798 54.8232 8.77542 55.3135 8.77542Z" fill="white"/>
<path d="M53.4595 10.6309C53.9498 10.6309 54.3472 10.2334 54.3472 9.74318C54.3472 9.25291 53.9498 8.85547 53.4595 8.85547C52.9692 8.85547 52.5718 9.25291 52.5718 9.74318C52.5718 10.2334 52.9692 10.6309 53.4595 10.6309Z" fill="white"/>
<path d="M51.6006 12.4864C52.0909 12.4864 52.4883 12.0889 52.4883 11.5986C52.4883 11.1084 52.0909 10.7109 51.6006 10.7109C51.1103 10.7109 50.7129 11.1084 50.7129 11.5986C50.7129 12.0889 51.1103 12.4864 51.6006 12.4864Z" fill="white"/>
<path d="M51.6006 8.77542C52.0909 8.77542 52.4883 8.37798 52.4883 7.88771C52.4883 7.39744 52.0909 7 51.6006 7C51.1103 7 50.7129 7.39744 50.7129 7.88771C50.7129 8.37798 51.1103 8.77542 51.6006 8.77542Z" fill="white"/>
<path d="M49.7471 10.6309C50.2374 10.6309 50.6348 10.2334 50.6348 9.74318C50.6348 9.25291 50.2374 8.85547 49.7471 8.85547C49.2568 8.85547 48.8594 9.25291 48.8594 9.74318C48.8594 10.2334 49.2568 10.6309 49.7471 10.6309Z" fill="white"/>
<path d="M47.8877 12.4864C48.378 12.4864 48.7754 12.0889 48.7754 11.5986C48.7754 11.1084 48.378 10.7109 47.8877 10.7109C47.3974 10.7109 47 11.1084 47 11.5986C47 12.0889 47.3974 12.4864 47.8877 12.4864Z" fill="white"/>
<path d="M59.0259 12.4864C59.5162 12.4864 59.9136 12.0889 59.9136 11.5986C59.9136 11.1084 59.5162 10.7109 59.0259 10.7109C58.5356 10.7109 58.1382 11.1084 58.1382 11.5986C58.1382 12.0889 58.5356 12.4864 59.0259 12.4864Z" fill="white"/>
<path d="M57.1724 14.3418C57.6627 14.3418 58.0601 13.9444 58.0601 13.4541C58.0601 12.9638 57.6627 12.5664 57.1724 12.5664C56.6821 12.5664 56.2847 12.9638 56.2847 13.4541C56.2847 13.9444 56.6821 14.3418 57.1724 14.3418Z" fill="white"/>
<path d="M55.3135 16.2012C55.8038 16.2012 56.2012 15.8038 56.2012 15.3135C56.2012 14.8232 55.8038 14.4258 55.3135 14.4258C54.8232 14.4258 54.4258 14.8232 54.4258 15.3135C54.4258 15.8038 54.8232 16.2012 55.3135 16.2012Z" fill="white"/>
<path d="M59.0259 16.2012C59.5162 16.2012 59.9136 15.8038 59.9136 15.3135C59.9136 14.8232 59.5162 14.4258 59.0259 14.4258C58.5356 14.4258 58.1382 14.8232 58.1382 15.3135C58.1382 15.8038 58.5356 16.2012 59.0259 16.2012Z" fill="white"/>
<path d="M57.1724 18.0567C57.6627 18.0567 58.0601 17.6592 58.0601 17.169C58.0601 16.6787 57.6627 16.2812 57.1724 16.2812C56.6821 16.2812 56.2847 16.6787 56.2847 17.169C56.2847 17.6592 56.6821 18.0567 57.1724 18.0567Z" fill="white"/>
<path d="M55.3135 19.9121C55.8038 19.9121 56.2012 19.5147 56.2012 19.0244C56.2012 18.5342 55.8038 18.1367 55.3135 18.1367C54.8232 18.1367 54.4258 18.5342 54.4258 19.0244C54.4258 19.5147 54.8232 19.9121 55.3135 19.9121Z" fill="white"/>
</svg>
