<svg width="608" height="720" viewBox="0 0 608 720" fill="none" xmlns="http://www.w3.org/2000/svg">
<path d="M607.247 65.2923L607.235 65.3066V65.5665V642.402C607.235 644.316 606.634 646.121 605.601 647.445L550.419 717.266C549.394 718.563 548.028 719.25 546.658 719.25H6.14305C3.31732 719.25 0.75 716.283 0.75 712.227V7.77278C0.75 3.71741 3.31732 0.75 6.14305 0.75H294.058C301.51 0.75 308.697 4.48463 314.03 11.2316L342.673 47.4736C348.245 54.5242 355.843 58.5252 363.821 58.5252H601.857C604.623 58.5252 607.141 61.3685 607.247 65.2923Z" fill="#1E1E1E"/>
<path d="M607.247 65.2923L607.235 65.3066V65.5665V642.402C607.235 644.316 606.634 646.121 605.601 647.445L550.419 717.266C549.394 718.563 548.028 719.25 546.658 719.25H6.14305C3.31732 719.25 0.75 716.283 0.75 712.227V7.77278C0.75 3.71741 3.31732 0.75 6.14305 0.75H294.058C301.51 0.75 308.697 4.48463 314.03 11.2316L342.673 47.4736C348.245 54.5242 355.843 58.5252 363.821 58.5252H601.857C604.623 58.5252 607.141 61.3685 607.247 65.2923Z" stroke="url(#paint0_linear_1432_9578)" stroke-width="1.5"/>
<path d="M607.247 65.2923L607.235 65.3066V65.5665V642.402C607.235 644.316 606.634 646.121 605.601 647.445L550.419 717.266C549.394 718.563 548.028 719.25 546.658 719.25H6.14305C3.31732 719.25 0.75 716.283 0.75 712.227V7.77278C0.75 3.71741 3.31732 0.75 6.14305 0.75H294.058C301.51 0.75 308.697 4.48463 314.03 11.2316L342.673 47.4736C348.245 54.5242 355.843 58.5252 363.821 58.5252H601.857C604.623 58.5252 607.141 61.3685 607.247 65.2923Z" stroke="url(#paint1_linear_1432_9578)" stroke-opacity="0.35" stroke-width="1.5"/>
<defs>
<linearGradient id="paint0_linear_1432_9578" x1="102" y1="-78.9473" x2="224.079" y2="373.505" gradientUnits="userSpaceOnUse">
<stop stop-color="white"/>
<stop offset="1" stop-opacity="0"/>
</linearGradient>
<linearGradient id="paint1_linear_1432_9578" x1="442.5" y1="829.894" x2="140.891" y2="344.99" gradientUnits="userSpaceOnUse">
<stop stop-color="white"/>
<stop offset="1" stop-color="#F0DDDD" stop-opacity="0"/>
</linearGradient>
</defs>
</svg>
