<svg width="66" height="89" viewBox="0 0 66 89" fill="none" xmlns="http://www.w3.org/2000/svg">
<path d="M0 0H66V89L33 74.5L0 89L0 0Z" fill="#EA2F47"/>
<path d="M6.44176 21.2727V30H4.8608V21.2727H6.44176ZM15.3256 21.2727V30H13.9194L9.80717 24.0554H9.73473V30H8.15376V21.2727H9.56854L13.6765 27.2216H13.7532V21.2727H15.3256ZM20.0057 30H17.0483V21.2727H20.0653C20.9318 21.2727 21.6761 21.4474 22.2983 21.7969C22.9233 22.1435 23.4034 22.642 23.7386 23.2926C24.0739 23.9432 24.2415 24.7216 24.2415 25.6278C24.2415 26.5369 24.0724 27.3182 23.7344 27.9716C23.3991 28.625 22.9148 29.1264 22.2812 29.4759C21.6506 29.8253 20.892 30 20.0057 30ZM18.6293 28.6321H19.929C20.5369 28.6321 21.044 28.5213 21.4503 28.2997C21.8565 28.0753 22.1619 27.7415 22.3665 27.2983C22.571 26.8523 22.6733 26.2955 22.6733 25.6278C22.6733 24.9602 22.571 24.4062 22.3665 23.9659C22.1619 23.5227 21.8594 23.1918 21.4588 22.973C21.0611 22.7514 20.5668 22.6406 19.9759 22.6406H18.6293V28.6321ZM27.3246 21.2727V30H25.7436V21.2727H27.3246ZM30.1573 30H28.4698L31.5423 21.2727H33.494L36.5707 30H34.8832L32.5522 23.0625H32.484L30.1573 30ZM30.2127 26.5781H34.815V27.848H30.2127V26.5781ZM4.8608 45V36.2727H8.2017C8.83239 36.2727 9.35653 36.3722 9.77415 36.571C10.1946 36.767 10.5085 37.0355 10.7159 37.3764C10.9261 37.7173 11.0312 38.1037 11.0312 38.5355C11.0312 38.8906 10.9631 39.1946 10.8267 39.4474C10.6903 39.6974 10.5071 39.9006 10.277 40.0568C10.0469 40.2131 9.78977 40.3253 9.50568 40.3935V40.4787C9.81534 40.4957 10.1122 40.5909 10.3963 40.7642C10.6832 40.9347 10.9176 41.1761 11.0994 41.4886C11.2813 41.8011 11.3722 42.179 11.3722 42.6222C11.3722 43.0739 11.2628 43.4801 11.044 43.8409C10.8253 44.1989 10.4957 44.4815 10.0554 44.6889C9.61506 44.8963 9.06108 45 8.39347 45H4.8608ZM6.44176 43.679H8.14205C8.71591 43.679 9.12926 43.5696 9.3821 43.3509C9.63778 43.1293 9.76562 42.8452 9.76562 42.4986C9.76562 42.2401 9.7017 42.0071 9.57386 41.7997C9.44602 41.5895 9.2642 41.4247 9.02841 41.3054C8.79261 41.1832 8.51136 41.1222 8.18466 41.1222H6.44176V43.679ZM6.44176 39.9844H8.00568C8.27841 39.9844 8.52415 39.9347 8.7429 39.8352C8.96165 39.733 9.13352 39.5895 9.25852 39.4048C9.38636 39.2173 9.45028 38.9957 9.45028 38.7401C9.45028 38.402 9.33097 38.1236 9.09233 37.9048C8.85653 37.6861 8.50568 37.5767 8.03977 37.5767H6.44176V39.9844ZM20.5458 40.6364C20.5458 41.5767 20.3697 42.3821 20.0174 43.0526C19.668 43.7202 19.1907 44.2315 18.5856 44.5866C17.9833 44.9418 17.3001 45.1193 16.5359 45.1193C15.7717 45.1193 15.087 44.9418 14.4819 44.5866C13.8796 44.2287 13.4023 43.7159 13.0501 43.0483C12.7006 42.3778 12.5259 41.5739 12.5259 40.6364C12.5259 39.696 12.7006 38.892 13.0501 38.2244C13.4023 37.554 13.8796 37.0412 14.4819 36.6861C15.087 36.331 15.7717 36.1534 16.5359 36.1534C17.3001 36.1534 17.9833 36.331 18.5856 36.6861C19.1907 37.0412 19.668 37.554 20.0174 38.2244C20.3697 38.892 20.5458 39.696 20.5458 40.6364ZM18.9563 40.6364C18.9563 39.9744 18.8526 39.4162 18.6452 38.9616C18.4407 38.5043 18.1566 38.1591 17.793 37.9261C17.4293 37.6903 17.0103 37.5724 16.5359 37.5724C16.0614 37.5724 15.6424 37.6903 15.2788 37.9261C14.9151 38.1591 14.6296 38.5043 14.4222 38.9616C14.2177 39.4162 14.1154 39.9744 14.1154 40.6364C14.1154 41.2983 14.2177 41.858 14.4222 42.3153C14.6296 42.7699 14.9151 43.1151 15.2788 43.3509C15.6424 43.5838 16.0614 43.7003 16.5359 43.7003C17.0103 43.7003 17.4293 43.5838 17.793 43.3509C18.1566 43.1151 18.4407 42.7699 18.6452 42.3153C18.8526 41.858 18.9563 41.2983 18.9563 40.6364ZM29.8388 40.6364C29.8388 41.5767 29.6626 42.3821 29.3104 43.0526C28.9609 43.7202 28.4837 44.2315 27.8786 44.5866C27.2763 44.9418 26.593 45.1193 25.8288 45.1193C25.0646 45.1193 24.38 44.9418 23.7749 44.5866C23.1726 44.2287 22.6953 43.7159 22.343 43.0483C21.9936 42.3778 21.8189 41.5739 21.8189 40.6364C21.8189 39.696 21.9936 38.892 22.343 38.2244C22.6953 37.554 23.1726 37.0412 23.7749 36.6861C24.38 36.331 25.0646 36.1534 25.8288 36.1534C26.593 36.1534 27.2763 36.331 27.8786 36.6861C28.4837 37.0412 28.9609 37.554 29.3104 38.2244C29.6626 38.892 29.8388 39.696 29.8388 40.6364ZM28.2493 40.6364C28.2493 39.9744 28.1456 39.4162 27.9382 38.9616C27.7337 38.5043 27.4496 38.1591 27.0859 37.9261C26.7223 37.6903 26.3033 37.5724 25.8288 37.5724C25.3544 37.5724 24.9354 37.6903 24.5717 37.9261C24.2081 38.1591 23.9226 38.5043 23.7152 38.9616C23.5107 39.4162 23.4084 39.9744 23.4084 40.6364C23.4084 41.2983 23.5107 41.858 23.7152 42.3153C23.9226 42.7699 24.2081 43.1151 24.5717 43.3509C24.9354 43.5838 25.3544 43.7003 25.8288 43.7003C26.3033 43.7003 26.7223 43.5838 27.0859 43.3509C27.4496 43.1151 27.7337 42.7699 27.9382 42.3153C28.1456 41.858 28.2493 41.2983 28.2493 40.6364ZM31.3335 45V36.2727H32.9144V40.2827H33.021L36.4258 36.2727H38.3562L34.9812 40.1889L38.386 45H36.4854L33.8817 41.2585L32.9144 42.4006V45H31.3335ZM50.2294 40.6364C50.2294 41.5767 50.0533 42.3821 49.701 43.0526C49.3516 43.7202 48.8743 44.2315 48.2692 44.5866C47.6669 44.9418 46.9837 45.1193 46.2195 45.1193C45.4553 45.1193 44.7706 44.9418 44.1655 44.5866C43.5632 44.2287 43.0859 43.7159 42.7337 43.0483C42.3842 42.3778 42.2095 41.5739 42.2095 40.6364C42.2095 39.696 42.3842 38.892 42.7337 38.2244C43.0859 37.554 43.5632 37.0412 44.1655 36.6861C44.7706 36.331 45.4553 36.1534 46.2195 36.1534C46.9837 36.1534 47.6669 36.331 48.2692 36.6861C48.8743 37.0412 49.3516 37.554 49.701 38.2244C50.0533 38.892 50.2294 39.696 50.2294 40.6364ZM48.6399 40.6364C48.6399 39.9744 48.5362 39.4162 48.3288 38.9616C48.1243 38.5043 47.8402 38.1591 47.4766 37.9261C47.1129 37.6903 46.6939 37.5724 46.2195 37.5724C45.745 37.5724 45.326 37.6903 44.9624 37.9261C44.5987 38.1591 44.3132 38.5043 44.1058 38.9616C43.9013 39.4162 43.799 39.9744 43.799 40.6364C43.799 41.2983 43.9013 41.858 44.1058 42.3153C44.3132 42.7699 44.5987 43.1151 44.9624 43.3509C45.326 43.5838 45.745 43.7003 46.2195 43.7003C46.6939 43.7003 47.1129 43.5838 47.4766 43.3509C47.8402 43.1151 48.1243 42.7699 48.3288 42.3153C48.5362 41.858 48.6399 41.2983 48.6399 40.6364ZM51.7241 45V36.2727H57.315V37.598H53.305V39.9673H56.9315V41.2926H53.305V45H51.7241ZM4.8608 60V51.2727H8.13352C8.80398 51.2727 9.36648 51.3892 9.82102 51.6222C10.2784 51.8551 10.6236 52.1818 10.8565 52.6023C11.0923 53.0199 11.2102 53.5071 11.2102 54.0639C11.2102 54.6236 11.0909 55.1094 10.8523 55.5213C10.6165 55.9304 10.2685 56.2472 9.80824 56.4716C9.34801 56.6932 8.78267 56.804 8.11222 56.804H5.78125V55.4915H7.89915C8.29119 55.4915 8.61222 55.4375 8.86222 55.3295C9.11222 55.2187 9.29688 55.0582 9.41619 54.848C9.53835 54.6349 9.59943 54.3736 9.59943 54.0639C9.59943 53.7543 9.53835 53.4901 9.41619 53.2713C9.29403 53.0497 9.10795 52.8821 8.85795 52.7685C8.60795 52.652 8.28551 52.5938 7.89062 52.5938H6.44176V60H4.8608ZM9.36932 56.0455L11.5298 60H9.76562L7.64347 56.0455H9.36932ZM12.6655 60V51.2727H18.3416V52.598H14.2464V54.9673H18.0476V56.2926H14.2464V58.6747H18.3757V60H12.6655ZM27.4247 54.2173H25.831C25.7855 53.956 25.7017 53.7244 25.5795 53.5227C25.4574 53.3182 25.3054 53.1449 25.1236 53.0028C24.9418 52.8608 24.7344 52.7543 24.5014 52.6832C24.2713 52.6094 24.0227 52.5724 23.7557 52.5724C23.2813 52.5724 22.8608 52.6918 22.4943 52.9304C22.1278 53.1662 21.8409 53.5128 21.6335 53.9702C21.4261 54.4247 21.3224 54.9801 21.3224 55.6364C21.3224 56.304 21.4261 56.8665 21.6335 57.3239C21.8438 57.7784 22.1307 58.1222 22.4943 58.3551C22.8608 58.5852 23.2798 58.7003 23.7514 58.7003C24.0128 58.7003 24.2571 58.6662 24.4844 58.598C24.7145 58.527 24.9205 58.4233 25.1023 58.2869C25.2869 58.1506 25.4418 57.983 25.5668 57.7841C25.6946 57.5852 25.7827 57.358 25.831 57.1023L27.4247 57.1108C27.3651 57.5256 27.2358 57.9148 27.0369 58.2784C26.8409 58.642 26.5838 58.9631 26.2656 59.2415C25.9474 59.517 25.5753 59.733 25.1491 59.8892C24.723 60.0426 24.25 60.1193 23.7301 60.1193C22.9631 60.1193 22.2784 59.9418 21.6761 59.5866C21.0739 59.2315 20.5994 58.7188 20.2528 58.0483C19.9063 57.3778 19.733 56.5739 19.733 55.6364C19.733 54.696 19.9077 53.892 20.2571 53.2244C20.6065 52.554 21.0824 52.0412 21.6847 51.6861C22.2869 51.331 22.9688 51.1534 23.7301 51.1534C24.2159 51.1534 24.6676 51.2216 25.0852 51.358C25.5028 51.4943 25.875 51.6946 26.2017 51.9588C26.5284 52.2202 26.7969 52.5412 27.0071 52.9219C27.2202 53.2997 27.3594 53.7315 27.4247 54.2173ZM36.6708 55.6364C36.6708 56.5767 36.4947 57.3821 36.1424 58.0526C35.793 58.7202 35.3157 59.2315 34.7106 59.5866C34.1083 59.9418 33.4251 60.1193 32.6609 60.1193C31.8967 60.1193 31.212 59.9418 30.6069 59.5866C30.0046 59.2287 29.5273 58.7159 29.1751 58.0483C28.8256 57.3778 28.6509 56.5739 28.6509 55.6364C28.6509 54.696 28.8256 53.892 29.1751 53.2244C29.5273 52.554 30.0046 52.0412 30.6069 51.6861C31.212 51.331 31.8967 51.1534 32.6609 51.1534C33.4251 51.1534 34.1083 51.331 34.7106 51.6861C35.3157 52.0412 35.793 52.554 36.1424 53.2244C36.4947 53.892 36.6708 54.696 36.6708 55.6364ZM35.0813 55.6364C35.0813 54.9744 34.9776 54.4162 34.7702 53.9616C34.5657 53.5043 34.2816 53.1591 33.918 52.9261C33.5543 52.6903 33.1353 52.5724 32.6609 52.5724C32.1864 52.5724 31.7674 52.6903 31.4038 52.9261C31.0401 53.1591 30.7546 53.5043 30.5472 53.9616C30.3427 54.4162 30.2404 54.9744 30.2404 55.6364C30.2404 56.2983 30.3427 56.858 30.5472 57.3153C30.7546 57.7699 31.0401 58.1151 31.4038 58.3509C31.7674 58.5838 32.1864 58.7003 32.6609 58.7003C33.1353 58.7003 33.5543 58.5838 33.918 58.3509C34.2816 58.1151 34.5657 57.7699 34.7702 57.3153C34.9776 56.858 35.0813 56.2983 35.0813 55.6364ZM38.1655 60V51.2727H41.4382C42.1087 51.2727 42.6712 51.3892 43.1257 51.6222C43.5831 51.8551 43.9283 52.1818 44.1612 52.6023C44.397 53.0199 44.5149 53.5071 44.5149 54.0639C44.5149 54.6236 44.3956 55.1094 44.157 55.5213C43.9212 55.9304 43.5732 56.2472 43.1129 56.4716C42.6527 56.6932 42.0874 56.804 41.4169 56.804H39.0859V55.4915H41.2038C41.5959 55.4915 41.9169 55.4375 42.1669 55.3295C42.4169 55.2187 42.6016 55.0582 42.7209 54.848C42.843 54.6349 42.9041 54.3736 42.9041 54.0639C42.9041 53.7543 42.843 53.4901 42.7209 53.2713C42.5987 53.0497 42.4126 52.8821 42.1626 52.7685C41.9126 52.652 41.5902 52.5938 41.1953 52.5938H39.7464V60H38.1655ZM42.674 56.0455L44.8345 60H43.0703L40.9482 56.0455H42.674ZM48.9276 60H45.9702V51.2727H48.9872C49.8537 51.2727 50.598 51.4474 51.2202 51.7969C51.8452 52.1435 52.3253 52.642 52.6605 53.2926C52.9957 53.9432 53.1634 54.7216 53.1634 55.6278C53.1634 56.5369 52.9943 57.3182 52.6562 57.9716C52.321 58.625 51.8366 59.1264 51.2031 59.4759C50.5724 59.8253 49.8139 60 48.9276 60ZM47.5511 58.6321H48.8509C49.4588 58.6321 49.9659 58.5213 50.3722 58.2997C50.7784 58.0753 51.0838 57.7415 51.2884 57.2983C51.4929 56.8523 51.5952 56.2955 51.5952 55.6278C51.5952 54.9602 51.4929 54.4062 51.2884 53.9659C51.0838 53.5227 50.7813 53.1918 50.3807 52.973C49.983 52.7514 49.4886 52.6406 48.8977 52.6406H47.5511V58.6321ZM59.4084 53.6719C59.3686 53.2997 59.201 53.0099 58.9055 52.8026C58.6129 52.5952 58.2322 52.4915 57.7635 52.4915C57.4339 52.4915 57.1513 52.5412 56.9155 52.6406C56.6797 52.7401 56.4993 52.875 56.3743 53.0455C56.2493 53.2159 56.1854 53.4105 56.1825 53.6293C56.1825 53.8111 56.2237 53.9687 56.3061 54.1023C56.3913 54.2358 56.5064 54.3494 56.6513 54.4432C56.7962 54.5341 56.9567 54.6108 57.1328 54.6733C57.3089 54.7358 57.4865 54.7884 57.6655 54.831L58.4837 55.0355C58.8132 55.1122 59.13 55.2159 59.4339 55.3466C59.7408 55.4773 60.0149 55.642 60.2564 55.8409C60.5007 56.0398 60.6939 56.2798 60.8359 56.5611C60.978 56.8423 61.049 57.1719 61.049 57.5497C61.049 58.0611 60.9183 58.5114 60.657 58.9006C60.3956 59.2869 60.0178 59.5895 59.5234 59.8082C59.032 60.0241 58.4368 60.1321 57.7379 60.1321C57.0589 60.1321 56.4695 60.027 55.9695 59.8168C55.4723 59.6065 55.0831 59.2997 54.8018 58.8963C54.5234 58.4929 54.3729 58.0014 54.3501 57.4219H55.9055C55.9283 57.7259 56.022 57.9787 56.1868 58.1804C56.3516 58.3821 56.5661 58.5327 56.8303 58.6321C57.0973 58.7315 57.3956 58.7812 57.7251 58.7812C58.0689 58.7812 58.37 58.7301 58.6286 58.6278C58.8899 58.5227 59.0945 58.3778 59.2422 58.1932C59.3899 58.0057 59.4652 57.7869 59.468 57.5369C59.4652 57.3097 59.3984 57.1222 59.2678 56.9744C59.1371 56.8239 58.9538 56.6989 58.718 56.5994C58.4851 56.4972 58.2124 56.4062 57.8999 56.3267L56.907 56.071C56.1882 55.8864 55.62 55.6065 55.2024 55.2315C54.7876 54.8537 54.5803 54.3523 54.5803 53.7273C54.5803 53.2131 54.7195 52.7628 54.9979 52.3764C55.2791 51.9901 55.6612 51.6903 56.1442 51.4773C56.6271 51.2614 57.174 51.1534 57.7848 51.1534C58.4041 51.1534 58.9467 51.2614 59.4126 51.4773C59.8814 51.6903 60.2493 51.9872 60.5163 52.3679C60.7834 52.7457 60.9212 53.1804 60.9297 53.6719H59.4084Z" fill="white"/>
<path d="M59.0259 8.77542C59.5162 8.77542 59.9136 8.37798 59.9136 7.88771C59.9136 7.39744 59.5162 7 59.0259 7C58.5356 7 58.1382 7.39744 58.1382 7.88771C58.1382 8.37798 58.5356 8.77542 59.0259 8.77542Z" fill="white"/>
<path d="M57.1724 10.6309C57.6627 10.6309 58.0601 10.2334 58.0601 9.74318C58.0601 9.25291 57.6627 8.85547 57.1724 8.85547C56.6821 8.85547 56.2847 9.25291 56.2847 9.74318C56.2847 10.2334 56.6821 10.6309 57.1724 10.6309Z" fill="white"/>
<path d="M55.3135 12.4864C55.8038 12.4864 56.2012 12.0889 56.2012 11.5986C56.2012 11.1084 55.8038 10.7109 55.3135 10.7109C54.8232 10.7109 54.4258 11.1084 54.4258 11.5986C54.4258 12.0889 54.8232 12.4864 55.3135 12.4864Z" fill="white"/>
<path d="M55.3135 8.77542C55.8038 8.77542 56.2012 8.37798 56.2012 7.88771C56.2012 7.39744 55.8038 7 55.3135 7C54.8232 7 54.4258 7.39744 54.4258 7.88771C54.4258 8.37798 54.8232 8.77542 55.3135 8.77542Z" fill="white"/>
<path d="M53.4595 10.6309C53.9498 10.6309 54.3472 10.2334 54.3472 9.74318C54.3472 9.25291 53.9498 8.85547 53.4595 8.85547C52.9692 8.85547 52.5718 9.25291 52.5718 9.74318C52.5718 10.2334 52.9692 10.6309 53.4595 10.6309Z" fill="white"/>
<path d="M51.6006 12.4864C52.0909 12.4864 52.4883 12.0889 52.4883 11.5986C52.4883 11.1084 52.0909 10.7109 51.6006 10.7109C51.1103 10.7109 50.7129 11.1084 50.7129 11.5986C50.7129 12.0889 51.1103 12.4864 51.6006 12.4864Z" fill="white"/>
<path d="M51.6006 8.77542C52.0909 8.77542 52.4883 8.37798 52.4883 7.88771C52.4883 7.39744 52.0909 7 51.6006 7C51.1103 7 50.7129 7.39744 50.7129 7.88771C50.7129 8.37798 51.1103 8.77542 51.6006 8.77542Z" fill="white"/>
<path d="M49.7471 10.6309C50.2374 10.6309 50.6348 10.2334 50.6348 9.74318C50.6348 9.25291 50.2374 8.85547 49.7471 8.85547C49.2568 8.85547 48.8594 9.25291 48.8594 9.74318C48.8594 10.2334 49.2568 10.6309 49.7471 10.6309Z" fill="white"/>
<path d="M47.8877 12.4864C48.378 12.4864 48.7754 12.0889 48.7754 11.5986C48.7754 11.1084 48.378 10.7109 47.8877 10.7109C47.3974 10.7109 47 11.1084 47 11.5986C47 12.0889 47.3974 12.4864 47.8877 12.4864Z" fill="white"/>
<path d="M59.0259 12.4864C59.5162 12.4864 59.9136 12.0889 59.9136 11.5986C59.9136 11.1084 59.5162 10.7109 59.0259 10.7109C58.5356 10.7109 58.1382 11.1084 58.1382 11.5986C58.1382 12.0889 58.5356 12.4864 59.0259 12.4864Z" fill="white"/>
<path d="M57.1724 14.3418C57.6627 14.3418 58.0601 13.9444 58.0601 13.4541C58.0601 12.9638 57.6627 12.5664 57.1724 12.5664C56.6821 12.5664 56.2847 12.9638 56.2847 13.4541C56.2847 13.9444 56.6821 14.3418 57.1724 14.3418Z" fill="white"/>
<path d="M55.3135 16.2012C55.8038 16.2012 56.2012 15.8038 56.2012 15.3135C56.2012 14.8232 55.8038 14.4258 55.3135 14.4258C54.8232 14.4258 54.4258 14.8232 54.4258 15.3135C54.4258 15.8038 54.8232 16.2012 55.3135 16.2012Z" fill="white"/>
<path d="M59.0259 16.2012C59.5162 16.2012 59.9136 15.8038 59.9136 15.3135C59.9136 14.8232 59.5162 14.4258 59.0259 14.4258C58.5356 14.4258 58.1382 14.8232 58.1382 15.3135C58.1382 15.8038 58.5356 16.2012 59.0259 16.2012Z" fill="white"/>
<path d="M57.1724 18.0567C57.6627 18.0567 58.0601 17.6592 58.0601 17.169C58.0601 16.6787 57.6627 16.2812 57.1724 16.2812C56.6821 16.2812 56.2847 16.6787 56.2847 17.169C56.2847 17.6592 56.6821 18.0567 57.1724 18.0567Z" fill="white"/>
<path d="M55.3135 19.9121C55.8038 19.9121 56.2012 19.5147 56.2012 19.0244C56.2012 18.5342 55.8038 18.1367 55.3135 18.1367C54.8232 18.1367 54.4258 18.5342 54.4258 19.0244C54.4258 19.5147 54.8232 19.9121 55.3135 19.9121Z" fill="white"/>
</svg>
