<svg width="39" height="49" viewBox="0 0 39 49" fill="none" xmlns="http://www.w3.org/2000/svg">
<path d="M0.494385 0H38.9889V48.538L20.9916 40.6301L0.494385 48.538L0.494385 0Z" fill="#EA2F47"/>
<path d="M4.41875 11.9091V17H3.49652V11.9091H4.41875ZM9.60101 11.9091V17H8.7807L6.3819 13.5323H6.33964V17H5.41741V11.9091H6.2427L8.639 15.3793H8.68375V11.9091H9.60101ZM12.331 17H10.6059V11.9091H12.3658C12.8713 11.9091 13.3055 12.011 13.6684 12.2148C14.033 12.417 14.313 12.7079 14.5086 13.0874C14.7041 13.4669 14.8019 13.9209 14.8019 14.4496C14.8019 14.9799 14.7033 15.4356 14.5061 15.8168C14.3106 16.1979 14.028 16.4904 13.6584 16.6942C13.2905 16.8981 12.8481 17 12.331 17ZM11.5281 16.2021H12.2863C12.6409 16.2021 12.9367 16.1374 13.1737 16.0082C13.4107 15.8772 13.5888 15.6825 13.7082 15.424C13.8275 15.1638 13.8871 14.839 13.8871 14.4496C13.8871 14.0601 13.8275 13.737 13.7082 13.4801C13.5888 13.2216 13.4124 13.0285 13.1787 12.9009C12.9467 12.7717 12.6583 12.707 12.3136 12.707H11.5281V16.2021ZM16.6004 11.9091V17H15.6782V11.9091H16.6004ZM18.2528 17H17.2684L19.0607 11.9091H20.1992L21.9939 17H21.0096L19.6498 12.9531H19.6101L18.2528 17ZM18.2851 15.0039H20.9698V15.7447H18.2851V15.0039ZM3.49652 25V19.9091H5.44538C5.81328 19.9091 6.11903 19.9671 6.36264 20.0831C6.6079 20.1974 6.79102 20.354 6.912 20.5529C7.03463 20.7518 7.09595 20.9772 7.09595 21.229C7.09595 21.4362 7.05617 21.6135 6.97663 21.761C6.89708 21.9068 6.79019 22.0253 6.65596 22.1165C6.52173 22.2076 6.37175 22.2731 6.20603 22.3129V22.3626C6.38667 22.3725 6.55984 22.428 6.72556 22.5291C6.89294 22.6286 7.02966 22.7694 7.13572 22.9517C7.24178 23.134 7.29481 23.3544 7.29481 23.6129C7.29481 23.8764 7.23101 24.1134 7.1034 24.3239C6.9758 24.5327 6.78357 24.6976 6.5267 24.8185C6.26983 24.9395 5.94668 25 5.55724 25H3.49652ZM4.41875 24.2294H5.41058C5.74533 24.2294 5.98645 24.1656 6.13394 24.038C6.28309 23.9087 6.35767 23.743 6.35767 23.5408C6.35767 23.39 6.32038 23.2541 6.24581 23.1332C6.17123 23.0105 6.06517 22.9144 5.92762 22.8448C5.79008 22.7736 5.62601 22.7379 5.43544 22.7379H4.41875V24.2294ZM4.41875 22.0742H5.33103C5.49012 22.0742 5.63347 22.0452 5.76108 21.9872C5.88868 21.9276 5.98894 21.8439 6.06186 21.7362C6.13643 21.6268 6.17372 21.4975 6.17372 21.3484C6.17372 21.1512 6.10411 20.9888 5.96491 20.8612C5.82736 20.7335 5.6227 20.6697 5.35092 20.6697H4.41875V22.0742ZM12.6461 22.4545C12.6461 23.0031 12.5434 23.4729 12.3379 23.864C12.134 24.2534 11.8556 24.5517 11.5026 24.7589C11.1513 24.966 10.7528 25.0696 10.307 25.0696C9.86119 25.0696 9.4618 24.966 9.10882 24.7589C8.75749 24.5501 8.47909 24.2509 8.27359 23.8615C8.06976 23.4704 7.96784 23.0014 7.96784 22.4545C7.96784 21.906 8.06976 21.437 8.27359 21.0476C8.47909 20.6565 8.75749 20.3574 9.10882 20.1502C9.4618 19.9431 9.86119 19.8395 10.307 19.8395C10.7528 19.8395 11.1513 19.9431 11.5026 20.1502C11.8556 20.3574 12.134 20.6565 12.3379 21.0476C12.5434 21.437 12.6461 21.906 12.6461 22.4545ZM11.7189 22.4545C11.7189 22.0684 11.6584 21.7428 11.5374 21.4776C11.4181 21.2108 11.2524 21.0095 11.0403 20.8736C10.8282 20.736 10.5837 20.6673 10.307 20.6673C10.0302 20.6673 9.78579 20.736 9.57366 20.8736C9.36154 21.0095 9.19499 21.2108 9.07402 21.4776C8.9547 21.7428 8.89504 22.0684 8.89504 22.4545C8.89504 22.8407 8.9547 23.1671 9.07402 23.4339C9.19499 23.6991 9.36154 23.9004 9.57366 24.038C9.78579 24.1739 10.0302 24.2418 10.307 24.2418C10.5837 24.2418 10.8282 24.1739 11.0403 24.038C11.2524 23.9004 11.4181 23.6991 11.5374 23.4339C11.6584 23.1671 11.7189 22.8407 11.7189 22.4545ZM18.067 22.4545C18.067 23.0031 17.9643 23.4729 17.7588 23.864C17.5549 24.2534 17.2765 24.5517 16.9235 24.7589C16.5722 24.966 16.1737 25.0696 15.7279 25.0696C15.2821 25.0696 14.8827 24.966 14.5297 24.7589C14.1784 24.5501 13.9 24.2509 13.6945 23.8615C13.4907 23.4704 13.3887 23.0014 13.3887 22.4545C13.3887 21.906 13.4907 21.437 13.6945 21.0476C13.9 20.6565 14.1784 20.3574 14.5297 20.1502C14.8827 19.9431 15.2821 19.8395 15.7279 19.8395C16.1737 19.8395 16.5722 19.9431 16.9235 20.1502C17.2765 20.3574 17.5549 20.6565 17.7588 21.0476C17.9643 21.437 18.067 21.906 18.067 22.4545ZM17.1398 22.4545C17.1398 22.0684 17.0793 21.7428 16.9583 21.4776C16.839 21.2108 16.6733 21.0095 16.4612 20.8736C16.2491 20.736 16.0046 20.6673 15.7279 20.6673C15.4511 20.6673 15.2067 20.736 14.9946 20.8736C14.7824 21.0095 14.6159 21.2108 14.4949 21.4776C14.3756 21.7428 14.3159 22.0684 14.3159 22.4545C14.3159 22.8407 14.3756 23.1671 14.4949 23.4339C14.6159 23.6991 14.7824 23.9004 14.9946 24.038C15.2067 24.1739 15.4511 24.2418 15.7279 24.2418C16.0046 24.2418 16.2491 24.1739 16.4612 24.038C16.6733 23.9004 16.839 23.6991 16.9583 23.4339C17.0793 23.1671 17.1398 22.8407 17.1398 22.4545ZM18.9389 25V19.9091H19.8611V22.2482H19.9233L21.9094 19.9091H23.0355L21.0667 22.1935L23.0529 25H21.9442L20.4254 22.8175L19.8611 23.4837V25H18.9389ZM29.9615 22.4545C29.9615 23.0031 29.8588 23.4729 29.6533 23.864C29.4495 24.2534 29.1711 24.5517 28.8181 24.7589C28.4667 24.966 28.0682 25.0696 27.6224 25.0696C27.1766 25.0696 26.7772 24.966 26.4242 24.7589C26.0729 24.5501 25.7945 24.2509 25.589 23.8615C25.3852 23.4704 25.2833 23.0014 25.2833 22.4545C25.2833 21.906 25.3852 21.437 25.589 21.0476C25.7945 20.6565 26.0729 20.3574 26.4242 20.1502C26.7772 19.9431 27.1766 19.8395 27.6224 19.8395C28.0682 19.8395 28.4667 19.9431 28.8181 20.1502C29.1711 20.3574 29.4495 20.6565 29.6533 21.0476C29.8588 21.437 29.9615 21.906 29.9615 22.4545ZM29.0343 22.4545C29.0343 22.0684 28.9738 21.7428 28.8529 21.4776C28.7336 21.2108 28.5678 21.0095 28.3557 20.8736C28.1436 20.736 27.8992 20.6673 27.6224 20.6673C27.3457 20.6673 27.1012 20.736 26.8891 20.8736C26.677 21.0095 26.5104 21.2108 26.3894 21.4776C26.2701 21.7428 26.2105 22.0684 26.2105 22.4545C26.2105 22.8407 26.2701 23.1671 26.3894 23.4339C26.5104 23.6991 26.677 23.9004 26.8891 24.038C27.1012 24.1739 27.3457 24.2418 27.6224 24.2418C27.8992 24.2418 28.1436 24.1739 28.3557 24.038C28.5678 23.9004 28.7336 23.6991 28.8529 23.4339C28.9738 23.1671 29.0343 22.8407 29.0343 22.4545ZM30.8334 25V19.9091H34.0948V20.6822H31.7557V22.0643H33.8711V22.8374H31.7557V25H30.8334ZM3.49652 33V27.9091H5.40561C5.7967 27.9091 6.12483 27.977 6.38998 28.1129C6.65679 28.2488 6.85814 28.4394 6.99403 28.6847C7.13158 28.9283 7.20035 29.2125 7.20035 29.5373C7.20035 29.8638 7.13075 30.1471 6.99154 30.3874C6.854 30.6261 6.65099 30.8108 6.38252 30.9418C6.11406 31.071 5.78428 31.1357 5.39318 31.1357H4.03345V30.37H5.26889C5.49758 30.37 5.68484 30.3385 5.83068 30.2756C5.97651 30.2109 6.08423 30.1173 6.15383 29.9947C6.22509 29.8704 6.26072 29.7179 6.26072 29.5373C6.26072 29.3567 6.22509 29.2025 6.15383 29.0749C6.08257 28.9457 5.97403 28.8479 5.82819 28.7816C5.68236 28.7137 5.49427 28.6797 5.26392 28.6797H4.41875V33H3.49652ZM6.12649 30.6932L7.38679 33H6.35767L5.11974 30.6932H6.12649ZM8.04925 33V27.9091H11.3603V28.6822H8.97148V30.0643H11.1888V30.8374H8.97148V32.2269H11.3802V33H8.04925ZM16.6588 29.6268H15.7291C15.7026 29.4743 15.6537 29.3393 15.5825 29.2216C15.5112 29.1023 15.4225 29.0012 15.3165 28.9183C15.2104 28.8355 15.0894 28.7733 14.9535 28.7319C14.8193 28.6888 14.6743 28.6673 14.5185 28.6673C14.2418 28.6673 13.9965 28.7369 13.7827 28.8761C13.569 29.0136 13.4016 29.2158 13.2806 29.4826C13.1596 29.7478 13.0991 30.0717 13.0991 30.4545C13.0991 30.844 13.1596 31.1721 13.2806 31.4389C13.4032 31.7041 13.5706 31.9046 13.7827 32.0405C13.9965 32.1747 14.241 32.2418 14.516 32.2418C14.6685 32.2418 14.811 32.2219 14.9436 32.1822C15.0778 32.1407 15.198 32.0803 15.304 32.0007C15.4118 31.9212 15.5021 31.8234 15.575 31.7074C15.6496 31.5914 15.7009 31.4588 15.7291 31.3097L16.6588 31.3146C16.624 31.5566 16.5486 31.7836 16.4326 31.9957C16.3182 32.2079 16.1683 32.3951 15.9827 32.5575C15.7971 32.7183 15.58 32.8442 15.3314 32.9354C15.0828 33.0249 14.8069 33.0696 14.5036 33.0696C14.0562 33.0696 13.6568 32.966 13.3055 32.7589C12.9541 32.5517 12.6774 32.2526 12.4752 31.8615C12.273 31.4704 12.1719 31.0014 12.1719 30.4545C12.1719 29.906 12.2739 29.437 12.4777 29.0476C12.6815 28.6565 12.9591 28.3574 13.3104 28.1502C13.6618 27.9431 14.0595 27.8395 14.5036 27.8395C14.787 27.8395 15.0505 27.8793 15.2941 27.9588C15.5377 28.0384 15.7548 28.1552 15.9454 28.3093C16.136 28.4618 16.2926 28.649 16.4152 28.8711C16.5395 29.0915 16.6207 29.3434 16.6588 29.6268ZM22.0524 30.4545C22.0524 31.0031 21.9496 31.4729 21.7441 31.864C21.5403 32.2534 21.2619 32.5517 20.9089 32.7589C20.5576 32.966 20.159 33.0696 19.7132 33.0696C19.2674 33.0696 18.8681 32.966 18.5151 32.7589C18.1637 32.5501 17.8853 32.2509 17.6798 31.8615C17.476 31.4704 17.3741 31.0014 17.3741 30.4545C17.3741 29.906 17.476 29.437 17.6798 29.0476C17.8853 28.6565 18.1637 28.3574 18.5151 28.1502C18.8681 27.9431 19.2674 27.8395 19.7132 27.8395C20.159 27.8395 20.5576 27.9431 20.9089 28.1502C21.2619 28.3574 21.5403 28.6565 21.7441 29.0476C21.9496 29.437 22.0524 29.906 22.0524 30.4545ZM21.1252 30.4545C21.1252 30.0684 21.0647 29.7428 20.9437 29.4776C20.8244 29.2108 20.6587 29.0095 20.4465 28.8736C20.2344 28.736 19.99 28.6673 19.7132 28.6673C19.4365 28.6673 19.192 28.736 18.9799 28.8736C18.7678 29.0095 18.6012 29.2108 18.4803 29.4776C18.361 29.7428 18.3013 30.0684 18.3013 30.4545C18.3013 30.8407 18.361 31.1671 18.4803 31.4339C18.6012 31.6991 18.7678 31.9004 18.9799 32.038C19.192 32.1739 19.4365 32.2418 19.7132 32.2418C19.99 32.2418 20.2344 32.1739 20.4465 32.038C20.6587 31.9004 20.8244 31.6991 20.9437 31.4339C21.0647 31.1671 21.1252 30.8407 21.1252 30.4545ZM22.9242 33V27.9091H24.8333C25.2244 27.9091 25.5526 27.977 25.8177 28.1129C26.0845 28.2488 26.2859 28.4394 26.4218 28.6847C26.5593 28.9283 26.6281 29.2125 26.6281 29.5373C26.6281 29.8638 26.5585 30.1471 26.4193 30.3874C26.2817 30.6261 26.0787 30.8108 25.8103 30.9418C25.5418 31.071 25.212 31.1357 24.8209 31.1357H23.4612V30.37H24.6966C24.9253 30.37 25.1126 30.3385 25.2584 30.2756C25.4042 30.2109 25.512 30.1173 25.5816 29.9947C25.6528 29.8704 25.6885 29.7179 25.6885 29.5373C25.6885 29.3567 25.6528 29.2025 25.5816 29.0749C25.5103 28.9457 25.4018 28.8479 25.2559 28.7816C25.1101 28.7137 24.922 28.6797 24.6917 28.6797H23.8465V33H22.9242ZM25.5542 30.6932L26.8145 33H25.7854L24.5475 30.6932H25.5542ZM29.2021 33H27.477V27.9091H29.2369C29.7424 27.9091 30.1766 28.011 30.5395 28.2148C30.9041 28.417 31.1841 28.7079 31.3797 29.0874C31.5752 29.4669 31.673 29.9209 31.673 30.4496C31.673 30.9799 31.5744 31.4356 31.3772 31.8168C31.1816 32.1979 30.8991 32.4904 30.5295 32.6942C30.1616 32.8981 29.7192 33 29.2021 33ZM28.3992 32.2021H29.1574C29.512 32.2021 29.8078 32.1374 30.0448 32.0082C30.2818 31.8772 30.4599 31.6825 30.5793 31.424C30.6986 31.1638 30.7582 30.839 30.7582 30.4496C30.7582 30.0601 30.6986 29.737 30.5793 29.4801C30.4599 29.2216 30.2834 29.0285 30.0498 28.9009C29.8178 28.7717 29.5294 28.707 29.1847 28.707H28.3992V32.2021ZM35.3159 29.3086C35.2927 29.0915 35.195 28.9225 35.0226 28.8015C34.8519 28.6805 34.6299 28.62 34.3564 28.62C34.1642 28.62 33.9993 28.649 33.8617 28.707C33.7242 28.765 33.619 28.8437 33.5461 28.9432C33.4731 29.0426 33.4359 29.1561 33.4342 29.2837C33.4342 29.3898 33.4582 29.4818 33.5063 29.5597C33.556 29.6375 33.6231 29.7038 33.7076 29.7585C33.7921 29.8116 33.8858 29.8563 33.9885 29.8928C34.0913 29.9292 34.1948 29.9599 34.2992 29.9847L34.7765 30.104C34.9688 30.1488 35.1535 30.2093 35.3309 30.2855C35.5098 30.3617 35.6698 30.4579 35.8106 30.5739C35.9531 30.6899 36.0658 30.8299 36.1487 30.994C36.2315 31.158 36.273 31.3503 36.273 31.5707C36.273 31.869 36.1967 32.1316 36.0443 32.3587C35.8918 32.584 35.6714 32.7605 35.3831 32.8881C35.0964 33.0141 34.7492 33.0771 34.3415 33.0771C33.9454 33.0771 33.6016 33.0157 33.3099 32.8931C33.0199 32.7705 32.7929 32.5915 32.6288 32.3562C32.4664 32.1209 32.3786 31.8342 32.3653 31.4961H33.2726C33.2859 31.6734 33.3406 31.8209 33.4367 31.9386C33.5328 32.0562 33.6579 32.1441 33.812 32.2021C33.9678 32.2601 34.1418 32.2891 34.3341 32.2891C34.5346 32.2891 34.7102 32.2592 34.861 32.1996C35.0135 32.1383 35.1328 32.0537 35.219 31.946C35.3052 31.8366 35.3491 31.709 35.3507 31.5632C35.3491 31.4306 35.3101 31.3213 35.2339 31.2351C35.1577 31.1473 35.0508 31.0743 34.9132 31.0163C34.7774 30.9567 34.6183 30.9036 34.436 30.8572L33.8568 30.7081C33.4375 30.6004 33.1061 30.4371 32.8625 30.2184C32.6205 29.998 32.4995 29.7055 32.4995 29.3409C32.4995 29.041 32.5807 28.7783 32.7431 28.5529C32.9072 28.3275 33.1301 28.1527 33.4118 28.0284C33.6935 27.9025 34.0126 27.8395 34.3689 27.8395C34.7301 27.8395 35.0466 27.9025 35.3184 28.0284C35.5919 28.1527 35.8065 28.3259 35.9622 28.5479C36.118 28.7683 36.1984 29.0219 36.2034 29.3086H35.3159Z" fill="white"/>
<path d="M35.1853 4.78858C35.4527 4.78858 35.6694 4.57182 35.6694 4.30444C35.6694 4.03707 35.4527 3.82031 35.1853 3.82031C34.9179 3.82031 34.7012 4.03707 34.7012 4.30444C34.7012 4.57182 34.9179 4.78858 35.1853 4.78858Z" fill="white"/>
<path d="M34.1743 5.80029C34.4417 5.80029 34.6585 5.58354 34.6585 5.31616C34.6585 5.04878 34.4417 4.83203 34.1743 4.83203C33.9069 4.83203 33.6902 5.04878 33.6902 5.31616C33.6902 5.58354 33.9069 5.80029 34.1743 5.80029Z" fill="white"/>
<path d="M33.1602 6.81201C33.4275 6.81201 33.6443 6.59526 33.6443 6.32788C33.6443 6.0605 33.4275 5.84375 33.1602 5.84375C32.8928 5.84375 32.676 6.0605 32.676 6.32788C32.676 6.59526 32.8928 6.81201 33.1602 6.81201Z" fill="white"/>
<path d="M33.1602 4.78858C33.4275 4.78858 33.6443 4.57182 33.6443 4.30444C33.6443 4.03707 33.4275 3.82031 33.1602 3.82031C32.8928 3.82031 32.676 4.03707 32.676 4.30444C32.676 4.57182 32.8928 4.78858 33.1602 4.78858Z" fill="white"/>
<path d="M32.1494 5.80029C32.4168 5.80029 32.6336 5.58354 32.6336 5.31616C32.6336 5.04878 32.4168 4.83203 32.1494 4.83203C31.882 4.83203 31.6653 5.04878 31.6653 5.31616C31.6653 5.58354 31.882 5.80029 32.1494 5.80029Z" fill="white"/>
<path d="M31.1355 6.81201C31.4029 6.81201 31.6196 6.59526 31.6196 6.32788C31.6196 6.0605 31.4029 5.84375 31.1355 5.84375C30.8681 5.84375 30.6514 6.0605 30.6514 6.32788C30.6514 6.59526 30.8681 6.81201 31.1355 6.81201Z" fill="white"/>
<path d="M31.1355 4.78858C31.4029 4.78858 31.6196 4.57182 31.6196 4.30444C31.6196 4.03707 31.4029 3.82031 31.1355 3.82031C30.8681 3.82031 30.6514 4.03707 30.6514 4.30444C30.6514 4.57182 30.8681 4.78858 31.1355 4.78858Z" fill="white"/>
<path d="M30.1245 5.80029C30.3919 5.80029 30.6086 5.58354 30.6086 5.31616C30.6086 5.04878 30.3919 4.83203 30.1245 4.83203C29.8571 4.83203 29.6404 5.04878 29.6404 5.31616C29.6404 5.58354 29.8571 5.80029 30.1245 5.80029Z" fill="white"/>
<path d="M29.1106 6.81201C29.378 6.81201 29.5947 6.59526 29.5947 6.32788C29.5947 6.0605 29.378 5.84375 29.1106 5.84375C28.8432 5.84375 28.6265 6.0605 28.6265 6.32788C28.6265 6.59526 28.8432 6.81201 29.1106 6.81201Z" fill="white"/>
<path d="M35.1853 6.81201C35.4527 6.81201 35.6694 6.59526 35.6694 6.32788C35.6694 6.0605 35.4527 5.84375 35.1853 5.84375C34.9179 5.84375 34.7012 6.0605 34.7012 6.32788C34.7012 6.59526 34.9179 6.81201 35.1853 6.81201Z" fill="white"/>
<path d="M34.1743 7.82373C34.4417 7.82373 34.6585 7.60698 34.6585 7.3396C34.6585 7.07222 34.4417 6.85547 34.1743 6.85547C33.9069 6.85547 33.6902 7.07222 33.6902 7.3396C33.6902 7.60698 33.9069 7.82373 34.1743 7.82373Z" fill="white"/>
<path d="M33.1602 8.83936C33.4275 8.83936 33.6443 8.6226 33.6443 8.35523C33.6443 8.08785 33.4275 7.87109 33.1602 7.87109C32.8928 7.87109 32.676 8.08785 32.676 8.35523C32.676 8.6226 32.8928 8.83936 33.1602 8.83936Z" fill="white"/>
<path d="M35.1853 8.83936C35.4527 8.83936 35.6694 8.6226 35.6694 8.35523C35.6694 8.08785 35.4527 7.87109 35.1853 7.87109C34.9179 7.87109 34.7012 8.08785 34.7012 8.35523C34.7012 8.6226 34.9179 8.83936 35.1853 8.83936Z" fill="white"/>
<path d="M34.1743 9.85107C34.4417 9.85107 34.6585 9.63432 34.6585 9.36694C34.6585 9.09956 34.4417 8.88281 34.1743 8.88281C33.9069 8.88281 33.6902 9.09956 33.6902 9.36694C33.6902 9.63432 33.9069 9.85107 34.1743 9.85107Z" fill="white"/>
<path d="M33.1602 10.8628C33.4275 10.8628 33.6443 10.646 33.6443 10.3787C33.6443 10.1113 33.4275 9.89453 33.1602 9.89453C32.8928 9.89453 32.676 10.1113 32.676 10.3787C32.676 10.646 32.8928 10.8628 33.1602 10.8628Z" fill="white"/>
</svg>
