<svg width="60" height="65" viewBox="0 0 60 65" fill="none" xmlns="http://www.w3.org/2000/svg">
<path d="M41.5649 13.7711L34.2528 1.10216C33.8617 0.426642 33.1269 0 32.3329 0H26.8932C26.0992 0 25.3762 0.426642 24.9733 1.10216L17.6611 13.7711H19.024L23.8474 5.42783C24.4281 4.42049 25.4948 3.80422 26.6562 3.80422H32.5818C33.7432 3.80422 34.8098 4.42049 35.3905 5.42783L40.2139 13.7711H41.5768H41.5649Z" fill="url(#paint0_linear_1370_9478)"/>
<path d="M58.7846 43.5878L51.4725 30.9189L50.7969 32.0922L55.6204 40.4354C56.2011 41.4428 56.2011 42.6753 55.6204 43.6708L52.6576 48.8024C52.0769 49.8097 51.0103 50.426 49.8488 50.426H40.2138L39.5383 51.5992H54.1627C54.9567 51.5992 55.6796 51.1726 56.0826 50.4852L58.7965 45.7803C59.1876 45.0929 59.1876 44.2515 58.7965 43.5641L58.7846 43.5878Z" fill="url(#paint1_linear_1370_9478)"/>
<path d="M9.40306 50.4395C8.24164 50.4395 7.17504 49.8232 6.59433 48.8159L3.63154 43.6843C3.05083 42.677 3.05083 41.4445 3.63154 40.449L8.44311 32.1176L7.7676 30.9443L0.455426 43.5895C0.0643372 44.2769 0.0643372 45.1183 0.455426 45.8057L3.16934 50.5106C3.56043 51.198 4.2952 51.6128 5.08923 51.6246H19.7017L19.0262 50.4395H9.40306Z" fill="url(#paint2_linear_1370_9478)"/>
<path d="M38.5056 26.6524C38.2923 26.7709 38.0434 26.842 37.7946 26.842C37.6761 26.842 37.5457 26.842 37.4272 26.842C32.9356 26.842 28.3966 26.8301 23.9761 26.8183C23.7983 26.8183 23.6324 26.8183 23.4428 26.759C23.2769 26.7116 23.1347 26.6287 22.9925 26.5338C22.1866 26.0242 20.6815 25.0643 20.2785 24.8036C20.2074 24.7562 20.1363 24.7443 20.0534 24.7443C19.6149 24.7443 18.1335 24.7443 17.5409 24.7443C17.4343 24.7443 17.3276 24.7206 17.2447 24.6614C16.5099 24.2347 15.7159 23.7725 14.9811 23.334C14.8744 23.2748 14.827 23.2392 14.7915 23.1918C14.7559 23.1444 14.7441 23.097 14.7322 23.0615C14.7204 22.9904 14.7322 22.9192 14.7441 22.86C14.7559 22.8126 14.7915 22.7652 14.8389 22.6822C14.8981 22.5874 14.9574 22.4926 15.0166 22.3859C15.1588 22.1608 15.2655 21.983 15.4907 21.8408C15.5618 21.8052 15.621 21.7697 15.704 21.746C15.8581 21.6986 16.0121 21.6867 16.2492 21.6867C25.1612 21.663 34.0615 21.663 42.9617 21.6867C43.2698 21.6867 43.4357 21.6986 43.6135 21.7815C43.7557 21.8408 43.8505 21.9237 43.9216 21.9949C44.0401 22.1134 44.1112 22.2437 44.1942 22.3741C44.2535 22.4689 44.3127 22.5637 44.372 22.6704C44.4549 22.8007 44.5142 22.9192 44.4905 23.0496C44.4668 23.1563 44.3957 23.2274 44.2298 23.3222C42.4284 24.3888 40.3544 25.5976 38.4938 26.6524H38.5056Z" fill="white"/>
<path d="M30.1019 42.8995C30.1019 42.6506 30.173 42.4017 30.3033 42.1884C30.3626 42.0817 30.4219 41.9751 30.4811 41.8684C32.7328 37.9812 35.0083 34.0585 37.2244 30.2306C37.3074 30.0765 37.3903 29.9343 37.5326 29.8039C37.6511 29.6854 37.7933 29.6025 37.9473 29.5195C38.7888 29.081 40.3768 28.2514 40.8035 28.0263C40.8746 27.9907 40.9338 27.9314 40.9694 27.8722C41.1827 27.5048 41.9056 26.2486 42.2256 25.7034C42.273 25.6086 42.356 25.5375 42.4508 25.4783C43.1856 25.0635 43.9796 24.6013 44.7381 24.1865C44.8447 24.1272 44.904 24.1035 44.9632 24.1035C45.0225 24.1035 45.0699 24.1035 45.1054 24.1154C45.1766 24.1391 45.2358 24.1865 45.2714 24.2339C45.3069 24.2694 45.3306 24.3168 45.378 24.3998C45.4373 24.5065 45.4847 24.6013 45.5439 24.7079C45.6743 24.9331 45.7691 25.1227 45.781 25.3834C45.781 25.4664 45.781 25.5257 45.7573 25.6205C45.7217 25.7745 45.6506 25.9167 45.5321 26.1182C41.0998 33.8452 36.6556 41.5484 32.1758 49.2517C32.0218 49.5124 31.927 49.6546 31.7729 49.7731C31.6425 49.868 31.524 49.9035 31.4292 49.9272C31.2633 49.9628 31.1211 49.9628 30.9552 49.9746C30.8366 49.9746 30.73 49.9746 30.6115 49.9746C30.4574 49.9746 30.327 49.9746 30.2204 49.8798C30.1374 49.8087 30.1137 49.7139 30.1137 49.5243C30.09 47.4385 30.09 45.0327 30.1137 42.8876L30.1019 42.8995Z" fill="white"/>
<path d="M20.2305 27.493C20.4439 27.6234 20.6216 27.8011 20.752 28.0145C20.8113 28.1211 20.8705 28.2278 20.9298 28.3344C23.1696 32.2335 25.4332 36.1562 27.6257 39.996C27.7086 40.1501 27.7916 40.2923 27.839 40.4819C27.8746 40.6478 27.8745 40.8137 27.8745 40.9796C27.839 41.9277 27.756 43.7173 27.7442 44.2031C27.7442 44.2861 27.756 44.3572 27.8034 44.4283C28.0286 44.8076 28.7871 46.1349 29.0834 46.6563C29.1189 46.7156 29.1308 46.7867 29.1308 46.846C29.1308 47.6992 29.1308 48.6473 29.1071 49.5362C29.1071 49.6665 29.1071 49.7139 29.0715 49.7732C29.0478 49.8325 29.0123 49.868 28.9886 49.8917C28.9293 49.9391 28.87 49.9628 28.8108 49.9747C28.7634 49.9747 28.7041 49.9865 28.6093 49.9747C28.4908 49.9747 28.3842 49.9747 28.2656 49.9747C28.0049 49.9747 27.7916 49.9747 27.5664 49.8325C27.4953 49.7969 27.4479 49.7613 27.3768 49.6902C27.2583 49.5836 27.1753 49.4532 27.0568 49.2518C22.5771 41.5485 18.1329 33.8452 13.7006 26.1183C13.5465 25.8575 13.4754 25.7035 13.4517 25.502C13.428 25.3479 13.4517 25.2176 13.4872 25.1228C13.5346 24.9687 13.6057 24.8265 13.6769 24.6961C13.7361 24.5895 13.7835 24.4947 13.8428 24.388C13.9139 24.2458 13.985 24.1391 14.1153 24.1036C14.222 24.068 14.3168 24.1036 14.4827 24.1865C16.3078 25.2176 18.3818 26.4027 20.2305 27.493Z" fill="white"/>
<path d="M58.7869 18.4057L56.073 13.7008C55.6819 13.0134 54.9471 12.5986 54.1531 12.5986H5.08923C4.2952 12.5986 3.57228 13.0253 3.16934 13.7008L0.455426 18.4057C0.0643372 19.0931 0.0643372 19.9345 0.455426 20.6219L24.9873 63.1083C25.3784 63.7957 26.1132 64.2105 26.9072 64.2105H32.3469C33.1409 64.2105 33.8639 63.7838 34.2668 63.1083L58.7987 20.6219C59.1898 19.9345 59.1898 19.0931 58.7987 18.4057H58.7869ZM51.1073 25.2557L34.3972 54.2081C33.9231 55.0377 33.0343 55.5473 32.0743 55.5473H27.168C26.208 55.5473 25.331 55.0377 24.8451 54.2081L8.13498 25.2557C7.66093 24.4261 7.66093 23.4069 8.13498 22.5773L10.5882 18.3346C11.0622 17.505 11.9511 16.9954 12.911 16.9954H46.3431C47.3031 16.9954 48.1801 17.505 48.666 18.3346L51.1192 22.5773C51.5932 23.4069 51.5932 24.4261 51.1192 25.2557H51.1073Z" fill="url(#paint3_linear_1370_9478)"/>
<path d="M37.3592 10.6185C37.063 10.1089 36.5296 9.80078 35.9489 9.80078H23.3037C22.723 9.80078 22.1779 10.1089 21.8935 10.6185L20.7439 12.6095H38.5206L37.3711 10.6185H37.3592Z" fill="url(#paint4_linear_1370_9478)"/>
<path d="M7.15287 36.1463C6.85659 36.6559 6.85659 37.2721 7.15287 37.7817L13.4814 48.7322C13.7777 49.2418 14.311 49.5499 14.9035 49.5499H17.2027L8.31429 34.1553L7.16472 36.1463H7.15287Z" fill="url(#paint5_linear_1370_9478)"/>
<path d="M44.3542 49.5499C44.9349 49.5499 45.48 49.2418 45.7763 48.7322L52.1048 37.7817C52.4011 37.2721 52.4011 36.6559 52.1048 36.1463L50.9553 34.1553L42.0669 49.5499H44.366H44.3542Z" fill="url(#paint6_linear_1370_9478)"/>
<path d="M32.6673 61.8496H26.5047C26.2625 61.8496 26.0662 62.0459 26.0662 62.2881C26.0662 62.5303 26.2625 62.7266 26.5047 62.7266H32.6673C32.9094 62.7266 33.1058 62.5303 33.1058 62.2881C33.1058 62.0459 32.9094 61.8496 32.6673 61.8496Z" fill="white"/>
<path d="M53.8411 14.587L56.9224 19.924C57.0434 20.1337 57.3116 20.2056 57.5213 20.0845C57.7311 19.9634 57.8029 19.6952 57.6818 19.4855L54.6005 14.1485C54.4795 13.9388 54.2113 13.8669 54.0015 13.988C53.7918 14.1091 53.72 14.3773 53.8411 14.587Z" fill="white"/>
<path d="M2.32689 19.8759L5.40819 14.5389C5.52928 14.3292 5.45742 14.061 5.2477 13.9399C5.03797 13.8188 4.76979 13.8907 4.6487 14.1004L1.5674 19.4374C1.44631 19.6471 1.51817 19.9153 1.7279 20.0364C1.93763 20.1575 2.2058 20.0856 2.32689 19.8759Z" fill="white"/>
<defs>
<linearGradient id="paint0_linear_1370_9478" x1="29.619" y1="0" x2="29.619" y2="13.7711" gradientUnits="userSpaceOnUse">
<stop stop-color="#ED3248"/>
<stop offset="1" stop-color="#B8002C"/>
</linearGradient>
<linearGradient id="paint1_linear_1370_9478" x1="49.3141" y1="30.9189" x2="49.3141" y2="51.5992" gradientUnits="userSpaceOnUse">
<stop stop-color="#ED3248"/>
<stop offset="1" stop-color="#B8002C"/>
</linearGradient>
<linearGradient id="paint2_linear_1370_9478" x1="9.93191" y1="30.9443" x2="9.93191" y2="51.6246" gradientUnits="userSpaceOnUse">
<stop stop-color="#ED3248"/>
<stop offset="1" stop-color="#B8002C"/>
</linearGradient>
<linearGradient id="paint3_linear_1370_9478" x1="29.6271" y1="12.5986" x2="29.6271" y2="64.2105" gradientUnits="userSpaceOnUse">
<stop stop-color="#ED3248"/>
<stop offset="1" stop-color="#B8002C"/>
</linearGradient>
<linearGradient id="paint4_linear_1370_9478" x1="29.6323" y1="9.80078" x2="29.6323" y2="12.6095" gradientUnits="userSpaceOnUse">
<stop stop-color="#ED3248"/>
<stop offset="1" stop-color="#B8002C"/>
</linearGradient>
<linearGradient id="paint5_linear_1370_9478" x1="12.0667" y1="34.1553" x2="12.0667" y2="49.5499" gradientUnits="userSpaceOnUse">
<stop stop-color="#ED3248"/>
<stop offset="1" stop-color="#B8002C"/>
</linearGradient>
<linearGradient id="paint6_linear_1370_9478" x1="47.197" y1="34.1553" x2="47.197" y2="49.5499" gradientUnits="userSpaceOnUse">
<stop stop-color="#ED3248"/>
<stop offset="1" stop-color="#B8002C"/>
</linearGradient>
</defs>
</svg>
