<svg width="48" height="48" viewBox="0 0 48 48" fill="none" xmlns="http://www.w3.org/2000/svg">
<circle cx="24" cy="24" r="24" fill="#E3E3E3"/>
<path d="M23.0691 33.9449L33.6937 24.673C33.7899 24.5892 33.867 24.4856 33.9198 24.3692C33.9727 24.2528 34 24.1263 34 23.9984C34 23.8704 33.9727 23.7439 33.9198 23.6275C33.867 23.5111 33.7899 23.4075 33.6937 23.3237L23.0691 14.0546C23.0371 14.0266 22.9977 14.0085 22.9557 14.0023C22.9137 13.9962 22.8709 14.0023 22.8322 14.02C22.7936 14.0376 22.7608 14.0661 22.7378 14.1019C22.7148 14.1378 22.7025 14.1796 22.7025 14.2223L22.7025 16.485C22.7025 16.6136 22.758 16.7365 22.8552 16.8231L29.8633 22.9382L14.2222 22.9382C14.1 22.9382 14 23.0388 14 23.1617L14 24.8378C14 24.9607 14.1 25.0613 14.2222 25.0613L29.8633 25.0613L22.8552 31.1764C22.758 31.2602 22.7025 31.3832 22.7025 31.5145L22.7025 33.7772C22.7025 33.9672 22.9247 34.0706 23.0691 33.9449Z" fill="#636363"/>
</svg>
