<svg width="588" height="103" viewBox="0 0 588 103" fill="none" xmlns="http://www.w3.org/2000/svg">
<path d="M109.679 56.8686L90.6253 57.1657C89.048 57.1657 87.4653 57.7601 86.3809 58.9489L75.2247 69.4663H76.4077L85.5922 62.818L104.35 62.7189L99.4155 67.4795C98.9226 67.8758 98.4297 68.173 97.8382 68.3711L70.4928 75.4157C68.8169 75.911 67.1356 76.7036 65.854 77.7988L63.8769 79.4829H29.127L54.3036 56.2687C54.5007 56.0705 54.6979 55.9715 54.8951 55.8724L74.9345 47.3418C76.7089 46.5493 78.5875 46.2521 80.466 46.2521L97.3508 46.4502C98.238 46.4502 99.1253 46.8465 99.9194 47.4409L109.695 56.8686H109.679ZM202.384 44.3699L207.516 39.7083H249.473L251.149 41.6951L246.313 46.2576H204.355L202.378 44.3699H202.384ZM227.462 60.0441L226.377 61.0348L213.54 61.9264L199.52 74.6232C198.632 75.4157 198.139 76.4064 198.139 77.6006V79.3838H241.285L277.815 46.4447C277.881 46.3787 277.914 46.3126 277.914 46.2466C278.209 45.9494 278.407 45.4541 278.407 44.9587C278.407 44.5625 278.209 44.0672 277.914 43.6709L277.717 43.4728L257.08 23.6323L256.982 23.5332H197.252L174.447 44.8652C173.658 45.6577 173.658 46.9511 174.447 47.6445L186.983 59.7469L227.462 60.0441ZM189.453 62.6253L170.794 79.4939H127.648V77.7107C127.648 76.621 128.141 75.5258 129.028 74.7333L143.049 62.0364L155.585 61.1449L156.669 60.1542H116.684L104.147 48.0518C103.359 47.2593 103.359 45.9659 104.147 45.2725C111.749 38.1288 119.351 30.9851 126.953 23.8414H184.119L184.217 23.9405L188.955 28.503L188.659 28.8002C184.809 32.372 181.057 35.8448 177.306 39.4166L176.911 39.8129H136.926L131.794 44.4744L133.771 46.3622H171.583V46.6594C171.583 47.8481 172.076 49.0424 172.963 49.934L185.499 62.0364L186.189 62.7299H189.448V62.6308L189.453 62.6253Z" fill="#FBFBFB"/>
<path d="M293.705 23.9363H310.294V27.8054H298.547V30.7828H309.801V34.4537H298.645V39.9078H293.809V23.9363H293.711H293.705ZM434.49 63.3256H437.848L447.131 76.7214L456.414 63.3256H459.771V79.2971H457.597V65.2079L447.919 79.2971H446.342L436.665 65.2079V79.2971H434.49V63.3256ZM425.607 71.1628C427.978 71.1628 429.063 70.5684 429.063 68.8788V67.3928C429.063 65.6096 428.274 65.0097 425.114 65.0097H415.338V71.1628H425.607ZM413.071 63.3256H425.804C430.443 63.3256 431.133 64.8116 431.133 67.8881V69.176C431.133 71.46 429.852 72.0544 428.17 72.2525C430.344 72.6488 430.936 73.8375 430.936 75.2299V79.2971H428.86V75.8243C428.86 73.3422 427.677 73.045 425.7 73.045H415.234V79.3962H413.06V63.3256H413.071ZM407.539 68.2844C407.539 65.5051 405.863 64.9107 403.788 64.9107H395.102C393.026 64.9107 391.35 65.5051 391.35 68.2844V74.3384C391.35 77.1177 393.026 77.7121 395.102 77.7121H403.788C405.863 77.7121 407.539 77.1177 407.539 74.3384V68.2844ZM389.176 69.0769C389.176 65.0097 390.556 63.122 394.806 63.122H403.99C408.333 63.122 409.62 65.1088 409.62 69.0769V73.4413C409.62 77.5084 408.24 79.3962 403.99 79.3962H394.806C390.463 79.3962 389.176 77.4094 389.176 73.4413V69.0769ZM371.305 63.3201H386.509V65.1033H373.474V70.1611H386.01V71.9443H373.474V79.2861H371.3V63.3146L371.305 63.3201ZM358.369 65.0042H350.274V63.2211H368.539V65.0042H360.445V79.1925H358.27V65.0042H358.369ZM341.879 65.0042L336.55 74.1292H347.213L341.884 65.0042H341.879ZM340.498 63.3201H343.166L352.646 79.2916H350.274L348.297 75.9179H335.46L333.483 79.2916H331.013L340.493 63.3201H340.498ZM314.829 63.3201H317.003V77.5084H329.342V79.2916H314.829V63.3201ZM309.697 67.3873C309.697 65.4996 308.711 65.0042 306.833 65.0042H296.367V71.1573H307.03C308.706 71.1573 309.796 70.5629 309.796 68.8733V67.3873H309.697ZM294.198 63.3201H307.331C310.196 63.3201 311.871 63.9145 311.871 67.6845C311.871 71.2563 311.576 73.0395 306.937 73.0395H296.372V79.2916H294.198V63.3201ZM395.594 49.2309C395.594 44.5693 398.262 43.4741 402.605 43.4741H409.911C415.442 43.4741 416.231 45.4609 416.231 48.631V49.0273H411.493C411.493 47.4422 410.606 47.2441 409.023 47.2441H403.695C401.225 47.2441 400.633 47.8385 400.633 50.6178V52.6046C400.633 55.3839 401.225 55.9783 403.695 55.9783H408.925C410.206 55.9783 411.493 55.7802 411.493 54.1952V53.6998H405.469V50.4252H416.428V54.9877C416.428 59.5502 414.057 59.8474 408.531 59.8474H402.605C398.163 59.8474 395.594 58.7576 395.594 54.0906V49.2309ZM371.206 43.5732H378.808L387.993 55.1803V43.5732H392.829V59.5447H385.227L376.042 47.9376V59.5447H371.206V43.5732ZM363.309 43.5732H368.145V59.5447H363.309V43.5732ZM339.814 49.2309C339.814 44.5693 342.481 43.4741 346.824 43.4741H352.553C359.464 43.4741 360.45 44.9601 360.352 49.5281H355.516V49.0328C355.516 47.844 354.727 47.5468 353.243 47.5468H347.914C345.345 47.5468 344.852 48.7356 344.852 50.7224V52.4065C344.852 54.6905 345.345 55.5821 347.618 55.5821H352.848C355.023 55.5821 355.713 55.3839 355.713 53.3971H360.549V54.9822C360.549 57.6624 359.563 59.8419 354.722 59.8419H346.824C342.382 59.8419 339.814 58.7521 339.814 54.0851V49.2254V49.2309ZM323.92 53.2981H330.142L326.982 47.2441L323.92 53.2981ZM323.822 43.5732H330.142L338.927 59.5447H333.499L332.02 56.6663H322.146L320.766 59.5447H315.338L323.827 43.5732H323.822ZM298.645 51.5094H306.74C308.021 51.5094 308.514 51.0141 308.514 49.8253V49.33C308.514 47.9431 307.824 47.6459 306.241 47.6459H298.64V51.5149L298.645 51.5094ZM293.711 43.5732H308.421C312.173 43.5732 313.158 45.4609 313.158 48.3338V49.3245C313.158 51.5094 312.666 52.6982 310.393 53.2926C311.871 53.5898 313.06 54.1841 313.06 56.8644V59.5447H308.224V57.6569C308.224 55.9728 307.731 55.3729 306.247 55.3729H298.547V59.5392H293.711V43.5677V43.5732ZM432.426 34.3436L423.641 23.9253H429.567L434.896 30.4746L440.224 23.9253H446.15L437.366 34.3436V39.9023H432.53V34.3436H432.431H432.426ZM407.84 31.7625H415.935C417.217 31.7625 417.71 31.2671 417.71 30.0783V29.583C417.71 28.1961 417.019 27.8989 415.437 27.8989H407.835V31.768L407.84 31.7625ZM402.906 23.9253H417.616C421.368 23.9253 422.354 25.8131 422.354 28.6859V29.6766C422.354 31.8615 421.861 33.0503 419.588 33.6447C421.067 33.9419 422.255 34.5363 422.255 37.2165V39.8968H417.419V38.009C417.419 36.3249 416.926 35.725 415.442 35.725H407.742V39.8913H402.906V23.9198V23.9253ZM383.359 32.7531C383.359 35.0371 383.852 35.9287 386.125 35.9287H392.347C394.62 35.9287 395.113 35.0371 395.113 32.7531V31.069C395.113 29.0822 394.62 27.8934 392.051 27.8934H386.322C383.754 27.8934 383.261 29.0822 383.261 31.069V32.7531H383.359ZM378.425 29.4785C378.425 24.8169 381.092 23.7217 385.435 23.7217H393.234C397.676 23.7217 400.244 24.8114 400.244 29.4785V34.2391C400.244 38.9006 397.577 39.9958 393.234 39.9958H385.435C380.993 39.9958 378.425 38.9061 378.425 34.2391V29.4785ZM357.788 23.9198H376.349V27.8879H369.438V39.8913H364.602V27.8879H357.69V23.9198H357.788ZM335.18 29.4785C335.18 24.8169 337.848 23.7217 342.191 23.7217H347.919C354.831 23.7217 355.817 25.2077 355.718 29.7756H350.882V29.3794C350.882 28.1906 350.094 27.8934 348.609 27.8934H343.281C340.712 27.8934 340.219 29.0822 340.219 31.069V32.7531C340.219 35.0371 340.712 35.9287 342.985 35.9287H348.215C350.389 35.9287 351.079 35.7306 351.079 33.7438H355.915V35.2297C355.915 37.91 354.93 40.0894 350.088 40.0894H342.191C337.749 40.0894 335.18 38.9997 335.18 34.3326V29.4729V29.4785ZM319.188 33.6447H325.41L322.25 27.5907L319.188 33.6447ZM319.09 23.9198H325.41L334.195 39.8913H328.767L327.288 37.0129H317.414L316.034 39.8913H310.606L319.095 23.9198H319.09Z" fill="#F7F7F7"/>
<path d="M574.689 23.9355L543.888 51.7178H532.436C531.351 51.7178 530.261 51.8168 529.276 52.114C528.29 52.4112 527.501 52.8075 526.608 53.4019C526.214 53.6991 525.82 53.9963 525.425 54.3925C524.341 55.4822 523.35 56.9737 522.561 58.7569C522.03 60.0337 521.389 61.305 520.88 62.5819L519.571 65.4713C519.352 65.9171 519.133 66.3794 518.914 66.8912C517.928 68.9771 517.035 71.0574 516.049 73.1433C514.171 77.1114 511.41 79.2963 507.659 79.2963H477.252C479.426 74.6348 481.398 70.1714 483.474 65.7024C483.966 64.5136 484.558 63.3194 485.149 62.1306C485.741 60.9418 486.234 59.7475 486.727 58.5587C488.802 53.6991 492.056 51.6132 496.306 51.6132H517.435C518.618 51.6132 519.708 51.6132 520.891 51.5141C521.482 51.4151 522.074 51.316 522.665 51.1179C523.257 50.9197 523.75 50.7216 524.242 50.4244C524.735 50.1272 525.228 49.731 525.623 49.3347C526.608 48.344 527.501 47.1498 528.191 45.5647C530.563 40.4078 532.83 35.2455 535.201 30.0886C536.976 26.1205 539.742 23.9355 543.296 23.9355C551.194 23.9355 566.89 23.9355 574.694 23.9355H574.689Z" fill="#DE2F3B"/>
<path d="M451.967 51.7119C453.544 48.2391 455.028 45.0635 456.408 41.7889C458.183 37.9199 459.963 34.0508 461.639 30.1818C463.517 26.2137 466.278 23.9297 469.931 23.9297H500.732C500.732 23.9297 500.83 24.0288 500.929 24.1278C499.549 27.3034 498.065 30.479 496.586 33.6546C494.811 37.6227 492.933 41.6898 491.158 45.6579C489.384 49.527 486.717 51.7119 483.162 51.7119C472.992 51.811 462.822 51.7119 452.657 51.7119H451.967Z" fill="#DE2F3B"/>
</svg>
