<svg width="21" height="21" viewBox="0 0 21 21" fill="none" xmlns="http://www.w3.org/2000/svg">
<path d="M9.75919 20.8955L20.1926 11.2802C20.287 11.1933 20.3627 11.0858 20.4146 10.9651C20.4665 10.8444 20.4933 10.7133 20.4933 10.5806C20.4933 10.4479 20.4665 10.3167 20.4146 10.196C20.3627 10.0753 20.287 9.96786 20.1926 9.88094L9.75919 0.268581C9.72775 0.239534 9.6891 0.2207 9.64786 0.214323C9.60662 0.207945 9.56452 0.214293 9.52658 0.23261C9.48864 0.250926 9.45645 0.28044 9.43386 0.317635C9.41126 0.35483 9.39921 0.398139 9.39914 0.442403L9.39914 2.789C9.39914 2.92226 9.45369 3.04973 9.54916 3.13954L16.4311 9.48115L1.07152 9.48115C0.951503 9.48115 0.853307 9.58544 0.853307 9.71291L0.853307 11.4511C0.853307 11.5786 0.951503 11.6829 1.07152 11.6829L16.4311 11.6829L9.54916 18.0245C9.45369 18.1114 9.39914 18.2389 9.39914 18.375L9.39914 20.7216C9.39914 20.9186 9.61735 21.0258 9.75919 20.8955Z" fill="#676767"/>
</svg>
