<svg width="138" height="138" viewBox="0 0 138 138" fill="none" xmlns="http://www.w3.org/2000/svg">
<path d="M91.4104 45.8905C90.8611 46.1996 90.2401 46.3597 89.6109 46.3597C89.3045 46.3597 88.9981 46.3597 88.6918 46.3597C77.3785 46.3376 65.9494 46.3183 54.8073 46.2907C54.3629 46.2907 53.9544 46.2907 53.4742 46.1499C53.0574 46.0285 52.7014 45.8215 52.3371 45.5897C50.3195 44.3145 46.5024 41.8857 45.484 41.2371C45.3184 41.1323 45.1252 41.0743 44.9265 41.0743C43.8363 41.0743 40.0882 41.0688 38.6033 41.0688C38.3356 41.0688 38.0761 40.997 37.8443 40.8645C36.0089 39.7964 34.0024 38.6207 32.1366 37.5139C31.8634 37.3511 31.7613 37.2627 31.6674 37.1413C31.5763 37.0199 31.5349 36.9039 31.5156 36.8156C31.4742 36.6279 31.5046 36.4513 31.5515 36.3105C31.5901 36.1946 31.6591 36.0594 31.7833 35.8607C31.9351 35.615 32.0869 35.3694 32.2387 35.121C32.5865 34.5579 32.8597 34.0998 33.4311 33.7603C33.6049 33.6582 33.754 33.5892 33.9748 33.5174C34.3695 33.396 34.7393 33.3767 35.3493 33.3739C57.7881 33.3077 80.2131 33.3077 102.652 33.3739C103.414 33.3767 103.841 33.4125 104.294 33.6057C104.656 33.7603 104.904 33.9756 105.072 34.1522C105.359 34.4531 105.558 34.7843 105.762 35.1182C105.914 35.3639 106.066 35.6095 106.218 35.8579C106.422 36.1919 106.579 36.4761 106.508 36.8156C106.447 37.0944 106.284 37.2627 105.864 37.5111C101.33 40.1966 96.0969 43.2326 91.4104 45.8905Z" fill="black"/>
<path d="M70.2387 86.8294C70.247 86.2001 70.4154 85.5819 70.7328 85.0354C70.8873 84.7704 71.0392 84.5055 71.1937 84.2405C76.871 74.4535 82.6008 64.5645 88.1953 54.9321C88.4189 54.5484 88.6231 54.1924 88.9847 53.8474C89.2965 53.5466 89.6553 53.3423 90.0362 53.1436C92.1504 52.0341 96.1634 49.942 97.2315 49.3845C97.4054 49.2934 97.5517 49.1554 97.6511 48.9843C98.1893 48.0542 100.019 44.8912 100.817 43.5112C100.952 43.2794 101.142 43.0889 101.374 42.9564C103.218 41.8994 105.238 40.7512 107.129 39.6886C107.405 39.5313 107.535 39.4871 107.686 39.4678C107.835 39.4485 107.96 39.4733 108.045 39.5009C108.23 39.5589 108.365 39.672 108.465 39.7852C108.545 39.8763 108.628 40.006 108.738 40.2102C108.876 40.4642 109.014 40.7181 109.149 40.9748C109.464 41.5571 109.723 42.0236 109.732 42.686C109.734 42.8874 109.721 43.0503 109.668 43.2794C109.577 43.6823 109.409 44.0108 109.105 44.5407C97.9436 64.007 86.7325 83.4263 75.4552 102.826C75.0715 103.486 74.8259 103.837 74.4339 104.132C74.1193 104.369 73.8074 104.474 73.5728 104.532C73.1699 104.629 72.7835 104.634 72.3915 104.645C72.1017 104.653 71.8147 104.662 71.5249 104.67C71.133 104.681 70.8073 104.676 70.5506 104.441C70.3381 104.251 70.2746 104.021 70.2691 103.536C70.2111 98.2668 70.1973 92.2169 70.2387 86.8294Z" fill="black"/>
<path d="M45.3595 48.0222C45.9005 48.3451 46.3531 48.8005 46.6678 49.347C46.8223 49.6147 46.9741 49.8797 47.1259 50.1419C52.7618 59.9509 58.4612 69.8593 64.0061 79.5221C64.2269 79.9085 64.4311 80.2618 64.5526 80.7475C64.6574 81.167 64.6547 81.581 64.6354 82.0116C64.5388 84.3962 64.3456 88.9199 64.2931 90.1232C64.2848 90.3192 64.3318 90.5152 64.4311 90.6863C64.9831 91.6468 66.9096 94.9891 67.6603 96.2918C67.7459 96.4409 67.79 96.6092 67.79 96.7804C67.7818 98.9442 67.7652 101.326 67.7404 103.545C67.7376 103.863 67.7128 103.995 67.652 104.139C67.5941 104.277 67.5113 104.373 67.445 104.434C67.3015 104.564 67.1359 104.627 66.9896 104.655C66.871 104.679 66.7192 104.685 66.4846 104.679C66.1948 104.671 65.9077 104.663 65.6179 104.655C64.9555 104.635 64.4228 104.627 63.8432 104.304C63.6666 104.205 63.5341 104.111 63.363 103.954C63.0594 103.672 62.8607 103.363 62.5516 102.836C51.2742 83.4358 40.0631 64.0164 28.8989 44.5501C28.5208 43.8877 28.3386 43.5013 28.2779 43.0128C28.231 42.6209 28.2944 42.298 28.3634 42.0661C28.4794 41.6687 28.6698 41.3292 28.8547 40.9842C28.9927 40.7303 29.1307 40.4764 29.266 40.2197C29.4509 39.8747 29.6192 39.5959 29.9504 39.4883C30.2209 39.4 30.45 39.4579 30.875 39.698C35.4677 42.2814 40.7117 45.2953 45.3595 48.025V48.0222Z" fill="black"/>
</svg>
