<svg width="105" height="6" viewBox="0 0 105 6" fill="none" xmlns="http://www.w3.org/2000/svg">
<path d="M6.97871 2.88483V0.235352H8.14248C8.23076 0.235352 8.303 0.306745 8.303 0.394003V3.15454C8.303 3.79708 8.14248 4.32063 7.82144 4.72519C7.5004 5.12975 7.03489 5.43119 6.44097 5.62157C5.83902 5.81195 5.13273 5.91507 4.30606 5.91507C3.47938 5.91507 2.78112 5.81988 2.17917 5.62157C1.57722 5.43119 1.11974 5.12975 0.798698 4.72519C0.477659 4.32063 0.317139 3.79708 0.317139 3.15454V0.394003C0.317139 0.306745 0.389373 0.235352 0.477659 0.235352H1.64143V2.88483C1.64143 3.32906 1.73774 3.69395 1.93036 3.97159C2.12299 4.24923 2.41192 4.45548 2.8052 4.5824C3.19847 4.71726 3.70411 4.78072 4.30606 4.78072C4.908 4.78072 5.42969 4.71726 5.82297 4.5824C6.21624 4.44755 6.50517 4.24923 6.6978 3.97159C6.89042 3.69395 6.98673 3.32906 6.98673 2.88483H6.97871Z" fill="#1E1F1E"/>
<path d="M10.743 4.69358H16.6501V5.66135C16.6501 5.74861 16.5779 5.82 16.4896 5.82H9.4187V0.38619C9.4187 0.298932 9.49093 0.227539 9.57922 0.227539H10.743V4.68565V4.69358Z" fill="#1E1F1E"/>
<path d="M19.0418 1.35396H15.6628V0.38619C15.6628 0.298932 15.7351 0.227539 15.8234 0.227539H23.753V1.19531C23.753 1.28257 23.6808 1.35396 23.5925 1.35396H20.3821V5.81207H19.0498V1.35396H19.0418Z" fill="#1E1F1E"/>
<path d="M25.8237 5.81207H24.6599V0.38619C24.6599 0.298932 24.7321 0.227539 24.8204 0.227539H30.1978C30.543 0.227539 30.856 0.259269 31.1369 0.330662C31.4178 0.402055 31.6505 0.505179 31.8512 0.655898C32.0438 0.806617 32.1963 0.996999 32.3007 1.23498C32.405 1.47295 32.4612 1.76646 32.4612 2.10756C32.4612 2.50419 32.3889 2.83736 32.2364 3.10706C32.084 3.37677 31.8592 3.58302 31.5703 3.71787C31.2814 3.86066 30.9122 3.93998 30.4868 3.96378H29.9811L32.3809 5.80414H30.7597C30.7597 5.80414 30.6874 5.78827 30.6634 5.77241L28.5284 4.04311H26.0003V5.65342C26.0003 5.74068 25.928 5.81207 25.8397 5.81207H25.8237ZM25.9842 1.35396V3.05947H30.0775C30.4386 3.05947 30.6955 2.99601 30.8479 2.86115C31.0085 2.7263 31.0807 2.51212 31.0807 2.21068C31.0807 1.89338 31.0004 1.67127 30.8479 1.54435C30.6874 1.41742 30.4306 1.35396 30.0775 1.35396H25.9842Z" fill="#1E1F1E"/>
<path d="M38.3843 0.298932C38.3522 0.259269 38.304 0.227539 38.2559 0.227539H36.6587C36.6025 0.227539 36.5544 0.251337 36.5303 0.298932L32.7661 5.81207H34.275C34.3312 5.81207 34.3793 5.78827 34.4034 5.74068L35.1498 4.62218H39.7567L40.5032 5.74068C40.5353 5.78827 40.5834 5.81207 40.6316 5.81207H42.1565L38.3923 0.298932H38.3843ZM35.7598 3.70201L37.4453 1.16358L39.1307 3.70201H35.7518H35.7598Z" fill="#1E1F1E"/>
<path d="M44.6447 5.74068L40.9126 0.227539H42.4456C42.5017 0.227539 42.5499 0.251337 42.574 0.298932L45.5837 4.74117L48.5854 0.298932C48.6175 0.259269 48.6657 0.227539 48.7139 0.227539H50.2227L46.4987 5.74068C46.4666 5.78034 46.4184 5.81207 46.3703 5.81207H44.7731C44.7169 5.81207 44.6688 5.78827 44.6447 5.74068Z" fill="#1E1F1E"/>
<path d="M52.165 5.81207H51.0012V0.38619C51.0012 0.298932 51.0735 0.227539 51.1617 0.227539H52.3255V5.65342C52.3255 5.74068 52.2533 5.81207 52.165 5.81207Z" fill="#1E1F1E"/>
<path d="M57.8955 5.91492C56.8521 5.91492 55.9934 5.8118 55.3272 5.60555C54.653 5.3993 54.1634 5.082 53.8424 4.65364C53.5214 4.22528 53.3608 3.67794 53.3608 3.0116C53.3608 2.34526 53.5214 1.78998 53.8424 1.36956C54.1634 0.941198 54.661 0.631828 55.3272 0.425582C56.0014 0.219335 56.8521 0.116211 57.8955 0.116211C58.9389 0.116211 59.8057 0.219335 60.4719 0.425582C61.138 0.631828 61.6356 0.949131 61.9567 1.36956C62.2777 1.79792 62.4382 2.34526 62.4382 3.0116C62.4382 3.67794 62.2777 4.22528 61.9567 4.65364C61.6356 5.082 61.146 5.3993 60.4719 5.60555C59.8057 5.8118 58.9469 5.91492 57.8955 5.91492ZM57.8955 4.7885C58.5055 4.7885 59.0111 4.75677 59.4205 4.68537C59.8298 4.61398 60.1588 4.51086 60.3996 4.36807C60.6484 4.22528 60.825 4.04283 60.9293 3.82072C61.0337 3.59861 61.0899 3.3289 61.0899 3.01953C61.0899 2.71016 61.0337 2.43252 60.9293 2.21041C60.825 1.9883 60.6484 1.80585 60.3996 1.66306C60.1508 1.52028 59.8298 1.41715 59.4205 1.34576C59.0111 1.2823 58.5055 1.25057 57.8955 1.25057C57.0929 1.25057 56.4508 1.31403 55.9853 1.43302C55.5198 1.55201 55.1827 1.74239 54.9821 2.00416C54.7814 2.26594 54.6851 2.60704 54.6851 3.01953C54.6851 3.43203 54.7814 3.78106 54.9821 4.0349C55.1827 4.29668 55.5118 4.48706 55.9853 4.60605C56.4589 4.72504 57.0929 4.7885 57.8955 4.7885Z" fill="#1E1F1E"/>
<path d="M64.7818 4.69358H70.6889V5.66135C70.6889 5.74861 70.6167 5.82 70.5284 5.82H63.4575V0.38619C63.4575 0.298932 63.5298 0.227539 63.618 0.227539H64.7818V4.68565V4.69358Z" fill="#1E1F1E"/>
<path d="M78.795 5.81109H71.692C71.6037 5.81109 71.5315 5.7397 71.5315 5.65244V0.385214C71.5315 0.297956 71.6037 0.226562 71.692 0.226562H78.795C78.8833 0.226562 78.9555 0.297956 78.9555 0.385214V1.26573H72.8558V2.38422C72.8558 2.47148 72.928 2.54287 73.0163 2.54287H78.787V3.39959H73.0163C72.928 3.39959 72.8558 3.47098 72.8558 3.55824V4.77193H78.9555V5.65244C78.9555 5.7397 78.8833 5.81109 78.795 5.81109Z" fill="#1E1F1E"/>
<path d="M83.1534 1.35396H79.7744V0.38619C79.7744 0.298932 79.8467 0.227539 79.9349 0.227539H87.8646V1.19531C87.8646 1.28257 87.7924 1.35396 87.7041 1.35396H84.4937V5.81207H83.1614V1.35396H83.1534Z" fill="#1E1F1E"/>
<path d="M91.9659 1.35396H88.5869V0.38619C88.5869 0.298932 88.6592 0.227539 88.7474 0.227539H96.6771V1.19531C96.6771 1.28257 96.6049 1.35396 96.5166 1.35396H93.3062V5.81207H91.9739V1.35396H91.9659Z" fill="#1E1F1E"/>
<path d="M104.84 5.81207H97.7367C97.6484 5.81207 97.5762 5.74068 97.5762 5.65342V0.38619C97.5762 0.298932 97.6484 0.227539 97.7367 0.227539H104.84C104.928 0.227539 105 0.298932 105 0.38619V1.26671H98.9005V2.3852C98.9005 2.47246 98.9727 2.54385 99.061 2.54385H104.832V3.40057H99.061C98.9727 3.40057 98.9005 3.47196 98.9005 3.55922V4.7729H105V5.65342C105 5.74068 104.928 5.81207 104.84 5.81207Z" fill="#1E1F1E"/>
</svg>
