<svg width="30" height="24" viewBox="0 0 30 24" fill="none" xmlns="http://www.w3.org/2000/svg">
<path d="M22.9421 4.3839H22.25C18.0846 4.37656 13.8758 4.36996 9.7739 4.36042C9.60873 4.36712 9.44339 4.3513 9.28333 4.31348C9.13438 4.26951 8.9932 4.20601 8.86423 4.12496C8.00192 3.62666 7.14203 3.12762 6.28455 2.62784L6.25484 2.61097C6.25008 2.60809 6.24449 2.60656 6.23878 2.60657H6.0501H3.6583C2.94775 2.22954 2.15851 1.80703 1.42708 1.41093C1.36007 1.38133 1.3011 1.33849 1.25446 1.2855C1.2271 1.25304 1.20791 1.21547 1.19825 1.17547C1.18573 1.11867 1.19045 1.05982 1.2119 1.00529C1.23438 0.952563 1.26291 0.902158 1.29701 0.854921L1.46401 0.606256C1.59167 0.416274 1.69283 0.262968 1.90319 0.148539C1.96599 0.113636 2.03345 0.0862694 2.10391 0.0671168C2.26814 0.0267327 2.43824 0.00990602 2.60813 0.0172378C10.8709 -0.00574592 19.1313 -0.00574592 27.3892 0.0172378C27.6703 0.0172378 27.8268 0.0304417 27.9938 0.0957252C28.102 0.138421 28.1995 0.200818 28.2805 0.279106C28.3775 0.379096 28.4625 0.488278 28.5342 0.60479L28.702 0.853453C28.7766 0.964948 28.8353 1.06104 28.8088 1.17547C28.7863 1.26863 28.7285 1.32658 28.5679 1.40946C26.8979 2.31316 24.9718 3.33423 23.2455 4.22839L22.9421 4.3839Z" fill="white"/>
<path d="M6.2825 2.62659L6.24557 2.60532H6.04806H3.65625C4.94087 3.28676 6.39731 4.05182 7.69478 4.71712L8.86218 4.13031C7.99988 3.6276 7.13998 3.12636 6.2825 2.62659Z" fill="#3FE1F4"/>
<path d="M7.69531 4.71167C7.78104 4.75938 7.87377 4.79569 7.9707 4.8195C8.13347 4.84885 8.29963 4.85945 8.46528 4.85104C12.9518 4.81925 17.3072 4.81925 21.5315 4.85104C21.6491 4.85439 21.7668 4.85072 21.8839 4.84003C21.9249 4.83563 21.9578 4.8305 21.9835 4.8261C22.0324 4.81693 22.0804 4.80442 22.1272 4.78869C22.1801 4.77029 22.2314 4.74822 22.2806 4.72267L22.6362 4.54002L22.9405 4.38158H22.2485C18.0831 4.37425 13.8743 4.36765 9.77238 4.35811C9.60722 4.36481 9.44188 4.34899 9.28182 4.31117C9.13286 4.2672 8.99168 4.2037 8.86271 4.12265L7.69531 4.71167Z" fill="#36B6CF"/>
<path d="M15.459 17.6741C15.5762 17.4892 15.691 17.3073 15.8059 17.1276C17.8934 13.8348 20.0066 10.5083 22.0684 7.26759C22.145 7.13296 22.243 7.00938 22.359 6.90083C22.4751 6.80518 22.6057 6.72538 22.7468 6.6639C23.6503 6.23063 24.5533 5.79957 25.4558 5.3707L25.4863 5.35676C25.4917 5.35403 25.4961 5.34996 25.4991 5.34503L25.5176 5.31642C25.5433 5.27534 25.5666 5.23793 25.5939 5.19612C25.98 4.58583 26.3702 3.96967 26.7918 3.3051C27.5047 2.93173 28.3004 2.51876 29.0398 2.13733C29.1018 2.09963 29.1719 2.07461 29.2454 2.06398C29.2896 2.05864 29.3345 2.06215 29.3771 2.07425C29.4375 2.09252 29.4911 2.12579 29.532 2.17034C29.5711 2.21428 29.6047 2.262 29.6324 2.31264L29.7841 2.56937C29.8997 2.76522 29.9953 2.9222 29.9985 3.14592C30.0006 3.21284 29.9928 3.27971 29.9752 3.34471C29.9307 3.49524 29.8608 3.63852 29.7681 3.76942C25.6573 10.3193 21.5275 16.8557 17.3787 23.3787C17.2366 23.5987 17.1467 23.7183 17.0022 23.8188C16.9077 23.8831 16.7997 23.9288 16.685 23.953C16.5416 23.9803 16.3955 23.9933 16.2491 23.9919L15.9279 24C15.7834 24 15.6637 24 15.569 23.923C15.4887 23.8591 15.467 23.7821 15.4654 23.6193C15.4438 21.8464 15.4389 19.8116 15.4542 17.9983L15.459 17.6741Z" fill="white"/>
<path d="M25.455 5.37215L25.4936 5.35381L25.5169 5.31787C25.5426 5.27679 25.5658 5.23938 25.5931 5.19757C25.9793 4.58728 26.3695 3.97112 26.791 3.30655C25.5064 3.97992 24.0492 4.75232 22.7702 5.44624L22.7461 6.66535C23.6496 6.23257 24.5526 5.80151 25.455 5.37215Z" fill="#3FE1F4"/>
<path d="M22.7696 5.44547C22.6814 5.48943 22.6003 5.5445 22.5288 5.60904C22.4197 5.72352 22.3267 5.84992 22.2518 5.98534C20.0379 9.55026 17.8602 12.9961 15.7187 16.3229C15.6568 16.4145 15.6013 16.5095 15.5525 16.6075C15.5364 16.6417 15.5244 16.6703 15.5163 16.6933C15.5005 16.7364 15.4881 16.7806 15.4794 16.8253C15.4707 16.8763 15.4661 16.9278 15.4658 16.9794C15.4658 17.1033 15.4658 17.2273 15.4609 17.3527V17.6726C15.5782 17.4877 15.693 17.3058 15.8078 17.1261C17.8953 13.8333 20.0085 10.5068 22.0703 7.26607C22.1469 7.13144 22.2449 7.00786 22.361 6.89931C22.477 6.80366 22.6077 6.72386 22.7487 6.66238L22.7696 5.44547Z" fill="#36B6CF"/>
<path d="M6.60013 5.1103L6.94216 5.65824C9.01843 8.9591 11.1172 12.2915 13.1581 15.5417C13.2473 15.6689 13.3149 15.8076 13.3588 15.9532C13.3917 16.0929 13.4023 16.2362 13.3902 16.3787C13.3495 17.3103 13.3064 18.2394 13.2609 19.1661V19.1976C13.2607 19.203 13.2621 19.2083 13.2649 19.213L13.2834 19.2416L13.3588 19.3619L14.5527 21.2559C14.5527 22.007 14.5439 22.8425 14.5351 23.6186C14.5399 23.6865 14.5287 23.7545 14.5022 23.8181C14.485 23.8558 14.459 23.8896 14.4259 23.9171C14.3785 23.9553 14.3204 23.9807 14.2581 23.9905C14.1968 23.9993 14.1346 24.002 14.0726 23.9985L13.7515 23.9905C13.5106 23.9839 13.3115 23.9809 13.0979 23.8724C13.0338 23.84 12.9745 23.8003 12.9213 23.7543C12.801 23.6437 12.7003 23.5167 12.6226 23.378C8.47166 16.8545 4.34215 10.3203 0.234038 3.77529C0.0951389 3.55524 0.0276942 3.42173 0.00601627 3.25742C-0.00805144 3.15048 0.00261739 3.04202 0.0373301 2.93907C0.0828792 2.81122 0.143449 2.68825 0.21798 2.57231L0.369727 2.31558C0.438775 2.20042 0.500596 2.10579 0.621832 2.07058C0.72139 2.04051 0.806495 2.06031 0.962256 2.14394C2.65314 3.01316 4.58489 4.02762 6.29504 4.94599L6.60013 5.1103Z" fill="white"/>
<path d="M13.2637 19.1686V19.2082L13.287 19.2441L13.3624 19.3644L14.5563 21.2584C14.5611 19.9036 14.5563 18.3654 14.5387 17.0039L13.3953 16.3753C13.3531 17.3088 13.3092 18.2399 13.2637 19.1686Z" fill="#3FE1F4"/>
<path d="M14.5373 17.0072C14.5397 16.9156 14.5278 16.8242 14.502 16.7358C14.4481 16.592 14.3747 16.455 14.2836 16.3279C12.013 12.7948 9.8356 9.34896 7.7513 5.9904C7.6957 5.89548 7.6332 5.80408 7.56423 5.7168C7.54014 5.68672 7.51846 5.66325 7.5016 5.64344C7.46874 5.60895 7.43274 5.57705 7.39401 5.54808C7.35045 5.51529 7.30399 5.48585 7.25511 5.46006L6.90345 5.26935L6.60156 5.10797L6.94359 5.65811C9.01986 8.95897 11.1186 12.2914 13.1596 15.5416C13.2487 15.6688 13.3164 15.8075 13.3603 15.9531C13.3932 16.0928 13.4037 16.2361 13.3916 16.3786L14.5373 17.0072Z" fill="#36B6CF"/>
</svg>
