<svg width="15" height="15" viewBox="0 0 15 15" fill="none" xmlns="http://www.w3.org/2000/svg">
<g id="moon">
<rect width="15" height="15" fill="white"/>
<path id="Vector" d="M12.4279 8.96341C12.2479 9.55695 11.9608 10.1157 11.5779 10.6109C10.9825 11.381 10.1801 11.9656 9.26452 12.2963C8.34898 12.627 7.35818 12.6901 6.40808 12.4783C5.45797 12.2664 4.58784 11.7884 3.89952 11.1001C3.21119 10.4117 2.73313 9.5416 2.52128 8.5915C2.30943 7.64139 2.37255 6.65059 2.70325 5.73505C3.03395 4.8195 3.61856 4.01707 4.38866 3.42165C4.88388 3.03877 5.44262 2.75168 6.03616 2.57168C5.735 3.28162 5.60438 4.05816 5.66254 4.83807C5.74937 6.00247 6.25125 7.09703 7.0769 7.92268C7.90254 8.74832 8.9971 9.2502 10.1615 9.33703C10.9414 9.39519 11.7179 9.26457 12.4279 8.96341Z" fill="black" stroke="black" stroke-linecap="round" stroke-linejoin="round"/>
</g>
</svg>
