<svg width="137" height="32" viewBox="0 0 137 32" fill="none" xmlns="http://www.w3.org/2000/svg">
<g clip-path="url(#clip0_15647_16346)">
<path d="M3.14883 6.21297C1.42186 6.21297 0.00746133 4.81428 0.00746141 3.10648C0.00746149 1.39868 1.42186 -1.81096e-05 3.14883 -1.8035e-05C4.8758 -1.79604e-05 6.2902 1.39868 6.2902 3.10648C6.2902 4.81428 4.8758 6.21297 3.14883 6.21297ZM14.9641 3.10648C14.9641 1.39868 13.5497 -1.75858e-05 11.8228 -1.76604e-05C10.0958 -1.7735e-05 8.68139 1.39868 8.68139 3.10648C8.68139 4.81428 10.0958 6.21297 11.8228 6.21297C13.5497 6.21297 14.9641 4.81428 14.9641 3.10648ZM23.6459 3.10648C23.6459 1.39868 22.2315 -1.72109e-05 20.5045 -1.72855e-05C18.7775 -1.73601e-05 17.3631 1.39868 17.3631 3.10648C17.3631 4.81428 18.7775 6.21297 20.5045 6.21297C22.2315 6.21297 23.6459 4.81428 23.6459 3.10648ZM32.3198 3.10648C32.3198 1.39868 30.9054 -1.68364e-05 29.1784 -1.69109e-05C27.4515 -1.69855e-05 26.0371 1.39868 26.0371 3.10648C26.0371 4.81428 27.4515 6.21297 29.1784 6.21297C30.9054 6.21297 32.3198 4.81428 32.3198 3.10648ZM41.4001 3.10648C41.4001 1.39868 39.9857 -1.64442e-05 38.2587 -1.65188e-05C36.5317 -1.65934e-05 35.1173 1.39868 35.1173 3.10648C35.1173 4.81428 36.5317 6.21297 38.2587 6.21297C39.9857 6.21297 41.4001 4.81428 41.4001 3.10648ZM58.7558 3.10648C58.7558 1.39868 57.3414 -1.56948e-05 55.6144 -1.57693e-05C53.8874 -1.58439e-05 52.473 1.39868 52.473 3.10648C52.473 4.81428 53.8874 6.21297 55.6144 6.21297C57.3414 6.21298 58.7558 4.81428 58.7558 3.10648ZM67.4375 3.10648C67.4375 1.39868 66.0231 -1.53199e-05 64.2961 -1.53944e-05C62.5692 -1.5469e-05 61.1548 1.39868 61.1548 3.10648C61.1548 4.81428 62.5692 6.21298 64.2961 6.21298C66.0231 6.21298 67.4375 4.81428 67.4375 3.10648ZM6.2902 11.6996C6.2902 9.99177 4.8758 8.59307 3.14883 8.59307C1.42186 8.59307 0.00746111 9.99177 0.00746103 11.6996C0.00746095 13.4074 1.42186 14.8061 3.14883 14.8061C4.8758 14.8061 6.2902 13.4074 6.2902 11.6996ZM23.6459 11.6996C23.6459 9.99177 22.2315 8.59307 20.5045 8.59307C18.7775 8.59307 17.3631 9.99177 17.3631 11.6996C17.3631 13.4074 18.7775 14.8061 20.5045 14.8061C22.2315 14.8061 23.6459 13.4074 23.6459 11.6996ZM32.3198 11.6996C32.3198 9.99177 30.9054 8.59307 29.1784 8.59307C27.4515 8.59307 26.0371 9.99177 26.0371 11.6996C26.0371 13.4074 27.4515 14.8061 29.1784 14.8061C30.9054 14.8061 32.3198 13.4074 32.3198 11.6996ZM41.4001 11.6996C41.4001 9.99177 39.9857 8.59307 38.2587 8.59307C36.5317 8.59307 35.1173 9.99177 35.1173 11.6996C35.1173 13.4074 36.5317 14.8061 38.2587 14.8061C39.9857 14.8061 41.4001 13.4074 41.4001 11.6996ZM50.074 11.6996C50.074 9.99177 48.6596 8.59307 46.9326 8.59307C45.2057 8.59307 43.7913 9.99177 43.7913 11.6996C43.7913 13.4074 45.2057 14.8061 46.9326 14.8061C48.6596 14.8061 50.074 13.4074 50.074 11.6996ZM58.7558 11.6996C58.7558 9.99177 57.3414 8.59308 55.6144 8.59308C53.8874 8.59308 52.473 9.99177 52.473 11.6996C52.473 13.4074 53.8874 14.8061 55.6144 14.8061C57.3414 14.8061 58.7558 13.4074 58.7558 11.6996ZM6.28239 20.2927C6.28239 18.5849 4.86799 17.1862 3.14102 17.1862C1.41405 17.1862 -0.000351774 18.5849 -0.00035185 20.2927C-0.000351926 22.0005 1.41405 23.3992 3.14102 23.3992C4.86799 23.3992 6.28239 22.0005 6.28239 20.2927ZM14.9563 20.2927C14.9563 18.5849 13.5419 17.1862 11.8149 17.1862C10.088 17.1862 8.67358 18.5849 8.67358 20.2927C8.67358 22.0005 10.088 23.3992 11.8149 23.3992C13.5419 23.3992 14.9563 22.0005 14.9563 20.2927ZM23.6381 20.2927C23.6381 18.5849 22.2237 17.1862 20.4967 17.1862C18.7697 17.1862 17.3553 18.5849 17.3553 20.2927C17.3553 22.0005 18.7697 23.3992 20.4967 23.3992C22.2237 23.3992 23.6381 22.0005 23.6381 20.2927ZM32.312 20.2927C32.312 18.5849 30.8976 17.1862 29.1706 17.1862C27.4436 17.1862 26.0293 18.5849 26.0293 20.2927C26.0293 22.0005 27.4436 23.3992 29.1706 23.3992C30.8976 23.3992 32.312 22.0005 32.312 20.2927ZM41.3923 20.2927C41.3923 18.5849 39.9779 17.1862 38.2509 17.1862C36.5239 17.1862 35.1095 18.5849 35.1095 20.2927C35.1095 22.0005 36.5239 23.3992 38.2509 23.3992C39.9779 23.3992 41.3923 22.0005 41.3923 20.2927ZM58.7479 20.2927C58.7479 18.5849 57.3335 17.1862 55.6066 17.1862C53.8796 17.1862 52.4652 18.5849 52.4652 20.2927C52.4652 22.0005 53.8796 23.3992 55.6066 23.3992C57.3335 23.3992 58.7479 22.0005 58.7479 20.2927ZM67.4219 20.2927C67.4219 18.5849 66.0075 17.1862 64.2805 17.1862C62.5535 17.1862 61.1391 18.5849 61.1391 20.2927C61.1391 22.0005 62.5535 23.3992 64.2805 23.3992C66.0075 23.3992 67.4219 22.0005 67.4219 20.2927ZM6.27457 28.8858C6.27457 27.178 4.86017 25.7793 3.1332 25.7793C1.40623 25.7793 -0.00816465 27.178 -0.00816473 28.8858C-0.00816481 30.5936 1.40623 31.9922 3.1332 31.9922C4.86017 31.9922 6.27457 30.5936 6.27457 28.8858ZM23.6302 28.8858C23.6302 27.178 22.2158 25.7793 20.4889 25.7793C18.7619 25.7793 17.3475 27.178 17.3475 28.8858C17.3475 30.5936 18.7619 31.9922 20.4889 31.9922C22.2158 31.9922 23.6302 30.5936 23.6302 28.8858ZM32.3042 28.8858C32.3042 27.178 30.8898 25.7793 29.1628 25.7793C27.4358 25.7793 26.0214 27.178 26.0214 28.8858C26.0214 30.5936 27.4358 31.9922 29.1628 31.9922C30.8898 31.9922 32.3042 30.5936 32.3042 28.8858ZM41.3845 28.8858C41.3845 27.178 39.9701 25.7793 38.2431 25.7793C36.5161 25.7793 35.1017 27.178 35.1017 28.8858C35.1017 30.5936 36.5161 31.9922 38.2431 31.9922C39.9701 31.9922 41.3845 30.5936 41.3845 28.8858ZM50.0584 28.8858C50.0584 27.178 48.644 25.7793 46.917 25.7793C45.19 25.7793 43.7756 27.178 43.7756 28.8858C43.7756 30.5936 45.19 31.9922 46.917 31.9922C48.644 31.9922 50.0584 30.5936 50.0584 28.8858ZM58.7401 28.8858C58.7401 27.178 57.3257 25.7793 55.5988 25.7793C53.8718 25.7793 52.4574 27.178 52.4574 28.8858C52.4574 30.5936 53.8718 31.9922 55.5988 31.9922C57.3257 31.9923 58.7401 30.5936 58.7401 28.8858ZM67.4141 28.8858C67.4141 27.178 65.9997 25.7793 64.2727 25.7793C62.5457 25.7793 61.1313 27.178 61.1313 28.8858C61.1313 30.5936 62.5457 31.9923 64.2727 31.9923C65.9997 31.9923 67.4141 30.5936 67.4141 28.8858Z" fill="#DDDDDD"/>
</g>
<g clip-path="url(#clip1_15647_16346)">
<path d="M72.7113 6.2132C70.9844 6.2132 69.57 4.81451 69.57 3.10671C69.57 1.39891 70.9844 0.000210772 72.7113 0.000210847C74.4383 0.000210921 75.8527 1.39891 75.8527 3.10671C75.8527 4.81451 74.4383 6.2132 72.7113 6.2132ZM84.5266 3.10671C84.5266 1.39891 83.1122 0.000211296 81.3853 0.000211221C79.6583 0.000211147 78.2439 1.39891 78.2439 3.10671C78.2439 4.81451 79.6583 6.2132 81.3853 6.2132C83.1122 6.2132 84.5266 4.81451 84.5266 3.10671ZM93.2084 3.10671C93.2084 1.39891 91.794 0.000211671 90.067 0.000211596C88.34 0.000211522 86.9256 1.39891 86.9256 3.10671C86.9256 4.81451 88.34 6.2132 90.067 6.2132C91.794 6.2132 93.2084 4.81451 93.2084 3.10671ZM101.882 3.10671C101.882 1.39891 100.468 0.000212045 98.7409 0.000211971C97.014 0.000211896 95.5996 1.39891 95.5996 3.10671C95.5996 4.81451 97.014 6.2132 98.7409 6.2132C100.468 6.2132 101.882 4.81451 101.882 3.10671ZM110.963 3.10671C110.963 1.39891 109.548 0.000212438 107.821 0.000212363C106.094 0.000212288 104.68 1.39891 104.68 3.10671C104.68 4.81451 106.094 6.2132 107.821 6.2132C109.548 6.2132 110.963 4.81451 110.963 3.10671ZM128.318 3.10671C128.318 1.39891 126.904 0.000213187 125.177 0.000213112C123.45 0.000213038 122.036 1.39891 122.036 3.10671C122.036 4.81451 123.45 6.2132 125.177 6.2132C126.904 6.2132 128.318 4.81451 128.318 3.10671ZM137 3.10671C137 1.39891 135.586 0.000213562 133.859 0.000213487C132.132 0.000213413 130.717 1.39891 130.717 3.10671C130.717 4.81451 132.132 6.2132 133.859 6.2132C135.586 6.2132 137 4.81451 137 3.10671ZM75.8527 11.6998C75.8527 9.992 74.4383 8.5933 72.7113 8.5933C70.9844 8.5933 69.57 9.992 69.57 11.6998C69.57 13.4076 70.9844 14.8063 72.7113 14.8063C74.4383 14.8063 75.8527 13.4076 75.8527 11.6998ZM93.2084 11.6998C93.2084 9.992 91.794 8.5933 90.067 8.5933C88.34 8.5933 86.9256 9.992 86.9256 11.6998C86.9256 13.4076 88.34 14.8063 90.067 14.8063C91.794 14.8063 93.2084 13.4076 93.2084 11.6998ZM101.882 11.6998C101.882 9.992 100.468 8.5933 98.7409 8.5933C97.014 8.5933 95.5996 9.992 95.5996 11.6998C95.5996 13.4076 97.014 14.8063 98.7409 14.8063C100.468 14.8063 101.882 13.4076 101.882 11.6998ZM110.963 11.6998C110.963 9.992 109.548 8.5933 107.821 8.5933C106.094 8.5933 104.68 9.992 104.68 11.6998C104.68 13.4076 106.094 14.8063 107.821 14.8063C109.548 14.8063 110.963 13.4076 110.963 11.6998ZM119.637 11.6998C119.637 9.992 118.222 8.5933 116.495 8.5933C114.768 8.5933 113.354 9.992 113.354 11.6998C113.354 13.4076 114.768 14.8063 116.495 14.8063C118.222 14.8063 119.637 13.4076 119.637 11.6998ZM128.318 11.6998C128.318 9.992 126.904 8.5933 125.177 8.5933C123.45 8.5933 122.036 9.992 122.036 11.6998C122.036 13.4076 123.45 14.8063 125.177 14.8063C126.904 14.8063 128.318 13.4076 128.318 11.6998ZM75.8449 20.2929C75.8449 18.5851 74.4305 17.1864 72.7035 17.1864C70.9765 17.1864 69.5621 18.5851 69.5621 20.2929C69.5621 22.0007 70.9765 23.3994 72.7035 23.3994C74.4305 23.3994 75.8449 22.0007 75.8449 20.2929ZM84.5188 20.2929C84.5188 18.5851 83.1044 17.1864 81.3774 17.1864C79.6505 17.1864 78.2361 18.5851 78.2361 20.2929C78.2361 22.0007 79.6505 23.3994 81.3774 23.3994C83.1044 23.3994 84.5188 22.0007 84.5188 20.2929ZM93.2006 20.2929C93.2006 18.5851 91.7862 17.1864 90.0592 17.1864C88.3322 17.1864 86.9178 18.5851 86.9178 20.2929C86.9178 22.0007 88.3322 23.3994 90.0592 23.3994C91.7862 23.3994 93.2006 22.0007 93.2006 20.2929ZM101.874 20.2929C101.874 18.5851 100.46 17.1864 98.7331 17.1864C97.0061 17.1864 95.5918 18.5851 95.5918 20.2929C95.5918 22.0007 97.0061 23.3994 98.7331 23.3994C100.46 23.3994 101.874 22.0007 101.874 20.2929ZM110.955 20.2929C110.955 18.5851 109.54 17.1864 107.813 17.1864C106.086 17.1864 104.672 18.5851 104.672 20.2929C104.672 22.0007 106.086 23.3994 107.813 23.3994C109.54 23.3994 110.955 22.0007 110.955 20.2929ZM128.31 20.2929C128.31 18.5851 126.896 17.1864 125.169 17.1864C123.442 17.1864 122.028 18.5851 122.028 20.2929C122.028 22.0007 123.442 23.3994 125.169 23.3994C126.896 23.3994 128.31 22.0007 128.31 20.2929ZM136.984 20.2929C136.984 18.5851 135.57 17.1864 133.843 17.1864C132.116 17.1864 130.702 18.5851 130.702 20.2929C130.702 22.0007 132.116 23.3994 133.843 23.3994C135.57 23.3994 136.984 22.0007 136.984 20.2929ZM75.8371 28.886C75.8371 27.1782 74.4227 25.7795 72.6957 25.7795C70.9687 25.7795 69.5543 27.1782 69.5543 28.886C69.5543 30.5938 70.9687 31.9925 72.6957 31.9925C74.4227 31.9925 75.8371 30.5938 75.8371 28.886ZM93.1927 28.886C93.1927 27.1782 91.7783 25.7795 90.0514 25.7795C88.3244 25.7795 86.91 27.1782 86.91 28.886C86.91 30.5938 88.3244 31.9925 90.0514 31.9925C91.7783 31.9925 93.1927 30.5938 93.1927 28.886ZM101.867 28.886C101.867 27.1782 100.452 25.7795 98.7253 25.7795C96.9983 25.7795 95.5839 27.1782 95.5839 28.886C95.5839 30.5938 96.9983 31.9925 98.7253 31.9925C100.452 31.9925 101.867 30.5938 101.867 28.886ZM110.947 28.886C110.947 27.1782 109.533 25.7795 107.806 25.7795C106.079 25.7795 104.664 27.1782 104.664 28.886C104.664 30.5938 106.079 31.9925 107.806 31.9925C109.533 31.9925 110.947 30.5938 110.947 28.886ZM119.621 28.886C119.621 27.1782 118.206 25.7795 116.48 25.7795C114.753 25.7795 113.338 27.1782 113.338 28.886C113.338 30.5938 114.753 31.9925 116.48 31.9925C118.206 31.9925 119.621 30.5938 119.621 28.886ZM128.303 28.886C128.303 27.1782 126.888 25.7795 125.161 25.7795C123.434 25.7795 122.02 27.1782 122.02 28.886C122.02 30.5938 123.434 31.9925 125.161 31.9925C126.888 31.9925 128.303 30.5938 128.303 28.886ZM136.977 28.886C136.977 27.1782 135.562 25.7795 133.835 25.7795C132.108 25.7795 130.694 27.1782 130.694 28.886C130.694 30.5938 132.108 31.9925 133.835 31.9925C135.562 31.9925 136.977 30.5938 136.977 28.886Z" fill="#DDDDDD"/>
</g>
<defs>
<clipPath id="clip0_15647_16346">
<rect width="32" height="67.4379" fill="white" transform="translate(67.4375) rotate(90)"/>
</clipPath>
<clipPath id="clip1_15647_16346">
<rect width="32" height="67.4379" fill="white" transform="translate(137) rotate(90)"/>
</clipPath>
</defs>
</svg>
