<svg width="167" height="180" viewBox="0 0 167 180" fill="none" xmlns="http://www.w3.org/2000/svg">
<path d="M18.8878 38.123H24.7284L28.208 34.998H16.0295C16.0295 34.998 14.9111 34.998 14.414 35.248L8.57337 37.748H8.4491L1.11719 44.623H11.3073L11.9287 44.123C11.9287 44.123 12.7985 43.498 13.2956 43.373L21.2489 41.248C21.2489 41.248 21.6217 41.123 21.746 40.998L23.2372 39.623H17.2722L15.0354 41.623H14.7869L18.0179 38.498C18.0179 38.498 18.7635 37.998 19.2606 37.998L18.8878 38.123Z" fill="#262626"/>
<path d="M47.7182 35.375C47.7182 35.375 47.7182 35.125 47.7182 35C47.7182 35 47.7182 34.75 47.5939 34.625L44.2386 31.375L42.7474 29.875L41.8775 29H25.3496L24.3555 30L28.5806 34.25H34.7941L35.2912 34.875L26.2195 43.125C26.2195 43.125 25.8467 43.625 25.8467 44V44.5H37.9009L42.9959 39.75L47.7182 35.375Z" fill="#262626"/>
<path d="M67.8495 35C67.8495 35 67.8495 34.75 67.7252 34.625L64.37 31.375L62.8787 29.875L62.0088 29H45.481L44.4868 30L48.712 34.25H54.9255L55.4225 34.875L46.3509 43.125C46.3509 43.125 45.9781 43.625 45.9781 44V44.5H58.0322L63.1273 39.75L67.8495 35.375C67.8495 35.375 67.8495 35.125 67.8495 35Z" fill="#262626"/>
<path d="M20.6287 118.5C20.6287 116.875 19.2618 115.625 17.6463 115.625H13.6696C12.0541 115.625 10.8114 114.375 10.8114 112.75V108.75C10.8114 107.125 9.44448 105.875 7.82897 105.875H3.85234C2.23684 105.875 0.994141 104.625 0.994141 103V56.75H10.6872V103C10.6872 104.625 12.0541 105.875 13.6696 105.875H17.6463C19.2618 105.875 20.6287 107.125 20.6287 108.75V112.75C20.6287 114.375 21.9957 115.625 23.6112 115.625H27.5878C29.2033 115.625 30.5703 114.25 30.5703 112.625V108.625C30.5703 107 31.813 105.75 33.4285 105.75H37.4051C39.0206 105.75 40.3876 104.375 40.3876 102.75V56.5H50.0806V102.75C50.0806 104.375 48.838 105.625 47.2225 105.625H43.2458C41.6303 105.625 40.3876 107 40.3876 108.625V112.625C40.3876 114.25 39.1449 115.5 37.4051 115.5H33.4285C31.813 115.5 30.5703 116.875 30.5703 118.5V122.5C30.5703 124.125 29.3276 125.375 27.5878 125.375H23.6112C21.9957 125.375 20.753 124.125 20.753 122.5V118.5H20.6287Z" fill="#262626"/>
<path d="M84.3789 113C84.3789 114.25 85.3731 115.375 86.74 115.375H104.014V125.25H86.8643C85.6216 125.25 84.5032 124.25 84.5032 123V118.375C84.5032 116.75 83.1362 115.5 81.5207 115.5H77.5441C75.9286 115.5 74.5616 116.875 74.5616 118.5V123.125C74.5616 124.375 73.5674 125.5 72.2005 125.5H54.927V115.75H72.0762C73.3189 115.75 74.4373 114.75 74.4373 113.375V69.1247C74.4373 67.8747 73.3189 66.7498 72.0762 66.7498H54.8027V56.8748H71.952C73.1946 56.8748 74.3131 57.8748 74.3131 59.2498V63.8747C74.3131 65.4997 75.68 66.8748 77.2955 66.7498H81.2722C82.8877 66.7498 84.1304 65.3748 84.1304 63.7498V59.1247C84.1304 57.8748 85.1245 56.7498 86.4915 56.7498H103.765V66.4997H86.6158C85.3731 66.4997 84.2546 67.4998 84.2546 68.8748V113.125L84.3789 113Z" fill="#262626"/>
<path d="M158.568 69.2498V92.8747C158.568 94.4997 157.325 95.7497 155.71 95.7497H151.733C150.118 95.7497 148.875 97.1247 148.875 98.7497V102.75C148.875 104.375 147.632 105.625 146.017 105.625H129.365V95.8747H146.017C147.632 95.8747 148.875 94.4997 148.875 92.8747V69.2498C148.875 67.6248 147.508 66.3748 145.893 66.3748H122.406C120.79 66.3748 119.548 67.7498 119.548 69.3748V125.375H109.854V69.3748C109.854 67.7498 111.097 66.4997 112.713 66.4997H116.689C118.305 66.4997 119.548 65.1248 119.548 63.6248V59.6248C119.548 57.9998 120.79 56.7498 122.406 56.7498H145.893C147.508 56.7498 148.751 57.9998 148.751 59.6248V63.6248C148.751 65.2498 149.994 66.4997 151.609 66.4997H155.586C157.201 66.4997 158.444 67.7498 158.444 69.3748L158.568 69.2498Z" fill="#262626"/>
<path d="M26.8411 147.875H25.7227L23.2373 141.25V140.875H24.3557L26.344 146.25L28.2081 140.875H29.3265V141.25L26.8411 147.875Z" fill="#262626"/>
<path d="M34.918 147.875H30.4443V140.875H34.918V141.875H31.687V143.875H34.5452V144.875H31.8113V146.875H35.0423V147.875H34.918Z" fill="#262626"/>
<path d="M37.5279 147.875H36.2852V140.875H39.2676C39.889 140.875 40.5103 141.125 40.8831 141.5C41.2559 141.875 41.3802 142.375 41.3802 143.125C41.3802 143.625 41.3802 144 41.0074 144.375C40.7589 144.75 40.5103 145 40.1375 145.125L41.3802 147.5V147.875H40.2618L38.7705 145.25H37.4036V147.875H37.5279ZM37.5279 141.875V144.125H39.1434C39.889 144.125 40.2618 143.75 40.2618 143C40.2618 142.25 39.889 141.875 39.1434 141.875H37.5279Z" fill="#262626"/>
<path d="M45.6058 147.875H44.3631V145.125L42.002 141.25V140.875H43.1204L44.8601 144L46.7242 140.875H47.8426V141.25L45.4815 145V147.875H45.6058Z" fill="#262626"/>
<path d="M52.565 147.875H51.3223V140.875H52.565V147.875Z" fill="#262626"/>
<path d="M59.3993 143L57.7837 145.625H57.0381L55.4226 143V147.875H54.3042V140.875H55.4226L57.4109 144.125L59.3993 140.875H60.5177V147.875H59.3993V143Z" fill="#262626"/>
<path d="M63.5 147.75H62.2573V140.75H65.2398C65.2398 140.75 66.3582 141 66.731 141.375C67.1038 141.75 67.2281 142.25 67.2281 143C67.2281 143.75 67.1038 144.125 66.731 144.625C66.3582 145 65.8611 145.25 65.2398 145.25H63.3757V148L63.5 147.75ZM63.5 141.75V144H65.1155C65.1155 144 65.6126 144 65.8611 143.75C65.9854 143.5 66.1097 143.25 66.1097 143C66.1097 142.75 66.1097 142.375 65.8611 142.25C65.7369 142 65.4883 142 65.1155 142H63.5V141.75Z" fill="#262626"/>
<path d="M68.4727 145.5V143.25C68.4727 142.5 68.7212 141.875 69.2183 141.375C69.7153 140.875 70.3367 140.75 71.2066 140.75C72.0765 140.75 72.6978 141 73.1949 141.375C73.692 141.875 73.9405 142.375 73.9405 143.25V145.5C73.9405 146.25 73.692 146.875 73.1949 147.375C72.6978 147.875 72.0765 148 71.2066 148C70.3367 148 69.7153 147.75 69.2183 147.375C68.7212 146.875 68.4727 146.375 68.4727 145.5ZM72.6978 145.5V143.125C72.6978 143.125 72.5735 142.375 72.325 142.125C72.0765 141.875 71.7037 141.75 71.2066 141.75C70.7095 141.75 70.3367 141.75 70.0882 142.125C69.8396 142.5 69.7153 142.75 69.7153 143.125V145.5C69.7153 145.5 69.8396 146.25 70.0882 146.5C70.3367 146.75 70.7095 146.875 71.2066 146.875C71.7037 146.875 72.0765 146.75 72.325 146.5C72.5735 146.25 72.6978 145.875 72.6978 145.5Z" fill="#262626"/>
<path d="M76.6719 147.75H75.4292V140.75H78.4117C79.033 140.75 79.6544 141 79.9029 141.375C80.2757 141.75 80.4 142.25 80.4 143C80.4 143.5 80.4 143.875 80.0272 144.25C79.7786 144.625 79.5301 144.875 79.1573 145L80.4 147.375V147.75H79.2816L77.9146 145.125H76.5476V147.75H76.6719ZM76.6719 141.75V144H78.2874C79.033 144 79.4058 143.625 79.4058 142.875C79.4058 142.125 79.033 141.75 78.2874 141.75H76.6719Z" fill="#262626"/>
<path d="M84.6265 147.75H83.3838V141.75H81.3955V140.75H86.6148V141.75H84.6265V147.75Z" fill="#262626"/>
<path d="M87.6092 147.75H86.4907V147.375L88.9761 140.75H90.0945L92.5799 147.375V147.75H91.4615L90.8402 146H88.2305L87.6092 147.75ZM89.5975 142.375L88.6033 145H90.4673L89.4732 142.375H89.5975Z" fill="#262626"/>
<path d="M94.9405 147.75H93.6978V140.75H94.8162L97.7987 145.5V140.75H99.0414V147.75H97.9229L94.9405 143V147.75Z" fill="#262626"/>
<path d="M103.267 147.75H102.024V141.75H100.036V140.75H105.255V141.75H103.267V147.75Z" fill="#262626"/>
<path d="M109.73 147.75H108.487V140.75H111.469C111.469 140.75 112.588 141 112.961 141.375C113.333 141.75 113.458 142.25 113.458 143C113.458 143.75 113.333 144.125 112.961 144.625C112.588 145 112.091 145.25 111.469 145.25H109.605V148L109.73 147.75ZM109.73 141.75V144H111.345C111.345 144 111.842 144 112.091 143.75C112.215 143.5 112.339 143.25 112.339 143C112.339 142.75 112.339 142.375 112.091 142.25C111.966 142 111.718 142 111.345 142H109.73V141.75Z" fill="#262626"/>
<path d="M115.942 147.75H114.699V140.75H115.942V147.75Z" fill="#262626"/>
<path d="M122.28 147.75H117.807V140.75H119.049V146.75H122.405V147.75H122.28Z" fill="#262626"/>
<path d="M123.149 145.375V143.125C123.149 142.375 123.398 141.75 123.895 141.25C124.392 140.75 125.013 140.625 125.883 140.625C126.753 140.625 127.375 140.875 127.872 141.25C128.369 141.75 128.617 142.25 128.617 143.125V145.375C128.617 146.125 128.369 146.75 127.872 147.25C127.375 147.75 126.753 147.875 125.883 147.875C125.013 147.875 124.392 147.625 123.895 147.25C123.398 146.75 123.149 146.25 123.149 145.375ZM127.375 145.375V143C127.375 143 127.25 142.25 127.002 142C126.753 141.75 126.38 141.625 125.883 141.625C125.386 141.625 125.013 141.625 124.765 142C124.516 142.375 124.392 142.625 124.392 143V145.375C124.392 145.375 124.516 146.125 124.765 146.375C125.013 146.625 125.386 146.75 125.883 146.75C126.38 146.75 126.753 146.625 127.002 146.375C127.25 146.125 127.375 145.75 127.375 145.375Z" fill="#262626"/>
<path d="M132.719 147.75H131.477V141.75H129.488V140.75H134.708V141.75H132.719V147.75Z" fill="#262626"/>
<path d="M157.573 144.252H137.068V145.002H157.573V144.252Z" fill="#262626"/>
<path d="M20.5045 144.375H0V145.125H20.5045V144.375Z" fill="#262626"/>
<path d="M79.884 40H74.3434V31.6052H76.0464V38.5129H79.884V40ZM82.8625 40H81.1595V31.6052H82.8625V40ZM90.9858 34.6273L89.3308 37.3856H88.2755L86.6205 34.6273V40H84.9775V31.6052H86.6205L88.8271 35.3109L91.0338 31.6052H92.6288V40H90.9858V34.6273ZM96.4479 40H94.7449V31.6052H96.4479V40ZM101.789 40H100.086V33.0923H97.7234V31.6052H104.139V33.0923H101.789V40ZM110.907 40H105.414V31.6052H110.883V33.0923H107.117V35.083H110.331V36.4982H107.117V38.5129H110.907V40ZM114.238 33.0923V38.5129H115.581C116.093 38.5129 116.492 38.385 116.78 38.1292C117.076 37.8733 117.224 37.5495 117.224 37.1578V34.4474C117.224 34.0557 117.076 33.7319 116.78 33.476C116.492 33.2202 116.093 33.0923 115.581 33.0923H114.238ZM115.581 40H112.535V31.6052H115.581C116.628 31.6052 117.448 31.861 118.039 32.3727C118.631 32.8764 118.927 33.584 118.927 34.4954V37.1098C118.927 38.0212 118.631 38.7328 118.039 39.2445C117.448 39.7482 116.628 40 115.581 40ZM129.106 40H123.614V31.6052H129.082V33.0923H125.317V35.083H128.531V36.4982H125.317V38.5129H129.106V40ZM132.437 33.0923V38.5129H133.781C134.292 38.5129 134.692 38.385 134.98 38.1292C135.276 37.8733 135.424 37.5495 135.424 37.1578V34.4474C135.424 34.0557 135.276 33.7319 134.98 33.476C134.692 33.2202 134.292 33.0923 133.781 33.0923H132.437ZM133.781 40H130.734V31.6052H133.781C134.828 31.6052 135.647 31.861 136.239 32.3727C136.831 32.8764 137.126 33.584 137.126 34.4954V37.1098C137.126 38.0212 136.831 38.7328 136.239 39.2445C135.647 39.7482 134.828 40 133.781 40ZM140.706 40H139.003V31.6052H140.706V40ZM146.047 40H144.344V33.0923H141.981V31.6052H148.397V33.0923H146.047V40ZM154.421 37.2297V34.3755C154.421 33.9677 154.277 33.6359 153.989 33.3801C153.701 33.1162 153.298 32.9843 152.778 32.9843C152.258 32.9843 151.855 33.1162 151.567 33.3801C151.279 33.6359 151.135 33.9677 151.135 34.3755V37.2297C151.135 37.6375 151.279 37.9733 151.567 38.2371C151.855 38.4929 152.258 38.6209 152.778 38.6209C153.298 38.6209 153.701 38.4929 153.989 38.2371C154.277 37.9733 154.421 37.6375 154.421 37.2297ZM149.432 37.1458V34.4594C149.432 33.508 149.728 32.7645 150.32 32.2288C150.919 31.6931 151.739 31.4253 152.778 31.4253C153.817 31.4253 154.633 31.6931 155.225 32.2288C155.824 32.7645 156.124 33.508 156.124 34.4594V37.1458C156.124 38.0972 155.824 38.8407 155.225 39.3764C154.633 39.9121 153.817 40.1799 152.778 40.1799C151.739 40.1799 150.919 39.9121 150.32 39.3764C149.728 38.8407 149.432 38.0972 149.432 37.1458ZM159.702 40H157.999V31.6052H159.558L162.772 36.834V31.6052H164.475V40H162.916L159.702 34.7712V40Z" fill="#262626"/>
<path d="M2.41102 160.8C1.14206 160.8 0 159.815 0 158.462C0 157.108 1.01517 156.123 2.41102 156.123C3.80687 156.123 4.82204 157.108 4.82204 158.462C4.82204 159.815 3.80687 160.8 2.41102 160.8ZM11.4206 158.462C11.4206 157.231 10.4055 156.123 9.0096 156.123C7.61375 156.123 6.59858 157.108 6.59858 158.462C6.59858 159.815 7.61375 160.8 9.0096 160.8C10.2786 160.8 11.4206 159.815 11.4206 158.462ZM18.0192 158.462C18.0192 157.231 17.004 156.123 15.6082 156.123C14.2123 156.123 13.1972 157.108 13.1972 158.462C13.1972 159.815 14.2123 160.8 15.6082 160.8C16.8771 160.8 18.0192 159.815 18.0192 158.462ZM24.6178 158.462C24.6178 157.231 23.6026 156.123 22.2068 156.123C20.8109 156.123 19.7957 157.108 19.7957 158.462C19.7957 159.815 20.8109 160.8 22.2068 160.8C23.4757 160.8 24.6178 159.815 24.6178 158.462ZM31.4702 158.462C31.4702 157.231 30.455 156.123 29.0591 156.123C27.6633 156.123 26.6481 157.108 26.6481 158.462C26.6481 159.815 27.6633 160.8 29.0591 160.8C30.3281 160.8 31.4702 159.815 31.4702 158.462ZM44.6673 158.462C44.6673 157.231 43.6521 156.123 42.2563 156.123C40.8604 156.123 39.8453 157.108 39.8453 158.462C39.8453 159.815 40.8604 160.8 42.2563 160.8C43.5253 160.8 44.6673 159.815 44.6673 158.462ZM51.2659 158.462C51.2659 157.231 50.2507 156.123 48.8549 156.123C47.459 156.123 46.4439 157.108 46.4439 158.462C46.4439 159.815 47.459 160.8 48.8549 160.8C50.1238 160.8 51.2659 159.815 51.2659 158.462ZM4.94893 164.861C4.94893 163.631 3.93377 162.523 2.53791 162.523C1.14206 162.523 0.126893 163.508 0.126893 164.861C0.126893 166.215 1.14206 167.2 2.53791 167.2C3.80687 167.2 4.94893 166.215 4.94893 164.861ZM18.1461 164.861C18.1461 163.631 17.1309 162.523 15.7351 162.523C14.3392 162.523 13.3241 163.508 13.3241 164.861C13.3241 166.215 14.3392 167.2 15.7351 167.2C17.004 167.2 18.1461 166.215 18.1461 164.861ZM24.7447 164.861C24.7447 163.631 23.7295 162.523 22.3337 162.523C20.9378 162.523 19.9226 163.508 19.9226 164.861C19.9226 166.215 20.9378 167.2 22.3337 167.2C23.6026 167.2 24.7447 166.215 24.7447 164.861ZM31.597 164.861C31.597 163.631 30.5819 162.523 29.186 162.523C27.7902 162.523 26.775 163.508 26.775 164.861C26.775 166.215 27.7902 167.2 29.186 167.2C30.455 167.2 31.597 166.215 31.597 164.861ZM38.1956 164.861C38.1956 163.631 37.1805 162.523 35.7846 162.523C34.3888 162.523 33.3736 163.508 33.3736 164.861C33.3736 166.215 34.3888 167.2 35.7846 167.2C37.0536 167.2 38.1956 166.215 38.1956 164.861ZM44.7942 164.861C44.7942 163.631 43.779 162.523 42.3832 162.523C40.9873 162.523 39.9722 163.508 39.9722 164.861C39.9722 166.215 40.9873 167.2 42.3832 167.2C43.6522 167.2 44.7942 166.215 44.7942 164.861ZM5.07583 171.262C5.07583 170.031 4.06067 168.923 2.66481 168.923C1.26896 168.923 0.253791 169.908 0.253791 171.262C0.253791 172.615 1.26896 173.6 2.66481 173.6C3.93377 173.6 5.07583 172.615 5.07583 171.262ZM11.6744 171.262C11.6744 170.031 10.6592 168.923 9.26339 168.923C7.86754 168.923 6.85237 169.908 6.85237 171.262C6.85237 172.615 7.86754 173.6 9.26339 173.6C10.5324 173.6 11.6744 172.615 11.6744 171.262ZM18.273 171.262C18.273 170.031 17.2578 168.923 15.862 168.923C14.4661 168.923 13.451 169.908 13.451 171.262C13.451 172.615 14.4661 173.6 15.862 173.6C17.1309 173.6 18.273 172.615 18.273 171.262ZM24.8716 171.262C24.8716 170.031 23.8564 168.923 22.4606 168.923C21.0647 168.923 20.0495 169.908 20.0495 171.262C20.0495 172.615 21.0647 173.6 22.4606 173.6C23.7295 173.6 24.8716 172.615 24.8716 171.262ZM31.7239 171.262C31.7239 170.031 30.7088 168.923 29.3129 168.923C27.9171 168.923 26.9019 169.908 26.9019 171.262C26.9019 172.615 27.9171 173.6 29.3129 173.6C30.5819 173.6 31.7239 172.615 31.7239 171.262ZM44.9211 171.262C44.9211 170.031 43.9059 168.923 42.5101 168.923C41.1142 168.923 40.0991 169.908 40.0991 171.262C40.0991 172.615 41.1142 173.6 42.5101 173.6C43.779 173.6 44.9211 172.615 44.9211 171.262ZM51.5197 171.262C51.5197 170.031 50.5045 168.923 49.1087 168.923C47.7128 168.923 46.6977 169.908 46.6977 171.262C46.6977 172.615 47.7128 173.6 49.1087 173.6C50.3776 173.6 51.5197 172.615 51.5197 171.262ZM5.20273 177.662C5.20273 176.431 4.18756 175.323 2.7917 175.323C1.39585 175.323 0.380684 176.308 0.380684 177.662C0.380684 179.015 1.39585 180 2.7917 180C4.06066 180 5.20273 179.015 5.20273 177.662ZM18.3999 177.662C18.3999 176.431 17.3847 175.323 15.9889 175.323C14.593 175.323 13.5779 176.308 13.5779 177.662C13.5779 179.015 14.593 180 15.9889 180C17.2578 180 18.3999 179.015 18.3999 177.662ZM24.9985 177.662C24.9985 176.431 23.9833 175.323 22.5874 175.323C21.1916 175.323 20.1764 176.308 20.1764 177.662C20.1764 179.015 21.1916 180 22.5874 180C23.8564 180 24.9985 179.015 24.9985 177.662ZM31.8508 177.662C31.8508 176.431 30.8357 175.323 29.4398 175.323C28.044 175.323 27.0288 176.308 27.0288 177.662C27.0288 179.015 28.044 180 29.4398 180C30.7088 180 31.8508 179.015 31.8508 177.662ZM38.4494 177.662C38.4494 176.431 37.4343 175.323 36.0384 175.323C34.7694 175.323 33.6274 176.308 33.6274 177.662C33.6274 179.015 34.6426 180 36.0384 180C37.3074 180 38.4494 179.015 38.4494 177.662ZM45.048 177.662C45.048 176.431 44.0328 175.323 42.637 175.323C41.2411 175.323 40.226 176.308 40.226 177.662C40.226 179.015 41.2411 180 42.637 180C43.9059 180 45.048 179.015 45.048 177.662ZM51.6466 177.662C51.6466 176.431 50.6314 175.323 49.2356 175.323C47.8397 175.323 46.8245 176.308 46.8245 177.662C46.8245 179.015 47.8397 180 49.2356 180C50.5045 180 51.6466 179.015 51.6466 177.662Z" fill="#F0B725"/>
<path d="M56.0878 160.8C54.8188 160.8 53.6768 159.815 53.6768 158.462C53.6768 157.108 54.6919 156.123 56.0878 156.123C57.4836 156.123 58.4988 157.108 58.4988 158.462C58.4988 159.815 57.4836 160.8 56.0878 160.8ZM65.0974 158.462C65.0974 157.231 64.0822 156.123 62.6864 156.123C61.2905 156.123 60.2753 157.108 60.2753 158.462C60.2753 159.815 61.2905 160.8 62.6864 160.8C63.9553 160.8 65.0974 159.815 65.0974 158.462ZM71.696 158.462C71.696 157.231 70.6808 156.123 69.2849 156.123C67.8891 156.123 66.8739 157.108 66.8739 158.462C66.8739 159.815 67.8891 160.8 69.2849 160.8C70.5539 160.8 71.696 159.815 71.696 158.462ZM78.2945 158.462C78.2945 157.231 77.2794 156.123 75.8835 156.123C74.4877 156.123 73.4725 157.108 73.4725 158.462C73.4725 159.815 74.4877 160.8 75.8835 160.8C77.1525 160.8 78.2945 159.815 78.2945 158.462ZM85.1469 158.462C85.1469 157.231 84.1317 156.123 82.7359 156.123C81.34 156.123 80.3249 157.108 80.3249 158.462C80.3249 159.815 81.34 160.8 82.7359 160.8C84.0049 160.8 85.1469 159.815 85.1469 158.462ZM98.3441 158.462C98.3441 157.231 97.3289 156.123 95.9331 156.123C94.5372 156.123 93.522 157.108 93.522 158.462C93.522 159.815 94.5372 160.8 95.9331 160.8C97.202 160.8 98.3441 159.815 98.3441 158.462ZM104.943 158.462C104.943 157.231 103.927 156.123 102.532 156.123C101.136 156.123 100.121 157.108 100.121 158.462C100.121 159.815 101.136 160.8 102.532 160.8C103.801 160.8 104.943 159.815 104.943 158.462ZM58.6257 164.861C58.6257 163.631 57.6105 162.523 56.2147 162.523C54.8188 162.523 53.8037 163.508 53.8037 164.861C53.8037 166.215 54.8188 167.2 56.2147 167.2C57.4836 167.2 58.6257 166.215 58.6257 164.861ZM71.8229 164.861C71.8229 163.631 70.8077 162.523 69.4118 162.523C68.016 162.523 67.0008 163.508 67.0008 164.861C67.0008 166.215 68.016 167.2 69.4118 167.2C70.6808 167.2 71.8229 166.215 71.8229 164.861ZM78.4214 164.861C78.4214 163.631 77.4063 162.523 76.0104 162.523C74.6146 162.523 73.5994 163.508 73.5994 164.861C73.5994 166.215 74.6146 167.2 76.0104 167.2C77.2794 167.2 78.4214 166.215 78.4214 164.861ZM85.2738 164.861C85.2738 163.631 84.2586 162.523 82.8628 162.523C81.4669 162.523 80.4518 163.508 80.4518 164.861C80.4518 166.215 81.4669 167.2 82.8628 167.2C84.1318 167.2 85.2738 166.215 85.2738 164.861ZM91.8724 164.861C91.8724 163.631 90.8572 162.523 89.4614 162.523C88.0655 162.523 87.0504 163.508 87.0504 164.861C87.0504 166.215 88.0655 167.2 89.4614 167.2C90.7303 167.2 91.8724 166.215 91.8724 164.861ZM98.471 164.861C98.471 163.631 97.4558 162.523 96.06 162.523C94.6641 162.523 93.6489 163.508 93.6489 164.861C93.6489 166.215 94.6641 167.2 96.06 167.2C97.3289 167.2 98.471 166.215 98.471 164.861ZM58.7526 171.262C58.7526 170.031 57.7374 168.923 56.3416 168.923C54.9457 168.923 53.9306 169.908 53.9306 171.262C53.9306 172.615 54.9457 173.6 56.3416 173.6C57.6105 173.6 58.7526 172.615 58.7526 171.262ZM65.3512 171.262C65.3512 170.031 64.336 168.923 62.9402 168.923C61.5443 168.923 60.5291 169.908 60.5291 171.262C60.5291 172.615 61.5443 173.6 62.9402 173.6C64.2091 173.6 65.3512 172.615 65.3512 171.262ZM71.9498 171.262C71.9498 170.031 70.9346 168.923 69.5387 168.923C68.1429 168.923 67.1277 169.908 67.1277 171.262C67.1277 172.615 68.1429 173.6 69.5387 173.6C70.8077 173.6 71.9498 172.615 71.9498 171.262ZM78.5483 171.262C78.5483 170.031 77.5332 168.923 76.1373 168.923C74.7415 168.923 73.7263 169.908 73.7263 171.262C73.7263 172.615 74.7415 173.6 76.1373 173.6C77.4063 173.6 78.5483 172.615 78.5483 171.262ZM85.4007 171.262C85.4007 170.031 84.3855 168.923 82.9897 168.923C81.5938 168.923 80.5787 169.908 80.5787 171.262C80.5787 172.615 81.5938 173.6 82.9897 173.6C84.2586 173.6 85.4007 172.615 85.4007 171.262ZM98.5979 171.262C98.5979 170.031 97.5827 168.923 96.1869 168.923C94.791 168.923 93.7758 169.908 93.7758 171.262C93.7758 172.615 94.791 173.6 96.1869 173.6C97.4558 173.6 98.5979 172.615 98.5979 171.262ZM105.196 171.262C105.196 170.031 104.181 168.923 102.785 168.923C101.39 168.923 100.374 169.908 100.374 171.262C100.374 172.615 101.39 173.6 102.785 173.6C104.054 173.6 105.196 172.615 105.196 171.262ZM58.8795 177.662C58.8795 176.431 57.8643 175.323 56.4685 175.323C55.0726 175.323 54.0575 176.308 54.0575 177.662C54.0575 179.015 55.0726 180 56.4685 180C57.7374 180 58.8795 179.015 58.8795 177.662ZM72.0767 177.662C72.0767 176.431 71.0615 175.323 69.6656 175.323C68.2698 175.323 67.2546 176.308 67.2546 177.662C67.2546 179.015 68.2698 180 69.6656 180C70.9346 180 72.0767 179.015 72.0767 177.662ZM78.6752 177.662C78.6752 176.431 77.6601 175.323 76.2642 175.323C74.8684 175.323 73.8532 176.308 73.8532 177.662C73.8532 179.015 74.8684 180 76.2642 180C77.5332 180 78.6752 179.015 78.6752 177.662ZM85.5276 177.662C85.5276 176.431 84.5124 175.323 83.1166 175.323C81.7207 175.323 80.7056 176.308 80.7056 177.662C80.7056 179.015 81.7207 180 83.1166 180C84.3855 180 85.5276 179.015 85.5276 177.662ZM92.1262 177.662C92.1262 176.431 91.111 175.323 89.7152 175.323C88.4462 175.323 87.3041 176.308 87.3041 177.662C87.3041 179.015 88.3193 180 89.7152 180C90.9841 180 92.1262 179.015 92.1262 177.662ZM98.7248 177.662C98.7248 176.431 97.7096 175.323 96.3138 175.323C94.9179 175.323 93.9027 176.308 93.9027 177.662C93.9027 179.015 94.9179 180 96.3138 180C97.5827 180 98.7248 179.015 98.7248 177.662ZM105.323 177.662C105.323 176.431 104.308 175.323 102.912 175.323C101.516 175.323 100.501 176.308 100.501 177.662C100.501 179.015 101.516 180 102.912 180C104.181 180 105.323 179.015 105.323 177.662Z" fill="#F0B725"/>
<path d="M109.765 160.677C108.496 160.677 107.354 159.692 107.354 158.338C107.354 156.985 108.369 156 109.765 156C111.16 156 112.176 156.985 112.176 158.338C112.176 159.692 111.16 160.677 109.765 160.677ZM118.774 158.338C118.774 157.108 117.759 156 116.363 156C114.967 156 113.952 156.985 113.952 158.338C113.952 159.692 114.967 160.677 116.363 160.677C117.632 160.677 118.774 159.692 118.774 158.338ZM125.373 158.338C125.373 157.108 124.358 156 122.962 156C121.566 156 120.551 156.985 120.551 158.338C120.551 159.692 121.566 160.677 122.962 160.677C124.231 160.677 125.373 159.692 125.373 158.338ZM131.971 158.338C131.971 157.108 130.956 156 129.56 156C128.164 156 127.149 156.985 127.149 158.338C127.149 159.692 128.164 160.677 129.56 160.677C130.829 160.677 131.971 159.692 131.971 158.338ZM138.824 158.338C138.824 157.108 137.809 156 136.413 156C135.017 156 134.002 156.985 134.002 158.338C134.002 159.692 135.017 160.677 136.413 160.677C137.682 160.677 138.824 159.692 138.824 158.338ZM152.021 158.338C152.021 157.108 151.006 156 149.61 156C148.214 156 147.199 156.985 147.199 158.338C147.199 159.692 148.214 160.677 149.61 160.677C150.879 160.677 152.021 159.692 152.021 158.338ZM158.619 158.338C158.619 157.108 157.604 156 156.208 156C154.813 156 153.797 156.985 153.797 158.338C153.797 159.692 154.813 160.677 156.208 160.677C157.477 160.677 158.619 159.692 158.619 158.338ZM112.302 164.738C112.302 163.508 111.287 162.4 109.891 162.4C108.496 162.4 107.48 163.385 107.48 164.738C107.48 166.092 108.496 167.077 109.891 167.077C111.16 167.077 112.302 166.092 112.302 164.738ZM125.5 164.738C125.5 163.508 124.484 162.4 123.089 162.4C121.693 162.4 120.678 163.385 120.678 164.738C120.678 166.092 121.693 167.077 123.089 167.077C124.358 167.077 125.5 166.092 125.5 164.738ZM132.098 164.738C132.098 163.508 131.083 162.4 129.687 162.4C128.291 162.4 127.276 163.385 127.276 164.738C127.276 166.092 128.291 167.077 129.687 167.077C130.956 167.077 132.098 166.092 132.098 164.738ZM138.951 164.738C138.951 163.508 137.935 162.4 136.54 162.4C135.144 162.4 134.129 163.385 134.129 164.738C134.129 166.092 135.144 167.077 136.54 167.077C137.809 167.077 138.951 166.092 138.951 164.738ZM145.549 164.738C145.549 163.508 144.534 162.4 143.138 162.4C141.742 162.4 140.727 163.385 140.727 164.738C140.727 166.092 141.742 167.077 143.138 167.077C144.407 167.077 145.549 166.092 145.549 164.738ZM152.148 164.738C152.148 163.508 151.133 162.4 149.737 162.4C148.341 162.4 147.326 163.385 147.326 164.738C147.326 166.092 148.341 167.077 149.737 167.077C151.006 167.077 152.148 166.092 152.148 164.738ZM112.429 171.138C112.429 169.908 111.414 168.8 110.018 168.8C108.622 168.8 107.607 169.785 107.607 171.138C107.607 172.492 108.622 173.477 110.018 173.477C111.287 173.477 112.429 172.492 112.429 171.138ZM119.028 171.138C119.028 169.908 118.013 168.8 116.617 168.8C115.221 168.8 114.206 169.785 114.206 171.138C114.206 172.492 115.221 173.477 116.617 173.477C117.886 173.477 119.028 172.492 119.028 171.138ZM125.627 171.138C125.627 169.908 124.611 168.8 123.215 168.8C121.82 168.8 120.804 169.785 120.804 171.138C120.804 172.492 121.82 173.477 123.215 173.477C124.484 173.477 125.627 172.492 125.627 171.138ZM132.225 171.138C132.225 169.908 131.21 168.8 129.814 168.8C128.418 168.8 127.403 169.785 127.403 171.138C127.403 172.492 128.418 173.477 129.814 173.477C131.083 173.477 132.225 172.492 132.225 171.138ZM139.077 171.138C139.077 169.908 138.062 168.8 136.666 168.8C135.271 168.8 134.255 169.785 134.255 171.138C134.255 172.492 135.271 173.477 136.666 173.477C137.935 173.477 139.077 172.492 139.077 171.138ZM152.275 171.138C152.275 169.908 151.259 168.8 149.864 168.8C148.468 168.8 147.453 169.785 147.453 171.138C147.453 172.492 148.468 173.477 149.864 173.477C151.133 173.477 152.275 172.492 152.275 171.138ZM158.873 171.138C158.873 169.908 157.858 168.8 156.462 168.8C155.066 168.8 154.051 169.785 154.051 171.138C154.051 172.492 155.066 173.477 156.462 173.477C157.731 173.477 158.873 172.492 158.873 171.138ZM112.556 177.538C112.556 176.308 111.541 175.2 110.145 175.2C108.749 175.2 107.734 176.185 107.734 177.538C107.734 178.892 108.749 179.877 110.145 179.877C111.414 179.877 112.556 178.892 112.556 177.538ZM125.753 177.538C125.753 176.308 124.738 175.2 123.342 175.2C121.947 175.2 120.931 176.185 120.931 177.538C120.931 178.892 121.947 179.877 123.342 179.877C124.611 179.877 125.753 178.892 125.753 177.538ZM132.352 177.538C132.352 176.308 131.337 175.2 129.941 175.2C128.545 175.2 127.53 176.185 127.53 177.538C127.53 178.892 128.545 179.877 129.941 179.877C131.21 179.877 132.352 178.892 132.352 177.538ZM139.204 177.538C139.204 176.308 138.189 175.2 136.793 175.2C135.397 175.2 134.382 176.185 134.382 177.538C134.382 178.892 135.397 179.877 136.793 179.877C138.062 179.877 139.204 178.892 139.204 177.538ZM145.803 177.538C145.803 176.308 144.788 175.2 143.392 175.2C142.123 175.2 140.981 176.185 140.981 177.538C140.981 178.892 141.996 179.877 143.392 179.877C144.661 179.877 145.803 178.892 145.803 177.538ZM152.402 177.538C152.402 176.308 151.386 175.2 149.991 175.2C148.595 175.2 147.579 176.185 147.579 177.538C147.579 178.892 148.595 179.877 149.991 179.877C151.259 179.877 152.402 178.892 152.402 177.538ZM159 177.538C159 176.308 157.985 175.2 156.589 175.2C155.193 175.2 154.178 176.185 154.178 177.538C154.178 178.892 155.193 179.877 156.589 179.877C157.858 179.877 159 178.892 159 177.538Z" fill="#F0B725"/>
<path d="M2.41102 4.79996C1.14206 4.79996 0 3.81536 0 2.46152C0 1.10767 1.01517 0.123047 2.41102 0.123047C3.80687 0.123047 4.82204 1.10767 4.82204 2.46152C4.82204 3.81536 3.80687 4.79996 2.41102 4.79996ZM11.4206 2.46152C11.4206 1.23075 10.4055 0.123047 9.0096 0.123047C7.61375 0.123047 6.59858 1.10767 6.59858 2.46152C6.59858 3.81536 7.61375 4.79996 9.0096 4.79996C10.2786 4.79996 11.4206 3.81536 11.4206 2.46152ZM18.0192 2.46152C18.0192 1.23075 17.004 0.123047 15.6082 0.123047C14.2123 0.123047 13.1972 1.10767 13.1972 2.46152C13.1972 3.81536 14.2123 4.79996 15.6082 4.79996C16.8771 4.79996 18.0192 3.81536 18.0192 2.46152ZM24.6178 2.46152C24.6178 1.23075 23.6026 0.123047 22.2068 0.123047C20.8109 0.123047 19.7957 1.10767 19.7957 2.46152C19.7957 3.81536 20.8109 4.79996 22.2068 4.79996C23.4757 4.79996 24.6178 3.81536 24.6178 2.46152ZM31.4702 2.46152C31.4702 1.23075 30.455 0.123047 29.0591 0.123047C27.6633 0.123047 26.6481 1.10767 26.6481 2.46152C26.6481 3.81536 27.6633 4.79996 29.0591 4.79996C30.3281 4.79996 31.4702 3.81536 31.4702 2.46152ZM44.6673 2.46152C44.6673 1.23075 43.6521 0.123047 42.2563 0.123047C40.8604 0.123047 39.8453 1.10767 39.8453 2.46152C39.8453 3.81536 40.8604 4.79996 42.2563 4.79996C43.5253 4.79996 44.6673 3.81536 44.6673 2.46152ZM51.2659 2.46152C51.2659 1.23075 50.2507 0.123047 48.8549 0.123047C47.459 0.123047 46.4439 1.10767 46.4439 2.46152C46.4439 3.81536 47.459 4.79996 48.8549 4.79996C50.1238 4.79996 51.2659 3.81536 51.2659 2.46152ZM4.94893 8.8615C4.94893 7.63073 3.93377 6.52305 2.53791 6.52305C1.14206 6.52305 0.126893 7.50765 0.126893 8.8615C0.126893 10.2153 1.14206 11.2 2.53791 11.2C3.80687 11.2 4.94893 10.2153 4.94893 8.8615ZM18.1461 8.8615C18.1461 7.63073 17.1309 6.52305 15.7351 6.52305C14.3392 6.52305 13.3241 7.50765 13.3241 8.8615C13.3241 10.2153 14.3392 11.2 15.7351 11.2C17.004 11.2 18.1461 10.2153 18.1461 8.8615ZM24.7447 8.8615C24.7447 7.63073 23.7295 6.52305 22.3337 6.52305C20.9378 6.52305 19.9226 7.50765 19.9226 8.8615C19.9226 10.2153 20.9378 11.2 22.3337 11.2C23.6026 11.2 24.7447 10.2153 24.7447 8.8615ZM31.597 8.8615C31.597 7.63073 30.5819 6.52305 29.186 6.52305C27.7902 6.52305 26.775 7.50765 26.775 8.8615C26.775 10.2153 27.7902 11.2 29.186 11.2C30.455 11.2 31.597 10.2153 31.597 8.8615ZM38.1956 8.8615C38.1956 7.63073 37.1805 6.52305 35.7846 6.52305C34.3888 6.52305 33.3736 7.50765 33.3736 8.8615C33.3736 10.2153 34.3888 11.2 35.7846 11.2C37.0536 11.2 38.1956 10.2153 38.1956 8.8615ZM44.7942 8.8615C44.7942 7.63073 43.779 6.52305 42.3832 6.52305C40.9873 6.52305 39.9722 7.50765 39.9722 8.8615C39.9722 10.2153 40.9873 11.2 42.3832 11.2C43.6522 11.2 44.7942 10.2153 44.7942 8.8615ZM5.07583 15.2615C5.07583 14.0307 4.06067 12.9231 2.66481 12.9231C1.26896 12.9231 0.253791 13.9077 0.253791 15.2615C0.253791 16.6154 1.26896 17.6 2.66481 17.6C3.93377 17.6 5.07583 16.6154 5.07583 15.2615ZM11.6744 15.2615C11.6744 14.0307 10.6592 12.9231 9.26339 12.9231C7.86754 12.9231 6.85237 13.9077 6.85237 15.2615C6.85237 16.6154 7.86754 17.6 9.26339 17.6C10.5324 17.6 11.6744 16.6154 11.6744 15.2615ZM18.273 15.2615C18.273 14.0307 17.2578 12.9231 15.862 12.9231C14.4661 12.9231 13.451 13.9077 13.451 15.2615C13.451 16.6154 14.4661 17.6 15.862 17.6C17.1309 17.6 18.273 16.6154 18.273 15.2615ZM24.8716 15.2615C24.8716 14.0307 23.8564 12.9231 22.4606 12.9231C21.0647 12.9231 20.0495 13.9077 20.0495 15.2615C20.0495 16.6154 21.0647 17.6 22.4606 17.6C23.7295 17.6 24.8716 16.6154 24.8716 15.2615ZM31.7239 15.2615C31.7239 14.0307 30.7088 12.9231 29.3129 12.9231C27.9171 12.9231 26.9019 13.9077 26.9019 15.2615C26.9019 16.6154 27.9171 17.6 29.3129 17.6C30.5819 17.6 31.7239 16.6154 31.7239 15.2615ZM44.9211 15.2615C44.9211 14.0307 43.9059 12.9231 42.5101 12.9231C41.1142 12.9231 40.0991 13.9077 40.0991 15.2615C40.0991 16.6154 41.1142 17.6 42.5101 17.6C43.779 17.6 44.9211 16.6154 44.9211 15.2615ZM51.5197 15.2615C51.5197 14.0307 50.5045 12.9231 49.1087 12.9231C47.7128 12.9231 46.6977 13.9077 46.6977 15.2615C46.6977 16.6154 47.7128 17.6 49.1087 17.6C50.3776 17.6 51.5197 16.6154 51.5197 15.2615ZM5.20273 21.6615C5.20273 20.4307 4.18756 19.323 2.7917 19.323C1.39585 19.323 0.380684 20.3077 0.380684 21.6615C0.380684 23.0154 1.39585 24 2.7917 24C4.06066 24 5.20273 23.0154 5.20273 21.6615ZM18.3999 21.6615C18.3999 20.4307 17.3847 19.323 15.9889 19.323C14.593 19.323 13.5779 20.3077 13.5779 21.6615C13.5779 23.0154 14.593 24 15.9889 24C17.2578 24 18.3999 23.0154 18.3999 21.6615ZM24.9985 21.6615C24.9985 20.4307 23.9833 19.323 22.5874 19.323C21.1916 19.323 20.1764 20.3077 20.1764 21.6615C20.1764 23.0154 21.1916 24 22.5874 24C23.8564 24 24.9985 23.0154 24.9985 21.6615ZM31.8508 21.6615C31.8508 20.4307 30.8357 19.323 29.4398 19.323C28.044 19.323 27.0288 20.3077 27.0288 21.6615C27.0288 23.0154 28.044 24 29.4398 24C30.7088 24 31.8508 23.0154 31.8508 21.6615ZM38.4494 21.6615C38.4494 20.4307 37.4343 19.323 36.0384 19.323C34.7694 19.323 33.6274 20.3077 33.6274 21.6615C33.6274 23.0154 34.6426 24 36.0384 24C37.3074 24 38.4494 23.0154 38.4494 21.6615ZM45.048 21.6615C45.048 20.4307 44.0328 19.323 42.637 19.323C41.2411 19.323 40.226 20.3077 40.226 21.6615C40.226 23.0154 41.2411 24 42.637 24C43.9059 24 45.048 23.0154 45.048 21.6615ZM51.6466 21.6615C51.6466 20.4307 50.6314 19.323 49.2356 19.323C47.8397 19.323 46.8245 20.3077 46.8245 21.6615C46.8245 23.0154 47.8397 24 49.2356 24C50.5045 24 51.6466 23.0154 51.6466 21.6615Z" fill="#F0B725"/>
<path d="M56.0878 4.79996C54.8188 4.79996 53.6768 3.81536 53.6768 2.46152C53.6768 1.10767 54.6919 0.123047 56.0878 0.123047C57.4836 0.123047 58.4988 1.10767 58.4988 2.46152C58.4988 3.81536 57.4836 4.79996 56.0878 4.79996ZM65.0974 2.46152C65.0974 1.23075 64.0822 0.123047 62.6864 0.123047C61.2905 0.123047 60.2753 1.10767 60.2753 2.46152C60.2753 3.81536 61.2905 4.79996 62.6864 4.79996C63.9553 4.79996 65.0974 3.81536 65.0974 2.46152ZM71.696 2.46152C71.696 1.23075 70.6808 0.123047 69.2849 0.123047C67.8891 0.123047 66.8739 1.10767 66.8739 2.46152C66.8739 3.81536 67.8891 4.79996 69.2849 4.79996C70.5539 4.79996 71.696 3.81536 71.696 2.46152ZM78.2945 2.46152C78.2945 1.23075 77.2794 0.123047 75.8835 0.123047C74.4877 0.123047 73.4725 1.10767 73.4725 2.46152C73.4725 3.81536 74.4877 4.79996 75.8835 4.79996C77.1525 4.79996 78.2945 3.81536 78.2945 2.46152ZM85.1469 2.46152C85.1469 1.23075 84.1317 0.123047 82.7359 0.123047C81.34 0.123047 80.3249 1.10767 80.3249 2.46152C80.3249 3.81536 81.34 4.79996 82.7359 4.79996C84.0049 4.79996 85.1469 3.81536 85.1469 2.46152ZM98.3441 2.46152C98.3441 1.23075 97.3289 0.123047 95.9331 0.123047C94.5372 0.123047 93.522 1.10767 93.522 2.46152C93.522 3.81536 94.5372 4.79996 95.9331 4.79996C97.202 4.79996 98.3441 3.81536 98.3441 2.46152ZM104.943 2.46152C104.943 1.23075 103.927 0.123047 102.532 0.123047C101.136 0.123047 100.121 1.10767 100.121 2.46152C100.121 3.81536 101.136 4.79996 102.532 4.79996C103.801 4.79996 104.943 3.81536 104.943 2.46152ZM58.6257 8.8615C58.6257 7.63073 57.6105 6.52305 56.2147 6.52305C54.8188 6.52305 53.8037 7.50765 53.8037 8.8615C53.8037 10.2153 54.8188 11.2 56.2147 11.2C57.4836 11.2 58.6257 10.2153 58.6257 8.8615ZM71.8229 8.8615C71.8229 7.63073 70.8077 6.52305 69.4118 6.52305C68.016 6.52305 67.0008 7.50765 67.0008 8.8615C67.0008 10.2153 68.016 11.2 69.4118 11.2C70.6808 11.2 71.8229 10.2153 71.8229 8.8615ZM78.4214 8.8615C78.4214 7.63073 77.4063 6.52305 76.0104 6.52305C74.6146 6.52305 73.5994 7.50765 73.5994 8.8615C73.5994 10.2153 74.6146 11.2 76.0104 11.2C77.2794 11.2 78.4214 10.2153 78.4214 8.8615ZM85.2738 8.8615C85.2738 7.63073 84.2586 6.52305 82.8628 6.52305C81.4669 6.52305 80.4518 7.50765 80.4518 8.8615C80.4518 10.2153 81.4669 11.2 82.8628 11.2C84.1318 11.2 85.2738 10.2153 85.2738 8.8615ZM91.8724 8.8615C91.8724 7.63073 90.8572 6.52305 89.4614 6.52305C88.0655 6.52305 87.0504 7.50765 87.0504 8.8615C87.0504 10.2153 88.0655 11.2 89.4614 11.2C90.7303 11.2 91.8724 10.2153 91.8724 8.8615ZM98.471 8.8615C98.471 7.63073 97.4558 6.52305 96.06 6.52305C94.6641 6.52305 93.6489 7.50765 93.6489 8.8615C93.6489 10.2153 94.6641 11.2 96.06 11.2C97.3289 11.2 98.471 10.2153 98.471 8.8615ZM58.7526 15.2615C58.7526 14.0307 57.7374 12.9231 56.3416 12.9231C54.9457 12.9231 53.9306 13.9077 53.9306 15.2615C53.9306 16.6154 54.9457 17.6 56.3416 17.6C57.6105 17.6 58.7526 16.6154 58.7526 15.2615ZM65.3512 15.2615C65.3512 14.0307 64.336 12.9231 62.9402 12.9231C61.5443 12.9231 60.5291 13.9077 60.5291 15.2615C60.5291 16.6154 61.5443 17.6 62.9402 17.6C64.2091 17.6 65.3512 16.6154 65.3512 15.2615ZM71.9498 15.2615C71.9498 14.0307 70.9346 12.9231 69.5387 12.9231C68.1429 12.9231 67.1277 13.9077 67.1277 15.2615C67.1277 16.6154 68.1429 17.6 69.5387 17.6C70.8077 17.6 71.9498 16.6154 71.9498 15.2615ZM78.5483 15.2615C78.5483 14.0307 77.5332 12.9231 76.1373 12.9231C74.7415 12.9231 73.7263 13.9077 73.7263 15.2615C73.7263 16.6154 74.7415 17.6 76.1373 17.6C77.4063 17.6 78.5483 16.6154 78.5483 15.2615ZM85.4007 15.2615C85.4007 14.0307 84.3855 12.9231 82.9897 12.9231C81.5938 12.9231 80.5787 13.9077 80.5787 15.2615C80.5787 16.6154 81.5938 17.6 82.9897 17.6C84.2586 17.6 85.4007 16.6154 85.4007 15.2615ZM98.5979 15.2615C98.5979 14.0307 97.5827 12.9231 96.1869 12.9231C94.791 12.9231 93.7758 13.9077 93.7758 15.2615C93.7758 16.6154 94.791 17.6 96.1869 17.6C97.4558 17.6 98.5979 16.6154 98.5979 15.2615ZM105.196 15.2615C105.196 14.0307 104.181 12.9231 102.785 12.9231C101.39 12.9231 100.374 13.9077 100.374 15.2615C100.374 16.6154 101.39 17.6 102.785 17.6C104.054 17.6 105.196 16.6154 105.196 15.2615ZM58.8795 21.6615C58.8795 20.4307 57.8643 19.323 56.4685 19.323C55.0726 19.323 54.0575 20.3077 54.0575 21.6615C54.0575 23.0154 55.0726 24 56.4685 24C57.7374 24 58.8795 23.0154 58.8795 21.6615ZM72.0767 21.6615C72.0767 20.4307 71.0615 19.323 69.6656 19.323C68.2698 19.323 67.2546 20.3077 67.2546 21.6615C67.2546 23.0154 68.2698 24 69.6656 24C70.9346 24 72.0767 23.0154 72.0767 21.6615ZM78.6752 21.6615C78.6752 20.4307 77.6601 19.323 76.2642 19.323C74.8684 19.323 73.8532 20.3077 73.8532 21.6615C73.8532 23.0154 74.8684 24 76.2642 24C77.5332 24 78.6752 23.0154 78.6752 21.6615ZM85.5276 21.6615C85.5276 20.4307 84.5124 19.323 83.1166 19.323C81.7207 19.323 80.7056 20.3077 80.7056 21.6615C80.7056 23.0154 81.7207 24 83.1166 24C84.3855 24 85.5276 23.0154 85.5276 21.6615ZM92.1262 21.6615C92.1262 20.4307 91.111 19.323 89.7152 19.323C88.4462 19.323 87.3041 20.3077 87.3041 21.6615C87.3041 23.0154 88.3193 24 89.7152 24C90.9841 24 92.1262 23.0154 92.1262 21.6615ZM98.7248 21.6615C98.7248 20.4307 97.7096 19.323 96.3138 19.323C94.9179 19.323 93.9027 20.3077 93.9027 21.6615C93.9027 23.0154 94.9179 24 96.3138 24C97.5827 24 98.7248 23.0154 98.7248 21.6615ZM105.323 21.6615C105.323 20.4307 104.308 19.323 102.912 19.323C101.516 19.323 100.501 20.3077 100.501 21.6615C100.501 23.0154 101.516 24 102.912 24C104.181 24 105.323 23.0154 105.323 21.6615Z" fill="#F0B725"/>
<path d="M109.765 4.67694C108.496 4.67694 107.354 3.69231 107.354 2.33847C107.354 0.984622 108.369 0 109.765 0C111.16 0 112.176 0.984622 112.176 2.33847C112.176 3.69231 111.16 4.67694 109.765 4.67694ZM118.774 2.33847C118.774 1.1077 117.759 0 116.363 0C114.967 0 113.952 0.984622 113.952 2.33847C113.952 3.69231 114.967 4.67694 116.363 4.67694C117.632 4.67694 118.774 3.69231 118.774 2.33847ZM125.373 2.33847C125.373 1.1077 124.358 0 122.962 0C121.566 0 120.551 0.984622 120.551 2.33847C120.551 3.69231 121.566 4.67694 122.962 4.67694C124.231 4.67694 125.373 3.69231 125.373 2.33847ZM131.971 2.33847C131.971 1.1077 130.956 0 129.56 0C128.164 0 127.149 0.984622 127.149 2.33847C127.149 3.69231 128.164 4.67694 129.56 4.67694C130.829 4.67694 131.971 3.69231 131.971 2.33847ZM138.824 2.33847C138.824 1.1077 137.809 0 136.413 0C135.017 0 134.002 0.984622 134.002 2.33847C134.002 3.69231 135.017 4.67694 136.413 4.67694C137.682 4.67694 138.824 3.69231 138.824 2.33847ZM152.021 2.33847C152.021 1.1077 151.006 0 149.61 0C148.214 0 147.199 0.984622 147.199 2.33847C147.199 3.69231 148.214 4.67694 149.61 4.67694C150.879 4.67694 152.021 3.69231 152.021 2.33847ZM158.619 2.33847C158.619 1.1077 157.604 0 156.208 0C154.813 0 153.797 0.984622 153.797 2.33847C153.797 3.69231 154.813 4.67694 156.208 4.67694C157.477 4.67694 158.619 3.69231 158.619 2.33847ZM112.302 8.73847C112.302 7.50771 111.287 6.40001 109.891 6.40001C108.496 6.40001 107.48 7.38463 107.48 8.73847C107.48 10.0923 108.496 11.0769 109.891 11.0769C111.16 11.0769 112.302 10.0923 112.302 8.73847ZM125.5 8.73847C125.5 7.50771 124.484 6.40001 123.089 6.40001C121.693 6.40001 120.678 7.38463 120.678 8.73847C120.678 10.0923 121.693 11.0769 123.089 11.0769C124.358 11.0769 125.5 10.0923 125.5 8.73847ZM132.098 8.73847C132.098 7.50771 131.083 6.40001 129.687 6.40001C128.291 6.40001 127.276 7.38463 127.276 8.73847C127.276 10.0923 128.291 11.0769 129.687 11.0769C130.956 11.0769 132.098 10.0923 132.098 8.73847ZM138.951 8.73847C138.951 7.50771 137.935 6.40001 136.54 6.40001C135.144 6.40001 134.129 7.38463 134.129 8.73847C134.129 10.0923 135.144 11.0769 136.54 11.0769C137.809 11.0769 138.951 10.0923 138.951 8.73847ZM145.549 8.73847C145.549 7.50771 144.534 6.40001 143.138 6.40001C141.742 6.40001 140.727 7.38463 140.727 8.73847C140.727 10.0923 141.742 11.0769 143.138 11.0769C144.407 11.0769 145.549 10.0923 145.549 8.73847ZM152.148 8.73847C152.148 7.50771 151.133 6.40001 149.737 6.40001C148.341 6.40001 147.326 7.38463 147.326 8.73847C147.326 10.0923 148.341 11.0769 149.737 11.0769C151.006 11.0769 152.148 10.0923 152.148 8.73847ZM112.429 15.1385C112.429 13.9077 111.414 12.8 110.018 12.8C108.622 12.8 107.607 13.7846 107.607 15.1385C107.607 16.4923 108.622 17.4769 110.018 17.4769C111.287 17.4769 112.429 16.4923 112.429 15.1385ZM119.028 15.1385C119.028 13.9077 118.013 12.8 116.617 12.8C115.221 12.8 114.206 13.7846 114.206 15.1385C114.206 16.4923 115.221 17.4769 116.617 17.4769C117.886 17.4769 119.028 16.4923 119.028 15.1385ZM125.627 15.1385C125.627 13.9077 124.611 12.8 123.215 12.8C121.82 12.8 120.804 13.7846 120.804 15.1385C120.804 16.4923 121.82 17.4769 123.215 17.4769C124.484 17.4769 125.627 16.4923 125.627 15.1385ZM132.225 15.1385C132.225 13.9077 131.21 12.8 129.814 12.8C128.418 12.8 127.403 13.7846 127.403 15.1385C127.403 16.4923 128.418 17.4769 129.814 17.4769C131.083 17.4769 132.225 16.4923 132.225 15.1385ZM139.077 15.1385C139.077 13.9077 138.062 12.8 136.666 12.8C135.271 12.8 134.255 13.7846 134.255 15.1385C134.255 16.4923 135.271 17.4769 136.666 17.4769C137.935 17.4769 139.077 16.4923 139.077 15.1385ZM152.275 15.1385C152.275 13.9077 151.259 12.8 149.864 12.8C148.468 12.8 147.453 13.7846 147.453 15.1385C147.453 16.4923 148.468 17.4769 149.864 17.4769C151.133 17.4769 152.275 16.4923 152.275 15.1385ZM158.873 15.1385C158.873 13.9077 157.858 12.8 156.462 12.8C155.066 12.8 154.051 13.7846 154.051 15.1385C154.051 16.4923 155.066 17.4769 156.462 17.4769C157.731 17.4769 158.873 16.4923 158.873 15.1385ZM112.556 21.5385C112.556 20.3077 111.541 19.2 110.145 19.2C108.749 19.2 107.734 20.1846 107.734 21.5385C107.734 22.8923 108.749 23.8769 110.145 23.8769C111.414 23.8769 112.556 22.8923 112.556 21.5385ZM125.753 21.5385C125.753 20.3077 124.738 19.2 123.342 19.2C121.947 19.2 120.931 20.1846 120.931 21.5385C120.931 22.8923 121.947 23.8769 123.342 23.8769C124.611 23.8769 125.753 22.8923 125.753 21.5385ZM132.352 21.5385C132.352 20.3077 131.337 19.2 129.941 19.2C128.545 19.2 127.53 20.1846 127.53 21.5385C127.53 22.8923 128.545 23.8769 129.941 23.8769C131.21 23.8769 132.352 22.8923 132.352 21.5385ZM139.204 21.5385C139.204 20.3077 138.189 19.2 136.793 19.2C135.397 19.2 134.382 20.1846 134.382 21.5385C134.382 22.8923 135.397 23.8769 136.793 23.8769C138.062 23.8769 139.204 22.8923 139.204 21.5385ZM145.803 21.5385C145.803 20.3077 144.788 19.2 143.392 19.2C142.123 19.2 140.981 20.1846 140.981 21.5385C140.981 22.8923 141.996 23.8769 143.392 23.8769C144.661 23.8769 145.803 22.8923 145.803 21.5385ZM152.402 21.5385C152.402 20.3077 151.386 19.2 149.991 19.2C148.595 19.2 147.579 20.1846 147.579 21.5385C147.579 22.8923 148.595 23.8769 149.991 23.8769C151.259 23.8769 152.402 22.8923 152.402 21.5385ZM159 21.5385C159 20.3077 157.985 19.2 156.589 19.2C155.193 19.2 154.178 20.1846 154.178 21.5385C154.178 22.8923 155.193 23.8769 156.589 23.8769C157.858 23.8769 159 22.8923 159 21.5385Z" fill="#F0B725"/>
</svg>
